<?xml version="1.0" encoding="UTF-8"?>
<svg id="Capa_1" data-name="Capa 1" xmlns="http://www.w3.org/2000/svg" version="1.1" viewBox="0 0 40 40">
  <defs>
    <style>
      .cls-1 {
        fill: #fff;
      }

      .cls-1, .cls-2 {
        stroke-width: 0px;
      }

      .cls-2 {
        fill: #fac85c;
      }
    </style>
  </defs>
  <path class="cls-1" d="M23.7,37.7h-7.8c-2.7,0-5.1-1.1-6.8-2.8-1.7-1.7-2.8-4.1-2.8-6.8v-4.8l-2.6-1.3c-.5-.3-1-.7-1.3-1.2-.3-.5-.4-1.1-.4-1.7,0-.8.4-1.4.9-1.9.5-.5,1.2-.8,2-.7h1.8s0,0,.2,0h25.7s0,0,.1,0h1.6c.8,0,1.4.3,2,.7.5.5.9,1.1.9,1.9,0,.6,0,1.2-.4,1.7-.3.5-.7.9-1.3,1.2l-2.3,1.2v4.9c0,5.3-4.3,9.6-9.6,9.6h0ZM15.8,36.3h7.8c4.6,0,8.3-3.7,8.3-8.3v-10.2H7.6v10.2c0,2.3.9,4.4,2.4,5.9,1.5,1.5,3.6,2.4,5.9,2.4ZM4.2,20.8l2,1v-4c-.3,0-.8,0-1.3,0-.4,0-.8.2-1.1.4-.3.3-.5.6-.5,1,0,.3,0,.6.2.9.2.3.4.5.7.6h0ZM33.3,21.7l1.8-.9c.3-.1.5-.4.7-.6.2-.3.2-.6.2-.9,0-.4-.2-.8-.5-1-.3-.3-.7-.4-1.1-.4h-1v3.9ZM29.6,24c0-.4.3-.7.7-.7s.7.3.7.7v.2c0,.4-.3.7-.7.7s-.7-.3-.7-.7v-.2ZM30.9,28.2c0,2-.8,3.7-2.1,5-1.3,1.3-3.1,2.1-5,2.1s-.7-.3-.7-.7.3-.7.7-.7c1.6,0,3-.6,4.1-1.7,1-1,1.7-2.5,1.7-4.1v-2.1c0-.4.3-.7.7-.7s.7.3.7.7v2.1Z"/>
  <path class="cls-2" d="M33.7,12.3S9.9,4.2,9.9,4.2c.5-.3.7-.4.9-.4,3.3-1.5,7.8-.7,11.2.3,2.1.6,4.1,1.4,6,2.4,1.3.7,2.6,1.4,3.7,2.4.9.8,1.8,2.1,2.1,3.4h0Z"/>
  <path class="cls-1" d="M24.7,4.6c-.3,1-1.5,1.6-2.5,1.2-1-.3-1.6-1.5-1.2-2.5.3-1,1.5-1.6,2.5-1.2,1,.3,1.6,1.5,1.2,2.5h0Z"/>
  <path class="cls-1" d="M8.4,13.9c0,.4-.3.7-.7.7s-.7-.3-.7-.7v-4.9c0-.4.3-.7.7-.7s.7.3.7.7v4.9ZM15.1,13.9c0,.4-.3.7-.7.7s-.7-.3-.7-.7v-3.9c0-.4.3-.7.7-.7s.7.3.7.7v3.9ZM11.6,13.9c0,.4-.3.7-.7.7s-.7-.3-.7-.7v-2.8c0-.4.3-.7.7-.7s.7.3.7.7v2.8ZM32.7,14.1L8.9,6.1c-.4-.1-.5-.5-.4-.8,0-.2.2-.3.3-.4l.6-.3c.1,0,.3-.1.3-.2,1.8-.8,3.8-1,5.9-.8,2,.1,4,.6,5.7,1.1,1.1.3,2.1.7,3.2,1.1,1,.4,2,.9,3,1.4.7.4,1.3.7,1.9,1.1h0c.6.4,1.2.9,1.8,1.4.5.5,1,1.1,1.5,1.7.4.6.7,1.3.9,2,0,.4-.1.7-.5.8-.1,0-.3,0-.4,0h0ZM10.9,5.3l20.9,7c0-.1-.1-.2-.2-.3-.4-.6-.8-1.1-1.2-1.4-.5-.4-1.1-.8-1.7-1.2h0c-.6-.4-1.2-.8-1.9-1.1-.9-.5-1.9-.9-2.8-1.3-1-.4-2-.7-3-1-1.6-.5-3.6-.9-5.5-1-1.6-.1-3.2,0-4.6.5h0Z"/>
</svg>