<svg width="266" height="89" viewBox="0 0 266 89" fill="none" xmlns="http://www.w3.org/2000/svg">
<path d="M53.8953 88.6709H34.4246C27.8225 88.6709 21.845 85.9943 17.5185 81.6683C13.1925 77.3417 10.5158 71.3643 10.5158 64.7627V52.8955L4.05744 49.721C2.70035 49.0541 1.62122 48.003 0.918894 46.7453C0.217623 45.488 -0.110025 44.021 0.0337171 42.5218C0.213395 40.6489 1.09276 38.9996 2.39384 37.8258C3.69227 36.6537 5.41877 35.9503 7.2964 35.9625L11.8037 35.9984C11.9252 35.9704 12.052 35.9551 12.1826 35.9551H76.1373C76.2567 35.9551 76.3735 35.9678 76.4855 35.9915L80.4009 35.9619C82.278 35.9498 84.0045 36.6527 85.3035 37.8253C86.6046 38.999 87.4834 40.6478 87.6636 42.5212C87.8074 44.0205 87.4797 45.488 86.7779 46.7447C86.0756 48.003 84.9965 49.0546 83.6399 49.721L77.8035 52.5895V64.7622C77.8035 77.9664 67.099 88.6704 53.8948 88.6704L53.8953 88.6709ZM34.4246 85.3374H53.8953C65.2589 85.3374 74.4705 76.1257 74.4705 64.7627V39.2886H13.8494V64.7627C13.8494 70.4442 16.1524 75.5883 19.8754 79.3118C23.5985 83.0349 28.7431 85.3379 34.4246 85.3379V85.3374ZM5.51547 46.74L10.5158 49.1979V39.3124C9.73896 39.3029 8.62284 39.2907 7.28371 39.2823C6.26801 39.2759 5.32893 39.6596 4.62026 40.2996C3.91423 40.9364 3.43703 41.8268 3.34084 42.8336C3.26263 43.649 3.44125 44.447 3.82228 45.1303C4.20277 45.812 4.78567 46.3811 5.51547 46.7394V46.74ZM77.8041 48.8919L82.1824 46.74C82.9117 46.3817 83.4946 45.8125 83.8751 45.1303C84.2566 44.4464 84.4352 43.649 84.357 42.8341C84.2603 41.8274 83.7836 40.9369 83.0776 40.3001C82.3689 39.6601 81.4304 39.2765 80.4141 39.2828L77.8041 39.3061V48.8929V48.8919ZM68.5094 54.6225C68.5094 53.7025 69.2556 52.9558 70.1762 52.9558C71.0963 52.9558 71.843 53.702 71.843 54.6225V55.0268C71.843 55.9469 71.0968 56.6936 70.1762 56.6936C69.2562 56.6936 68.5094 55.9474 68.5094 55.0268V54.6225ZM71.843 65.0132C71.843 69.8973 69.8634 74.3189 66.6625 77.5198C63.4616 80.7207 59.0394 82.7004 54.1558 82.7004C53.2358 82.7004 52.4891 81.9542 52.4891 81.0336C52.4891 80.1135 53.2352 79.3668 54.1558 79.3668C58.1193 79.3668 61.7086 77.7603 64.3055 75.1629C66.9029 72.5655 68.5094 68.9767 68.5094 65.0132V59.6821C68.5094 58.762 69.2556 58.0153 70.1762 58.0153C71.0963 58.0153 71.843 58.7615 71.843 59.6821V65.0132Z" fill="#211219"/>
<path d="M78.8107 25.5011C78.8107 25.5011 19.5968 5.50615 19.5598 5.49399C20.7726 4.84821 21.3962 4.51792 21.6827 4.3858C29.8775 0.611514 41.1529 2.70793 49.4677 5.08073C54.6324 6.55409 59.6454 8.57811 64.3614 11.1501C67.557 12.893 70.7505 14.7284 73.5054 17.1292C75.7514 19.0871 78.0476 22.4434 78.8101 25.5016L78.8107 25.5011Z" fill="#FAC85C"/>
<path d="M56.3088 6.47439C55.4421 9.04061 52.6592 10.4183 50.093 9.55216C47.5273 8.68548 46.149 5.90259 47.0157 3.33637C47.8824 0.770676 50.6653 -0.607558 53.2315 0.259123C55.7972 1.12528 57.1754 3.90817 56.3088 6.47439Z" fill="#211219"/>
<path d="M15.8738 29.5269C15.8738 30.447 15.1276 31.1937 14.2071 31.1937C13.287 31.1937 12.5403 30.4475 12.5403 29.5269V17.3759C12.5403 16.4559 13.2865 15.7092 14.2071 15.7092C15.1271 15.7092 15.8738 16.4553 15.8738 17.3759V29.5269ZM32.4692 29.5269C32.4692 30.447 31.723 31.1937 30.8024 31.1937C29.8824 31.1937 29.1356 30.4475 29.1356 29.5269V19.8042C29.1356 18.8842 29.8818 18.1374 30.8024 18.1374C31.7225 18.1374 32.4692 18.8836 32.4692 19.8042V29.5269ZM23.9688 29.5269C23.9688 30.447 23.2227 31.1937 22.3021 31.1937C21.382 31.1937 20.6353 30.4475 20.6353 29.5269V22.6326C20.6353 21.7125 21.3815 20.9658 22.3021 20.9658C23.2221 20.9658 23.9688 21.712 23.9688 22.6326V29.5269ZM76.301 30.0887L17.121 10.1043C16.2512 9.81308 15.7819 8.87136 16.0731 8.00151C16.2189 7.56552 16.5291 7.22995 16.9112 7.04023L18.2889 6.31095C18.6594 6.117 18.9104 5.98912 19.0763 5.91302C23.461 3.89111 28.6056 3.43769 33.7364 3.80392C38.7595 4.16222 43.7693 5.3037 48.0134 6.51441C50.6716 7.27276 53.2923 8.17537 55.8548 9.21962C58.3586 10.2396 60.8287 11.4096 63.2453 12.7276C64.9058 13.6328 66.5541 14.555 68.0803 15.5215L68.1685 15.5818C69.7412 16.5822 71.2648 17.6729 72.689 18.9148C73.9774 20.0383 75.2695 21.5598 76.3201 23.2176C77.3051 24.7728 78.1015 26.4819 78.5143 28.1402C78.7336 29.0317 78.1887 29.9328 77.2967 30.1521C76.9532 30.2366 76.6081 30.207 76.301 30.0892V30.0887ZM22.0981 8.27842L73.9837 25.7991C73.8326 25.5307 73.673 25.2638 73.5065 25.0011C72.6139 23.5923 71.5443 22.3245 70.5006 21.4139C69.2239 20.301 67.834 19.3085 66.386 18.3874L66.2951 18.334C64.7377 17.3474 63.1899 16.4797 61.6557 15.6436C59.3928 14.4097 57.0354 13.2957 54.6034 12.3048C52.1529 11.306 49.6459 10.4435 47.1008 9.7169C43.0295 8.55587 38.2437 7.46195 33.5013 7.12373C29.5114 6.83889 25.5521 7.08462 22.0976 8.27842H22.0981Z" fill="#211219"/>
<path d="M104.999 43.5488V20.276H114.181C115.938 20.276 117.438 20.5904 118.681 21.2192C119.931 21.8404 120.882 22.723 121.533 23.867C122.192 25.0033 122.522 26.3405 122.522 27.8783C122.522 29.4238 122.188 30.7533 121.522 31.867C120.855 32.973 119.889 33.8215 118.624 34.4124C117.367 35.0034 115.844 35.2988 114.056 35.2988H107.908V31.3443H113.26C114.2 31.3443 114.98 31.2155 115.601 30.9579C116.223 30.7003 116.685 30.3139 116.988 29.7988C117.298 29.2836 117.454 28.6435 117.454 27.8783C117.454 27.1056 117.298 26.4541 116.988 25.9238C116.685 25.3935 116.219 24.992 115.59 24.7192C114.969 24.4389 114.185 24.2988 113.238 24.2988H109.92V43.5488H104.999ZM117.567 32.9579L123.351 43.5488H117.92L112.26 32.9579H117.567ZM125.999 43.5488V20.276H141.681V24.3329H130.92V29.8783H140.874V33.9352H130.92V39.492H141.726V43.5488H125.999ZM166.127 28.4238H161.15C161.059 27.7798 160.873 27.2079 160.593 26.7079C160.313 26.2003 159.953 25.7685 159.513 25.4124C159.074 25.0564 158.566 24.7836 157.991 24.5942C157.422 24.4048 156.805 24.3101 156.138 24.3101C154.934 24.3101 153.885 24.6094 152.991 25.2079C152.097 25.7988 151.404 26.6624 150.911 27.7988C150.419 28.9276 150.172 30.2988 150.172 31.9124C150.172 33.5715 150.419 34.9655 150.911 36.0943C151.411 37.2231 152.108 38.0753 153.002 38.6511C153.896 39.2268 154.93 39.5147 156.104 39.5147C156.763 39.5147 157.373 39.4276 157.934 39.2534C158.502 39.0791 159.006 38.8253 159.445 38.492C159.885 38.1511 160.248 37.7382 160.536 37.2534C160.832 36.7685 161.036 36.2155 161.15 35.5943L166.127 35.617C165.998 36.6852 165.676 37.7155 165.161 38.7079C164.654 39.6928 163.968 40.5753 163.104 41.3556C162.248 42.1284 161.226 42.742 160.036 43.1966C158.854 43.6435 157.517 43.867 156.025 43.867C153.949 43.867 152.093 43.3973 150.457 42.4579C148.828 41.5185 147.54 40.1587 146.593 38.3784C145.654 36.5981 145.184 34.4427 145.184 31.9124C145.184 29.3745 145.661 27.2155 146.616 25.4351C147.57 23.6548 148.866 22.2988 150.502 21.367C152.138 20.4276 153.979 19.9579 156.025 19.9579C157.373 19.9579 158.623 20.1473 159.775 20.526C160.934 20.9048 161.96 21.4579 162.854 22.1851C163.748 22.9048 164.476 23.7874 165.036 24.8329C165.604 25.8783 165.968 27.0753 166.127 28.4238ZM169.655 43.5488V20.276H185.337V24.3329H174.576V29.8783H184.531V33.9352H174.576V39.492H185.383V43.5488H169.655ZM188.363 24.3329V20.276H207.477V24.3329H200.352V43.5488H195.488V24.3329H188.363Z" fill="#211219"/>
<path d="M206.497 43.2285H201.224L209.258 19.9557H215.599L223.622 43.2285H218.349L212.519 25.2739H212.338L206.497 43.2285ZM206.167 34.0808H218.622V37.9217H206.167V34.0808ZM226.423 43.2285V19.9557H235.605C237.37 19.9557 238.874 20.2929 240.116 20.9671C241.359 21.6338 242.306 22.5618 242.957 23.7512C243.616 24.933 243.946 26.2967 243.946 27.8421C243.946 29.3876 243.612 30.7512 242.946 31.933C242.279 33.1149 241.313 34.0353 240.048 34.6944C238.79 35.3535 237.268 35.683 235.48 35.683H229.627V31.7398H234.684C235.631 31.7398 236.412 31.577 237.025 31.2512C237.646 30.9179 238.109 30.4595 238.412 29.8762C238.722 29.2853 238.878 28.6073 238.878 27.8421C238.878 27.0694 238.722 26.3951 238.412 25.8194C238.109 25.236 237.646 24.7853 237.025 24.4671C236.404 24.1413 235.616 23.9785 234.662 23.9785H231.343V43.2285H226.423ZM247.142 43.2285V19.9557H256.324C258.089 19.9557 259.593 20.2929 260.835 20.9671C262.077 21.6338 263.024 22.5618 263.676 23.7512C264.335 24.933 264.665 26.2967 264.665 27.8421C264.665 29.3876 264.331 30.7512 263.665 31.933C262.998 33.1149 262.032 34.0353 260.767 34.6944C259.509 35.3535 257.986 35.683 256.199 35.683H250.346V31.7398H255.403C256.35 31.7398 257.13 31.577 257.744 31.2512C258.365 30.9179 258.827 30.4595 259.13 29.8762C259.441 29.2853 259.596 28.6073 259.596 27.8421C259.596 27.0694 259.441 26.3951 259.13 25.8194C258.827 25.236 258.365 24.7853 257.744 24.4671C257.123 24.1413 256.335 23.9785 255.38 23.9785H252.062V43.2285H247.142Z" fill="#FAC85C"/>
<path d="M105.807 62.6854H109.167C110.031 62.6854 110.701 62.475 111.178 62.0581C111.651 61.6406 111.891 61.0498 111.891 60.2877V56.1684C111.891 55.4063 111.651 54.8155 111.178 54.398C110.701 53.9805 110.031 53.7739 109.167 53.7739H105.807V51.2314H109.108C110.274 51.2314 111.273 51.4286 112.097 51.8196C112.921 52.2107 113.545 52.782 113.975 53.5308C114.406 54.2828 114.622 55.1865 114.622 56.2471V60.2116C114.622 61.2168 114.416 62.0967 114.002 62.846C113.588 63.598 112.967 64.183 112.14 64.6C111.312 65.017 110.297 65.2241 109.098 65.2241H105.806V62.6848L105.807 62.6854ZM104.48 51.2314H107.114V65.2241H104.48V51.2314Z" fill="#211219"/>
<path d="M121.505 65.3684C120.543 65.3684 119.718 65.1945 119.035 64.8431C118.352 64.4948 117.833 63.9859 117.471 63.3121C117.113 62.642 116.932 61.8372 116.932 60.8944V59.7683C116.932 58.7795 117.107 57.935 117.448 57.2359C117.79 56.5362 118.292 56.004 118.949 55.6394C119.606 55.2747 120.401 55.0908 121.331 55.0908C122.205 55.0908 122.95 55.3075 123.574 55.7445C124.195 56.1816 124.668 56.8152 124.993 57.6465C125.318 58.4777 125.48 59.4797 125.48 60.6518V61.3093H118.648V59.5289H123.072L123.046 59.2958C122.974 58.7208 122.793 58.2743 122.501 57.9588C122.208 57.6438 121.82 57.489 121.331 57.489C120.697 57.489 120.205 57.6761 119.853 58.0539C119.505 58.4349 119.331 58.9703 119.331 59.6631V60.9309C119.331 61.611 119.522 62.1395 119.903 62.5105C120.284 62.8814 120.819 63.069 121.505 63.069C121.857 63.069 122.208 63.0067 122.553 62.8814C122.902 62.7567 123.213 62.576 123.496 62.3461L125.221 63.8771C124.702 64.35 124.117 64.7179 123.47 64.9773C122.819 65.2368 122.166 65.3684 121.505 65.3684H121.505Z" fill="#211219"/>
<path d="M130.426 61.9233C130.426 62.1664 130.495 62.3535 130.633 62.4883C130.771 62.6193 130.968 62.6854 131.224 62.6854H131.668V65.2246H130.321C129.52 65.2246 128.895 64.9948 128.452 64.5313C128.012 64.0684 127.788 63.4178 127.788 62.577V51.2314H130.426V61.9233Z" fill="#211219"/>
<path d="M133.349 51.2314H135.987V53.869H133.349V51.2314ZM133.349 55.2356H135.987V65.2246H133.349V55.2356Z" fill="#211219"/>
<path d="M142.665 65.3688C141.716 65.3688 140.904 65.1881 140.228 64.824C139.551 64.4625 139.036 63.9341 138.681 63.2407C138.33 62.5511 138.152 61.7166 138.152 60.7411V59.6736C138.152 58.7049 138.33 57.8773 138.681 57.194C139.036 56.5107 139.551 55.9886 140.228 55.6303C140.904 55.2725 141.716 55.0918 142.665 55.0918C143.21 55.0918 143.726 55.1542 144.212 55.2789C144.695 55.4036 145.128 55.5843 145.513 55.8242C145.9 56.061 146.219 56.3495 146.475 56.6883L144.774 58.344C144.531 58.1204 144.245 57.9466 143.917 57.8218C143.591 57.6971 143.246 57.6316 142.889 57.6316C142.222 57.6316 141.703 57.8123 141.338 58.1669C140.974 58.5221 140.79 59.0246 140.79 59.6746V60.7421C140.79 61.4091 140.974 61.9248 141.338 62.2863C141.702 62.6478 142.221 62.8311 142.889 62.8311C143.253 62.8311 143.598 62.7624 143.927 62.6277C144.255 62.4929 144.538 62.299 144.774 62.0496L146.475 63.8004C146.213 64.1354 145.891 64.4181 145.506 64.6543C145.119 64.8874 144.688 65.065 144.206 65.1865C143.726 65.3081 143.21 65.3704 142.665 65.3704V65.3688Z" fill="#211219"/>
<path d="M148.111 51.2314H150.748V53.869H148.111V51.2314ZM148.111 55.2356H150.748V65.2246H148.111V55.2356Z" fill="#211219"/>
<path d="M158.697 58.8915C158.697 58.4318 158.543 58.0735 158.234 57.824C157.928 57.5741 157.492 57.4494 156.927 57.4494C156.556 57.4494 156.184 57.5085 155.82 57.6301C155.455 57.7548 155.13 57.9223 154.847 58.1427L153.212 56.533C153.609 56.0796 154.134 55.725 154.792 55.4718C155.445 55.2192 156.168 55.0908 156.966 55.0908C157.836 55.0908 158.582 55.2351 159.196 55.5279C159.814 55.8201 160.283 56.2439 160.608 56.7988C160.93 57.3542 161.095 58.0243 161.095 58.8059V65.2241H158.697V58.891V58.8915ZM155.915 65.3689C154.844 65.3689 154.045 65.1131 153.513 64.6037C152.984 64.0948 152.722 63.3195 152.722 62.2816C152.722 61.2929 153.018 60.5504 153.612 60.0579C154.203 59.5622 155.093 59.3154 156.282 59.3154H158.782L158.917 61.3256H156.293C155.892 61.3256 155.597 61.4044 155.396 61.5624C155.199 61.7199 155.097 61.9598 155.097 62.2816C155.097 62.6066 155.222 62.8503 155.474 63.0077C155.724 63.1652 156.102 63.2408 156.608 63.2408C157.314 63.2408 157.84 63.1621 158.181 63.0009C158.526 62.8397 158.697 62.5903 158.697 62.252L158.9 63.7037C158.861 64.0615 158.697 64.3675 158.405 64.6169C158.112 64.8695 157.745 65.0571 157.308 65.1818C156.867 65.3066 156.405 65.3689 155.915 65.3689H155.915Z" fill="#211219"/>
<path d="M167.51 65.3683C166.916 65.3683 166.334 65.316 165.77 65.2108C165.205 65.1025 164.676 64.9482 164.183 64.7442C163.687 64.5376 163.25 64.2908 162.873 64.0017L164.499 61.9719C164.982 62.2805 165.484 62.5172 166.01 62.6848C166.535 62.8491 167.037 62.9342 167.511 62.9342C168.129 62.9342 168.605 62.8655 168.946 62.7276C169.284 62.5896 169.455 62.3994 169.455 62.1526C169.455 61.9291 169.383 61.7584 169.235 61.6437C169.087 61.529 168.897 61.4466 168.667 61.3974C168.434 61.3514 168.111 61.3092 167.694 61.2695C167.58 61.2563 167.461 61.2436 167.343 61.2304C167.225 61.2172 167.103 61.204 166.981 61.1913C166.955 61.1882 166.929 61.1813 166.899 61.1781C166.87 61.1749 166.843 61.1749 166.818 61.1749C166.075 61.0761 165.477 60.9583 165.027 60.8172C164.581 60.6761 164.2 60.4066 163.888 60.0055C163.575 59.6049 163.421 59.0204 163.421 58.2584C163.421 57.5914 163.582 57.0196 163.904 56.5435C164.222 56.0705 164.688 55.7096 165.296 55.4628C165.907 55.2165 166.646 55.0918 167.51 55.0918C168.019 55.0918 168.522 55.1441 169.028 55.2461C169.53 55.3481 170.013 55.4961 170.476 55.69C170.936 55.8803 171.363 56.1138 171.753 56.3828L170.187 58.298C169.75 58.0517 169.293 57.8646 168.82 57.7299C168.344 57.5951 167.888 57.5264 167.454 57.5264C166.922 57.5264 166.508 57.5888 166.213 57.7103C165.918 57.8319 165.77 58.0031 165.77 58.2192C165.77 58.3873 165.848 58.5184 166.006 58.6103C166.163 58.7023 166.357 58.7715 166.59 58.8106C166.827 58.8534 167.168 58.8989 167.616 58.9517C167.675 58.958 167.734 58.9644 167.789 58.9713C167.849 58.9776 167.905 58.9839 167.964 58.9908C167.99 58.9971 168.02 58.9971 168.049 58.9971C168.082 58.9971 168.112 59.0003 168.138 59.0072C168.913 59.0997 169.544 59.2143 170.033 59.3554C170.519 59.4965 170.936 59.7793 171.278 60.2031C171.623 60.6269 171.794 61.2473 171.794 62.0686C171.794 62.7619 171.626 63.3564 171.295 63.849C170.96 64.3415 170.473 64.7194 169.829 64.9788C169.189 65.2383 168.417 65.3699 167.51 65.3699V65.3683Z" fill="#211219"/>
<path d="M182.665 51.2314H185.303V65.2241H182.665V51.2314ZM180.347 65.3689C179.641 65.3689 179.036 65.1982 178.53 64.86C178.028 64.5181 177.643 64.0261 177.38 63.3819C177.118 62.7382 176.986 61.9598 176.986 61.0498V59.4501C176.986 58.5338 177.118 57.7485 177.38 57.0916C177.643 56.4379 178.027 55.9422 178.53 55.6008C179.037 55.2626 179.641 55.0919 180.347 55.0919C180.879 55.0919 181.365 55.2494 181.805 55.568C182.242 55.8867 182.597 56.3369 182.866 56.9214L182.666 59.1352C182.666 58.7932 182.607 58.5047 182.492 58.2679C182.377 58.0312 182.209 57.8473 181.986 57.7226C181.766 57.5979 181.497 57.5355 181.184 57.5355C180.688 57.5355 180.307 57.703 180.035 58.0412C179.762 58.3795 179.624 58.853 179.624 59.4607V61.0503C179.624 61.6448 179.762 62.1078 180.035 62.4333C180.307 62.7615 180.688 62.9258 181.184 62.9258C181.497 62.9258 181.766 62.8635 181.986 62.7419C182.209 62.6204 182.377 62.4428 182.492 62.2129C182.606 61.9825 182.666 61.7035 182.666 61.3748L182.801 63.6546C182.594 64.1994 182.282 64.6238 181.858 64.9224C181.434 65.2215 180.928 65.3689 180.347 65.3689H180.347Z" fill="#211219"/>
<path d="M192.182 65.3684C191.219 65.3684 190.395 65.1945 189.712 64.8431C189.028 64.4948 188.509 63.9859 188.148 63.3121C187.79 62.642 187.609 61.8372 187.609 60.8944V59.7683C187.609 58.7795 187.783 57.935 188.125 57.2359C188.467 56.5362 188.969 56.004 189.626 55.6394C190.283 55.2747 191.078 55.0908 192.007 55.0908C192.881 55.0908 193.627 55.3075 194.251 55.7445C194.872 56.1816 195.345 56.8152 195.67 57.6465C195.995 58.4777 196.156 59.4797 196.156 60.6518V61.3093H189.324V59.5289H193.749L193.723 59.2958C193.65 58.7208 193.47 58.2743 193.177 57.9588C192.885 57.6438 192.497 57.489 192.008 57.489C191.374 57.489 190.882 57.6761 190.53 58.0539C190.182 58.4349 190.008 58.9703 190.008 59.6631V60.9309C190.008 61.611 190.198 62.1395 190.579 62.5105C190.96 62.8814 191.496 63.069 192.182 63.069C192.534 63.069 192.885 63.0067 193.23 62.8814C193.578 62.7567 193.89 62.576 194.173 62.3461L195.897 63.8771C195.378 64.35 194.794 64.7179 194.147 64.9773C193.496 65.2368 192.843 65.3684 192.182 65.3684H192.182Z" fill="#211219"/>
<path d="M201.103 61.9233C201.103 62.1664 201.171 62.3535 201.31 62.4883C201.448 62.6193 201.645 62.6854 201.901 62.6854H202.345V65.2246H200.998C200.196 65.2246 199.572 64.9948 199.129 64.5313C198.689 64.0684 198.465 63.4178 198.465 62.577V51.2314H201.103V61.9233Z" fill="#211219"/>
<path d="M219.181 59.4592C219.181 58.8747 219.043 58.4245 218.764 58.1058C218.485 57.7908 218.087 57.6296 217.575 57.6296C217.069 57.6296 216.678 57.784 216.405 58.0894C216.133 58.3912 215.995 58.825 215.995 59.3836L215.505 57.0742C215.821 56.4369 216.228 55.9475 216.731 55.6056C217.237 55.2611 217.795 55.0898 218.413 55.0898C219.129 55.0898 219.743 55.2605 220.256 55.5988C220.765 55.9407 221.152 56.4364 221.419 57.0896C221.685 57.747 221.819 58.5317 221.819 59.4481V65.2226H219.182V59.4581L219.181 59.4592ZM207.537 55.2346H210.175V65.2237H207.537V55.2346ZM213.361 59.4592C213.361 58.8747 213.217 58.4245 212.927 58.1058C212.638 57.7908 212.231 57.6296 211.706 57.6296C211.216 57.6296 210.842 57.7676 210.573 58.0403C210.307 58.3129 210.175 58.6971 210.175 59.1902L209.972 56.9759C210.267 56.3619 210.639 55.8921 211.079 55.5734C211.522 55.2516 212.041 55.0909 212.639 55.0909C213.345 55.0909 213.949 55.2616 214.452 55.5998C214.955 55.9417 215.339 56.4374 215.602 57.0906C215.865 57.748 215.996 58.5328 215.996 59.4491V65.2237H213.362V59.4592H213.361Z" fill="#211219"/>
<path d="M230.152 55.2354H232.78V65.2244H230.152V55.2354ZM227.055 61.309C227.055 61.7883 227.19 62.163 227.462 62.4288C227.735 62.6946 228.119 62.8294 228.615 62.8294C229.108 62.8294 229.489 62.6915 229.755 62.4188C230.021 62.1461 230.152 61.755 230.152 61.2493L230.287 63.4334C230.103 63.9788 229.791 64.4386 229.361 64.8101C228.927 65.181 228.398 65.3681 227.777 65.3681C226.703 65.3681 225.875 65.0236 225.294 64.3339C224.71 63.6443 224.417 62.6687 224.417 61.4041V55.2354H227.054V61.309H227.055Z" fill="#211219"/>
<path d="M235.378 55.2351H238.016V65.2241H235.378V55.2351ZM241.153 59.1706C241.153 58.6844 241.012 58.3065 240.735 58.037C240.456 57.7643 240.059 57.6301 239.546 57.6301C239.057 57.6301 238.682 57.768 238.413 58.0407C238.147 58.3134 238.016 58.6976 238.016 59.1906L237.812 56.9764C238.115 56.3491 238.476 55.8761 238.896 55.5638C239.317 55.2488 239.846 55.0908 240.48 55.0908C241.531 55.0908 242.345 55.4454 242.923 56.1551C243.501 56.8643 243.79 57.8663 243.79 59.1605V65.2241H241.153V59.1706Z" fill="#211219"/>
<path d="M251.779 51.2314H254.417V65.2241H251.779V51.2314ZM249.46 65.3689C248.754 65.3689 248.15 65.1982 247.644 64.86C247.141 64.5181 246.757 64.0261 246.494 63.3819C246.231 62.7382 246.1 61.9598 246.1 61.0498V59.4501C246.1 58.5338 246.231 57.7485 246.494 57.0916C246.757 56.4379 247.141 55.9422 247.644 55.6008C248.15 55.2626 248.754 55.0919 249.46 55.0919C249.992 55.0919 250.479 55.2494 250.919 55.568C251.356 55.8867 251.71 56.3369 251.98 56.9214L251.78 59.1352C251.78 58.7932 251.72 58.5047 251.605 58.2679C251.491 58.0312 251.323 57.8473 251.1 57.7226C250.88 57.5979 250.61 57.5355 250.298 57.5355C249.802 57.5355 249.421 57.703 249.148 58.0412C248.876 58.3795 248.738 58.853 248.738 59.4607V61.0503C248.738 61.6448 248.876 62.1078 249.148 62.4333C249.421 62.7615 249.802 62.9258 250.298 62.9258C250.61 62.9258 250.88 62.8635 251.1 62.7419C251.323 62.6204 251.491 62.4428 251.605 62.2129C251.72 61.9825 251.78 61.7035 251.78 61.3748L251.914 63.6546C251.708 64.1994 251.395 64.6238 250.972 64.9224C250.548 65.2215 250.042 65.3689 249.461 65.3689H249.46Z" fill="#211219"/>
<path d="M261.036 65.3689C260.122 65.3689 259.347 65.1982 258.7 64.86C258.056 64.5181 257.567 64.0224 257.229 63.3719C256.894 62.7218 256.722 61.9365 256.722 61.0202V59.3941C256.722 58.4873 256.893 57.712 257.229 57.0683C257.567 56.4241 258.056 55.9316 258.7 55.5966C259.347 55.2583 260.122 55.0908 261.036 55.0908C261.945 55.0908 262.724 55.2583 263.368 55.5966C264.015 55.9316 264.505 56.4241 264.839 57.0683C265.178 57.712 265.345 58.4873 265.345 59.3941V61.0498C265.345 61.9593 265.178 62.7382 264.839 63.3819C264.504 64.0261 264.015 64.5186 263.368 64.86C262.724 65.1982 261.946 65.3689 261.036 65.3689ZM261.026 62.8296C261.558 62.8296 261.972 62.6722 262.268 62.3604C262.563 62.0518 262.711 61.611 262.711 61.0498V59.3941C262.711 58.8355 262.563 58.4022 262.268 58.093C261.972 57.7844 261.558 57.6301 261.026 57.6301C260.5 57.6301 260.09 57.7844 259.798 58.093C259.505 58.4016 259.361 58.8355 259.361 59.3941V61.0498C259.361 61.6115 259.505 62.0518 259.794 62.3604C260.083 62.6722 260.494 62.8296 261.026 62.8296Z" fill="#211219"/>
</svg>
