<svg width="40" height="40" viewBox="0 0 40 40" fill="none" xmlns="http://www.w3.org/2000/svg">
<path d="M23.6798 37.6702H15.8476C13.1916 37.6702 10.7872 36.5935 9.04698 34.8532C7.30676 33.113 6.23007 30.708 6.23007 28.0526V23.2786L3.63198 22.0018C3.08623 21.7334 2.65182 21.3106 2.36929 20.8047C2.08741 20.2989 1.95548 19.7087 2.0134 19.1057C2.08548 18.3521 2.43944 17.6886 2.96266 17.2168C3.48524 16.7451 4.17966 16.4626 4.93456 16.4671L6.7475 16.4812C6.79641 16.4703 6.84725 16.4639 6.90003 16.4639H32.6274C32.6757 16.4639 32.7226 16.469 32.7677 16.4787L34.3425 16.4671C35.0974 16.4619 35.7918 16.7451 36.3144 17.2168C36.8376 17.6892 37.1916 18.3521 37.2637 19.1057C37.3216 19.7087 37.1897 20.2989 36.9071 20.8047C36.6246 21.3106 36.1902 21.7341 35.6444 22.0018L33.2967 23.1557V28.0526C33.2967 33.364 28.9906 37.6702 23.6785 37.6702H23.6798ZM15.8476 36.3289H23.6798C28.2511 36.3289 31.9568 32.6233 31.9568 28.052V17.8044H7.57063V28.052C7.57063 30.3373 8.49737 32.407 9.99496 33.9046C11.4925 35.4022 13.5623 36.3289 15.8476 36.3289ZM4.21827 20.8022L6.22943 21.7907V17.8141C5.91665 17.8102 5.46808 17.8057 4.92941 17.8018C4.52075 17.7993 4.14297 17.9537 3.85787 18.2112C3.57406 18.4673 3.38227 18.8258 3.34301 19.2306C3.31148 19.5588 3.38356 19.8799 3.53673 20.1547C3.6899 20.4289 3.92416 20.658 4.21763 20.8022H4.21827ZM33.298 21.6678L35.0594 20.8022C35.3529 20.658 35.5872 20.4289 35.7403 20.1547C35.8942 19.8799 35.9656 19.5588 35.9341 19.2312C35.8954 18.8264 35.7037 18.4679 35.4192 18.2118C35.1341 17.9544 34.7563 17.7999 34.3477 17.8025L33.298 17.8115V21.6678ZM29.5589 23.973C29.5589 23.603 29.8594 23.3024 30.2295 23.3024C30.5995 23.3024 30.9001 23.603 30.9001 23.973V24.1359C30.9001 24.5059 30.5995 24.8065 30.2295 24.8065C29.8594 24.8065 29.5589 24.5059 29.5589 24.1359V23.973ZM30.9001 28.153C30.9001 30.1179 30.104 31.8967 28.8162 33.1845C27.5284 34.4722 25.7496 35.2683 23.7847 35.2683C23.4147 35.2683 23.1141 34.9678 23.1141 34.5977C23.1141 34.2277 23.4147 33.9271 23.7847 33.9271C25.3789 33.9271 26.823 33.281 27.8675 32.2358C28.9121 31.1913 29.5589 29.7472 29.5589 28.153V26.0087C29.5589 25.6386 29.8594 25.3381 30.2295 25.3381C30.5995 25.3381 30.9001 25.6386 30.9001 26.0087V28.153Z" fill="#211219"/>
<path d="M33.7021 12.2586C33.7021 12.2586 9.88223 4.21525 9.86743 4.2101C10.3553 3.9501 10.6062 3.81753 10.7214 3.76411C14.0178 2.24593 18.5537 3.089 21.8983 4.04342C23.9758 4.63615 25.9927 5.45026 27.89 6.48513C29.1752 7.18597 30.4604 7.92479 31.5686 8.89015C32.4722 9.67788 33.3957 11.0281 33.7027 12.258L33.7021 12.2586Z" fill="#FAC85C"/>
<path d="M24.6501 4.60398C24.3013 5.63627 23.1821 6.19038 22.1498 5.84221C21.1175 5.4934 20.5634 4.37423 20.9122 3.34194C21.261 2.30965 22.3802 1.75554 23.4125 2.10436C24.4448 2.45253 24.9989 3.57234 24.6501 4.60463V4.60398Z" fill="#211219"/>
<path d="M8.38466 13.8772C8.38466 14.2473 8.08411 14.5478 7.71406 14.5478C7.344 14.5478 7.04346 14.2473 7.04346 13.8772V8.9893C7.04346 8.61925 7.344 8.3187 7.71406 8.3187C8.08411 8.3187 8.38466 8.61925 8.38466 8.9893V13.8772ZM15.0604 13.8772C15.0604 14.2473 14.7599 14.5478 14.3898 14.5478C14.0198 14.5478 13.7192 14.2473 13.7192 13.8772V9.96624C13.7192 9.59619 14.0198 9.29564 14.3898 9.29564C14.7599 9.29564 15.0604 9.59619 15.0604 9.96624V13.8772ZM11.6411 13.8772C11.6411 14.2473 11.3406 14.5478 10.9705 14.5478C10.6005 14.5478 10.2999 14.2473 10.2999 13.8772V11.1034C10.2999 10.7334 10.6005 10.4328 10.9705 10.4328C11.3406 10.4328 11.6411 10.7334 11.6411 11.1034V13.8772ZM32.6929 14.1031L8.88664 6.06427C8.53654 5.94714 8.34797 5.56808 8.4651 5.21862C8.52367 5.04293 8.64852 4.90842 8.80233 4.83184L9.35645 4.53837C9.50576 4.4605 9.6068 4.40901 9.67308 4.37812C11.4371 3.56465 13.5062 3.38252 15.5701 3.52989C17.5909 3.67405 19.6059 4.13292 21.3133 4.6201C22.3823 4.92515 23.4371 5.28813 24.4675 5.70838C25.4747 6.11898 26.4683 6.58943 27.4401 7.11973C28.1082 7.48399 28.771 7.85468 29.385 8.24404L29.4204 8.2685C30.053 8.67073 30.6657 9.10965 31.2391 9.60906C31.7572 10.0608 32.2772 10.6729 32.7 11.3403C33.0965 11.9658 33.4163 12.6531 33.583 13.3205C33.6712 13.679 33.4517 14.042 33.0932 14.1301C32.9549 14.1642 32.8165 14.152 32.6929 14.105V14.1031ZM10.8888 5.32932L31.7611 12.3777C31.7006 12.2696 31.6362 12.1621 31.5693 12.0566C31.2102 11.4902 30.7803 10.9799 30.36 10.6137C29.8464 10.1664 29.2872 9.76673 28.7047 9.39604L28.6681 9.3748C28.0419 8.97772 27.4189 8.6289 26.8017 8.29231C25.8917 7.79612 24.9431 7.34755 23.9648 6.94918C22.9789 6.54759 21.9704 6.20071 20.9465 5.90788C19.3086 5.44065 17.3837 5.00109 15.4755 4.86466C13.8704 4.7501 12.2776 4.84921 10.8881 5.32932H10.8888Z" fill="#211219"/>
</svg>
