<svg width="768" height="768" viewBox="0 0 768 768" fill="none" xmlns="http://www.w3.org/2000/svg">
<mask id="mask0_245_605" style="mask-type:alpha" maskUnits="userSpaceOnUse" x="0" y="0" width="768" height="768">
<circle cx="384" cy="384" r="384" transform="matrix(-1 0 0 1 768 0)" fill="#D9D9D9"/>
</mask>
<g mask="url(#mask0_245_605)">
<rect width="768" height="768" transform="matrix(-1 0 0 1 768 0)" fill="#C1F5F5"/>
<path d="M577.497 221.335L571.931 219.221C571.665 219.058 571.444 218.829 571.292 218.557C571.139 218.285 571.059 217.978 571.059 217.665C571.059 217.353 571.139 217.046 571.292 216.774C571.444 216.501 571.665 216.273 571.931 216.11L577.448 213.995C587.996 209.937 596.259 198.854 599.322 184.685L600.901 177.394C601.242 175.814 602.894 175.814 603.21 177.394L604.79 184.685C607.828 198.854 616.067 209.937 626.663 213.995L632.18 216.11C632.447 216.273 632.667 216.501 632.82 216.774C632.973 217.046 633.053 217.353 633.053 217.665C633.053 217.978 632.973 218.285 632.82 218.557C632.667 218.829 632.447 219.058 632.18 219.221L626.663 221.335C616.091 225.37 607.852 236.452 604.79 250.621L603.21 257.912C602.894 259.468 601.242 259.468 600.901 257.912L599.322 250.621C596.235 236.452 588.045 225.37 577.497 221.335Z" fill="white"/>
<path d="M509.252 142.616L505.922 141.328C505.761 141.23 505.628 141.093 505.535 140.929C505.443 140.765 505.394 140.58 505.394 140.392C505.394 140.204 505.443 140.019 505.535 139.855C505.628 139.691 505.761 139.554 505.922 139.456L509.252 138.12C515.619 135.689 520.601 129.006 522.424 120.451L523.323 116.052C523.518 115.104 524.514 115.104 524.733 116.052L525.754 120.499C527.552 129.054 532.51 135.689 538.902 138.12L542.232 139.408C542.393 139.505 542.526 139.642 542.618 139.806C542.711 139.97 542.759 140.155 542.759 140.343C542.759 140.532 542.711 140.717 542.618 140.88C542.526 141.044 542.393 141.182 542.232 141.279L538.902 142.567C532.51 144.998 527.552 151.681 525.73 160.236L524.782 164.854C524.563 165.802 523.566 165.802 523.372 164.854L522.424 160.382C520.601 151.73 515.619 145.046 509.252 142.616Z" fill="white"/>
<path d="M130.964 298.671L126.103 296.823C125.872 296.679 125.681 296.479 125.549 296.241C125.417 296.003 125.348 295.735 125.348 295.462C125.348 295.19 125.417 294.922 125.549 294.684C125.681 294.446 125.872 294.246 126.103 294.101L130.964 292.254C140.175 288.73 147.369 279.057 149.994 266.687L151.476 260.222C151.768 258.861 153.202 258.861 153.493 260.222L154.879 266.687C157.503 279.057 164.6 288.73 173.908 292.254L178.769 294.101C179 294.246 179.191 294.446 179.323 294.684C179.455 294.922 179.524 295.19 179.524 295.462C179.524 295.735 179.455 296.003 179.323 296.241C179.191 296.479 179 296.679 178.769 296.823L173.908 298.671C164.697 302.195 157.503 311.843 154.879 324.214L153.493 330.679C153.202 332.04 151.768 332.04 151.476 330.679L150.091 324.214C147.369 311.843 140.175 302.195 130.964 298.671Z" fill="white"/>
<path d="M188.928 392.994L186.157 391.949C186.021 391.87 185.908 391.757 185.83 391.62C185.751 391.484 185.71 391.329 185.71 391.172C185.71 391.014 185.751 390.859 185.83 390.723C185.908 390.586 186.021 390.473 186.157 390.394L188.928 389.324C194.202 387.307 198.334 381.766 199.84 374.742L200.618 371.024C200.788 370.246 201.615 370.246 201.785 371.024L202.587 374.742C204.094 381.815 208.201 387.356 213.499 389.324L216.246 390.394C216.382 390.473 216.495 390.586 216.573 390.723C216.652 390.859 216.693 391.014 216.693 391.172C216.693 391.329 216.652 391.484 216.573 391.62C216.495 391.757 216.382 391.87 216.246 391.949L213.499 392.994C208.201 395.036 204.094 400.553 202.587 407.577L201.785 411.271C201.615 412.073 200.788 412.073 200.618 411.271L199.84 407.577C198.334 400.601 194.202 395.036 188.928 392.994Z" fill="white"/>
<path d="M554.506 523.918C554.162 526.685 554.244 529.488 554.75 532.23C554.75 532.619 554.895 533.032 554.993 533.421C557.967 534.515 560.858 535.823 563.645 537.334C581.97 546.423 603.357 554.055 623.967 548.854C631.542 546.581 638.444 542.483 644.066 536.92C648.363 532.145 652.158 526.941 655.392 521.39H654.031C645.333 521.413 636.681 520.127 628.366 517.575C627.868 518.55 627.308 519.491 626.689 520.394C624.062 523.802 620.768 526.638 617.006 528.727C613.245 530.817 609.097 532.116 604.815 532.546C603.746 532.546 602.652 532.667 601.559 532.667C586.126 532.667 569.356 524.258 556.742 514.002C555.695 517.232 554.947 520.551 554.506 523.918Z" fill="#55BB43"/>
<path d="M449.537 757.865C446.208 760.296 442.951 762.726 439.451 765.011C445.861 771.696 451.562 779.026 456.464 786.884C462.032 795.234 466.723 804.135 470.463 813.448C478.312 807.207 487.289 802.537 496.905 799.692C493.017 793.859 489.201 787.954 485.118 782.266C476.746 771.288 467.443 761.05 457.314 751.668C454.908 753.782 452.211 755.775 449.537 757.865Z" fill="#55BB43"/>
<path d="M396.069 121.935C395.583 122.834 395.145 123.758 394.757 124.681C398.256 125.678 401.707 126.796 405.134 128.035C413.082 123.612 421.223 118.192 424.577 109.394C425.744 105.968 426.789 100.11 423.362 97.7285C416.703 102.273 409.46 106.186 403.919 112.141C400.912 115.072 398.276 118.362 396.069 121.935Z" fill="#E1ED4F"/>
<path d="M363.939 75.9023C357.474 87.5196 359.321 101.907 362.772 114.229C363.331 116.174 363.963 118.118 364.692 119.989C370.562 120.129 376.413 120.722 382.191 121.764C382.458 120.503 382.661 119.229 382.799 117.948C384.792 98.432 379.104 87.7626 363.939 75.9023Z" fill="#E1ED4F"/>
<path d="M325.127 94.3721C325.127 105.09 329.744 113.596 336.331 121.714L336.817 122.492C341.633 121.515 346.502 120.818 351.399 120.401C350.751 119.247 350.175 118.054 349.673 116.829C348.361 114.982 346.976 113.183 345.736 111.36C339.83 104.628 332.102 99.9376 325.127 94.3721Z" fill="#E1ED4F"/>
<path d="M579.733 404.343C574.795 410.568 572.421 418.445 573.098 426.363C574.338 440.143 581.872 454.02 594.413 460.509C601.438 463.735 609.044 465.505 616.772 465.71C616.459 462.992 616.533 460.242 616.991 457.544C617.691 452.685 619.804 448.138 623.067 444.469C623.723 443.812 624.439 443.218 625.206 442.695C625.551 442.303 626.014 442.034 626.525 441.926C627.036 441.818 627.568 441.877 628.043 442.095C628.517 442.313 628.909 442.679 629.159 443.137C629.41 443.595 629.507 444.122 629.434 444.639C630.65 451.93 629.799 459.513 632.74 466.318C641.951 482.82 664.335 481.921 679.452 475.019C699.527 466.221 713.04 445.222 714.546 423.568C714.984 416.009 713.987 407.722 708.908 401.694C704.76 397.24 699.442 394.044 693.562 392.471C687.682 390.898 681.478 391.011 675.66 392.799C669.414 394.938 664.578 399.628 660.203 404.416C659.887 404.757 659.595 405.145 659.304 405.51C659.012 405.874 658.696 406.895 658.429 407.6C655.318 416.714 655.367 426.824 666.109 430.13C674.372 433.168 683.122 429.158 690.194 424.759C693.777 422.529 696.796 419.501 699.016 415.912C699.697 414.721 699.357 412.558 701.447 412.752C701.663 412.784 701.87 412.86 702.056 412.975C702.241 413.091 702.401 413.244 702.524 413.424C702.648 413.605 702.732 413.809 702.773 414.024C702.813 414.239 702.808 414.459 702.759 414.672C702.103 431.321 687.982 447.069 670.872 447.069H670.727C662.633 446.84 654.882 443.749 648.853 438.344C646.03 437.577 643.254 436.644 640.541 435.549C639.642 435.258 638.743 434.942 637.868 434.602C629.202 439.039 619.228 440.204 609.773 437.883C604.013 436.716 584.91 429.911 588.41 422.012C590.84 419.752 597.548 422.012 600.732 422.328C604.547 422.96 608.412 423.446 612.276 423.786C631.33 426.217 650.068 409.569 627.563 396.663C611.984 389.761 591.788 392.07 579.733 404.343Z" fill="white"/>
<path d="M634.757 382.228C638.957 384.317 642.745 387.15 645.937 390.588C646.97 389.383 648.256 388.42 649.704 387.769L653.592 385.557C662.158 380.316 670.448 374.638 678.431 368.545L679.67 367.767C681.104 366.041 682.635 364.389 683.996 362.712C687.288 358.978 690.364 355.058 693.208 350.973C703.245 336.682 710.074 311.941 682.927 320.131C656.825 329.974 643.992 357.584 634.757 382.228Z" fill="white"/>
<path d="M602.044 319.135C597.888 331.821 598.01 345.359 598.787 358.531C599.103 363.392 599.662 368.253 600.027 373.114C600.233 374.416 600.33 375.733 600.318 377.051C603.933 376.55 607.583 376.355 611.231 376.468C614.387 376.567 617.532 376.908 620.636 377.488C622.885 375.327 625.326 373.375 627.928 371.655C628.888 362.028 631.571 352.651 635.851 343.973C635.262 337.842 634.205 331.765 632.691 325.794C626.907 303.629 612.835 291.234 602.044 319.135Z" fill="white"/>
<path d="M610.817 481.145C610.886 483.201 611.357 485.223 612.203 487.099C619.008 500.733 640.784 505.108 654.564 505.108C661.175 504.816 668.587 503.212 672.841 497.695C673.803 496.648 674.452 495.351 674.712 493.953C671.693 494.74 668.624 495.316 665.525 495.678C663.164 496.07 660.774 496.266 658.38 496.262C645.828 496.313 633.765 491.404 624.816 482.603L622.848 482.238C618.865 481.618 614.847 481.252 610.817 481.145Z" fill="white"/>
<path d="M106.027 555.684C105.857 564.628 112.224 572.089 119.248 576.877C130.039 583.464 143.552 583.974 155.704 581.738C171.258 579.089 185.476 565.795 175.779 549.827C172.526 545.405 168.236 541.85 163.287 539.474C162.849 539.279 162.339 539.085 161.853 538.842C161.634 541.078 161.537 543.314 161.44 545.525C161.44 546.425 161.44 547.348 161.44 548.247C162.829 548.127 164.222 548.441 165.425 549.147C167.297 551.091 165.79 554.153 164.283 555.854C159.981 560.545 153.565 562.538 147.465 563.607C144.704 564.086 141.906 564.322 139.104 564.312C132.844 564.294 126.632 563.218 120.731 561.128C119.324 560.552 118.153 559.52 117.404 558.198C116.654 556.875 116.371 555.34 116.599 553.837C116.306 553.327 116.085 552.779 115.943 552.209C115.417 549.721 115.108 547.192 115.019 544.65C115.019 543.873 115.019 543.095 115.019 542.22C110.499 545.598 106.586 550.143 106.027 555.684Z" fill="white"/>
<path d="M93.8999 595.031C88.7753 604.928 87.0664 616.241 89.0391 627.21C91.4695 639.362 98.3718 651.513 109.795 657.322C112.141 658.409 114.581 659.28 117.086 659.923C116.575 658.999 116.114 658.051 115.676 657.079C113.546 652.919 112.604 648.251 112.954 643.59C113.416 642.205 113.732 638.584 115.725 638.851C116.059 638.907 116.367 639.066 116.607 639.306C116.847 639.545 117.005 639.854 117.061 640.188C126.2 650.493 134.512 661.794 148.292 666.047C154.72 668.123 161.476 668.996 168.221 668.623C163.208 663.549 158.841 657.876 155.218 651.732C152.898 648.76 150.985 645.49 149.531 642.011C149.362 641.393 149.413 640.735 149.674 640.15C149.935 639.565 150.392 639.088 150.965 638.801C151.538 638.515 152.193 638.436 152.818 638.578C153.443 638.72 153.999 639.074 154.392 639.58C157.669 643.674 161.593 647.204 166.009 650.031C171.853 654.288 178.077 657.998 184.602 661.113C192.851 665.82 202.294 668.016 211.773 667.432C222.127 666.655 231.216 663.714 233.331 652.267C235.956 639.629 226.04 625.751 212.916 625.533C210.84 625.413 208.757 625.56 206.718 625.97L205.576 626.14C205.528 627.394 205.406 628.644 205.211 629.883C204.652 633.431 204.142 637.442 200.739 639.459C199.618 640.466 198.163 641.02 196.656 641.014C196.122 641.015 195.591 640.941 195.077 640.795C193.833 640.309 192.734 639.514 191.884 638.485C191.033 637.456 190.459 636.227 190.216 634.914C189.511 632.022 190.678 629.227 191.164 626.408C192.973 619.979 194.186 613.397 194.785 606.746C194.788 606.125 194.853 605.506 194.979 604.899C195.051 604.628 195.18 604.377 195.358 604.161C195.535 603.945 195.757 603.77 196.009 603.648C196.26 603.525 196.535 603.459 196.815 603.452C197.094 603.446 197.372 603.5 197.629 603.611C198.425 604.002 199.116 604.577 199.646 605.288C201.16 607.159 202.366 609.259 203.218 611.509C203.437 612.044 203.632 612.554 203.802 613.089C207.969 611.029 212.582 610.038 217.228 610.203C221.873 610.369 226.404 611.686 230.414 614.037C231.369 612.324 232.182 610.536 232.845 608.69C235.377 602.034 235.515 594.705 233.234 587.959C231.933 584.207 229.749 580.823 226.866 578.092C220.542 572.658 212.611 569.448 204.288 568.953C202.208 568.766 200.113 568.807 198.042 569.075C196.705 569.196 195.368 569.318 194.08 569.342C192.249 576.14 188.309 582.181 182.828 586.598C173.106 595.202 159.35 597.583 146.664 598.142H144.646C129.311 598.142 113.051 593.111 102.503 581.786C101.483 583.463 100.292 585.043 99.1739 586.647C97.1323 589.271 95.431 592.091 93.8999 595.031Z" fill="white"/>
<path d="M129.845 546.059C129.845 546.983 129.845 547.955 129.845 548.951C135.135 549.978 140.524 550.402 145.91 550.215C145.586 547.701 145.48 545.164 145.594 542.632C145.373 533.896 147.126 525.223 150.722 517.259C160.735 496.285 182.851 485.154 205.624 486.15C220.838 486.928 235.032 493.587 247.718 501.68C254.206 505.694 260.015 510.715 264.925 516.554C267.234 519.738 270.515 523.845 269.786 527.977C268.863 529.946 266.505 528.609 265.168 527.807L260.308 524.526C257.44 543.969 253.891 563.606 250.367 583.049C250.149 584.459 249.906 585.844 249.687 587.254C250.951 593.089 250.901 599.133 249.541 604.947C248.753 608.265 247.467 611.445 245.725 614.377C245.264 618.995 244.923 623.612 244.826 628.23C247.594 633.134 249.302 638.564 249.842 644.169C250.382 649.774 249.742 655.431 247.961 660.773C250.294 671.82 253.959 682.543 258.874 692.708C268.725 711.033 282.581 726.9 299.412 739.128C306.234 743.691 313.577 747.42 321.286 750.235L321.553 749.579C322.307 747.781 323.109 746.031 323.984 744.281C324.656 742.675 325.548 741.17 326.633 739.809C326.75 739.629 326.916 739.486 327.112 739.396C327.307 739.306 327.524 739.273 327.738 739.301C327.951 739.329 328.152 739.416 328.318 739.554C328.483 739.691 328.607 739.872 328.674 740.076C329.681 741.854 330.395 743.783 330.789 745.788C331.907 751.809 331.514 758.013 329.646 763.845C324.494 782.413 307.408 795.051 289.788 800.836C281.61 803.294 273.163 804.747 264.634 805.162H263.005C261.996 805.173 260.988 805.1 259.992 804.943C256.962 805.334 253.975 806.009 251.072 806.96C248.481 808.498 246.538 810.925 245.604 813.79C245.774 816.402 246.206 818.992 246.892 821.518C247.066 822.154 247.277 822.779 247.524 823.39H248.083C249.225 823.39 249.298 823.39 250.781 823.39C272.994 822.588 296.374 822.442 317.227 813.352C333.268 806.061 348.336 796.145 354.825 779.011C358.568 769.144 360.342 758.474 362.651 748.169C362.957 746.033 363.64 743.967 364.668 742.069C364.738 741.875 364.855 741.701 365.011 741.565C365.166 741.428 365.353 741.334 365.555 741.29C365.757 741.246 365.967 741.254 366.165 741.314C366.362 741.374 366.542 741.483 366.685 741.632C369.105 744.473 370.635 747.964 371.084 751.669C371.449 753.541 371.741 755.436 371.935 757.356C393.395 756.457 415.026 752.496 434.493 743.26C453.499 733.539 468.373 717.911 480.16 700.364C500.016 671.199 512.144 637.733 520.917 603.781C530.639 567.592 537.93 530.553 539.072 492.979C540.373 450.059 538.203 407.104 532.583 364.534C529.912 342.764 525.853 321.187 520.431 299.934C513.14 277.769 504.245 256.187 495.155 234.751C481.156 211.468 465.991 188.404 445.576 170.225C431.394 157.913 414.927 148.515 397.114 142.567C385.709 138.51 373.71 136.375 361.606 136.248C359.176 136.248 356.745 136.248 354.436 136.54C338.748 137.859 323.422 141.974 309.183 148.692C298.773 154.208 289.491 161.627 281.816 170.565C273.899 179.442 267.421 189.504 262.616 200.386C250.951 228.384 251.267 259.444 252.555 289.265C254.621 321.881 261.28 353.986 264.464 386.48C266.343 406.123 267.081 425.858 266.675 445.587C266.675 453.753 266.432 461.895 265.97 470.012C268.866 472.561 271.386 475.507 273.456 478.762C274.695 480.852 278.657 488.264 273.942 488.483C270.446 487.418 267.092 485.933 263.953 484.06C260.356 482.278 256.792 480.447 253.26 478.567C240.574 472.42 227.055 468.17 213.134 465.954C198.245 463.687 183.033 464.885 168.682 469.453C160.704 471.81 153.434 476.107 147.522 481.96C141.61 487.813 137.24 495.039 134.803 502.993C132.192 512.152 130.627 521.577 130.136 531.088C129.918 535.803 130.015 541.15 129.845 546.059Z" fill="#55BB43"/>
<path d="M362.675 748.145C362.981 746.008 363.664 743.943 364.693 742.045C364.762 741.85 364.88 741.677 365.035 741.54C365.19 741.404 365.378 741.309 365.58 741.266C365.782 741.222 365.991 741.23 366.189 741.29C366.387 741.35 366.566 741.459 366.71 741.607C370.647 745.763 371.23 751.888 371.96 757.308C443.899 755.606 478.313 717.182 504.585 654.162C490.222 669.79 476.296 686.098 459.575 699.294C453.909 702.312 448.037 704.927 442.003 707.12C411.988 717.036 379.445 718.446 350.572 704.155C339.587 698.225 329.039 690.326 323.328 678.952C299.024 628.157 324.203 544.99 326.754 488.653C328.72 463.704 328.459 438.628 325.977 413.725C326.123 401.014 325.977 388.303 325.053 375.641C323.376 352.674 319.415 329.974 316.352 307.177C313.358 283.971 311.791 260.604 311.662 237.206C312.828 226.099 317.154 215.649 321.967 205.611C331.291 186.869 346.365 171.6 364.984 162.034C379.105 154.938 395.388 151.171 411.162 154.257H410.627C417.262 155.642 423.848 157.198 430.459 158.608C410.019 145.678 386.202 136.394 361.776 136.248C332.126 136.953 301.333 147.282 281.987 170.662C230.827 229.137 258.436 317.093 264.634 386.577C267.165 414.348 267.668 442.266 266.141 470.11C269.043 472.652 271.564 475.599 273.626 478.859C274.866 480.949 278.827 488.362 274.112 488.58C270.616 487.515 267.262 486.03 264.124 484.157C261.888 483.063 259.676 481.945 257.464 480.803C256.687 485.956 255.642 491.594 251.583 495.24C245.142 495.872 239.018 493.052 232.99 491.132L234.716 491.74L233.452 491.302H233.744C209.586 481.921 183.119 479.442 160.832 494.754C153.187 499.83 146.444 506.146 140.879 513.443C137.088 518.523 133.904 524.04 130.525 529.435C129.918 535.657 130.234 542.438 129.845 548.878C135.135 549.905 140.524 550.329 145.91 550.142C141.219 513.419 169.071 484.4 205.746 486.15C220.96 486.928 235.153 493.587 247.84 501.68C255.131 506.371 270.856 518.498 269.908 527.977C268.425 531.234 262.398 525.547 260.405 524.526C257.367 545.524 253.357 566.353 249.784 587.254C251.049 593.089 250.999 599.133 249.638 604.947C248.851 608.265 247.564 611.445 245.823 614.377C245.361 618.995 245.021 623.612 244.924 628.23C247.691 633.134 249.4 638.564 249.94 644.169C250.48 649.774 249.839 655.431 248.059 660.773C252.262 682.245 262.206 702.176 276.834 718.446C288.645 732.781 304.029 743.746 321.432 750.235C322.258 748.218 323.157 746.249 324.13 744.281C324.834 743.017 327.119 737.184 328.82 740.076C331.577 745.707 332.365 752.1 331.056 758.231C336.018 757.935 340.96 757.359 345.857 756.506C350.885 756.05 355.931 757.144 360.318 759.641C361.047 755.874 361.825 752.009 362.675 748.145Z" fill="#47923A"/>
<path d="M644.066 536.873C648.363 532.098 652.158 526.894 655.392 521.343H654.031C645.333 521.366 636.681 520.08 628.366 517.527C627.868 518.502 627.308 519.444 626.689 520.347C623.383 524.748 618.949 528.174 613.856 530.263C620.604 536.219 628.733 540.396 637.504 542.414C639.872 540.792 642.07 538.936 644.066 536.873Z" fill="#47923A"/>
<path d="M569.355 539.132C568.817 532.982 567.818 526.881 566.366 520.88C563.066 518.794 559.892 516.514 556.863 514.051C554.408 520.223 553.759 526.966 554.992 533.494C557.966 534.588 560.857 535.896 563.644 537.407C565.515 538.33 567.435 539.254 569.379 540.129C569.355 539.764 569.355 539.448 569.355 539.132Z" fill="#47923A"/>
<path d="M465.869 775.269C468.698 773.839 471.377 772.129 473.865 770.165L474.862 769.412C469.296 763.19 463.366 757.26 457.387 751.524C454.957 753.785 452.211 755.778 449.537 757.819C446.208 760.249 442.951 762.68 439.451 764.964C445.217 770.865 450.386 777.321 454.884 784.237C458.627 781.345 462.272 778.331 465.869 775.269Z" fill="#47923A"/>
<path d="M349.188 370.052C350.022 369.931 350.778 369.496 351.302 368.836C351.81 368.134 352.036 367.267 351.934 366.406C351.715 363.271 351.399 360.16 351.205 357.049V357.268C351.205 357.098 351.205 356.928 351.205 356.758C351.035 354.108 350.913 351.484 350.816 348.834C350.719 346.185 350.549 343.488 350.476 340.814C350.432 338.048 350.205 335.287 349.795 332.551C349.267 329.727 348.578 326.935 347.729 324.19C347.219 322.441 346.782 320.715 346.393 318.941C345.436 313.969 344.771 308.946 344.4 303.897C344.181 300.348 344.132 296.824 344.205 293.276C344.278 289.728 344.4 286.204 344.594 282.655C345.032 277.09 345.761 271.548 346.66 266.031C347.179 262.864 347.479 259.664 347.559 256.456C347.596 253.351 347.401 250.247 346.976 247.172C346.611 244.401 345.931 241.728 345.323 239.006C345.105 237.888 344.91 236.794 344.74 235.676C344.57 234.558 344.205 232.881 343.914 231.496C343.5 229.359 343.208 227.201 343.039 225.031C343.039 223.986 342.869 222.965 342.747 221.92C342.69 220.869 342.434 219.838 341.994 218.882V218.736C341.923 218.519 341.79 218.329 341.61 218.188C341.431 218.048 341.213 217.965 340.986 217.949C340.758 217.933 340.532 217.986 340.334 218.1C340.137 218.215 339.979 218.385 339.879 218.59C339.202 219.681 338.748 220.896 338.543 222.163C338.227 223.621 337.959 225.055 337.668 226.513C337.109 229.114 336.307 231.641 335.626 234.242C335.286 235.579 334.97 236.915 334.581 238.228C334.192 239.54 333.73 240.974 333.293 242.335C331.44 248.321 330.554 254.565 330.668 260.83C330.668 264.063 331.179 267.271 331.543 270.552C331.908 273.833 332.175 276.263 332.588 279.131L333.682 287.443C334.046 290.287 334.532 293.082 335.019 295.901C335.748 300.3 336.452 304.723 337.109 309.122C337.765 313.521 338.372 317.628 338.713 321.906C338.859 324.506 338.713 327.131 338.956 329.732C339.117 332.661 339.523 335.571 340.171 338.432C340.706 340.863 341.41 343.147 341.994 345.505C342.334 346.817 342.601 348.154 342.917 349.466C343.233 350.779 343.525 351.897 343.792 353.233C344.716 357.875 345.25 362.542 345.737 367.232C345.842 368.001 346.223 368.706 346.809 369.215C347.394 369.724 348.144 370.004 348.92 370.003L349.188 370.052Z" fill="#47923A"/>
<path d="M339.442 684.712C342.82 684.056 341.046 679.852 341.119 677.543C340.778 668.599 342.358 659.728 342.504 650.809C342.462 640.317 343.275 629.84 344.934 619.481C346.684 607.912 348.385 596.319 350.524 584.824C353.112 573.572 354.69 562.112 355.239 550.58C355.325 544.902 355.122 539.224 354.631 533.567C354.34 527.661 353.781 521.78 353.1 515.922C352.42 510.065 352.225 503.771 351.132 497.743C351.076 497.475 350.923 497.238 350.704 497.075C350.484 496.912 350.212 496.835 349.94 496.859C349.667 496.883 349.413 497.006 349.225 497.205C349.037 497.403 348.929 497.664 348.92 497.938C348.836 506.129 348.203 514.305 347.024 522.412C345.663 532.012 343.184 541.369 341.435 550.896C339.697 561.992 338.529 573.17 337.935 584.386C336.89 595.931 334.848 607.378 333.827 618.922C333.025 629.713 331.397 640.479 331.057 651.295C331.287 658.474 332.389 665.599 334.338 672.512C334.97 674.797 335.529 677.081 336.015 679.414C336.501 681.747 336.428 684.955 339.442 684.712Z" fill="#47923A"/>
<path d="M395.315 698.176C396.627 697.395 397.592 696.144 398.013 694.677C398.28 693.826 398.548 692.975 398.839 692.246C399.739 689.646 400.565 687.045 401.27 684.42C401.975 681.796 402.825 679.195 403.433 676.546C404.04 673.897 404.697 670.519 405.207 667.505C405.717 664.491 406.106 661.745 406.447 658.853C407.078 653.336 407.273 647.795 407.637 642.253C407.832 639.313 408.051 636.372 408.221 633.407C408.391 630.442 408.537 627.209 408.755 624.123C408.755 624.123 408.755 624.317 408.755 624.414C409.071 619.87 409.606 615.398 410.238 610.901C410.53 608.763 410.846 606.648 411.113 604.534C411.283 603.416 411.429 602.274 411.502 601.131C411.746 600.102 411.626 599.02 411.162 598.069C411.052 597.923 410.912 597.802 410.751 597.715C410.59 597.628 410.412 597.577 410.23 597.565C410.047 597.553 409.864 597.582 409.694 597.648C409.523 597.714 409.369 597.816 409.241 597.947C408.727 598.661 408.417 599.501 408.342 600.378C408.148 601.326 408.002 602.298 407.88 603.246L407.006 609.735C406.422 613.818 405.79 617.877 404.964 621.887V621.619C403.749 627.282 402.266 632.896 400.857 638.486C399.447 644.076 397.624 649.472 395.996 654.94C394.586 659.428 393.282 663.949 392.083 668.501C391.467 670.77 390.908 673.03 390.406 675.282C389.92 677.518 389.482 679.778 389.021 682.014C388.68 683.618 388.316 685.198 387.927 686.875C387.538 688.552 387.174 690.108 386.712 691.736C386.501 692.483 386.439 693.264 386.53 694.035C386.621 694.805 386.863 695.551 387.242 696.228C387.621 696.905 388.13 697.501 388.74 697.981C389.35 698.461 390.048 698.817 390.795 699.027C391.304 699.153 391.826 699.218 392.35 699.221C393.416 699.151 394.441 698.79 395.315 698.176Z" fill="#47923A"/>
<path d="M417.383 574.008C418.045 573.447 418.579 572.752 418.951 571.969C419.324 571.186 419.524 570.332 419.54 569.465C419.557 568.598 419.388 567.737 419.045 566.941C418.702 566.144 418.193 565.43 417.553 564.845C414.345 561.224 408.828 564.675 408.415 568.831C408.275 569.928 408.463 571.043 408.954 572.034C409.446 573.025 410.219 573.848 411.177 574.401C412.135 574.954 413.235 575.212 414.339 575.142C415.443 575.072 416.502 574.677 417.383 574.008Z" fill="#47923A"/>
<path d="M456.343 688.358C460.037 681.82 462.856 674.797 466.453 668.21C472.081 657.822 476.899 647.015 480.865 635.886C482.591 630.515 483.733 624.95 485.046 619.457C487.291 610.211 488.971 600.837 490.077 591.386C491.073 579.356 491.681 567.301 492.264 555.271C492.264 551.017 492.556 546.764 492.677 542.511C492.677 541.32 492.556 540.081 492.677 538.914C492.758 538.674 492.786 538.42 492.757 538.169C492.729 537.917 492.646 537.675 492.514 537.46C492.382 537.244 492.204 537.06 491.992 536.921C491.781 536.781 491.542 536.69 491.292 536.654C491.049 536.622 490.802 536.644 490.568 536.716C490.333 536.789 490.118 536.912 489.935 537.076C489.753 537.239 489.608 537.441 489.511 537.666C489.414 537.891 489.366 538.134 489.372 538.379C489.104 539.497 488.716 540.615 488.424 541.733C487.476 545.889 486.528 550.021 485.508 554.128C482.834 565.187 480.015 576.172 477.123 587.157C473.088 603.975 469.564 620.915 464.971 637.612C462.54 647.722 459.721 657.76 456.464 667.676C454.472 673.509 451.458 678.904 449.173 684.688C448.915 685.602 448.982 686.576 449.361 687.446C449.741 688.316 450.41 689.028 451.255 689.461C452.1 689.893 453.068 690.019 453.996 689.819C454.923 689.618 455.753 689.102 456.343 688.358Z" fill="#47923A"/>
<path d="M410.87 289.266C411.818 288.877 411.697 287.516 411.745 286.689C411.915 282.509 412.159 278.329 412.353 274.149C412.961 262.701 412.766 251.23 412.645 239.783C412.568 233.813 412.187 227.851 411.502 221.92C410.587 213.568 408.969 205.307 406.666 197.227C406.083 194.578 405.572 191.904 404.989 189.255C404.826 188.63 404.54 188.044 404.148 187.531C403.755 187.017 403.265 186.587 402.704 186.266C401.558 185.609 400.199 185.429 398.921 185.765C397.643 186.102 396.549 186.928 395.875 188.064C394.563 190.179 395.583 192.561 395.875 194.772C396.41 197.446 396.944 200.095 397.212 202.817C398.743 216.962 401.441 231.009 403.604 245.081C405.183 255.872 406.423 266.736 407.808 277.551C408.075 279.981 408.294 282.29 408.513 284.672C408.95 286.155 408.634 289.873 410.87 289.266Z" fill="#47923A"/>
<path d="M398.767 171.222C399.615 170.593 400.22 169.692 400.482 168.67C400.743 167.647 400.645 166.566 400.203 165.608C399.761 164.65 399.002 163.873 398.055 163.408C397.107 162.943 396.028 162.819 395 163.056C394.374 163.24 393.795 163.557 393.302 163.985C392.81 164.413 392.415 164.943 392.145 165.537C391.876 166.131 391.737 166.777 391.739 167.429C391.741 168.082 391.884 168.727 392.157 169.319C392.43 169.912 392.828 170.439 393.323 170.864C393.819 171.289 394.4 171.603 395.027 171.783C395.654 171.964 396.313 172.007 396.958 171.91C397.604 171.813 398.221 171.578 398.767 171.222Z" fill="#47923A"/>
<path d="M482.931 294.393C483.922 294.111 484.779 293.482 485.345 292.621C485.912 291.76 486.151 290.725 486.018 289.703C486.018 289.217 485.872 288.73 485.799 288.244C485.657 285.351 485.159 282.486 484.317 279.714C483.733 277.113 483.101 274.488 482.445 271.888C476.67 249.472 468.523 227.735 458.141 207.045C455.468 202.039 452.697 197.081 449.83 192.171C449.076 190.908 448.347 189.741 447.642 188.38C446.937 187.019 446.549 185.95 445.455 185.366C445.287 185.266 445.099 185.205 444.904 185.19C444.709 185.174 444.513 185.204 444.332 185.277C444.15 185.35 443.988 185.464 443.858 185.61C443.729 185.757 443.634 185.931 443.583 186.12C443.503 187.386 443.754 188.651 444.313 189.79C445.674 193.848 446.937 197.931 448.177 201.942C454.374 223.815 462.589 245.275 469.248 267.124C471.29 273.662 473.526 280.127 475.567 286.567C476.053 288.414 477.196 289.946 477.803 291.744C478.178 292.743 478.909 293.567 479.857 294.056C480.805 294.546 481.9 294.666 482.931 294.393Z" fill="#47923A"/>
<path d="M490.878 321.031C491.836 320.877 492.726 320.44 493.434 319.776C494.141 319.112 494.634 318.252 494.848 317.306C495.063 316.359 494.989 315.371 494.636 314.467C494.284 313.563 493.669 312.785 492.871 312.233C492.489 311.732 491.982 311.34 491.401 311.096C490.82 310.853 490.186 310.766 489.561 310.845C488.935 310.923 488.342 311.165 487.84 311.545C487.337 311.925 486.944 312.431 486.698 313.011C484.292 316.559 486.285 321.493 490.878 321.031Z" fill="#47923A"/>
<path d="M516.932 608.35C517.175 607.67 517.394 607.014 517.637 606.357C517.626 606.454 517.626 606.552 517.637 606.649C518.109 605.207 518.669 603.794 519.314 602.42C520.845 599.601 522.352 596.782 523.664 593.865C532.098 560.836 538.247 527.127 539.194 493.004C540.495 450.084 538.325 407.129 532.705 364.559C530.034 342.789 525.975 321.212 520.553 299.959C519.314 296.144 518.123 292.328 516.689 288.561C515.668 286.519 514.623 284.502 513.53 282.485C512.436 280.468 511.099 278.159 509.738 276.044C508.508 273.854 506.856 271.93 504.877 270.381C504.841 270.222 504.773 270.071 504.678 269.938C504.583 269.804 504.463 269.691 504.324 269.604C504.185 269.517 504.031 269.458 503.869 269.431C503.708 269.404 503.542 269.409 503.383 269.446C503.223 269.482 503.072 269.55 502.939 269.645C502.806 269.74 502.692 269.861 502.605 269.999C502.518 270.138 502.46 270.293 502.433 270.454C502.405 270.616 502.41 270.781 502.447 270.94V271.208C501.922 272.665 501.659 274.204 501.669 275.753C501.637 277.634 501.701 279.516 501.864 281.391C502.107 284.696 502.471 287.977 502.86 291.258C503.687 298.136 504.61 305.014 505.679 311.844C506.814 319.038 507.964 326.224 509.131 333.401C510.273 340.498 511.221 347.595 511.998 354.74C512.752 361.424 513.554 368.107 514.016 374.815V375.131V375.86C514.842 389.932 515.158 404.004 515.377 418.1C515.595 432.682 515.377 447.265 515.109 461.847C514.842 476.429 514.016 490.477 513.165 504.767C512.728 511.791 512.241 518.815 512.12 525.863C512.12 529.363 511.974 532.887 511.974 536.387C511.974 539.886 511.974 543.483 511.974 547.007C511.974 552.379 511.731 557.75 511.974 563.121C511.974 565.916 511.974 568.711 512.144 571.506C512.314 574.301 512.557 577.169 512.776 580.012C513.056 585.185 513.056 590.369 512.776 595.542L512.485 599.82C512.485 600.379 512.485 600.962 512.266 601.521C511.877 603.174 511.367 604.802 510.808 606.382C510.599 607.134 510.671 607.936 511.011 608.638C511.351 609.34 511.935 609.895 512.655 610.197C513.046 610.364 513.469 610.447 513.894 610.44C514.557 610.462 515.21 610.27 515.756 609.894C516.303 609.518 516.715 608.977 516.932 608.35Z" fill="#97E154"/>
<path d="M506.31 633.551C507.077 632.977 507.671 632.205 508.03 631.317C508.389 630.429 508.499 629.46 508.346 628.515C508.194 627.57 507.786 626.684 507.167 625.954C506.548 625.223 505.74 624.676 504.832 624.372C503.925 624.068 502.951 624.017 502.016 624.226C501.082 624.436 500.223 624.897 499.531 625.559C498.84 626.222 498.343 627.061 498.094 627.985C497.845 628.91 497.854 629.885 498.12 630.805C498.355 631.621 498.785 632.368 499.373 632.981C499.961 633.595 500.689 634.056 501.495 634.327C502.3 634.597 503.159 634.667 503.998 634.532C504.837 634.397 505.63 634.061 506.31 633.551Z" fill="#97E154"/>
<path d="M413.082 149.008L413.471 149.202C418.912 151.812 424.203 154.725 429.317 157.927C424.091 154.629 418.669 151.65 413.082 149.008Z" fill="#98E054"/>
<path d="M403.287 153.406L403.481 153.601C407.054 157.732 410.456 161.985 413.956 166.166C415.828 168.377 417.65 170.613 419.473 172.874C421.296 175.134 422.949 177.005 424.504 179.436L425.233 180.505C426.302 182.158 427.299 183.859 428.247 185.609C429.196 187.484 430.048 189.406 430.799 191.369C430.809 191.417 430.809 191.467 430.799 191.515C430.812 191.353 430.812 191.19 430.799 191.029V190.81C430.751 191.075 430.751 191.347 430.799 191.612C430.932 192.151 431.245 192.628 431.688 192.965C432.13 193.301 432.674 193.475 433.229 193.459C433.62 193.456 434.005 193.359 434.35 193.176C434.696 192.993 434.992 192.729 435.214 192.407C435.436 192.085 435.577 191.714 435.625 191.326C435.673 190.938 435.626 190.544 435.489 190.178V190.372C435.489 190.372 435.489 190.567 435.489 190.664C435.315 189.304 435.055 187.957 434.712 186.63C434.347 185.171 433.982 183.713 433.667 182.231C432.573 176.519 432.062 170.735 430.872 165.048C430.434 162.885 429.948 160.746 429.389 158.632C423.216 157.319 417.043 155.885 410.87 154.573C408.37 154.019 405.837 153.63 403.287 153.406Z" fill="#98E054"/>
<path d="M366.199 161.573C366.199 161.865 366.321 162.157 366.394 162.448C367.73 167.917 369.188 173.385 370.622 178.853C372.056 184.322 373.344 189.887 374.851 195.38C375.119 196.401 375.435 197.397 375.751 198.394C375.896 198.88 376.066 199.39 376.237 199.876C376.334 200.193 376.473 200.495 376.65 200.775C376.738 200.956 376.877 201.107 377.05 201.21C377.222 201.314 377.421 201.365 377.622 201.359C377.827 201.37 378.031 201.321 378.208 201.217C378.385 201.113 378.528 200.96 378.618 200.775C378.858 200.356 379.015 199.894 379.08 199.414C379.226 198.661 379.347 197.908 379.469 197.154C379.736 195.574 379.931 194.019 380.125 192.439C380.538 189.037 381.049 185.634 381.729 182.256C381.729 182.037 381.729 181.794 381.729 181.551V181.235C381.729 181.235 381.729 181.089 381.729 180.992C382.944 175.475 384.427 170.007 386.031 164.563C386.809 161.962 387.611 159.337 388.316 156.713C388.559 155.886 388.777 155.084 388.996 154.282C381.082 155.586 373.401 158.042 366.199 161.573Z" fill="#98E054"/>
<path d="M362.919 136.273H365.131C372.26 136.605 379.341 137.622 386.275 139.311C379.064 137.509 371.684 136.474 364.256 136.225H362.919V136.273Z" fill="#98E054"/>
<path d="M354.558 136.563C352.857 136.709 351.156 136.879 349.479 137.098C353.562 136.636 357.645 136.369 361.631 136.271C359.346 136.271 356.94 136.369 354.558 136.563Z" fill="#98E054"/>
<path d="M340.121 180.358C340.881 185.513 341.911 190.624 343.208 195.67C343.694 197.42 344.253 199.097 344.885 200.798C344.974 201.033 345.142 201.23 345.36 201.355C345.578 201.481 345.832 201.528 346.08 201.488C346.329 201.448 346.555 201.324 346.723 201.136C346.89 200.948 346.988 200.709 346.999 200.458C346.999 200.458 346.999 200.458 346.999 200.288C347.558 197.857 348.02 195.257 348.53 192.729C349.454 188.209 350.491 183.72 351.641 179.265C352.589 175.498 353.756 171.779 354.971 168.085C349.614 171.657 344.638 175.77 340.121 180.358Z" fill="#98E054"/>
<path d="M312.585 147.184V147.33C314.481 146.431 316.425 145.58 318.394 144.899H318.272L317.324 145.264L315.696 145.92L315.185 146.139L314.311 146.503L313.533 146.819L312.585 147.184Z" fill="#98E054"/>
<path d="M309.304 148.716C304.462 151.178 299.892 154.144 295.67 157.563C300.968 153.574 306.67 150.153 312.683 147.355C314.578 146.456 316.523 145.605 318.491 144.925H318.37L317.422 145.289L315.793 145.946L315.283 146.164L314.408 146.529L313.63 146.845L312.683 147.258C311.492 147.695 310.398 148.182 309.304 148.716Z" fill="#98E054"/>
<path d="M421.515 748.608L421.855 748.486L422.779 748.146C426.763 746.723 430.672 745.1 434.493 743.285C446.451 737.032 457.16 728.638 466.088 718.52C454.153 731.619 439.334 741.762 422.803 748.146L421.515 748.608Z" fill="#98E054"/>
<path d="M423.678 704.399C423.046 707.145 422.244 709.843 421.369 712.492C423.289 712.152 425.234 711.739 427.154 711.301L428.101 704.521C428.101 704.01 428.272 703.476 428.369 702.965C428.414 702.664 428.396 702.356 428.317 702.062C428.237 701.768 428.098 701.493 427.908 701.256C427.717 701.018 427.479 700.822 427.21 700.68C426.94 700.539 426.644 700.454 426.34 700.432C426.036 700.411 425.731 700.452 425.444 700.553C425.156 700.655 424.893 700.815 424.671 701.023C424.448 701.231 424.271 701.483 424.15 701.763C424.03 702.043 423.968 702.345 423.97 702.649C423.921 703.257 423.824 703.84 423.678 704.399Z" fill="#98E054"/>
<path d="M365.543 709.089L365.397 710.11C366.49 710.45 367.608 710.766 368.702 711.057C368.702 710.409 368.654 709.753 368.556 709.089C368.556 708.019 368.313 706.95 368.24 705.881C368.222 705.632 368.122 705.396 367.954 705.211C367.787 705.026 367.563 704.903 367.317 704.86C367.03 704.818 366.738 704.892 366.506 705.065C366.274 705.238 366.119 705.497 366.077 705.784C365.98 706.829 365.713 707.995 365.543 709.089Z" fill="#98E054"/>
<path d="M356.673 758.013C356.673 759.033 356.673 760.03 356.965 761.026C357.256 762.023 357.28 762.557 357.426 763.311C357.645 764.55 357.791 765.741 357.888 767.029C357.888 767.734 357.888 768.439 357.888 769.12C358.714 766.009 359.419 762.873 360.124 759.714C359.027 759.045 357.872 758.476 356.673 758.013Z" fill="#98E054"/>
<path d="M338.882 695.917C338.643 696.005 338.427 696.146 338.25 696.33C339.32 697.156 340.438 697.958 341.556 698.76C341.556 698.517 341.556 698.274 341.434 698.031C341.355 697.667 341.249 697.31 341.118 696.962C341.009 696.655 340.815 696.385 340.559 696.184C340.322 696.007 340.046 695.89 339.754 695.843C339.462 695.796 339.162 695.822 338.882 695.917Z" fill="#98E054"/>
<path d="M330.934 758.306C330.611 760.19 330.189 762.056 329.671 763.896C331.111 762.99 332.319 761.758 333.195 760.299C333.566 759.632 333.875 758.933 334.118 758.209C333.049 758.282 332.004 758.33 330.934 758.306Z" fill="#98E054"/>
<path d="M288.428 730.501C291.873 733.655 295.535 736.562 299.389 739.202C301.6 740.684 303.836 742.07 306.145 743.358C299.804 739.706 293.866 735.397 288.428 730.501Z" fill="#98E054"/>
<path d="M276.567 715.676C276.567 715.919 276.567 716.162 276.567 716.405C276.591 716.162 276.591 715.919 276.567 715.676Z" fill="#98E054"/>
<path d="M279.265 184.103C279.047 187.141 279.022 190.179 279.022 193.217C278.965 196.113 279.079 199.011 279.363 201.894C279.505 202.982 279.8 204.046 280.238 205.053C280.553 205.685 281.112 206.584 281.866 206.584C282.025 206.626 282.193 206.626 282.352 206.584C282.828 206.306 283.209 205.891 283.446 205.393C283.81 204.786 284.126 204.154 284.466 203.522C285.098 202.258 285.682 200.946 286.313 199.658C289.444 193.847 292.883 188.208 296.618 182.766L303.739 172.68C305.003 170.858 306.17 169.059 307.604 167.309C308.381 166.288 309.208 165.316 310.034 164.368C309.621 166.993 309.183 169.642 308.819 172.291C308.157 176.315 307.71 180.372 307.482 184.443C307.482 186.412 307.482 188.381 307.336 190.349C307.336 191.346 307.336 192.342 307.336 193.339C307.336 194.335 307.336 194.797 307.336 195.526C307.277 195.822 307.278 196.127 307.34 196.422C307.401 196.717 307.522 196.997 307.694 197.245C307.867 197.492 308.088 197.702 308.344 197.862C308.6 198.022 308.885 198.128 309.183 198.175H309.451C309.741 198.172 310.028 198.112 310.295 197.997C310.562 197.883 310.804 197.718 311.007 197.51C311.211 197.302 311.371 197.057 311.479 196.787C311.587 196.518 311.641 196.23 311.638 195.939C312.003 194.408 312.513 192.925 313.023 191.443C313.971 189.013 315.041 186.582 316.086 184.006C317.131 181.43 318.322 178.683 319.464 176.034C321.603 171.174 323.814 166.094 326.147 161.209C327.363 158.779 328.578 156.64 330.109 154.428C331.64 152.217 333.803 149.567 335.796 147.137C335.834 151.915 336.224 156.683 336.963 161.403C337.789 167.09 338.834 172.729 339.758 178.416C339.758 179.097 339.976 179.753 340.074 180.409C344.593 175.786 349.578 171.64 354.947 168.038C355.093 167.577 355.239 167.139 355.409 166.702C357.378 161.112 359.614 155.643 361.485 150.029C362.166 148.012 362.749 145.995 363.332 143.953V144.293C363.801 150.135 364.736 155.93 366.127 161.622C373.405 158.015 381.178 155.509 389.192 154.185C389.702 152.217 390.188 150.272 390.723 148.304C391.257 146.335 391.865 143.856 392.4 141.62C393.275 142.738 394.295 143.807 395.267 144.852C397.917 147.696 400.59 150.515 403.191 153.407C405.76 153.555 408.318 153.872 410.846 154.355C417.019 155.668 423.193 157.102 429.366 158.414C429.366 158.268 429.366 158.098 429.366 157.952C424.251 154.75 418.961 151.837 413.52 149.227L413.131 149.033C407.962 146.623 402.673 144.482 397.285 142.617L392.643 141.11L391.986 140.94C390.237 140.405 388.462 139.919 386.688 139.481H386.518C379.584 137.792 372.503 136.775 365.374 136.443H363.162H361.874C357.791 136.443 353.708 136.808 349.722 137.27C347.899 137.488 346.077 137.756 344.278 138.047L343.476 138.193L342.237 138.412L341.094 138.631L339.952 138.849L338.931 139.044H338.688L337.692 139.263L336.574 139.506C333.9 140.089 331.227 140.794 328.602 141.547H328.408L327.387 141.863L326.415 142.155L325.443 142.471L324.568 142.738H324.325L323.571 142.981L322.186 143.467L320.63 144.002L319.707 144.342L319.099 144.561H318.881C316.912 145.339 314.968 146.189 313.072 146.991C307.06 149.789 301.358 153.211 296.059 157.199C291.136 161.188 286.551 165.577 282.352 170.323L281.137 171.757C280.067 176.107 279.581 180.093 279.265 184.103Z" fill="#85CF41"/>
<path d="M275.886 679.413C275.789 682.199 275.789 684.994 275.886 687.797C275.886 693.63 276.057 699.439 276.202 705.247C276.202 708.626 276.421 712.004 276.616 715.406C276.616 716.5 276.81 717.594 276.907 718.687C280.55 722.812 284.403 726.747 288.452 730.475C293.89 735.37 299.828 739.68 306.169 743.332H306.291L307.433 743.939L307.822 744.158L308.502 744.522L309.256 744.936C310.058 745.324 310.835 745.738 311.686 746.102C314.852 747.642 318.097 749.013 321.408 750.21L321.845 749.164L322.039 748.727L322.355 747.998C322.355 747.731 322.574 747.488 322.696 747.244C322.817 747.001 322.939 746.758 323.036 746.515L323.328 745.908L323.692 745.179C323.814 744.887 323.959 744.595 324.105 744.304L324.518 743.477V743.307L324.956 742.408L325.175 741.995L325.32 741.727C325.676 741.037 326.126 740.399 326.657 739.832C326.736 739.717 326.836 739.62 326.953 739.545C327.07 739.469 327.201 739.418 327.338 739.394C327.571 739.3 327.833 739.3 328.067 739.394C328.206 739.455 328.33 739.545 328.431 739.658C328.531 739.772 328.606 739.905 328.65 740.051C329.242 741.045 329.715 742.105 330.06 743.21C330.705 745.148 331.121 747.154 331.299 749.189V749.553C331.489 752.166 331.375 754.793 330.959 757.379V757.744V758.133C332.028 758.133 333.073 758.133 334.143 758.133C334.755 756.212 334.755 754.148 334.143 752.227C333.535 750.404 332.976 748.557 332.539 746.685L332.393 745.64C332.379 745.43 332.379 745.219 332.393 745.008C332.393 744.522 332.587 744.036 332.66 743.55C332.87 742.371 332.96 741.175 332.928 739.978C332.833 737.22 332.163 734.513 330.959 732.03C329.695 729.284 328.285 726.611 326.876 723.937C324.737 719.854 322.404 715.868 320.265 711.785C318.879 708.92 317.646 705.983 316.571 702.987C315.793 700.678 315.089 698.345 314.359 696.012C313.63 693.679 312.828 691.54 311.929 689.328C311.875 689.066 311.731 688.83 311.523 688.661C311.315 688.491 311.055 688.399 310.787 688.399C310.518 688.399 310.258 688.491 310.05 688.661C309.842 688.83 309.699 689.066 309.644 689.328C308.947 692.361 308.54 695.454 308.429 698.564C308.259 701.772 308.113 704.98 307.943 708.285C307.53 713.73 306.631 719.101 306.193 724.545C305.999 726.756 305.926 728.992 305.902 731.204L303.471 727.145C300.628 722.284 297.565 717.424 294.698 712.563C293.175 709.97 291.692 707.346 290.25 704.688L289.618 703.425C288.014 700.046 286.556 696.644 285.292 693.12C283.275 687.167 281.596 681.106 280.261 674.965C280.067 673.847 279.848 672.729 279.702 671.587V671.246C279.768 670.978 279.772 670.699 279.715 670.429C279.659 670.158 279.542 669.904 279.374 669.685C279.206 669.466 278.991 669.287 278.745 669.162C278.499 669.037 278.228 668.969 277.952 668.962C277.704 668.964 277.459 669.018 277.233 669.12C277.007 669.223 276.805 669.372 276.64 669.557C276.475 669.743 276.351 669.961 276.275 670.198C276.2 670.434 276.175 670.684 276.202 670.931C276.215 671.06 276.215 671.19 276.202 671.319C276.081 672.583 275.886 673.75 275.789 675.111C275.692 676.472 275.935 677.93 275.886 679.413Z" fill="#85CF41"/>
<path d="M332.539 728.263C332.527 730.343 332.649 732.421 332.904 734.485C332.904 735.36 333.074 736.211 333.196 737.086C333.4 738.298 333.725 739.487 334.168 740.634C334.168 740.877 334.314 741.12 334.386 741.363C334.459 741.606 334.386 741.776 334.386 741.971C334.589 743.637 335.423 745.162 336.716 746.233C338.009 747.303 339.664 747.837 341.339 747.725C343.013 747.613 344.582 746.863 345.721 745.63C346.86 744.397 347.483 742.774 347.462 741.096C347.438 740.715 347.438 740.334 347.462 739.953C347.462 739.516 347.462 739.103 347.656 738.689C347.809 737.888 347.891 737.075 347.899 736.259C347.899 735.141 347.899 733.975 347.899 732.857C347.899 731.739 347.754 730.135 347.656 728.774C347.52 727.365 347.285 725.968 346.952 724.593C346.465 722.357 345.736 720.194 345.056 718.007C344.375 715.82 343.816 713.802 343.355 711.688C342.844 709.087 342.382 706.511 342.091 703.911C341.921 702.598 341.848 701.31 341.702 699.998C341.679 699.574 341.63 699.152 341.556 698.734C340.438 697.956 339.32 697.154 338.251 696.304C337.882 696.708 337.608 697.189 337.449 697.713C337.129 698.65 336.917 699.621 336.817 700.605C336.574 702.428 336.404 704.275 336.161 706.098C335.918 707.921 335.529 709.89 335.213 711.785C334.897 713.681 334.581 715.261 334.216 717.011C333.852 718.76 333.463 720.437 333.171 722.163C332.826 724.18 332.615 726.218 332.539 728.263Z" fill="#85CF41"/>
<path d="M356.915 755.047C356.745 755.846 356.655 756.66 356.648 757.477C356.66 757.647 356.66 757.817 356.648 757.987C357.88 758.445 359.068 759.015 360.196 759.689C360.366 758.935 360.536 758.158 360.682 757.404C360.682 757.234 360.682 757.064 360.682 756.869L361.12 754.779L361.266 754.075C361.509 752.981 361.727 751.911 361.97 750.842C361.97 750.405 362.14 749.967 362.238 749.53L362.529 748.242C362.835 746.105 363.518 744.039 364.547 742.141C364.616 741.947 364.734 741.773 364.889 741.637C365.044 741.5 365.232 741.406 365.434 741.362C365.635 741.318 365.845 741.327 366.043 741.386C366.241 741.446 366.42 741.556 366.564 741.704C367.707 742.915 368.621 744.323 369.261 745.86C369.27 745.924 369.27 745.99 369.261 746.054C369.268 746.16 369.268 746.265 369.261 746.37C370.095 748.532 370.674 750.783 370.987 753.078C371.23 754.488 371.425 755.922 371.57 757.331H371.74H373.053H374.56C375.41 757.331 376.237 757.331 376.99 757.185C382.045 756.845 387.1 756.335 392.107 755.606H392.374L395.145 755.168L395.947 755.047L397.016 754.877C402.596 753.915 408.121 752.657 413.567 751.109L414.88 750.721L416.144 750.332L417.456 749.919L418.744 749.505L419.984 749.092H420.105L420.907 748.825L422.195 748.339C438.724 741.962 453.543 731.827 465.48 718.737V718.615L466.209 717.813C467.588 713.09 468.668 708.284 469.442 703.425C469.604 702.388 469.75 701.343 469.879 700.29C469.964 699.661 469.964 699.024 469.879 698.394C469.893 698.102 469.834 697.811 469.707 697.548C469.579 697.285 469.388 697.058 469.15 696.888C468.811 696.598 468.38 696.439 467.935 696.439C467.489 696.439 467.059 696.598 466.72 696.888C466.157 697.4 465.703 698.02 465.383 698.71C464.848 699.731 464.362 700.776 463.852 701.797C462.831 703.79 461.713 705.734 460.522 707.63C459.331 709.526 458.092 710.935 456.828 712.491C454.083 715.511 451.187 718.391 448.152 721.119C443.923 724.764 439.572 728.215 435.101 731.545C432.67 733.27 430.386 734.923 428.028 736.649C426.57 737.75 425.16 738.917 423.799 740.148L423.143 740.732C423.143 740.124 423.289 739.541 423.337 738.958C423.848 733.1 424.261 727.267 424.966 721.435C425.379 718.129 425.841 714.8 426.303 711.47C424.383 711.907 422.438 712.321 420.518 712.661L420.154 713.706C419.546 715.359 418.938 717.011 418.282 718.567C417.626 720.122 416.946 721.556 416.241 723.039C415.123 725.08 413.956 727.049 412.692 728.993C409.024 734.319 405.065 739.439 400.832 744.329C399.277 746.079 397.673 747.804 396.166 749.603C395.898 746.783 395.51 743.964 395.145 741.169C394.708 737.888 394.197 734.656 393.954 731.448C393.954 730.451 393.954 729.455 393.954 728.434C393.954 727.997 393.954 727.583 394.124 727.146V726.927C394.242 726.555 394.28 726.162 394.236 725.774C394.193 725.387 394.069 725.012 393.872 724.675C393.675 724.338 393.409 724.046 393.092 723.818C392.776 723.59 392.415 723.431 392.033 723.351C391.651 723.271 391.256 723.271 390.875 723.353C390.493 723.434 390.133 723.595 389.817 723.824C389.501 724.054 389.237 724.347 389.041 724.684C388.845 725.022 388.722 725.397 388.68 725.785L388.461 726.514C388.146 727.316 387.805 728.069 387.441 728.944C385.01 733.684 381.948 738.131 379.299 742.798C377.774 745.455 376.387 748.188 375.143 750.988V751.109C374.706 749.919 374.195 748.679 373.709 747.585C373.223 746.492 372.737 745.155 372.299 743.94C371.57 741.509 370.963 739.225 370.452 736.819C369.547 732.149 368.882 727.436 368.459 722.698C368.459 722.091 368.459 721.483 368.338 720.9C368.192 718.469 368.144 716.039 368.022 713.609C368.022 712.904 368.022 712.175 367.9 711.446C366.807 711.154 365.689 710.838 364.595 710.498C364.425 711.519 364.304 712.588 364.206 713.633C363.915 716.574 363.647 719.514 363.356 722.455C362.772 728.045 361.897 733.586 360.925 739.103C360.368 741.705 359.678 744.276 358.859 746.808L357.596 750.234C357.221 751.238 356.896 752.26 356.624 753.297C356.696 753.884 356.793 754.468 356.915 755.047Z" fill="#85CF41"/>
<path d="M169.29 555.805C170.768 555.436 172.138 554.724 173.291 553.728C174.443 552.732 175.346 551.478 175.925 550.069C172.386 545.091 167.518 541.209 161.877 538.865C161.658 541.101 161.561 543.337 161.464 545.549C161.464 546.448 161.464 547.372 161.464 548.271C167.686 547.906 167.248 552.864 163.894 556.218C165.703 556.425 167.534 556.284 169.29 555.805Z" fill="#E0D5D5"/>
<path d="M108.604 564.699C112.265 563.974 115.64 562.211 118.326 559.62C117.615 558.854 117.083 557.94 116.768 556.944C116.453 555.948 116.362 554.895 116.503 553.86C115.263 550.15 114.695 546.249 114.826 542.34C110.451 545.597 106.538 550.141 105.979 555.683C105.951 558.848 106.685 561.974 108.118 564.797L108.604 564.699Z" fill="#E0D5D5"/>
<path d="M232.651 608.642C233.4 606.686 233.946 604.658 234.279 602.59C230.172 594.156 219.357 592.455 210.972 594.108C205.066 595.007 199.719 597.583 197.872 603.708C200.706 606.17 202.744 609.418 203.729 613.041C207.896 610.981 212.51 609.989 217.155 610.155C221.801 610.32 226.332 611.637 230.342 613.988C231.245 612.267 232.017 610.479 232.651 608.642Z" fill="#E0D5D5"/>
<path d="M211.36 640.795C217.533 639.993 223.512 634.403 221.738 627.817C216.731 625.354 211.014 624.742 205.6 626.091C205.552 627.345 205.43 628.595 205.235 629.834C205.114 632.909 204.044 635.872 202.173 638.316C203.463 639.319 204.94 640.054 206.517 640.48C208.095 640.906 209.741 641.013 211.36 640.795Z" fill="#E0D5D5"/>
<path d="M168.269 668.599C163.256 663.525 158.889 657.852 155.266 651.708C154.003 649.934 152.715 648.135 151.621 646.239C150.576 645.073 148.875 643.809 147.392 644.976C145.521 646.798 145.545 649.836 145.18 652.267C144.742 656.639 145.155 661.054 146.396 665.269C153.386 667.849 160.828 668.982 168.269 668.599Z" fill="#E0D5D5"/>
<path d="M115.725 657.03C113.592 652.879 112.65 648.219 113.003 643.566C113.124 643.177 113.246 642.618 113.391 642.01C111.885 640.503 110.645 638.219 108.409 637.806C103.864 637.806 99.6598 643.298 97.7884 647.041C101.003 651.342 105.16 654.85 109.94 657.297C112.286 658.385 114.727 659.255 117.231 659.898C116.624 658.974 116.162 658.026 115.725 657.03Z" fill="#E0D5D5"/>
<path d="M98.5664 598.676C103.695 597.339 110.597 595.225 111.156 588.954C107.894 586.911 104.905 584.461 102.261 581.663C98.1174 587.232 94.6272 593.258 91.8585 599.624C94.1243 599.576 96.3763 599.258 98.5664 598.676Z" fill="#E0D5D5"/>
<path d="M627.831 371.729C628.791 362.101 631.475 352.725 635.754 344.047C635.316 340.304 634.83 336.561 634.174 332.867C632.421 334.637 630.571 336.308 628.633 337.874C623.772 342.589 619.227 347.887 613.176 351.119C611.304 351.946 609.384 352.723 607.464 353.55C604.447 353.769 601.445 354.159 598.472 354.716C598.739 362.25 599.809 369.736 600.222 377.246C603.836 376.745 607.487 376.55 611.134 376.663C614.291 376.762 617.435 377.103 620.54 377.683C622.783 375.48 625.224 373.487 627.831 371.729Z" fill="#E0D5D5"/>
<path d="M649.703 387.768C660.324 382.081 669.827 374.669 679.67 367.791C683.315 363.537 686.961 359.454 690.315 354.982C680.034 354.108 670.046 357.704 660.081 359.649C656.458 360.404 652.788 360.907 649.096 361.156C647.405 360.753 645.68 360.509 643.943 360.427C640.499 367.558 637.417 374.858 634.708 382.3C638.908 384.39 642.696 387.222 645.888 390.66C646.927 389.423 648.231 388.434 649.703 387.768Z" fill="#E0D5D5"/>
<path d="M677.628 459.585C680.262 459.193 682.834 458.466 685.284 457.421C687.13 456.696 688.897 455.784 690.558 454.699C692.496 453.491 694.283 452.055 695.88 450.422C697.086 449.129 698.214 447.765 699.259 446.339C701.333 443.591 703.102 440.624 704.532 437.492C705.576 435.146 706.39 432.704 706.963 430.201L707.109 429.545L707.23 428.913L707.084 429.594C707.23 428.913 707.352 428.257 707.473 427.576C707.865 424.973 707.377 422.313 706.088 420.018C705.234 418.574 704.062 417.344 702.661 416.421C701.251 432.51 687.447 447.36 670.847 447.36H670.702C662.608 447.131 654.857 444.039 648.828 438.635C646.005 437.868 643.229 436.934 640.516 435.84C639.617 435.548 638.718 435.232 637.843 434.892C629.177 439.33 619.202 440.495 609.748 438.173C603.988 437.006 584.885 430.201 588.385 422.302C590.815 420.042 597.523 422.302 600.707 422.618C604.522 423.25 608.387 423.736 612.251 424.077C621.778 425.292 631.208 421.646 635.461 416.275C635.461 416.154 635.461 416.008 635.461 415.862C635.285 414.677 634.731 413.58 633.881 412.735C633.032 411.89 631.932 411.341 630.746 411.171C630.175 411.074 629.592 411.074 629.021 411.171C627.587 410.734 626.201 410.199 624.792 409.762C622.589 409.082 620.339 408.571 618.059 408.231C615.646 407.868 613.209 407.673 610.768 407.647H608.338C607.414 407.647 606.467 407.647 605.519 407.647C604.277 407.342 603.006 407.17 601.727 407.137C599.699 407.111 597.689 407.516 595.829 408.324C593.968 409.133 592.301 410.327 590.936 411.828C589.696 413.196 588.672 414.744 587.898 416.421C587.341 417.745 586.949 419.133 586.732 420.553C586.44 422.47 586.44 424.42 586.732 426.337C587.189 429.912 588.07 433.42 589.357 436.788C590.65 440.25 592.408 443.52 594.582 446.509C597.278 450.679 600.97 454.112 605.324 456.498C608.586 457.858 612.157 458.303 615.653 457.786C616.103 457.739 616.549 457.666 616.99 457.567C617.691 452.708 619.803 448.161 623.066 444.492C623.727 443.84 624.442 443.247 625.205 442.718C625.551 442.326 626.013 442.056 626.524 441.949C627.035 441.841 627.567 441.9 628.042 442.118C628.516 442.336 628.908 442.702 629.159 443.16C629.409 443.618 629.506 444.145 629.434 444.662C629.85 447.449 630.118 450.256 630.236 453.071L631.791 452.658L633.93 452.366H635.801C638.232 452.634 640.662 453.095 643.238 453.557L650.967 454.991C652.935 455.429 654.904 455.939 656.824 456.571C659.286 457.528 661.801 458.339 664.358 459.001C667.215 459.638 670.132 459.964 673.059 459.973C674.589 459.94 676.115 459.81 677.628 459.585Z" fill="#E0D5D5"/>
<path d="M690.193 424.904C693.776 422.674 696.796 419.646 699.016 416.057C699.211 415.683 699.35 415.281 699.429 414.866C697.641 414.502 695.797 414.502 694.009 414.866C692.599 415.085 691.214 415.377 689.78 415.522C688.346 415.668 686.183 415.522 684.385 415.377C679.84 415.036 675.319 414.769 670.775 414.769C668.198 414.769 665.646 414.964 663.095 415.182C662.118 415.238 661.144 415.344 660.178 415.498C659.252 415.652 658.336 415.855 657.432 416.106L656.678 416.373C656.362 422.571 658.696 428.112 666.108 430.396C668.064 431.106 670.128 431.468 672.208 431.466C678.552 431.296 684.895 428.185 690.193 424.904Z" fill="#E0D5D5"/>
<path d="M672.987 497.671C673.933 496.615 674.571 495.32 674.834 493.928C666.319 496.381 657.35 496.822 648.635 495.216C648.363 495.679 648.119 496.157 647.906 496.65C647.366 497.949 647.115 499.35 647.17 500.755C647.224 502.161 647.583 503.538 648.222 504.792C656.995 505.569 667.106 504.913 672.987 497.671Z" fill="#E0D5D5"/>
<path d="M377.233 98.4077C377.702 98.2022 378.119 97.895 378.455 97.5083C378.79 97.1216 379.036 96.6651 379.173 96.1718C379.31 95.6786 379.336 95.161 379.249 94.6565C379.161 94.1521 378.962 93.6734 378.667 93.2553C377.379 86.9849 370.112 81.1034 363.939 75.9023C362.259 78.9369 361.07 82.2179 360.415 85.6239C363.369 89.666 367.054 93.1198 371.279 95.8072L372.98 96.9981C373.401 97.7044 374.063 98.2355 374.844 98.4943C375.625 98.7531 376.473 98.7223 377.233 98.4077Z" fill="white"/>
<path d="M417.797 114.741C419.371 114.572 420.843 113.878 421.977 112.773C423.162 111.937 424.061 110.758 424.553 109.394C425.72 105.968 426.765 100.11 423.338 97.7285C419.644 100.159 415.755 102.589 412.086 105.19C412.487 106.954 413.023 108.684 413.69 110.367C414.419 112.189 415.415 114.887 417.797 114.741Z" fill="white"/>
<path d="M337.133 112.649C338.226 112.003 339.105 111.051 339.662 109.911C340.22 108.77 340.43 107.492 340.268 106.233C340.258 106.168 340.258 106.103 340.268 106.038C335.407 101.882 330.133 98.3582 325.151 94.4453C325.208 100.563 326.769 106.572 329.696 111.944C330.71 112.817 331.97 113.353 333.302 113.479C334.634 113.606 335.973 113.315 337.133 112.649Z" fill="white"/>
<path d="M493.381 236.479C493.29 235.126 492.688 233.859 491.698 232.933C490.707 232.007 489.402 231.492 488.047 231.492C486.691 231.492 485.386 232.007 484.395 232.933C483.405 233.859 482.803 235.126 482.712 236.479C482.803 237.831 483.405 239.099 484.395 240.025C485.386 240.95 486.691 241.465 488.047 241.465C489.402 241.465 490.707 240.95 491.698 240.025C492.688 239.099 493.29 237.831 493.381 236.479Z" fill="white"/>
<path d="M491.728 244.743C493.684 243.878 495.329 242.436 496.443 240.611C496.686 240.198 496.905 239.809 497.1 239.396C496.443 237.84 495.812 236.309 495.155 234.778C484.583 217.158 473.282 199.683 459.623 184.323C459.915 186.073 460.547 187.774 460.838 189.524C460.449 191.25 460.036 192.951 459.72 194.677C459.013 199.305 459.153 204.024 460.134 208.603C460.401 209.988 460.668 211.349 460.984 212.71C464.022 218.956 466.768 225.324 469.32 231.789C473.841 238.448 482.955 248.339 491.728 244.743Z" fill="white"/>
<path d="M449.926 238.276C451.844 237.746 453.545 236.623 454.787 235.068C456.153 233.425 456.886 231.347 456.852 229.21C456.148 227.12 455.467 225.006 454.762 222.916C453.901 221.707 452.759 220.727 451.434 220.059C450.109 219.391 448.641 219.055 447.158 219.082C445.674 219.108 444.219 219.495 442.919 220.21C441.618 220.924 440.512 221.945 439.694 223.183C439.1 224.084 438.642 225.066 438.333 226.1C437.871 227.827 437.871 229.646 438.333 231.374C438.79 233.023 439.662 234.529 440.866 235.746C442.07 236.963 443.566 237.85 445.211 238.324C446.001 238.55 446.819 238.665 447.641 238.665C448.416 238.632 449.184 238.501 449.926 238.276Z" fill="white"/>
<path d="M439.573 223.182L439.913 222.672L439.257 223.644C439.354 223.425 439.476 223.182 439.573 223.182Z" fill="white"/>
<path d="M645.936 390.588C642.744 387.149 638.957 384.317 634.756 382.227C643.992 357.583 656.824 329.974 682.975 320.155C710.122 311.965 703.293 336.706 693.256 350.997C690.412 355.082 687.336 359.002 684.044 362.736C682.683 364.413 681.152 366.065 679.718 367.791L678.479 368.569C670.496 374.662 662.206 380.34 653.64 385.581L649.752 387.793C648.289 388.431 646.986 389.386 645.936 390.588ZM612.324 487.098C611.478 485.223 611.008 483.2 610.939 481.144C615.008 481.238 619.067 481.596 623.09 482.213L625.059 482.578C634.008 491.379 646.071 496.288 658.623 496.237C661.016 496.241 663.406 496.045 665.768 495.653C668.866 495.292 671.936 494.715 674.955 493.928C674.694 495.326 674.046 496.623 673.083 497.67C668.83 503.187 661.418 504.792 654.807 505.083C640.784 505.107 619.007 500.733 612.324 487.098ZM598.665 358.531C597.887 345.358 597.766 331.797 601.922 319.135C612.834 291.234 626.906 303.629 632.69 325.867C634.205 331.837 635.261 337.915 635.85 344.046C631.537 352.717 628.82 362.094 627.83 371.728C625.228 373.448 622.787 375.4 620.539 377.561C617.434 376.981 614.29 376.64 611.133 376.54C607.486 376.428 603.835 376.623 600.221 377.124C600.232 375.805 600.135 374.488 599.929 373.186C599.662 368.301 599.103 363.416 598.665 358.531ZM573.097 426.363C572.42 418.446 574.794 410.569 579.732 404.344C591.884 392.192 611.984 389.762 627.344 396.737C649.849 409.642 631.111 426.29 612.056 423.86C608.192 423.52 604.328 423.033 600.512 422.402C597.328 422.159 590.621 419.825 588.19 422.086C584.69 429.984 603.793 436.668 609.553 437.956C618.983 440.239 628.919 439.057 637.551 434.626C638.426 434.967 639.325 435.283 640.225 435.574C642.938 436.669 645.713 437.602 648.537 438.369C654.566 443.774 662.316 446.865 670.41 447.094H670.556C687.568 447.094 701.786 431.345 702.442 414.697C702.492 414.484 702.496 414.263 702.456 414.049C702.415 413.834 702.331 413.63 702.208 413.449C702.084 413.269 701.925 413.116 701.739 413C701.554 412.885 701.346 412.809 701.13 412.777C699.137 412.583 699.477 414.746 698.7 415.937C696.584 419.535 693.675 422.603 690.193 424.905C683.194 429.304 674.371 433.314 666.108 430.276C655.366 426.971 655.317 416.86 658.428 407.746C658.696 407.042 659.011 406.337 659.303 405.656C659.595 404.976 659.886 404.903 660.202 404.563C664.577 399.702 669.413 395.084 675.66 392.945C681.478 391.158 687.681 391.044 693.561 392.617C699.441 394.19 704.759 397.387 708.907 401.841C713.987 407.771 714.983 416.058 714.546 423.714C713.039 445.369 699.526 466.367 679.451 475.165C664.285 481.922 641.95 482.821 632.69 466.221C629.75 459.416 630.6 451.639 629.385 444.542C629.457 444.025 629.361 443.498 629.11 443.04C628.859 442.582 628.468 442.217 627.993 441.999C627.519 441.78 626.987 441.721 626.476 441.829C625.965 441.937 625.502 442.207 625.156 442.598C624.389 443.121 623.673 443.715 623.017 444.372C619.755 448.041 617.642 452.588 616.942 457.448C616.483 460.146 616.41 462.895 616.723 465.614C608.995 465.408 601.389 463.639 594.363 460.413C581.871 454.069 574.361 440.143 573.097 426.363ZM554.748 532.231C554.242 529.489 554.16 526.685 554.505 523.919C555.012 520.562 555.825 517.259 556.935 514.051C569.549 524.307 586.319 532.717 601.752 532.717C602.845 532.717 603.939 532.717 605.008 532.595C609.29 532.166 613.438 530.866 617.199 528.777C620.961 526.687 624.255 523.851 626.882 520.443C627.501 519.541 628.061 518.599 628.559 517.624C636.874 520.176 645.526 521.462 654.224 521.44H655.585C652.351 526.991 648.556 532.195 644.259 536.97C638.577 542.542 631.606 546.625 623.965 548.854C603.356 554.104 581.968 546.424 563.643 537.383C560.835 535.852 557.919 534.528 554.918 533.421C554.918 533.033 554.918 532.619 554.748 532.231ZM558.831 950.937C546.833 951.886 534.788 952.089 522.764 951.544C532.606 948.307 542.206 944.376 551.491 939.781C567.848 932.053 583.086 920.338 592.127 904.638C609.14 875.741 613.393 840.573 633.444 813.426C642.412 802.1 658.064 792.865 671.577 802.756C676.659 805.923 680.843 810.341 683.728 815.589C683.67 815.908 683.691 816.236 683.788 816.545C683.886 816.854 684.057 817.135 684.287 817.363C686.798 830.346 685.825 843.763 681.468 856.249C674.299 877.831 666.011 899.704 652.304 918.029C629.847 945.59 591.666 948.287 558.831 950.937ZM464.848 856.346C463.9 847.086 469.466 838.774 474.934 831.824C478.662 827.376 483.198 823.673 488.301 820.911C495.019 816.948 502.452 814.346 510.175 813.255C515.74 812.745 522.327 812.624 526.58 816.707C528.234 818.641 529.342 820.982 529.788 823.487C528.049 827.62 526.596 831.867 525.438 836.198C505.12 835.955 482.93 845.482 466.428 859.87C465.584 858.865 465.036 857.645 464.848 856.346ZM459.331 926.317C451.505 909.985 459.574 890.615 470.949 878.049C483.611 864.512 500.769 856.735 518.147 850.999V851.364C519.456 854.372 520.584 857.456 521.525 860.599C521.571 865.979 522.133 871.342 523.202 876.615C523.564 877.279 524.162 877.782 524.878 878.024C525.594 878.267 526.375 878.232 527.066 877.926C527.757 877.621 528.308 877.066 528.61 876.373C528.911 875.68 528.941 874.899 528.694 874.185C536.374 833.014 556.644 795.198 596.745 778.258C604.989 775.165 613.727 773.6 622.531 773.64C639.836 773.64 657.262 779.473 669.341 791.139C658.015 787.007 645.523 790.24 635.315 799.232C623.795 808.954 617.063 822.977 611.303 836.684C604.62 852.895 599.151 869.616 592.079 885.632C587.655 896.366 581.155 906.12 572.952 914.335C561.091 926.122 545.44 933.778 530.08 939.708C520.966 943.062 511.706 946.562 502.009 947.656C499.433 947.826 496.881 947.899 494.304 947.923C478.701 944.326 465.164 937.715 459.331 926.317ZM439.451 764.964C442.951 762.776 446.207 760.103 449.537 757.818C452.21 755.777 454.908 753.784 457.387 751.524C467.518 760.922 476.821 771.175 485.191 782.171C489.274 787.858 493.089 793.764 496.978 799.597C487.362 802.441 478.384 807.112 470.535 813.353C466.796 804.04 462.104 795.138 456.536 786.789C451.609 778.944 445.883 771.63 439.451 764.964ZM394.756 124.68C395.145 123.756 395.582 122.833 396.068 121.934C398.265 118.388 400.885 115.124 403.87 112.212C409.436 106.258 416.678 102.345 423.313 97.7998C426.74 100.23 425.743 106.039 424.528 109.466C421.199 118.264 413.057 123.683 405.085 128.107C401.804 126.794 398.256 125.676 394.756 124.68ZM362.772 114.229C359.321 101.907 357.474 87.495 363.939 75.9021C379.104 87.7624 384.913 98.4317 382.799 117.948C382.661 119.229 382.458 120.503 382.191 121.763C376.413 120.722 370.562 120.129 364.692 119.989C363.963 118.118 363.331 116.246 362.772 114.229ZM336.33 121.788C329.743 113.67 325.223 105.164 325.126 94.4459C332.101 99.9386 339.829 104.629 345.662 111.459C346.902 113.281 348.287 115.08 349.6 116.927C350.101 118.152 350.677 119.345 351.325 120.5C346.428 120.916 341.559 121.614 336.743 122.59L336.33 121.788ZM227.886 837.632C219.428 821.3 215.734 793.18 232.236 780.713C243.781 772.304 258.29 774.904 269.446 782.39C270.005 783.483 270.539 784.601 271.001 785.744C271.366 786.424 271.73 787.25 272.095 788.174C268.619 788.636 265.144 788.952 261.644 789.122C260.064 789.292 258.558 789.438 257.026 789.535C256.365 789.063 255.578 788.801 254.766 788.782C252.55 788.653 250.331 788.975 248.243 789.727C246.155 790.478 244.24 791.645 242.614 793.156C237.793 797.286 234.224 802.682 232.309 808.735C231.085 813.622 230.862 818.706 231.653 823.682C232.391 827.334 233.973 830.763 236.271 833.695C237.017 835.005 238.071 836.114 239.341 836.927C240.611 837.74 242.06 838.232 243.562 838.361C244.344 838.358 245.119 838.209 245.847 837.924C247.747 838.615 249.735 839.032 251.752 839.163C254.353 839.406 256.953 839.504 259.554 839.504C264.925 839.504 270.272 839.09 275.619 838.677L279.58 838.337C279.407 839.367 279.104 840.371 278.681 841.326C277.471 843.483 275.814 845.356 273.82 846.819C262.924 847.378 252.189 849.692 242.031 853.673C236.212 849.411 231.386 843.939 227.886 837.632ZM163.724 528.974L164.016 528.075C166.444 521.566 170.564 515.822 175.951 511.434C181.338 507.047 187.797 504.175 194.663 503.115C212.842 499.275 229.733 506.031 245.288 515.266C245.118 516.384 244.972 517.527 244.802 518.645C242.517 534.296 239.649 549.851 236.879 565.405L235.323 564.141C226.367 556.946 215.217 553.035 203.728 553.059C200.575 553.164 197.44 553.587 194.371 554.323C193.23 548.496 190.408 543.131 186.254 538.89C181.442 533.519 171.647 527.977 163.627 528.877L163.724 528.974ZM149.992 889.934C148.571 880.469 147.986 870.896 148.243 861.328C148.729 843.101 152.277 824.484 162.266 808.954C170.724 795.222 186.57 783.678 203.072 782.463L203.777 783.046C205.284 784.237 206.79 785.476 208.273 786.667C204.449 797.023 203.378 808.194 205.162 819.088C207.009 832.699 212.064 846.43 221.47 856.613C221.447 858.864 221.227 861.109 220.814 863.321C220.551 864.735 220.202 866.131 219.769 867.502C219.758 867.607 219.758 867.712 219.769 867.817C215.808 871.292 212.514 875.459 210.047 880.115C207.617 884.441 208.078 890.128 214.349 887.139C217.477 885.535 220.475 883.691 223.317 881.622C233.452 874.987 244.145 868.838 255.981 865.922C272.605 861.694 290.042 861.861 306.582 866.408C314.787 869.193 322.432 873.415 329.16 878.876C340.875 889.035 351.52 901.624 355.287 916.96C357.134 925.174 357.717 933.243 354.072 941.069C349.745 950.086 342.09 954.704 332.563 956.867C320.099 959.193 307.514 960.816 294.867 961.727C271.442 963.992 247.871 964.358 224.386 962.821C210.922 961.727 196.753 960.391 184.893 953.416C171.039 944.788 163.627 933.608 157.891 918.588C154.373 909.27 151.729 899.645 149.992 889.837V889.934ZM129.601 548.854C129.601 547.858 129.601 546.886 129.601 545.962C129.772 541.101 129.601 535.706 130.015 531.064C130.505 521.553 132.07 512.128 134.681 502.969C137.118 495.015 141.488 487.789 147.4 481.936C153.312 476.083 160.582 471.787 168.56 469.429C182.912 464.861 198.123 463.663 213.012 465.93C226.933 468.146 240.453 472.396 253.138 478.543C256.654 480.439 260.218 482.27 263.831 484.036C266.97 485.909 270.324 487.394 273.82 488.459C278.535 488.289 274.574 480.877 273.334 478.738C271.264 475.483 268.744 472.537 265.849 469.988C266.31 461.871 266.578 453.729 266.553 445.563C266.96 425.835 266.221 406.099 264.342 386.456C261.158 353.962 254.62 321.857 252.433 289.241C251.145 259.42 250.829 228.481 262.495 200.362C267.299 189.481 273.778 179.418 281.695 170.541C289.369 161.603 298.652 154.184 309.061 148.668C323.3 141.951 338.626 137.835 354.315 136.516C356.745 136.321 359.175 136.224 361.484 136.224C373.588 136.351 385.587 138.486 396.992 142.543C414.805 148.491 431.273 157.889 445.454 170.201C465.893 188.38 481.035 211.517 495.034 234.728C504.123 256.212 513.116 277.745 520.31 299.91C525.732 321.163 529.791 342.74 532.461 364.51C538.13 407.076 540.349 450.031 539.096 492.956C538.076 530.529 530.687 567.568 520.941 603.757C512.168 637.782 500.04 671.175 480.184 700.34C468.397 717.887 453.45 733.539 434.517 743.236C415.074 752.496 393.419 756.433 371.959 757.332C371.765 755.412 371.473 753.517 371.108 751.645C370.66 747.94 369.13 744.449 366.709 741.608C366.566 741.459 366.386 741.35 366.189 741.29C365.991 741.231 365.781 741.222 365.579 741.266C365.377 741.31 365.19 741.404 365.035 741.541C364.88 741.677 364.762 741.851 364.692 742.045C363.664 743.943 362.981 746.009 362.675 748.146C360.245 758.45 358.592 769.12 354.849 778.987C348.36 796.121 333.292 806.062 317.251 813.328C296.399 822.418 273.018 822.564 250.805 823.366C249.322 823.366 249.249 823.366 248.107 823.366H247.548C247.301 822.755 247.09 822.13 246.916 821.494C246.23 818.968 245.798 816.379 245.628 813.766C246.562 810.901 248.505 808.474 251.096 806.936C253.999 805.985 256.986 805.31 260.016 804.919C261.012 805.076 262.021 805.149 263.029 805.138H264.658C273.187 804.723 281.634 803.27 289.812 800.812C307.432 795.028 324.518 782.39 329.67 763.822C331.538 757.989 331.931 751.785 330.813 745.764C330.419 743.759 329.705 741.83 328.698 740.052C328.631 739.848 328.507 739.667 328.342 739.53C328.176 739.392 327.975 739.305 327.762 739.277C327.548 739.249 327.331 739.282 327.136 739.372C326.941 739.462 326.774 739.605 326.657 739.785C325.572 741.146 324.68 742.651 324.008 744.257C323.133 746.007 322.331 747.757 321.577 749.555L321.31 750.211C313.601 747.396 306.258 743.667 299.437 739.105C282.606 726.876 268.749 711.009 258.898 692.684C253.983 682.519 250.318 671.796 247.985 660.749C249.766 655.407 250.406 649.751 249.866 644.145C249.326 638.54 247.618 633.11 244.85 628.206C244.85 623.589 245.288 618.971 245.749 614.353C247.491 611.421 248.778 608.241 249.565 604.923C250.926 599.109 250.975 593.066 249.711 587.23C249.93 585.82 250.173 584.435 250.391 583.025C253.915 563.582 257.464 544.139 260.332 524.502L265.192 527.783C266.529 528.585 268.887 529.922 269.81 527.953C270.539 523.821 267.258 519.714 264.949 516.53C260.039 510.691 254.23 505.67 247.742 501.656C235.056 493.563 220.862 486.904 205.648 486.126C182.875 485.13 160.759 496.261 150.746 517.235C147.119 525.167 145.324 533.815 145.496 542.535C145.383 545.067 145.489 547.604 145.812 550.118C140.378 550.316 134.939 549.892 129.601 548.854ZM119.127 576.779C112.103 571.919 105.735 564.627 105.905 555.586C106.464 550.045 110.377 545.5 114.752 542.244C114.752 543.021 114.752 543.799 114.752 544.674C114.841 547.216 115.15 549.744 115.675 552.233C115.818 552.803 116.038 553.351 116.332 553.861C116.104 555.363 116.387 556.899 117.136 558.221C117.885 559.543 119.057 560.576 120.463 561.152C126.365 563.241 132.577 564.318 138.837 564.336C141.639 564.346 144.437 564.11 147.197 563.631C153.298 562.562 159.714 560.569 164.016 555.878C165.523 554.177 167.029 551.017 165.158 549.17C163.955 548.465 162.562 548.151 161.172 548.271C161.172 547.372 161.172 546.448 161.172 545.549C161.172 543.337 161.367 541.101 161.585 538.865C162.071 539.108 162.582 539.303 163.019 539.497C167.968 541.873 172.258 545.429 175.511 549.851C185.233 565.818 170.991 579.015 155.436 581.762C143.576 583.973 130.039 583.463 119.248 576.877L119.127 576.779ZM88.9899 627.088C87.0171 616.12 88.726 604.807 93.8506 594.91C95.3818 591.994 97.083 589.174 98.8815 586.428C99.9994 584.8 101.19 583.22 102.211 581.567C112.686 592.893 128.945 597.924 144.354 597.924H146.371C159.058 597.365 172.716 594.983 182.535 586.379C188.017 581.963 191.957 575.921 193.788 569.124C195.076 569.124 196.413 568.978 197.749 568.856C199.821 568.588 201.915 568.547 203.995 568.735C212.319 569.229 220.25 572.439 226.574 577.873C229.457 580.604 231.641 583.988 232.941 587.74C235.222 594.486 235.085 601.816 232.552 608.472C231.89 610.317 231.077 612.106 230.122 613.818C226.112 611.467 221.581 610.15 216.935 609.985C212.29 609.819 207.676 610.811 203.509 612.871C203.339 612.336 203.145 611.825 202.926 611.291C202.073 609.04 200.867 606.94 199.353 605.069C198.824 604.358 198.132 603.783 197.336 603.392C197.079 603.281 196.802 603.227 196.522 603.234C196.243 603.24 195.968 603.307 195.716 603.429C195.465 603.551 195.243 603.726 195.065 603.942C194.888 604.158 194.759 604.41 194.687 604.68C194.561 605.288 194.496 605.907 194.493 606.527C193.893 613.179 192.681 619.761 190.871 626.189C190.385 629.008 189.219 631.803 189.924 634.695C190.167 636.008 190.741 637.237 191.591 638.266C192.442 639.296 193.541 640.091 194.784 640.577C195.298 640.723 195.83 640.796 196.364 640.796C197.871 640.801 199.326 640.247 200.447 639.24C203.85 637.223 204.36 633.213 204.919 629.664C205.114 628.425 205.236 627.175 205.284 625.922L206.426 625.752C208.464 625.341 210.547 625.194 212.623 625.314C225.82 625.581 235.663 639.459 233.039 652.048C230.997 663.495 221.834 666.436 211.481 667.214C202.002 667.798 192.558 665.602 184.309 660.895C177.785 657.78 171.561 654.07 165.717 649.812C161.301 646.985 157.377 643.455 154.1 639.362C153.707 638.856 153.15 638.501 152.525 638.359C151.9 638.217 151.246 638.296 150.672 638.583C150.099 638.87 149.643 639.346 149.382 639.931C149.12 640.516 149.07 641.174 149.239 641.792C150.693 645.272 152.605 648.541 154.926 651.514C158.549 657.658 162.916 663.331 167.929 668.405C161.184 668.778 154.428 667.904 147.999 665.829C134.219 661.575 125.907 650.274 116.769 639.969C116.713 639.635 116.554 639.327 116.315 639.087C116.075 638.848 115.767 638.689 115.432 638.633C113.439 638.365 113.123 641.987 112.662 643.372C112.312 648.033 113.254 652.7 115.384 656.86C115.821 657.833 116.283 658.78 116.793 659.704C114.289 659.061 111.848 658.191 109.502 657.103C98.444 651.514 91.566 639.41 89.1114 627.185L88.9899 627.088ZM91.7119 574.616C76.2547 586.768 69.8385 608.18 72.5119 627.258C75.6228 649.885 92.684 674.797 117.352 675.453C121.152 675.427 124.904 674.599 128.362 673.022C138.134 680.484 150.093 684.516 162.387 684.494H163.165C168.957 684.122 174.628 682.672 179.886 680.216C181.16 679.785 182.395 679.248 183.58 678.612C191.414 681.996 199.861 683.726 208.394 683.692C214.37 683.729 220.32 682.911 226.063 681.262C229.32 680.376 232.419 678.99 235.25 677.154C240.37 695.039 249.272 711.615 261.352 725.762C269.483 735.779 278.925 744.656 289.423 752.156C296.875 757.321 304.921 761.573 313.387 764.818C306.52 774.222 296.896 781.256 285.851 784.942C285.821 783.227 285.518 781.529 284.951 779.911C277.369 762.315 253.818 756.093 236.344 760.735C230.975 762.159 225.944 764.638 221.543 768.026C219.914 767.54 218.189 767.273 216.561 766.908C213.851 766.356 211.106 765.999 208.346 765.839C189.583 765.012 171.355 773.98 158.377 787.177C141.049 804.919 133.466 829.977 132.008 854.28C131.241 866.687 131.754 879.139 133.539 891.441C135.589 903.479 138.93 915.261 143.503 926.584C152.617 951.35 172.959 971.036 199.402 975.824C208.217 977.607 217.154 978.72 226.136 979.153C234.764 979.688 243.392 979.98 252.044 979.98C255.325 979.98 258.63 979.98 261.911 979.834C279.41 979.275 296.909 977.962 314.286 975.994C323.765 974.876 335.163 973.563 343.767 970.404C351.795 967.593 358.829 962.503 364.009 955.756C369.189 949.009 372.289 940.899 372.931 932.417C373.297 926.126 372.757 919.816 371.327 913.679C368.216 899.096 359.175 885.559 349.114 875.133C340.477 865.753 329.959 858.3 318.248 853.26C312.604 850.847 306.687 849.133 300.627 848.156L297.517 847.621C299.629 843.725 300.74 839.366 300.749 834.934C312.818 832.364 324.412 827.928 335.115 821.786C343.306 817.378 350.699 811.627 356.988 804.773C363.711 797.345 368.436 788.329 370.72 778.574C371.108 776.97 371.4 775.366 371.643 773.713C374.317 773.592 376.99 773.421 379.639 773.203C393.56 772.249 407.338 769.805 420.737 765.912C422.973 769.436 426.302 772.304 428.806 775.633C440.797 789.233 451.284 804.088 460.085 819.939C460.614 820.718 461.093 821.53 461.519 822.369C459.521 824.913 457.656 827.558 455.929 830.292C453.787 833.64 452.149 837.284 451.068 841.108C449.279 846.246 449.101 851.808 450.558 857.051C451.271 859.807 452.706 862.324 454.714 864.342C455.942 865.468 457.315 866.424 458.797 867.186C454.892 871.456 451.469 876.142 448.589 881.16C436.996 900.871 436.073 928.626 453.45 945.274C471.483 963.745 507.939 967.949 535.913 967.949C540.287 967.949 544.419 967.949 548.283 967.682C603.137 964.692 655.22 959.686 680.107 903.107C692.478 876.008 706.477 846.187 700.547 815.613C694.592 779.741 658.963 756.239 623.868 757.065C589.235 755.898 556.133 778.331 537.687 808.103C534.746 803.787 530.481 800.546 525.535 798.868C520.18 797.154 514.533 796.542 508.935 797.069C507.948 793.006 506.522 789.061 504.682 785.306C496.662 769.654 484.777 753.419 470.657 742.896L467.157 740.466C471.174 736.874 474.988 733.06 478.58 729.043C506.967 696.67 524.004 655.961 534.989 614.815C540.142 595.663 544.711 576.366 548.162 556.85C548.769 553.375 549.328 549.899 549.839 546.4C552.539 548.552 555.39 550.51 558.369 552.257C574.248 561.103 592.017 566.012 610.185 566.572H610.695C633.249 566.572 656.435 553.934 664.747 532.303C666.415 528.107 667.487 523.698 667.931 519.204C674.06 517.517 679.556 514.059 683.728 509.263C686.092 506.544 687.708 503.257 688.42 499.726C689.131 496.194 688.913 492.538 687.787 489.116C697.428 484.331 705.974 477.603 712.888 469.355C719.802 461.107 724.934 451.517 727.961 441.188C733.819 421.478 732.312 396.518 713.574 384.245C707.776 380.09 701.14 377.253 694.13 375.933C695.127 374.888 696.099 373.77 697.096 372.603C706.817 361.205 715.98 348.129 718.118 332.915C721.497 314.395 706.647 299.813 688.225 302.438C671.504 304.504 656.8 314.395 646.058 327.835C645.596 312.718 639.52 296.581 627.076 289.824C618.327 284.283 606.54 286.738 599.248 293.616C580.34 311.722 581.045 340.765 582.868 364.996C583.597 369.468 583.232 376.467 585.298 381.182C569.039 388.012 557.276 402.156 556.765 422.499C556.109 447.58 572.927 472.395 596.769 479.102C596.091 483.689 596.474 488.37 597.887 492.785C601.668 501.196 608.152 508.1 616.31 512.399C615.329 513.19 614.307 513.929 613.247 514.61C609.975 516.703 606.194 517.862 602.311 517.964C599.719 517.928 597.141 517.585 594.631 516.943C589.192 515.502 583.958 513.379 579.052 510.624C570.862 506.031 563.619 500.004 555.574 495.216C555.113 494.876 554.675 494.535 554.262 494.171C554.699 483.428 554.87 472.686 554.87 461.944C554.738 415.974 550.263 370.12 541.503 324.992C536.188 299.421 528.666 274.359 519.021 250.088C512.12 231.589 503.092 213.956 492.117 197.543C485.135 187.552 477.234 178.236 468.518 169.715C458.01 158.317 445.873 148.538 432.5 140.696C428.636 138.557 424.674 136.492 420.664 134.572C424.632 132.477 428.087 129.53 430.781 125.941C433.475 122.352 435.34 118.211 436.243 113.816C439.329 99.1122 431.236 74.1279 412.717 86.6444C407.221 90.7467 402.156 95.3964 397.6 100.522C397.6 99.8414 397.478 99.1852 397.405 98.5289C395.388 85.2591 386.371 74.7598 376.382 66.4236C371.522 61.5629 364.036 57.1153 357.839 62.3649C354.995 64.7953 354.12 68.4165 353.245 71.7948C351.204 79.9851 348.384 88.0054 347.242 96.3902C345.72 94.5516 344.054 92.8369 342.26 91.2621C336.233 86.4013 327.289 77.2145 319.025 80.131C311.734 83.2418 310.3 92.4773 310.179 99.574C310.093 106.111 312.038 112.514 315.744 117.899C317.778 120.965 320.233 123.73 323.036 126.114C313.756 128.705 304.827 132.418 296.447 137.172C282.01 146.287 269.601 158.274 259.991 172.388C255.904 177.986 252.386 183.978 249.492 190.276C237.924 214.58 235.663 241.97 235.785 268.534C235.299 313.253 246.381 356.976 249.444 401.403C250.675 420.959 250.91 440.565 250.148 460.145C228.658 450.36 204.861 446.774 181.442 449.792C166.47 452.222 151.305 457.229 139.736 467.291C128.075 477.534 120.121 491.34 117.109 506.566C115.56 513.567 114.745 520.71 114.679 527.88C101.263 528.682 91.2015 542.122 91.2501 555.222C91.4512 561.256 93.0219 567.165 95.8435 572.502C94.426 573.082 93.0803 573.824 91.8334 574.714L91.7119 574.616Z" fill="#1B1818"/>
<path d="M355.628 423.591C353.659 425.365 350.402 430.566 355.36 430.566C357.402 430.566 359.468 430.42 361.509 430.202C361.509 432.438 361.801 434.698 361.752 436.885C362.238 453.898 369.286 470.425 379.445 484.472C385.054 492.265 392.424 498.624 400.955 503.029C409.486 507.434 418.938 509.761 428.539 509.821H429.9C468.786 509.141 487.549 479.66 490.659 446.631C490.927 442.805 490.723 438.96 490.052 435.184C491.947 435.248 493.837 435.411 495.715 435.67C496.114 435.876 496.554 435.992 497.003 436.01C497.482 436.011 497.943 435.829 498.291 435.5C498.487 435.32 498.638 435.096 498.732 434.847C498.826 434.598 498.86 434.33 498.832 434.065C498.804 433.801 498.714 433.546 498.569 433.323C498.424 433.099 498.229 432.912 497.999 432.778C497.301 431.849 496.555 430.956 495.763 430.105C493.53 427.783 490.807 425.989 487.792 424.855C477.851 419.873 472.602 430.226 480.646 433.531C480.646 435.792 480.889 438.271 480.646 439.923C480.646 443.399 480.646 446.874 480.33 450.35C479.873 460.93 476.454 471.17 470.463 479.903C465.33 487.105 458.443 492.877 450.454 496.67C442.465 500.463 433.64 502.153 424.815 501.578C415.989 501.004 407.457 498.184 400.028 493.387C392.598 488.59 386.517 481.974 382.362 474.167C375.117 459.977 371.17 444.333 370.817 428.403L371.765 428.185C373.186 428.052 374.533 427.493 375.63 426.581C376.472 425.82 376.989 424.763 377.07 423.631C377.152 422.498 376.792 421.378 376.067 420.505C375.214 419.707 374.2 419.102 373.093 418.729C371.986 418.356 370.813 418.224 369.651 418.342C364.496 418.34 359.514 420.205 355.628 423.591Z" fill="#1B1818"/>
<path d="M388.025 382.202C387.612 387.289 387.612 392.402 388.025 397.489C388.421 402.066 389.234 406.597 390.455 411.026C390.917 412.655 391.476 414.283 392.035 415.887C392.488 417.219 393.032 418.519 393.663 419.776C394.405 421.338 395.318 422.814 396.385 424.175C397.049 425.056 397.798 425.871 398.621 426.605C400.452 428.135 402.75 428.992 405.135 429.035C405.588 429.071 406.043 429.071 406.496 429.035C408.148 428.747 409.712 428.082 411.065 427.091C412.916 425.75 414.417 423.983 415.44 421.939C416.586 419.714 417.475 417.365 418.089 414.939C418.753 412.304 419.224 409.623 419.498 406.919C419.774 404.173 419.904 401.415 419.887 398.656C419.887 397.708 419.887 396.76 419.887 395.788C419.886 391.726 419.643 387.668 419.158 383.636C418.758 380.125 418.1 376.648 417.19 373.234C416.714 371.574 416.121 369.949 415.415 368.373C414.752 366.799 413.939 365.294 412.985 363.877C411.954 362.253 410.675 360.801 409.194 359.575C407.971 358.575 406.537 357.866 405 357.504C403.463 357.142 401.863 357.135 400.323 357.485C395.267 358.724 392.327 363.78 390.601 368.349C389.175 372.843 388.31 377.496 388.025 382.202Z" fill="#1B1818"/>
<path d="M391.84 387.402C410.676 382.541 404.989 375.712 389.094 374.667C388.591 377.155 388.234 379.671 388.024 382.201C387.854 384.218 387.781 386.236 387.757 388.277C389.118 388.01 390.503 387.742 391.84 387.402Z" fill="white"/>
<path d="M434.517 382.202C434.092 387.289 434.092 392.402 434.517 397.489C434.901 402.067 435.714 406.6 436.947 411.026C437.409 412.654 437.968 414.283 438.527 415.887C438.98 417.219 439.524 418.518 440.156 419.775C440.897 421.338 441.81 422.814 442.878 424.174C443.534 425.062 444.283 425.877 445.114 426.605C446.931 428.14 449.224 428.998 451.603 429.035C452.064 429.071 452.527 429.071 452.988 429.035C454.64 428.747 456.204 428.081 457.557 427.091C459.399 425.74 460.897 423.975 461.932 421.938C463.078 419.714 463.967 417.365 464.581 414.939C465.249 412.305 465.712 409.624 465.966 406.919C466.262 404.174 466.4 401.415 466.379 398.655C466.379 397.708 466.379 396.76 466.379 395.788C466.37 391.726 466.119 387.668 465.626 383.636C465.246 380.124 464.596 376.646 463.682 373.234C463.195 371.577 462.603 369.953 461.907 368.373C461.245 366.799 460.431 365.293 459.477 363.877C458.445 362.247 457.157 360.794 455.661 359.575C454.444 358.575 453.014 357.867 451.48 357.504C449.947 357.142 448.351 357.135 446.815 357.485C441.76 358.724 438.795 363.779 437.093 368.349C435.667 372.843 434.802 377.495 434.517 382.202Z" fill="#1B1818"/>
<path d="M440.01 390.103C443.42 389.349 446.607 387.809 449.318 385.607C452.502 382.545 450.193 379.166 446.669 377.927C442.977 376.765 439.115 376.239 435.246 376.371C434.922 378.283 434.679 380.228 434.517 382.204C434.278 385.269 434.197 388.343 434.274 391.416C436.208 391.079 438.122 390.641 440.01 390.103Z" fill="white"/>
</g>
</svg>
