<svg width="768" height="768" viewBox="0 0 768 768" fill="none" xmlns="http://www.w3.org/2000/svg">
<mask id="mask0_250_3081" style="mask-type:alpha" maskUnits="userSpaceOnUse" x="0" y="0" width="768" height="768">
<circle cx="384" cy="384" r="384" transform="matrix(-1 0 0 1 768 0)" fill="#D9D9D9"/>
</mask>
<g mask="url(#mask0_250_3081)">
<rect width="768" height="768" transform="matrix(-1 0 0 1 768 0)" fill="#C1F5F5"/>
<path d="M68.2703 347.469L63.4095 345.622C63.1785 345.478 62.9879 345.278 62.8558 345.04C62.7237 344.801 62.6544 344.534 62.6544 344.261C62.6544 343.989 62.7237 343.721 62.8558 343.483C62.9879 343.245 63.1785 343.044 63.4095 342.9L68.2703 341.053C77.4814 337.529 84.6754 327.856 87.3002 315.486L88.7827 309.021C89.0744 307.66 90.5083 307.66 90.7999 309.021L92.1852 315.486C94.8101 327.856 101.907 337.529 111.215 341.053L116.076 342.9C116.307 343.044 116.497 343.245 116.63 343.483C116.762 343.721 116.831 343.989 116.831 344.261C116.831 344.534 116.762 344.801 116.63 345.04C116.497 345.278 116.307 345.478 116.076 345.622L111.215 347.469C102.004 350.993 94.8101 360.642 92.1852 373.013L90.7999 379.478C90.5083 380.839 89.0744 380.839 88.7827 379.478L87.3974 373.013C84.6754 360.642 77.4814 350.993 68.2703 347.469Z" fill="white"/>
<path d="M503.27 125.469L498.41 123.622C498.178 123.478 497.988 123.278 497.856 123.04C497.724 122.801 497.654 122.534 497.654 122.261C497.654 121.989 497.724 121.721 497.856 121.483C497.988 121.245 498.178 121.044 498.41 120.9L503.27 119.053C512.481 115.529 519.675 105.856 522.3 93.4856L523.783 87.0208C524.074 85.6597 525.508 85.6597 525.8 87.0208L527.185 93.4856C529.81 105.856 536.907 115.529 546.215 119.053L551.076 120.9C551.307 121.044 551.497 121.245 551.63 121.483C551.762 121.721 551.831 121.989 551.831 122.261C551.831 122.534 551.762 122.801 551.63 123.04C551.497 123.278 551.307 123.478 551.076 123.622L546.215 125.469C537.004 128.993 529.81 138.642 527.185 151.013L525.8 157.478C525.508 158.839 524.074 158.839 523.783 157.478L522.397 151.013C519.675 138.642 512.481 128.993 503.27 125.469Z" fill="white"/>
<path d="M126.235 441.794L123.464 440.749C123.328 440.67 123.215 440.557 123.136 440.42C123.058 440.284 123.016 440.129 123.016 439.971C123.016 439.814 123.058 439.659 123.136 439.523C123.215 439.386 123.328 439.273 123.464 439.194L126.235 438.124C131.509 436.107 135.64 430.566 137.147 423.542L137.925 419.824C138.095 419.046 138.921 419.046 139.091 419.824L139.893 423.542C141.4 430.614 145.508 436.156 150.806 438.124L153.552 439.194C153.688 439.273 153.801 439.386 153.88 439.523C153.959 439.659 154 439.814 154 439.971C154 440.129 153.959 440.284 153.88 440.42C153.801 440.557 153.688 440.67 153.552 440.749L150.806 441.794C145.508 443.836 141.4 449.353 139.893 456.376L139.091 460.071C138.921 460.873 138.095 460.873 137.925 460.071L137.147 456.376C135.64 449.401 131.509 443.836 126.235 441.794Z" fill="white"/>
<path d="M561.235 219.794L558.464 218.749C558.328 218.67 558.215 218.557 558.136 218.42C558.058 218.284 558.016 218.129 558.016 217.971C558.016 217.814 558.058 217.659 558.136 217.523C558.215 217.386 558.328 217.273 558.464 217.194L561.235 216.124C566.509 214.107 570.64 208.566 572.147 201.542L572.925 197.824C573.095 197.046 573.921 197.046 574.091 197.824L574.893 201.542C576.4 208.614 580.508 214.156 585.806 216.124L588.552 217.194C588.688 217.273 588.801 217.386 588.88 217.523C588.959 217.659 589 217.814 589 217.971C589 218.129 588.959 218.284 588.88 218.42C588.801 218.557 588.688 218.67 588.552 218.749L585.806 219.794C580.508 221.836 576.4 227.353 574.893 234.376L574.091 238.071C573.921 238.873 573.095 238.873 572.925 238.071L572.147 234.376C570.64 227.401 566.509 221.836 561.235 219.794Z" fill="white"/>
<path d="M160.725 551.169C154.183 562.705 149.255 576.878 156.56 589.264C158.067 591.642 159.845 593.837 161.859 595.805C163.834 598.028 165.946 600.125 168.182 602.085C169.236 603.03 170.227 604.042 171.148 605.116H171.606C176.17 605.008 180.668 604 184.842 602.151C185.518 601.846 186.172 601.54 186.848 601.191C185.486 600.146 184.21 598.994 183.032 597.746C180.626 595.294 178.438 592.639 176.49 589.809C173.905 585.77 172.531 581.074 172.531 576.278C172.531 571.483 173.905 566.787 176.49 562.748C183.403 550.45 194.197 540.812 205.666 532.809C212.545 527.867 220.152 524.027 228.213 521.426C230.332 520.786 232.568 520.63 234.755 520.969C235.038 521.024 235.293 521.176 235.476 521.399C235.659 521.622 235.758 521.901 235.758 522.19C235.938 522.332 236.074 522.522 236.152 522.738C236.229 522.954 236.243 523.187 236.194 523.411C236.086 523.84 235.917 524.251 235.693 524.632C232.729 528.999 231.204 534.183 231.332 539.46C235.387 546.699 239.748 553.808 244.415 560.72C247.511 565.256 250.695 569.704 254.031 574.065C264.967 577.044 275.041 582.574 283.425 590.201C293.931 599.708 301.688 611.863 305.885 625.396C307.891 626.857 309.941 628.296 311.99 629.757C319.137 634.568 326.573 638.938 334.254 642.84C341.152 646.292 348.26 649.307 355.536 651.868C357.717 652.609 359.897 653.307 362.078 653.939C362.234 652.045 362.489 650.16 362.841 648.292C362.844 648.088 362.887 647.887 362.967 647.701C363.048 647.514 363.164 647.345 363.31 647.203C363.456 647.061 363.628 646.95 363.817 646.875C364.006 646.799 364.208 646.762 364.411 646.765C364.758 646.771 365.094 646.889 365.369 647.101C365.644 647.313 365.844 647.608 365.937 647.943C373.439 662.356 375.815 678.601 377.778 694.541C379.239 705.204 380.569 715.889 381.834 726.552C383.098 737.215 384.232 747.878 384.865 758.562C385.017 762.16 385.083 765.736 385.192 769.334C385.192 769.334 385.192 769.509 385.192 769.596C390.443 769.146 395.722 769.109 400.979 769.487C400.979 767.503 400.761 765.54 400.674 763.556C400.041 748.292 399.889 732.832 399.322 717.459C398.886 701.65 397.381 685.884 397.141 670.075C397.141 667.044 396.618 652.217 401.96 654.288C403.77 655.867 405.1 657.922 405.798 660.219C407.826 660.219 409.854 660.11 411.86 659.979C413.866 659.848 416.461 659.609 418.751 659.347C421.952 658.806 425.241 659.433 428.018 661.113C432.192 663.494 436.206 666.145 440.033 669.05C451.895 676.966 465.524 683.442 479.283 676.137C488.223 671.645 493.827 662.749 498.276 654.114C499.911 650.843 501.416 647.572 502.92 644.192C503.182 643.516 503.465 642.818 503.793 642.142C503.598 640.838 503.752 639.506 504.238 638.281C504.725 637.055 505.526 635.98 506.562 635.165C510.421 632.264 514.15 629.168 517.748 625.941C523.087 621.106 528.126 615.95 532.838 610.502C537.608 604.905 542.043 599.029 546.117 592.905L546.553 592.229C550.844 585.649 554.725 578.811 558.176 571.754C561.966 563.901 565.258 555.817 568.032 547.55C570.928 538.729 573.266 529.734 575.031 520.62C576.91 510.62 578.148 500.511 578.738 490.354C579.283 479.452 579.137 468.528 578.302 457.645C577.351 446.24 575.675 434.908 573.287 423.716C570.694 411.952 567.358 400.365 563.3 389.023C559.195 377.835 554.403 366.912 548.952 356.314C543.464 345.767 537.325 335.571 530.57 325.787C524.004 316.326 516.868 307.274 509.2 298.682C501.691 290.352 493.681 282.488 485.214 275.132C477.114 268.278 468.617 261.907 459.767 256.052C451.277 250.514 442.459 245.497 433.36 241.028C424.496 236.761 415.379 233.04 406.06 229.886C396.054 226.636 385.859 223.999 375.532 221.992C362.752 219.645 349.841 218.08 336.871 217.304C332.967 217.086 329.064 217.042 325.161 217.042C320.8 217.042 316.591 217.042 312.318 217.369L308.393 217.696H307.978C307.794 217.837 307.578 217.929 307.349 217.965C307.12 218.001 306.886 217.979 306.668 217.902C306.45 217.825 306.254 217.695 306.098 217.523C305.943 217.351 305.833 217.144 305.777 216.919C305.722 216.694 305.724 216.459 305.782 216.235C305.84 216.011 305.953 215.805 306.111 215.635C306.269 215.466 306.466 215.338 306.686 215.264C306.905 215.19 307.139 215.171 307.368 215.21C308.305 214.971 309.221 214.578 310.159 214.295C312.034 213.728 313.909 213.204 315.785 212.616C319.252 211.547 322.828 210.653 326.382 209.933L329.653 209.301C321.171 205.725 312.71 201.538 303.682 201.233C294.655 200.928 283.796 202.607 277.145 209.672C271.955 215.93 269.622 223.824 266.242 231.172C268.126 230.515 270.048 229.976 271.999 229.559C272.846 229.369 273.706 229.246 274.572 229.188C275.088 229.155 275.605 229.155 276.12 229.188H276.295H276.513L277.123 228.948C277.234 228.92 277.351 228.933 277.454 228.984C277.556 229.035 277.637 229.12 277.681 229.226C277.726 229.331 277.732 229.449 277.697 229.557C277.663 229.666 277.591 229.76 277.494 229.82C277.299 229.894 277.11 229.982 276.927 230.082L276.665 230.213C276.279 230.708 275.856 231.175 275.401 231.608C274.636 232.304 273.835 232.959 273.002 233.571C271.737 234.53 270.407 235.424 269.164 236.405C267.921 237.387 266.984 238.172 265.741 239.088C260.987 242.86 256.233 246.698 251.654 250.688C245.835 255.833 240.33 261.323 235.169 267.13C230.902 272.031 226.927 277.178 223.263 282.546C219.537 288.153 216.151 293.978 213.124 299.991C209.692 306.892 206.691 314 204.14 321.273C201.202 329.836 198.806 338.576 196.966 347.44C195.041 357.263 193.73 367.196 193.041 377.182C192.354 388.694 192.398 400.238 193.172 411.744C194.089 425.039 195.874 438.259 198.514 451.321C201.241 464.478 204.796 477.449 209.155 490.157C209.308 490.572 209.46 491.008 209.591 491.422C211.719 490.756 213.912 490.317 216.133 490.114C217.332 490.114 219.208 490.114 219.905 491.226C220.996 493.406 218.641 495.347 217.267 496.786C215.295 498.675 213.181 500.41 210.943 501.976C204.641 506.751 198.231 511.396 191.951 516.193C179.537 525.894 168.961 537.739 160.725 551.169Z" fill="#F3EF6C"/>
<path d="M450.5 736.406C450.144 738.941 450.027 741.503 450.151 744.06C450.348 746.84 450.853 749.59 451.656 752.259C453.836 751.735 456.017 751.517 458.023 751.016C462.239 750.172 466.403 749.087 470.496 747.767C489.096 741.007 507.936 729.93 516.833 711.504C523.898 696.436 526.144 678.796 521.041 662.834C520.365 663.161 519.689 663.466 519.035 663.815C510.88 668.067 505.188 675.677 501.285 683.833C502.25 690.963 501.544 698.221 499.225 705.032C496.905 711.844 493.035 718.023 487.918 723.083C479.424 731.634 467.976 736.604 455.93 736.973C454.102 737.054 452.272 736.863 450.5 736.406Z" fill="#F3EF6C"/>
<path d="M599.323 484.029C596.575 490.243 595.256 496.994 595.463 503.785C595.496 504.301 595.496 504.818 595.463 505.333C595.911 505.624 596.327 505.96 596.706 506.336C606.279 512.878 616.026 521.818 628.019 523.192C635.433 523.192 639.314 514.797 641.604 508.8C645.747 496.197 647.383 482.895 648.953 469.747C648.953 469.289 649.083 468.765 649.127 468.177C645.199 466.648 641.057 465.736 636.85 465.473C634.19 465.32 631.53 465.255 628.891 465.342H627.605C628.059 470.834 628.081 476.353 627.67 481.849C627.658 484.037 627.09 486.186 626.018 488.093C624.946 490.001 623.406 491.604 621.543 492.751C613.257 496.72 605.625 490.571 599.323 484.029Z" fill="#F3EF6C"/>
<path d="M296.05 847.66C285.693 862.924 278.388 889.483 287.699 906.535C292.627 913.927 302.832 913.622 310.769 914.56C342.104 916.021 373.504 914.407 404.751 912.074C416.439 911.049 430.177 910.809 438.681 901.542C451.154 885.754 445.222 861.179 437.547 844.389C433.818 837.324 430.133 830.259 426.644 823.107C424.464 817.961 419.993 813.273 420.102 807.429C420.451 804.594 422.959 802.915 424.725 800.887C426.612 798.696 428.23 796.288 429.544 793.713C431.832 789.026 432.344 783.668 430.985 778.633C429.626 773.597 426.488 769.224 422.152 766.325C419.842 764.805 417.37 763.547 414.782 762.574C414.673 764.755 414.564 766.936 414.389 769.269C414.379 770.152 414.313 771.033 414.193 771.907C415.724 772.469 417.187 773.2 418.554 774.088C419.546 774.808 420.231 775.874 420.473 777.075C420.473 783.966 406.627 782.919 401.829 783.399C391.384 783.791 381.005 783.9 370.582 784.903C369.122 785.272 367.578 785.104 366.231 784.429C364.885 783.755 363.826 782.619 363.247 781.228C362.668 779.838 362.608 778.286 363.078 776.855C363.548 775.425 364.516 774.21 365.806 773.434C367.524 772.744 369.287 772.176 371.083 771.733C370.975 771.106 370.909 770.472 370.887 769.836C370.669 767.394 370.429 764.973 370.189 762.553L368.009 763.294C360.333 766.151 352.745 769.836 347.097 775.92C345.223 778.025 343.888 780.553 343.204 783.287C342.52 786.021 342.51 788.88 343.172 791.62C344.72 795.981 348.057 799.361 350.499 803.242C358.19 802.143 365.953 801.626 373.722 801.694C385.076 801.669 396.299 804.125 406.605 808.89C411.097 811.31 417.508 814.472 419.208 819.553C419.208 823.412 414.106 821.384 411.773 821.035C401.502 818.353 391.232 815.41 380.569 814.886C371.866 814.442 363.141 814.829 354.511 816.042C332.139 818.789 309.003 828.231 296.05 847.66Z" fill="#A4E873"/>
<path d="M296.05 847.66C285.693 862.924 278.388 889.483 287.699 906.535C292.627 913.927 302.832 913.622 310.769 914.56C342.104 916.021 373.504 914.407 404.751 912.074C416.439 911.049 430.177 910.809 438.681 901.542C451.154 885.754 445.222 861.179 437.547 844.389C433.818 837.324 430.133 830.259 426.644 823.107C424.464 817.961 419.993 813.273 420.102 807.429C420.451 804.594 422.959 802.915 424.725 800.887C426.612 798.696 428.23 796.288 429.544 793.713C431.832 789.026 432.344 783.668 430.985 778.633C429.626 773.597 426.488 769.224 422.152 766.325C419.842 764.805 417.37 763.547 414.782 762.574C414.673 764.755 414.564 766.936 414.389 769.269C414.379 770.152 414.313 771.033 414.193 771.907C415.724 772.469 417.187 773.2 418.554 774.088C419.546 774.808 420.231 775.874 420.473 777.075C420.473 783.966 406.627 782.919 401.829 783.399C391.384 783.791 381.005 783.9 370.582 784.903C369.122 785.272 367.578 785.104 366.231 784.429C364.885 783.755 363.826 782.619 363.247 781.228C362.668 779.838 362.608 778.286 363.078 776.855C363.548 775.425 364.516 774.21 365.806 773.434C367.524 772.744 369.287 772.176 371.083 771.733C370.975 771.106 370.909 770.472 370.887 769.836C370.669 767.394 370.429 764.973 370.189 762.553L368.009 763.294C360.333 766.151 352.745 769.836 347.097 775.92C345.223 778.025 343.888 780.553 343.204 783.287C342.52 786.021 342.51 788.88 343.172 791.62C344.72 795.981 348.057 799.361 350.499 803.242C358.19 802.143 365.953 801.626 373.722 801.694C385.076 801.669 396.299 804.125 406.605 808.89C411.097 811.31 417.508 814.472 419.208 819.553C419.208 823.412 414.106 821.384 411.773 821.035C401.502 818.353 391.232 815.41 380.569 814.886C371.866 814.442 363.141 814.829 354.511 816.042C332.139 818.789 309.003 828.231 296.05 847.66Z" fill="#A4E873"/>
<path d="M416.352 749.336C416.352 749.816 416.352 750.317 416.352 750.819C428.345 752.149 439.008 761.547 443.086 772.777C445.16 778.203 445.495 784.139 444.045 789.764C444.32 789.823 444.59 789.904 444.852 790.004C446.466 790.505 448.036 791.159 449.693 791.508C452.739 792.362 455.993 792.059 458.83 790.658C463.751 788.457 467.92 784.864 470.823 780.322C474.366 774.292 476.824 767.686 478.084 760.806C473.667 762.271 469.158 763.444 464.586 764.317C461.255 764.903 457.865 765.086 454.49 764.862C454.319 765.544 454.013 766.185 453.59 766.747C453.167 767.309 452.635 767.78 452.026 768.133C451.024 768.72 449.857 768.964 448.703 768.826C447.55 768.688 446.473 768.177 445.637 767.369C445.242 767.208 444.863 767.011 444.503 766.781C441.778 765.167 440.6 762.049 439.248 759.367C437.943 756.533 437.103 753.506 436.762 750.405C435.694 741.399 438.049 731.041 445.485 725.306C447.382 724.063 449.955 722.472 452.288 723.126C457.348 722.413 462.304 721.095 467.05 719.201C464.093 716.275 460.773 713.74 457.172 711.656C452.66 709.169 447.466 708.202 442.36 708.897C437.255 709.592 432.509 711.913 428.825 715.516C420.103 722.842 417.05 732.96 416.374 743.863C416.418 745.695 416.396 747.548 416.352 749.336Z" fill="#A4E873"/>
<path d="M118.205 182.329C117.485 182.329 117.66 181.217 118.205 181.217C121.326 180.599 124.513 180.372 127.69 180.541C132.27 180.541 136.849 180.628 141.428 180.803C163.252 181.971 184.846 185.853 205.711 192.36C223.984 197.942 242.126 204.418 258.938 213.882C260.854 209.122 263.659 204.771 267.203 201.06C268.272 200.015 269.401 199.033 270.583 198.116C267.53 194.954 264.455 191.836 261.599 188.5C253.92 183.945 245.984 179.839 237.83 176.202C214.17 166.657 188.677 162.515 163.212 164.078C140.359 165.233 123.787 171.513 104.598 183.703C123.264 212.791 156.147 229.495 189.051 237.192C209.374 240.768 231.114 241.313 250.979 235.251C251.961 233.071 252.876 230.672 253.749 228.361C254.272 226.834 254.773 225.264 255.297 223.716C253.116 222.778 250.936 221.884 248.602 220.99C240.12 217.392 231.703 213.598 223.199 210.088C207.259 203.764 190.818 198.749 174.376 193.908C161.481 189.891 148.379 186.571 135.126 183.964C130.729 183.266 126.295 182.83 121.846 182.656C120.625 182.657 119.407 182.547 118.205 182.329Z" fill="#A4E873"/>
<path d="M247.665 134.289H244.481C244.83 135.837 245.353 137.385 245.811 138.868C248.88 146.716 252.94 154.139 257.891 160.957C264.084 169.788 270.408 178.402 276.121 187.647C276.504 187.38 276.83 187.039 277.08 186.644C277.585 185.85 278.044 185.027 278.454 184.18C276.553 180.398 274.907 176.494 273.526 172.492C268.782 158.376 266.986 143.436 268.249 128.598C266.336 130.031 264.219 131.17 261.969 131.978C257.374 133.582 252.531 134.365 247.665 134.289Z" fill="#7A5B52"/>
<path d="M244.546 128.423C244.314 129.129 244.174 129.862 244.132 130.603C247.27 131.42 250.505 131.809 253.748 131.759C259.323 131.328 264.567 128.942 268.554 125.021C268.554 124.454 268.663 123.887 268.707 123.32C260.458 123.912 252.329 125.629 244.546 128.423Z" fill="#7A5B52"/>
<path d="M169.884 682.917C170.947 685.947 172.939 688.564 175.575 690.397C190.163 699.599 208.959 702.172 225.99 699.773C242.035 697.913 257.27 691.716 270.059 681.849C281.921 672.516 293.652 659.672 293.26 643.645C293.129 622.777 279.653 603.436 262.056 593.035C253.006 588.191 243.162 585.008 232.989 583.636C231.928 583.457 230.858 583.333 229.784 583.266C230.682 585.452 231.354 587.724 231.79 590.047C237.721 612.18 223.722 637.91 202.396 645.739C202.57 646.022 202.745 646.306 202.898 646.611C204.228 649.467 204.62 652.695 205.841 655.617C207.157 658.38 208.804 660.972 210.748 663.336C215.419 669.311 222.041 673.455 229.457 675.045C230.888 675.425 232.346 675.695 233.818 675.852C234.115 675.789 234.425 675.84 234.687 675.993C234.949 676.146 235.144 676.391 235.235 676.681C235.977 678.861 230.656 679.908 229.13 680.279C224.834 681.057 220.425 680.954 216.17 679.975C211.916 678.997 207.905 677.164 204.38 674.588C203.617 674.762 202.832 674.871 202.2 674.98C193.892 675.612 172.806 673.475 169.884 682.917Z" fill="white"/>
<path d="M163.037 614.295C163.27 615.531 163.658 616.733 164.192 617.872C165.493 621.425 167.676 624.588 170.538 627.064C173.399 629.54 176.843 631.247 180.546 632.023C186.593 633.546 192.96 633.188 198.798 630.998C205.043 628.179 210.256 623.486 213.713 617.57C217.171 611.655 218.703 604.81 218.096 597.985C216.918 589.263 212.644 579.428 203.05 577.706C198.918 577.368 194.763 577.98 190.904 579.494C190.228 579.799 189.509 580.191 188.724 580.54C189.164 581.447 189.713 582.296 190.359 583.07C192.498 585.779 194.869 588.296 197.446 590.593L197.947 591.029C198.967 589.412 199.877 587.729 200.673 585.992C201.057 584.813 201.538 583.667 202.112 582.568C202.161 582.44 202.244 582.327 202.352 582.242C202.46 582.157 202.589 582.103 202.725 582.085C202.862 582.067 203 582.087 203.126 582.141C203.252 582.195 203.362 582.283 203.442 582.394C204.008 582.888 204.5 583.46 204.903 584.095C208.261 590.287 207.084 598.072 203.355 603.85C200.767 607.512 197.43 610.582 193.565 612.857C189.701 615.131 185.397 616.558 180.939 617.043C176.84 617.523 172.413 618.133 168.532 616.323C167.925 616.075 167.359 615.737 166.853 615.32L165.588 615.08C164.718 614.887 163.865 614.625 163.037 614.295Z" fill="white"/>
<path d="M160.463 647.571C157.105 650.558 160.332 653 162.927 654.875C165.35 656.749 168.123 658.12 171.082 658.909L170.755 658.8C175.934 660.232 181.261 661.066 186.63 661.286C188.71 661.33 190.786 661.505 192.844 661.81C191.897 660.062 191.116 658.23 190.511 656.336C190.38 655.966 190.271 655.595 190.162 655.224C187.128 651.908 183.467 649.225 179.39 647.331C176.054 646.693 172.799 645.684 169.687 644.321C167.844 644.169 165.991 644.169 164.148 644.321C162.949 645.39 161.662 646.349 160.463 647.571Z" fill="white"/>
<path d="M560.574 317.893C555.319 325.067 560.574 332.677 566.178 337.758C573.81 344.583 584.102 348.115 591.058 355.878C603.509 369.092 595.986 391.53 609.026 402.913C612.717 405.915 617.104 407.939 621.782 408.8C623.483 409.215 625.315 409.389 627.081 409.716C627.5 406.316 628.434 403 629.85 399.882C631.115 397.549 632.598 394.387 635.389 393.711C638.42 393.536 637.57 397.047 637.243 398.944C633.993 414.361 645.638 429.276 660.64 432.263C669.591 433.923 678.842 432.42 686.807 428.011C703.989 418.765 716.048 400.71 719.493 381.739C720.605 367.282 704.796 353.697 692.389 365.211C687.417 370.074 679.982 380.344 680.767 387.496C681.617 396.633 693.741 395.259 699.127 390.92C699.936 390.128 700.666 389.258 701.307 388.325C701.597 387.822 702.074 387.454 702.634 387.303C703.194 387.151 703.792 387.229 704.295 387.518C704.798 387.807 705.166 388.284 705.317 388.845C705.468 389.405 705.391 390.002 705.102 390.505C703.231 394.671 700.599 398.45 697.339 401.648C686.327 412.027 670.714 406.293 668.708 391.334C668.579 390.693 668.492 390.045 668.446 389.393C667.397 389.807 666.308 390.114 665.197 390.309C649.148 393.275 638.747 375.045 639.903 360.981C640.635 352.424 643.919 344.284 649.331 337.617C654.743 330.949 662.033 326.06 670.256 323.584C670.488 322.531 670.794 321.497 671.172 320.488C674.268 312.398 679.894 305.594 685.433 298.987C693.065 290.265 702.877 279.973 700.13 267.391C698.102 259.781 687.221 263.182 681.922 265.058C673.417 268.595 665.561 273.525 658.677 279.646C639.772 296.458 626.754 318.896 614.935 340.832C614.717 341.77 614.477 342.707 614.238 343.645C614.102 344.01 613.887 344.341 613.608 344.613C613.329 344.884 612.993 345.09 612.624 345.215C612.391 345.751 611.968 346.183 611.436 346.427C610.904 346.671 610.301 346.71 609.743 346.537C609.184 346.365 608.708 345.992 608.407 345.49C608.106 344.989 608 344.394 608.11 343.82C608.509 342.657 608.665 341.425 608.568 340.2C608.372 334.945 607.652 329.668 604.338 325.394C602.811 323.017 600.195 321.73 598.123 319.899C595.532 317.521 592.653 315.478 589.554 313.815C580.395 309.585 567.159 309.04 560.574 317.893Z" fill="white"/>
<path d="M607.086 418.918C606.264 420.402 605.738 422.031 605.538 423.715C605.713 442.054 626.929 451.016 642.913 449.664C647.565 449.496 652.144 448.453 656.411 446.589C642.586 442.773 630.636 432.786 627.605 419.812C625.322 420.697 622.918 421.234 620.475 421.404C615.878 421.655 611.287 420.802 607.086 418.918Z" fill="white"/>
<path d="M656.017 355.659C653.706 362.702 654.775 372.057 661.578 376.2C664.111 377.11 666.78 377.582 669.472 377.595C669.64 377.531 669.816 377.487 669.995 377.464C671.524 373.435 673.414 369.553 675.643 365.864C681.966 354.961 691.452 349.117 701.002 348.136C700.524 347.373 699.992 346.644 699.411 345.955C691.517 336.862 677.496 333.243 667.465 340.962C662.331 344.674 658.361 349.772 656.017 355.659Z" fill="white"/>
<path d="M446.684 672.583C449.366 670.817 452.092 669.182 454.926 667.677C464.277 663.38 473.849 659.581 483.601 656.295C489.03 654.463 494.504 652.653 499.89 650.8C500.915 648.619 501.918 646.439 502.921 644.258C503.182 643.582 503.466 642.884 503.793 642.208C503.601 640.904 503.756 639.573 504.242 638.348C504.728 637.123 505.528 636.048 506.562 635.23C510.422 632.33 514.151 629.234 517.748 626.007C523.089 621.151 528.129 615.973 532.838 610.503C537.011 605.622 540.927 600.527 544.569 595.239C542.541 596.046 540.492 596.809 538.442 597.55C534.691 598.815 530.919 600.058 527.103 601.127C522.742 602.369 518.381 603.46 513.802 604.463C509.746 605.277 505.661 605.96 501.547 606.512C497.491 607.058 493.413 607.385 489.336 607.69C486.043 607.886 482.794 608.017 479.48 608.083C476.165 608.148 472.524 608.082 469.035 607.864C457.711 606.902 446.45 605.316 435.301 603.111C430.94 602.173 426.797 601.148 422.589 599.993C418.38 598.837 414.608 597.572 410.661 596.22C407.696 595.174 404.752 594.04 401.808 592.884C398.864 591.728 396.073 590.376 393.26 589.003C384.086 584.389 375.163 579.294 366.527 573.739C358.099 567.724 349.984 561.283 342.213 554.441C339.422 551.889 336.653 549.316 333.971 546.634C331.289 543.952 329.283 541.75 327.015 539.22C324.464 536.168 321.978 533.093 319.514 529.953C317.05 526.813 314.847 523.695 312.58 520.489C310.006 516.63 307.477 512.748 305.166 508.714C302.593 504.222 300.107 499.68 297.708 495.086C295.091 489.743 292.54 484.379 290.207 478.906C287.874 473.433 285.584 467.436 283.469 461.636C281.921 456.97 280.482 452.325 279.108 447.615C277.887 443.254 276.927 438.893 275.99 434.663C274.921 428.928 273.984 423.193 273.373 417.414C272.762 411.636 272.326 406.228 271.934 400.624C271.52 393.864 271.149 387.126 270.974 380.345C270.8 373.563 270.974 366.433 271.214 359.499C271.534 355.137 271.934 350.827 272.414 346.568C272.937 341.901 273.678 337.3 274.594 332.7C275.27 329.581 276.012 326.485 276.775 323.389C277.538 320.292 278.715 316.847 279.74 313.467C280.765 310.087 281.921 306.249 283.098 302.564L283.404 302.063C285.824 298.552 288.31 295.107 290.839 291.661C293.369 288.216 296.051 284.945 298.798 281.696C300.739 279.516 302.68 277.335 304.708 275.329C306.736 273.323 309.418 270.684 311.86 268.438C314.302 266.192 317.071 264.077 319.754 261.897C322.436 259.716 324.769 258.081 327.364 256.314C330.959 253.996 334.671 251.864 338.485 249.925C340.992 248.748 343.522 247.592 346.073 246.524C348.624 245.455 351.415 244.343 354.119 243.406C357.586 242.272 361.097 241.225 364.651 240.287C368.206 239.35 371.607 238.652 375.118 237.911C377.953 237.365 380.787 236.886 383.644 236.471C386.501 236.057 389.117 235.861 391.865 235.643C397.534 235.359 403.225 235.272 408.895 235.185L418.097 235.01H419.623C415.146 233.179 410.61 231.492 406.017 229.951C396.017 226.681 385.82 224.045 375.489 222.058C362.711 219.693 349.799 218.12 336.827 217.348C332.924 217.152 329.021 217.086 325.118 217.086C320.757 217.086 316.548 217.086 312.274 217.413L308.349 217.74H307.935C307.751 217.881 307.535 217.973 307.306 218.009C307.077 218.045 306.843 218.023 306.625 217.946C306.406 217.869 306.211 217.739 306.055 217.567C305.9 217.395 305.789 217.188 305.734 216.963C305.679 216.738 305.68 216.503 305.739 216.279C305.797 216.055 305.91 215.849 306.068 215.679C306.226 215.51 306.423 215.382 306.642 215.308C306.862 215.234 307.096 215.216 307.324 215.255C308.262 215.015 309.178 214.622 310.115 214.339L313.255 213.423L312.994 213.292C311.642 212.572 310.312 211.831 309.025 211.002C307.15 209.672 305.318 208.299 303.356 207.121C301.393 205.944 299.3 204.94 297.25 203.828L293.543 201.822C287.336 202.548 281.55 205.326 277.102 209.716C271.912 215.974 269.579 223.868 266.199 231.216C268.082 230.556 270.004 230.017 271.956 229.603C272.803 229.414 273.663 229.29 274.529 229.232C275.044 229.199 275.561 229.199 276.077 229.232H276.251H276.469L277.08 228.992C277.191 228.964 277.308 228.977 277.41 229.028C277.513 229.079 277.593 229.165 277.638 229.27C277.683 229.375 277.688 229.493 277.654 229.602C277.62 229.711 277.548 229.804 277.451 229.864C277.256 229.938 277.066 230.026 276.884 230.126L276.622 230.257C276.229 230.741 275.807 231.199 275.357 231.631C274.593 232.326 273.792 232.981 272.959 233.593C271.694 234.552 270.364 235.447 269.121 236.428C267.878 237.409 266.94 238.194 265.697 239.11C260.944 242.882 256.19 246.72 251.611 250.71C245.807 255.85 240.317 261.333 235.17 267.13C230.902 272.031 226.927 277.179 223.264 282.547C219.538 288.153 216.152 293.978 213.124 299.991C209.696 306.894 206.696 314.002 204.14 321.273C201.203 329.837 198.807 338.576 196.966 347.44C195.041 357.263 193.73 367.197 193.041 377.183C192.354 388.695 192.398 400.239 193.172 411.745C194.09 425.039 195.874 438.26 198.514 451.322C201.242 464.478 204.796 477.449 209.156 490.158C209.308 490.572 209.461 491.008 209.592 491.423C211.72 490.756 213.913 490.318 216.133 490.114C217.333 490.114 219.208 490.114 219.906 491.226C220.996 493.407 218.641 495.348 217.267 496.787C215.295 498.676 213.181 500.411 210.944 501.976L209.875 502.783L211.576 506.076C213.844 511.513 216.133 516.928 218.445 522.321C218.794 523.171 219.164 524 219.513 524.829C222.328 523.499 225.244 522.398 228.235 521.536C230.354 520.896 232.59 520.739 234.777 521.078C235.06 521.134 235.315 521.286 235.498 521.509C235.681 521.732 235.781 522.011 235.78 522.299C235.96 522.441 236.097 522.631 236.174 522.847C236.251 523.063 236.266 523.296 236.216 523.52C236.108 523.949 235.939 524.36 235.715 524.741C232.754 529.11 231.229 534.293 231.354 539.569C235.409 546.809 239.771 553.917 244.437 560.83C247.533 565.365 250.717 569.814 254.053 574.175C264.989 577.154 275.063 582.684 283.447 590.311C293.953 599.817 301.71 611.973 305.907 625.505C307.913 626.966 309.963 628.405 312.013 629.866C319.16 634.678 326.595 639.047 334.276 642.95C341.178 646.399 348.286 649.421 355.558 651.999C357.739 652.719 359.92 653.416 362.1 654.18C362.255 652.278 362.51 650.385 362.863 648.51C362.866 648.307 362.909 648.106 362.989 647.919C363.07 647.733 363.186 647.563 363.332 647.422C363.478 647.28 363.65 647.168 363.839 647.093C364.028 647.018 364.23 646.981 364.433 646.984C364.781 646.99 365.117 647.107 365.392 647.319C365.667 647.532 365.866 647.827 365.96 648.161C369.024 654.185 371.401 660.534 373.046 667.088C375.663 667.416 378.28 667.743 380.896 668.026C386.326 668.637 391.799 669.095 397.251 669.4C397.251 665.039 397.251 652.588 402.07 654.528C403.889 656.098 405.221 658.157 405.908 660.46C407.935 660.46 409.963 660.329 411.969 660.22C413.976 660.111 416.57 659.827 418.86 659.566C422.061 659.024 425.35 659.651 428.127 661.332C432.301 663.712 436.315 666.364 440.142 669.269C442.192 670.643 444.307 671.973 446.444 673.172L446.684 672.583ZM415.938 635.296C415.022 635.296 414.128 635.296 413.212 635.296L413.343 634.838V634.685L415.938 635.296ZM318.38 581.153L316.199 580.28C316.329 580.032 316.445 579.777 316.548 579.517L318.38 581.153Z" fill="#F0D837"/>
<path d="M326.404 209.975L329.675 209.343L327.909 208.602L324.18 210.455L326.404 209.975Z" fill="#F0D837"/>
<path d="M171.606 605.117C176.17 605.009 180.667 604.001 184.842 602.152L186.848 601.214C185.491 600.156 184.215 598.997 183.032 597.747C180.626 595.295 178.437 592.639 176.49 589.81C174.586 586.874 173.332 583.565 172.813 580.105C172.294 576.645 172.521 573.113 173.481 569.749L173.219 569.247C173.241 569.03 173.241 568.81 173.219 568.593C173.09 567.613 172.672 566.694 172.02 565.951C171.368 565.209 170.51 564.677 169.555 564.422C168.6 564.168 167.591 564.202 166.655 564.522C165.72 564.841 164.901 565.431 164.301 566.216C164.142 566.421 164.004 566.64 163.886 566.87C163.085 567.519 162.354 568.25 161.706 569.051C159.277 571.889 157.584 575.281 156.778 578.929C156.181 581.665 155.788 584.442 155.6 587.237C155.927 587.934 156.298 588.61 156.691 589.286C158.192 591.669 159.971 593.864 161.989 595.828C163.965 598.058 166.077 600.162 168.313 602.13C169.372 603.061 170.363 604.067 171.278 605.139L171.606 605.117Z" fill="#F0D837"/>
<path d="M161.575 569.07L162.033 568.547L161.597 569.048V568.939L161.401 569.157L161.292 569.288L161.575 569.07Z" fill="#F0D837"/>
<path d="M400.281 769.376L400.848 768.788C400.848 767.021 400.652 765.255 400.565 763.489C400.434 760.676 400.347 757.863 400.259 755.028C398.741 753.585 397.013 752.38 395.135 751.452C391.902 749.175 387.941 748.173 384.014 748.639C384.668 755.595 384.886 762.573 385.083 769.529C390.138 769.097 395.218 769.046 400.281 769.376Z" fill="#F0D837"/>
<path d="M507.587 705.595C509.942 704.025 512.319 702.498 514.587 700.798C517.51 698.489 520.231 695.936 522.721 693.166C524.643 683.069 524.067 672.656 521.042 662.834C520.366 663.161 519.69 663.466 519.035 663.815C510.88 668.067 505.189 675.677 501.286 683.811C502.922 695.496 499.985 707.361 493.087 716.934C497.862 712.987 502.572 709.149 507.587 705.595Z" fill="#F0D837"/>
<path d="M458.023 751.039C462.237 750.177 466.401 749.085 470.495 747.768L472 747.201C470.784 743.032 469.063 739.026 466.876 735.273C463.317 736.237 459.658 736.786 455.973 736.909C454.148 737.011 452.318 736.842 450.543 736.407C450.187 738.942 450.071 741.505 450.194 744.061C450.389 746.842 450.894 749.592 451.699 752.26C453.749 751.737 455.995 751.519 458.023 751.039Z" fill="#F0D837"/>
<path d="M636.981 518.046C631.486 509.672 624.836 502.084 619.799 493.384C612.21 495.869 605.189 490.113 599.389 484.051C596.639 490.264 595.32 497.015 595.529 503.807C595.562 504.322 595.562 504.839 595.529 505.355C604.971 511.809 627.561 532.416 636.981 518.046Z" fill="#F0D837"/>
<path d="M643.218 482.024C644.169 481.863 645.077 481.507 645.884 480.978C646.691 480.449 647.38 479.758 647.906 478.949L648.691 472.604C648.308 470.784 647.7 469.018 646.881 467.349C640.651 465.564 634.15 464.922 627.692 465.451C628.063 470.293 628.063 475.155 627.692 479.996C632.701 481.609 637.962 482.296 643.218 482.024Z" fill="#F0D837"/>
<path d="M282.16 276.462C282.16 274.299 281.301 272.225 279.772 270.695C278.242 269.166 276.168 268.307 274.005 268.307C271.842 268.307 269.768 269.166 268.238 270.695C266.709 272.225 265.85 274.299 265.85 276.462C265.85 278.625 266.709 280.699 268.238 282.229C269.768 283.758 271.842 284.617 274.005 284.617C276.168 284.617 278.242 283.758 279.772 282.229C281.301 280.699 282.16 278.625 282.16 276.462Z" fill="#CCB722"/>
<path d="M304.948 307.401C304.837 305.206 303.887 303.137 302.294 301.623C300.701 300.108 298.587 299.264 296.389 299.264C294.191 299.264 292.077 300.108 290.484 301.623C288.891 303.137 287.941 305.206 287.83 307.401C287.941 309.596 288.891 311.665 290.484 313.18C292.077 314.694 294.191 315.539 296.389 315.539C298.587 315.539 300.701 314.694 302.294 313.18C303.887 311.665 304.837 309.596 304.948 307.401Z" fill="#CCB722"/>
<path d="M268.096 308.558C268.096 305.62 266.929 302.802 264.852 300.725C262.774 298.648 259.957 297.48 257.019 297.48C254.081 297.48 251.264 298.648 249.186 300.725C247.109 302.802 245.942 305.62 245.942 308.558C245.942 311.496 247.109 314.313 249.186 316.391C251.264 318.468 254.081 319.635 257.019 319.635C259.957 319.635 262.774 318.468 264.852 316.391C266.929 314.313 268.096 311.496 268.096 308.558Z" fill="#CCB722"/>
<path d="M373.504 597.179C373.385 594.676 372.308 592.315 370.495 590.586C368.682 588.857 366.273 587.893 363.768 587.893C361.262 587.893 358.853 588.857 357.04 590.586C355.227 592.315 354.15 594.676 354.031 597.179C354.15 599.681 355.227 602.042 357.04 603.771C358.853 605.5 361.262 606.465 363.768 606.465C366.273 606.465 368.682 605.5 370.495 603.771C372.308 602.042 373.385 599.681 373.504 597.179Z" fill="#CCB722"/>
<path d="M407.041 619.222C407.041 617.892 406.513 616.617 405.572 615.676C404.632 614.735 403.356 614.207 402.026 614.207C400.696 614.207 399.42 614.735 398.479 615.676C397.539 616.617 397.01 617.892 397.01 619.222C397.01 620.552 397.539 621.828 398.479 622.769C399.42 623.709 400.696 624.238 402.026 624.238C403.356 624.238 404.632 623.709 405.572 622.769C406.513 621.828 407.041 620.552 407.041 619.222Z" fill="#CCB722"/>
<path d="M362.426 627.228C362.321 625.238 361.456 623.363 360.01 621.992C358.563 620.62 356.646 619.855 354.653 619.855C352.659 619.855 350.742 620.62 349.296 621.992C347.849 623.363 346.984 625.238 346.879 627.228C346.984 629.219 347.849 631.093 349.296 632.465C350.742 633.836 352.659 634.601 354.653 634.601C356.646 634.601 358.563 633.836 360.01 632.465C361.456 631.093 362.321 629.219 362.426 627.228Z" fill="#CCB722"/>
<path d="M557.37 486.537C557.37 485.229 557.37 483.921 557.37 482.634C557.37 481.958 557.522 481.304 557.631 480.65V480.955C558.423 476.26 559.456 471.609 560.728 467.021C561.731 461.526 562.734 456.119 563.279 450.471C563.817 443.807 563.766 437.108 563.126 430.453C560.893 415.558 556.889 400.983 551.199 387.038C535.935 350.1 512.188 317.26 484.801 288.281C469.537 273.431 452.506 257.884 430.853 254.264C426.492 253.588 422.022 252.781 417.77 254.417C416.826 254.37 415.891 254.617 415.094 255.125C414.297 255.633 413.678 256.376 413.322 257.251C412.962 258.175 412.904 259.189 413.155 260.149C413.405 261.108 413.952 261.963 414.717 262.594C415.042 263.339 415.406 264.067 415.808 264.774C417.988 268.023 420.387 271.098 422.655 274.26C426.278 278.755 430.151 283.043 434.255 287.103C444.089 297.308 454.425 307.077 463.802 317.631C484.452 341.203 503.204 366.934 515.874 395.717C521.805 409.04 525.381 423.192 529.219 437.148C531.879 445.586 534.626 454.047 537.941 462.29C539.009 465.626 540.121 468.94 541.451 472.189C543.013 476.784 543.83 481.598 543.872 486.45C544.026 488.127 544.798 489.686 546.038 490.825C547.278 491.964 548.898 492.6 550.581 492.611C552.265 492.622 553.892 492.006 555.147 490.884C556.402 489.761 557.194 488.212 557.37 486.537Z" fill="#FFFCA2"/>
<path d="M561.186 517.631C561.186 514.74 560.037 511.967 557.993 509.922C555.948 507.877 553.175 506.729 550.283 506.729C547.392 506.729 544.618 507.877 542.574 509.922C540.529 511.967 539.38 514.74 539.38 517.631C539.38 520.523 540.529 523.296 542.574 525.341C544.618 527.385 547.392 528.534 550.283 528.534C553.175 528.534 555.948 527.385 557.993 525.341C560.037 523.296 561.186 520.523 561.186 517.631Z" fill="#FFFCA2"/>
<path d="M183.512 627.226C183.512 626.637 183.36 626.07 183.294 625.503C183.229 624.936 183.294 624.413 183.294 623.868L183.425 622.821C183.425 622.537 183.578 622.276 183.643 622.014C183.708 621.752 183.883 621.425 184.014 621.164C184.799 619.703 185.671 618.329 186.565 616.933C186.87 616.519 187.154 616.083 187.459 615.647C185.33 616.345 183.14 616.842 180.917 617.13C176.818 617.609 172.391 618.22 168.51 616.41C167.908 616.153 167.343 615.815 166.831 615.407L165.566 615.167C164.694 614.945 163.841 614.654 163.015 614.295C163.259 615.528 163.646 616.728 164.171 617.871C165.471 621.424 167.655 624.588 170.516 627.064C173.377 629.54 176.822 631.246 180.525 632.023C182.008 632.328 183.534 632.568 185.06 632.742C184.493 630.911 183.948 629.079 183.512 627.226Z" fill="#E0D5D5"/>
<path d="M200.695 585.992C201.078 584.813 201.56 583.668 202.134 582.569C202.177 582.435 202.257 582.316 202.365 582.225C202.473 582.135 202.604 582.078 202.744 582.059C202.883 582.041 203.025 582.063 203.152 582.122C203.28 582.181 203.388 582.276 203.464 582.394C204.03 582.888 204.522 583.461 204.925 584.095C205.782 585.679 206.364 587.397 206.648 589.176C208.532 587.52 210.022 585.464 211.009 583.157C211.087 582.827 211.146 582.492 211.183 582.154C208.965 579.867 206.08 578.34 202.941 577.793C197.999 577.345 193.033 578.329 188.636 580.628C191.144 584.584 194.257 588.123 197.86 591.116C198.92 589.474 199.867 587.762 200.695 585.992Z" fill="#E0D5D5"/>
<path d="M198.776 695.085C218.052 689.329 240.206 692.011 255.688 676.943C257.546 675.281 259.033 673.245 260.049 670.968C262.339 665.822 259.504 661.069 253.682 661.701C251.335 661.669 248.992 661.517 246.661 661.243C241.804 659.997 237.143 658.082 232.814 655.552C232.526 653.974 232.845 652.346 233.708 650.995C236.303 646.306 239.029 641.684 241.536 636.952C246.933 627.397 249.596 616.541 249.234 605.573V607.754C249.19 600.451 247.9 593.209 245.418 586.341C241.332 585.192 237.172 584.325 232.967 583.746C231.908 583.548 230.837 583.417 229.761 583.354C230.66 585.54 231.332 587.812 231.767 590.135C237.699 612.268 223.678 638.107 202.374 645.827C204.205 648.814 204.423 652.499 205.819 655.704C208.327 661.208 212.222 665.965 217.123 669.508C222.024 673.052 227.762 675.261 233.774 675.918C234.071 675.856 234.38 675.906 234.642 676.059C234.904 676.212 235.1 676.457 235.191 676.747C235.932 678.927 230.612 679.974 229.085 680.345C224.79 681.123 220.381 681.02 216.126 680.042C211.872 679.063 207.86 677.23 204.336 674.654C203.573 674.828 202.788 674.937 202.155 675.046C193.957 675.678 172.871 673.541 169.949 682.983C171.012 686.013 173.003 688.63 175.64 690.463C180.731 693.634 186.244 696.071 192.016 697.702C194.218 696.721 196.464 695.849 198.776 695.085Z" fill="#E0D5D5"/>
<path d="M190.511 656.293C189.399 652.914 182.639 648.814 179.39 647.288C176.054 646.65 172.799 645.641 169.687 644.279C167.844 644.126 165.991 644.126 164.148 644.279C162.949 645.391 161.662 646.459 160.463 647.506C157.105 650.493 160.332 652.935 162.905 654.811C165.312 656.661 168.062 658.017 170.995 658.801H170.755C175.934 660.233 181.261 661.067 186.63 661.287C188.71 661.33 190.786 661.505 192.844 661.81C191.895 660.049 191.113 658.202 190.511 656.293Z" fill="#E0D5D5"/>
<path d="M642.934 449.666C647.587 449.498 652.166 448.455 656.432 446.592C642.607 442.776 630.658 432.789 627.627 419.814C625.343 420.7 622.94 421.237 620.496 421.406C618.537 421.52 616.57 421.425 614.631 421.123C614.662 421.307 614.705 421.489 614.762 421.668C615.097 422.951 615.635 424.173 616.353 425.288L615.874 424.503C617.278 427.057 618.404 429.754 619.232 432.549C620.606 437.063 621.696 441.642 622.612 446.265C629.013 449.02 635.985 450.188 642.934 449.666Z" fill="#E0D5D5"/>
<path d="M639.882 361.023C640.607 352.456 643.891 344.305 649.307 337.629C654.724 330.952 662.023 326.058 670.257 323.583C674.618 302.781 704.23 288.999 700.109 267.281C699.896 266.256 699.409 265.308 698.698 264.54C697.987 263.771 697.08 263.211 696.075 262.92C685.477 270.334 675.381 279.056 668.6 290.068C665.645 294.752 663.029 299.642 660.771 304.699C658.416 307.839 656.105 311.023 653.99 314.316C649.128 321.435 645.447 329.291 643.087 337.582C642.286 340.203 641.817 342.913 641.691 345.65C641.768 346.754 641.768 347.861 641.691 348.965C640.274 354.612 635.15 360.587 639.903 365.973C639.755 364.327 639.747 362.671 639.882 361.023Z" fill="#E0D5D5"/>
<path d="M686.982 428.009C703.51 419.068 715.329 401.842 719.123 383.634C718.473 382.66 717.744 381.741 716.942 380.887C715.211 379.161 713.207 377.732 711.011 376.657C708.155 375.349 704.998 374.836 701.875 375.174C698.87 375.506 695.963 376.44 693.327 377.921C692.46 378.358 691.616 378.839 690.798 379.36C689.533 380.145 688.29 380.93 687.112 381.824C685.465 382.999 684.058 384.48 682.969 386.186L682.686 386.687C682.074 387.185 681.519 387.748 681.029 388.366C682.62 396.434 694.112 394.908 699.236 390.808C700.05 390.029 700.781 389.166 701.417 388.235C701.706 387.732 702.183 387.365 702.743 387.213C703.304 387.062 703.901 387.139 704.404 387.428C704.907 387.718 705.275 388.195 705.426 388.755C705.578 389.315 705.5 389.913 705.211 390.416C703.341 394.582 700.708 398.361 697.448 401.559C695.404 403.642 692.869 405.178 690.076 406.028C687.284 406.877 684.323 407.013 681.465 406.421L680.941 406.901L680.811 407.01C680.178 407.511 679.502 407.991 678.826 408.449C677.78 409.038 676.646 409.627 675.664 410.172C674.182 410.804 672.677 411.393 671.173 411.916C670.278 412.156 669.384 412.374 668.469 412.57L667.204 412.723H665.525L664.217 412.505L663.606 412.33L663.017 412.069C662.647 411.851 662.254 411.611 661.883 411.349L661.142 410.76C660.964 410.589 660.796 410.407 660.64 410.215L660.248 409.714C659.768 408.885 659.332 408.035 658.896 407.184C658.46 406.334 658.329 405.745 658.067 405.004C657.733 403.826 657.45 402.627 657.217 401.406C656.672 398.048 656.17 394.69 655.887 391.288C655.887 390.699 655.778 390.089 655.734 389.5C648.909 386.927 643.894 380.233 641.495 372.819L640.688 373.168C640.047 373.477 639.434 373.842 638.857 374.258C637.51 375.3 636.301 376.509 635.259 377.856C634.234 379.208 633.209 380.56 632.315 381.999C630.434 385.146 628.899 388.487 627.736 391.964L627.452 392.836C625.635 396.252 623.869 399.683 622.154 403.129C621.892 402.954 621.63 402.78 621.39 402.583L622.154 403.15L618.948 400.861C617.444 399.749 616.004 398.549 614.587 397.285L613.388 396.042L612.69 395.06C612.254 394.297 611.818 393.534 611.425 392.749C611.229 392.291 611.054 391.811 610.88 391.332C610.706 390.852 610.64 390.35 610.531 389.871C610.531 388.977 610.335 388.083 610.291 387.189C610.291 385.815 610.291 384.463 610.466 383.111C610.749 380.625 611.076 378.161 611.207 375.653C611.295 372.579 611.141 369.502 610.749 366.452C610.367 362.719 609.495 359.053 608.154 355.549C607.486 353.817 606.714 352.128 605.843 350.49C605.189 349.269 604.469 348.091 603.662 346.935C601.485 343.493 598.827 340.38 595.769 337.69C595.015 336.331 594.178 335.02 593.261 333.765C591.967 331.98 590.459 330.362 588.769 328.946C587.395 327.734 585.938 326.619 584.408 325.61C581.132 323.483 577.61 321.762 573.92 320.485C571.784 319.78 569.597 319.24 567.378 318.872C566.004 318.632 564.63 318.523 563.257 318.392C562.256 318.294 561.248 318.294 560.247 318.392C555.668 325.413 560.902 332.74 566.244 337.69C573.876 344.515 584.168 348.048 591.124 355.81C603.575 369.025 596.052 391.463 609.092 402.823C612.78 405.833 617.167 407.865 621.848 408.733C623.549 409.147 625.381 409.321 627.147 409.648C627.551 406.275 628.463 402.981 629.851 399.88C631.116 397.546 632.598 394.384 635.39 393.709C638.421 393.534 637.57 397.045 637.243 398.942C633.994 414.358 645.638 429.273 660.64 432.239C662.982 432.756 665.373 433.019 667.771 433.024C674.48 432.892 681.064 431.173 686.982 428.009Z" fill="#E0D5D5"/>
<path d="M603.51 346.807V346.981L603.684 347.243L603.51 346.807Z" fill="#E0D5D5"/>
<path d="M670.126 377.466C671.595 373.434 673.442 369.55 675.643 365.866C679.376 359.024 685.241 353.588 692.346 350.384C691.412 348.85 690.147 347.544 688.644 346.56C687.142 345.577 685.439 344.941 683.659 344.698C681.879 344.456 680.068 344.614 678.357 345.16C676.646 345.706 675.078 346.626 673.768 347.854C671.718 350.035 668.796 350.82 666.398 352.63C660.859 356.424 656.302 362.486 656.258 369.42C657.266 372.233 659.195 374.622 661.731 376.202C664.264 377.112 666.933 377.584 669.625 377.597C669.786 377.534 669.954 377.49 670.126 377.466Z" fill="#E0D5D5"/>
<path d="M251.066 235.292C252.047 233.112 252.963 230.713 253.835 228.402C254.358 226.875 254.86 225.305 255.383 223.735C244.48 219.374 233.992 214.555 223.264 210.063C207.324 203.74 190.882 198.724 174.441 193.884C157.193 189.065 139.901 183.286 121.846 182.632C120.625 182.639 119.406 182.537 118.204 182.327C117.485 182.327 117.659 181.215 118.204 181.215C121.071 180.617 124.001 180.382 126.926 180.517C122.696 179.645 118.451 178.823 114.192 178.053C111.074 179.775 107.912 181.672 104.663 183.744C135.452 229.187 198.732 249.662 251.066 235.292Z" fill="#6BA845"/>
<path d="M263.32 163.813C263.822 162.417 264.563 161.218 265.043 159.8C265.814 156.052 265.395 152.156 263.843 148.658C262.426 145.082 260.311 140.72 256.495 139.565C252.962 138.06 249.212 140.72 247.903 143.926C250.751 149.851 254.092 155.526 257.89 160.891C259.112 162.657 260.354 164.401 261.597 166.168C262.309 165.493 262.893 164.695 263.32 163.813Z" fill="#BC8D7F"/>
<path d="M445.594 725.307C447.491 724.064 450.064 722.472 452.397 723.126C457.223 722.442 461.956 721.213 466.505 719.463C466.528 719.195 466.528 718.925 466.505 718.656C451.852 703.698 433.273 705.944 422.109 723.41C429.493 724.907 436.979 725.847 444.503 726.223L445.594 725.307Z" fill="#6BA845"/>
<path d="M661.687 376.2C654.884 372.057 653.815 362.703 656.127 355.659C658.44 349.834 662.347 344.779 667.4 341.072C677.431 333.352 691.387 336.972 699.346 346.065C699.927 346.754 700.458 347.482 700.937 348.246C691.387 349.227 681.901 355.005 675.577 365.974C673.409 369.669 671.578 373.551 670.104 377.574C669.925 377.597 669.75 377.641 669.581 377.705C666.883 377.657 664.214 377.148 661.687 376.2ZM605.538 423.715C605.738 422.03 606.264 420.401 607.086 418.918C611.287 420.802 615.877 421.654 620.475 421.403C622.918 421.234 625.322 420.697 627.605 419.812C630.636 432.786 642.586 442.773 656.41 446.589C652.151 448.449 647.579 449.492 642.934 449.663C626.929 451.015 605.712 442.053 605.538 423.715ZM595.529 503.807C595.298 497.013 596.595 490.255 599.323 484.029C605.56 490.571 613.192 496.698 621.434 492.751C623.317 491.617 624.879 490.019 625.971 488.111C627.062 486.203 627.647 484.047 627.671 481.848C628.096 476.398 628.096 470.923 627.671 465.472H628.957C631.596 465.472 634.256 465.472 636.916 465.603C641.123 465.866 645.264 466.778 649.193 468.307C649.193 468.896 649.084 469.419 649.018 469.877C647.448 482.961 645.813 496.327 641.67 508.931C639.489 514.928 635.499 523.323 628.085 523.323C616.092 521.949 606.279 513.118 596.772 506.467C596.393 506.091 595.976 505.755 595.529 505.464C595.566 504.912 595.566 504.359 595.529 503.807ZM564.434 353.195C565.684 353.995 566.927 354.722 568.163 355.376C575.773 359.432 583.187 363.793 584.474 373.126C585.935 381.085 585.455 389.371 587.984 397.112C589.356 401.827 591.737 406.187 594.962 409.89C593.7 411.627 592.694 413.536 591.975 415.559C587.352 427.836 593.087 441.879 602.027 450.666C605.739 454.163 609.978 457.055 614.587 459.236C614.174 461.126 613.89 463.042 613.737 464.971C613.366 468.983 613.235 473.017 612.952 477.029C606.781 472.494 601.875 466.497 596.227 461.351C595.333 460.544 594.504 459.65 593.632 458.8C592.76 446.337 591.019 433.95 588.42 421.73C584.951 405.477 580.092 389.551 573.898 374.129C571.02 367.02 567.865 360.042 564.434 353.195ZM566.201 337.801C560.706 332.72 555.298 325.11 560.596 317.936C567.138 309.083 580.418 309.541 589.576 313.749C592.675 315.412 595.554 317.455 598.146 319.833C600.217 321.665 602.834 322.951 604.36 325.328C607.675 329.689 608.394 334.879 608.591 340.134C608.688 341.359 608.532 342.591 608.133 343.754C608.023 344.328 608.128 344.923 608.43 345.424C608.731 345.926 609.206 346.299 609.765 346.471C610.324 346.644 610.927 346.605 611.458 346.361C611.99 346.117 612.413 345.685 612.646 345.149C613.015 345.024 613.352 344.818 613.631 344.547C613.91 344.275 614.125 343.944 614.26 343.579C614.5 342.641 614.74 341.704 614.958 340.766C626.755 318.677 639.773 296.348 658.678 279.536C665.562 273.415 673.418 268.485 681.923 264.948C687.222 263.073 698.103 259.671 700.131 267.281C702.856 279.863 693.087 290.155 685.434 298.878C679.939 305.419 674.269 312.288 671.173 320.378C670.789 321.423 670.483 322.494 670.257 323.583C662.023 326.059 654.724 330.952 649.307 337.629C643.891 344.306 640.607 352.457 639.882 361.024C638.726 375.154 649.127 393.318 665.176 390.352C666.287 390.157 667.376 389.85 668.425 389.436C668.471 390.088 668.558 390.736 668.687 391.377C670.693 406.336 686.306 412.071 697.318 401.691C700.577 398.493 703.21 394.714 705.08 390.548C705.224 390.299 705.316 390.024 705.353 389.739C705.39 389.454 705.371 389.165 705.296 388.888C705.221 388.61 705.092 388.35 704.917 388.123C704.741 387.895 704.523 387.704 704.274 387.561C704.024 387.418 703.75 387.325 703.465 387.288C703.18 387.251 702.89 387.271 702.613 387.346C702.335 387.421 702.076 387.549 701.848 387.725C701.62 387.9 701.429 388.119 701.286 388.368C700.645 389.302 699.915 390.171 699.106 390.963C693.72 395.324 681.661 396.676 680.745 387.539C679.96 380.387 687.287 370.095 692.368 365.254C704.775 353.741 720.584 367.325 719.472 381.783C716.027 400.753 704.056 418.852 686.96 428.054C678.995 432.463 669.745 433.966 660.793 432.306C645.791 429.319 634.147 414.404 637.396 398.987C637.767 397.09 638.573 393.579 635.542 393.754C632.751 394.43 631.181 397.592 630.004 399.925C628.557 403.039 627.594 406.355 627.147 409.759C625.381 409.432 623.549 409.258 621.848 408.843C617.17 407.982 612.783 405.958 609.092 402.956C596.009 391.573 603.575 369.135 591.124 355.921C584.059 348.115 573.811 344.582 566.179 337.757L566.201 337.801ZM450.173 744.104C450.049 741.548 450.166 738.985 450.522 736.451C452.297 736.885 454.127 737.054 455.951 736.952C467.989 736.601 479.436 731.654 487.94 723.127C493.056 718.068 496.927 711.888 499.247 705.077C501.566 698.265 502.272 691.008 501.307 683.877C505.21 675.722 510.902 668.112 519.057 663.86C519.711 663.511 520.387 663.206 521.063 662.879C526.165 678.862 523.919 696.481 516.854 711.549C507.958 729.974 489.118 741.052 470.518 747.811C466.425 749.131 462.261 750.216 458.045 751.06C456.017 751.562 453.684 751.78 451.678 752.303C450.864 749.621 450.352 746.857 450.151 744.061L450.173 744.104ZM433.492 811.113L433.971 810.35C436.497 806.084 440.429 802.831 445.092 801.148C451.395 803.975 458.541 804.288 465.066 802.02C466.197 805.553 468.289 808.701 471.106 811.113C467.423 811.57 463.779 812.299 460.203 813.294C454.207 815.474 447.556 817.786 443.609 823.041C440.731 830.04 451.547 826.268 454.861 825.897C463.054 824.499 471.382 824.067 479.676 824.611C497.251 825.723 515.132 830.695 528.869 842.055C539.598 851.541 547.251 866.63 542.912 881.022C540.034 889.744 533.667 897.921 524.094 899.12C507.347 902.326 490.208 902.13 473.243 902.893C468.119 903.089 463.016 903.438 457.87 903.634C456.736 903.743 455.363 903.787 453.902 903.874C462.777 887.912 460.443 866.543 454.098 849.687C449.475 835.797 440.84 823.804 433.492 811.113ZM416.374 750.777C416.374 750.275 416.374 749.774 416.374 749.294C416.374 747.506 416.374 745.718 416.527 743.93C417.203 732.896 420.234 722.844 428.978 715.583C432.662 711.98 437.408 709.659 442.513 708.964C447.619 708.269 452.812 709.236 457.325 711.723C460.926 713.807 464.246 716.342 467.203 719.268C462.457 721.162 457.501 722.48 452.441 723.193C450.108 722.495 447.534 724.087 445.637 725.373C438.114 731.108 435.759 741.466 436.915 750.472C437.256 753.573 438.096 756.6 439.401 759.434C440.753 762.116 441.93 765.234 444.656 766.848C445.015 767.078 445.395 767.275 445.79 767.436C446.626 768.244 447.702 768.756 448.856 768.893C450.01 769.031 451.177 768.788 452.179 768.2C452.788 767.847 453.32 767.376 453.743 766.814C454.166 766.252 454.472 765.611 454.643 764.929C458.018 765.153 461.408 764.97 464.739 764.384C469.31 763.511 473.819 762.338 478.237 760.873C476.977 767.753 474.519 774.359 470.975 780.389C468.073 784.931 463.903 788.524 458.982 790.725C456.146 792.126 452.892 792.429 449.846 791.575C448.189 791.226 446.619 790.572 445.005 790.071C444.742 789.971 444.473 789.891 444.198 789.831C445.648 784.206 445.313 778.27 443.239 772.844C439.03 761.549 428.367 752.238 416.374 750.821V750.777ZM413.605 710.633C412.865 698.777 411.534 686.965 409.615 675.242C413.714 675.046 417.792 674.697 421.847 674.109C434.931 685.011 450.958 694.998 468.163 694.453C474.632 694.182 480.954 692.445 486.654 689.372C486.625 691.922 486.355 694.462 485.847 696.961C484.153 703.612 480.508 709.604 475.38 714.165C474.335 710.575 472.494 707.266 469.994 704.484C456.649 689.59 431.791 690.877 418.337 704.985C416.536 706.685 414.947 708.596 413.605 710.676V710.633ZM287.699 906.491C278.388 889.439 285.693 862.88 296.051 847.616C309.003 828.187 332.139 818.745 354.621 816.041C363.25 814.828 371.976 814.441 380.678 814.885C391.341 815.409 401.612 818.353 411.882 821.035C414.215 821.384 419.209 823.411 419.318 819.552C417.595 814.471 411.206 811.309 406.714 808.889C396.408 804.124 385.186 801.668 373.832 801.693C366.063 801.625 358.3 802.143 350.609 803.241C348.166 799.36 344.83 796.002 343.282 791.619C342.619 788.88 342.63 786.02 343.314 783.286C343.997 780.552 345.333 778.024 347.207 775.919C352.767 769.726 360.443 766.15 368.118 763.293L370.299 762.552C370.539 764.972 370.779 767.393 370.997 769.835C371.019 770.471 371.085 771.105 371.193 771.732C369.397 772.175 367.633 772.744 365.916 773.433C364.626 774.21 363.657 775.424 363.188 776.855C362.718 778.285 362.778 779.837 363.357 781.228C363.936 782.618 364.995 783.754 366.341 784.428C367.687 785.103 369.231 785.271 370.692 784.903C381.115 783.9 391.494 783.791 401.939 783.398C406.736 782.918 420.626 783.965 420.583 777.075C420.34 775.873 419.656 774.807 418.664 774.087C417.296 773.2 415.833 772.468 414.303 771.907C414.423 771.032 414.489 770.151 414.499 769.268C414.673 767.088 414.782 764.798 414.891 762.574C417.48 763.547 419.952 764.804 422.262 766.324C426.568 769.238 429.677 773.61 431.015 778.635C432.354 783.66 431.831 788.999 429.545 793.669C428.23 796.244 426.613 798.652 424.726 800.843C422.96 802.827 420.365 804.506 420.103 807.384C419.907 813.228 424.464 817.916 426.645 823.063C430.221 830.215 433.906 837.28 437.547 844.345C445.245 861.135 451.154 885.776 438.681 901.497C430.177 910.765 416.44 911.005 404.752 912.029C373.504 914.363 342.104 915.976 310.77 914.515C302.767 913.599 292.627 913.927 287.699 906.534V906.491ZM244.481 134.333H247.664C252.533 134.401 257.375 133.612 261.969 131.999C264.22 131.185 266.337 130.039 268.249 128.598C266.976 143.458 268.773 158.421 273.526 172.558C274.906 176.559 276.553 180.464 278.454 184.246C278.043 185.093 277.585 185.915 277.08 186.71C276.83 187.105 276.504 187.446 276.121 187.713C270.408 178.554 264.084 169.854 257.891 161.023C252.939 154.205 248.88 146.781 245.811 138.934C245.353 137.429 244.83 135.881 244.481 134.333ZM244.132 130.626C244.175 129.884 244.314 129.151 244.546 128.445C252.331 125.659 260.459 123.949 268.707 123.364C268.707 123.931 268.707 124.498 268.554 125.065C264.567 128.986 259.323 131.372 253.748 131.803C250.504 131.846 247.269 131.45 244.132 130.626ZM196.617 563.314C195.614 563.51 194.611 563.729 193.586 564.012C199.605 555.617 207.629 549.053 215.675 542.512C216.635 544.3 217.594 546.066 218.597 547.81C223.278 556.14 228.366 564.252 233.861 572.145C230.784 572.438 227.807 573.398 225.139 574.958C218.423 566.345 208.065 561.003 196.617 563.314ZM175.575 690.397C172.938 688.565 170.947 685.948 169.884 682.918C172.806 673.476 193.87 675.613 202.091 674.981C202.788 674.872 203.573 674.763 204.271 674.588C207.804 677.173 211.826 679.011 216.092 679.99C220.359 680.968 224.78 681.067 229.086 680.279C230.612 679.909 235.933 678.797 235.191 676.682C235.1 676.392 234.905 676.147 234.643 675.993C234.381 675.84 234.071 675.79 233.774 675.853C232.302 675.696 230.844 675.426 229.413 675.046C221.997 673.456 215.375 669.312 210.704 663.337C208.76 660.973 207.113 658.38 205.798 655.617C204.576 652.695 204.184 649.468 202.854 646.612C202.701 646.306 202.527 646.023 202.352 645.739C223.678 637.911 237.677 612.181 231.746 590.048C231.311 587.725 230.638 585.453 229.74 583.266C230.814 583.334 231.884 583.457 232.946 583.637C243.164 585 253.054 588.191 262.143 593.057C279.74 603.458 293.216 622.8 293.347 643.668C293.74 659.695 282.008 672.539 270.146 681.871C257.333 691.753 242.065 697.951 225.99 699.796C209.003 702.085 190.163 699.599 175.575 690.397ZM164.192 617.872C163.659 616.733 163.27 615.532 163.037 614.296C163.862 614.655 164.715 614.946 165.588 615.168L166.853 615.408C167.359 615.824 167.925 616.163 168.532 616.411C172.413 618.221 176.84 617.61 180.939 617.13C185.399 616.651 189.706 615.229 193.575 612.958C197.443 610.688 200.784 607.62 203.377 603.96C207.04 598.181 208.283 590.397 204.925 584.204C204.522 583.57 204.03 582.997 203.464 582.503C203.384 582.392 203.274 582.305 203.148 582.25C203.022 582.196 202.884 582.177 202.747 582.195C202.611 582.212 202.482 582.267 202.374 582.352C202.266 582.437 202.183 582.549 202.134 582.678C201.56 583.777 201.079 584.922 200.695 586.101C199.899 587.839 198.989 589.521 197.969 591.138L197.468 590.702C194.891 588.405 192.52 585.888 190.381 583.179C189.735 582.406 189.186 581.556 188.746 580.65C189.509 580.301 190.228 579.908 190.926 579.603C194.785 578.089 198.94 577.477 203.072 577.815C212.666 579.538 216.94 589.372 218.118 598.094C218.725 604.919 217.193 611.764 213.735 617.68C210.277 623.595 205.065 628.288 198.82 631.108C192.982 633.297 186.615 633.655 180.568 632.133C176.849 631.349 173.392 629.628 170.526 627.132C167.66 624.636 165.479 621.448 164.192 617.872ZM162.928 654.767C160.333 652.892 157.106 650.406 160.464 647.462C161.663 646.35 162.949 645.281 164.149 644.235C165.992 644.082 167.844 644.082 169.687 644.235C172.799 645.597 176.054 646.606 179.391 647.244C183.467 649.139 187.128 651.821 190.163 655.138C190.163 655.508 190.381 655.879 190.512 656.25C191.117 658.143 191.898 659.976 192.845 661.723C190.787 661.418 188.711 661.243 186.63 661.2C181.261 660.98 175.935 660.146 170.756 658.714L171.083 658.823C168.122 658.027 165.349 656.648 162.928 654.767ZM156.56 589.35C149.256 576.965 154.14 562.791 160.725 551.256C168.984 537.778 179.597 525.894 192.06 516.171C198.34 511.373 204.751 506.729 211.053 501.953C213.29 500.388 215.404 498.653 217.376 496.764C218.75 495.324 221.105 493.318 220.015 491.203C219.317 490.047 217.442 490.004 216.242 490.091C214.022 490.294 211.829 490.733 209.701 491.399C209.57 490.985 209.417 490.549 209.265 490.135C204.869 477.435 201.278 464.472 198.514 451.321C195.875 438.266 194.091 425.053 193.172 411.765C192.398 400.259 192.354 388.715 193.041 377.203C193.748 367.187 195.081 357.224 197.032 347.373C198.872 338.509 201.268 329.77 204.206 321.207C206.757 313.933 209.757 306.826 213.19 299.924C216.217 293.912 219.603 288.086 223.329 282.48C226.973 277.136 230.927 272.011 235.17 267.129C240.338 261.329 245.85 255.846 251.677 250.709C256.256 246.719 261.009 242.881 265.763 239.108C266.897 238.193 268.053 237.32 269.186 236.426C270.32 235.532 271.759 234.551 273.024 233.592C273.858 232.98 274.658 232.325 275.423 231.629C275.878 231.196 276.301 230.729 276.688 230.234L276.949 230.103C277.132 230.003 277.321 229.915 277.516 229.841C277.613 229.781 277.685 229.687 277.72 229.578C277.754 229.469 277.748 229.352 277.704 229.247C277.659 229.141 277.578 229.056 277.476 229.005C277.373 228.954 277.256 228.941 277.145 228.969L276.535 229.209H276.317H276.142C275.627 229.176 275.11 229.176 274.594 229.209C273.728 229.266 272.868 229.39 272.021 229.579C270.071 229.997 268.148 230.536 266.264 231.193C269.557 223.845 271.89 215.929 277.167 209.693C283.818 202.628 294.394 200.97 303.705 201.254C313.016 201.537 321.149 205.746 329.675 209.322L326.404 209.954C322.85 210.674 319.274 211.568 315.807 212.636C313.932 213.225 312.056 213.749 310.181 214.316C309.243 214.599 308.327 214.991 307.39 215.231C307.162 215.192 306.927 215.211 306.708 215.285C306.489 215.359 306.291 215.487 306.133 215.656C305.976 215.826 305.862 216.032 305.804 216.256C305.746 216.48 305.744 216.715 305.8 216.94C305.855 217.165 305.965 217.372 306.121 217.544C306.276 217.716 306.472 217.846 306.69 217.923C306.908 218 307.142 218.022 307.371 217.986C307.6 217.95 307.816 217.857 308 217.717H308.415L312.34 217.39C316.701 217.085 320.888 217.063 325.183 217.063C329.086 217.063 332.99 217.063 336.893 217.325C349.863 218.101 362.774 219.666 375.554 222.013C385.881 224.02 396.076 226.656 406.082 229.907C415.401 233.061 424.518 236.782 433.383 241.049C442.473 245.511 451.284 250.521 459.767 256.051C468.596 261.922 477.071 268.308 485.149 275.175C493.616 282.53 501.626 290.395 509.135 298.725C516.799 307.282 523.936 316.297 530.505 325.72C537.26 335.505 543.399 345.701 548.887 356.248C554.338 366.845 559.13 377.769 563.235 388.957C567.293 400.298 570.629 411.886 573.222 423.649C575.61 434.842 577.286 446.174 578.237 457.579C579.072 468.462 579.218 479.386 578.673 490.287C578.083 500.445 576.845 510.554 574.966 520.553C573.201 529.668 570.863 538.663 567.967 547.483C565.193 555.75 561.901 563.834 558.111 571.688C554.66 578.745 550.779 585.583 546.488 592.163L546.052 592.839C542.001 598.983 537.588 604.881 532.838 610.502C528.127 615.957 523.088 621.12 517.748 625.962C514.151 629.189 510.422 632.285 506.562 635.185C505.527 636.001 504.725 637.076 504.239 638.302C503.752 639.527 503.599 640.859 503.793 642.163C503.466 642.839 503.182 643.537 502.921 644.213C501.416 647.549 499.912 650.864 498.276 654.135C493.915 662.857 488.224 671.579 479.283 676.158C465.48 683.463 451.852 676.987 440.033 669.071C436.206 666.166 432.192 663.515 428.018 661.134C425.241 659.454 421.952 658.827 418.751 659.368C416.571 659.63 414.172 659.848 411.86 660C409.549 660.153 407.826 660.218 405.799 660.24C405.1 657.943 403.77 655.888 401.961 654.309C396.618 652.128 397.229 667.065 397.142 670.096C397.316 685.905 398.821 701.671 399.322 717.48C399.889 732.853 400.042 748.226 400.674 763.577C400.674 765.561 400.892 767.524 400.979 769.508C395.722 769.13 390.444 769.167 385.192 769.617C385.192 769.617 385.192 769.443 385.192 769.355C385.083 765.757 385.018 762.181 384.865 758.583C384.233 747.899 383.121 737.214 381.834 726.573C380.548 715.932 379.239 705.225 377.778 694.562C375.816 678.622 373.417 662.377 365.938 647.964C365.844 647.629 365.645 647.334 365.37 647.122C365.095 646.91 364.759 646.792 364.412 646.786C364.208 646.783 364.006 646.82 363.817 646.896C363.628 646.971 363.456 647.082 363.31 647.224C363.165 647.366 363.048 647.535 362.968 647.722C362.887 647.908 362.844 648.109 362.842 648.312C362.489 650.181 362.235 652.066 362.078 653.96C359.898 653.328 357.717 652.63 355.537 651.889C348.261 649.328 341.152 646.313 334.254 642.861C326.573 638.959 319.138 634.589 311.991 629.778C309.941 628.382 307.891 626.943 305.885 625.417C301.688 611.884 293.931 599.729 283.426 590.222C275.041 582.595 264.968 577.065 254.032 574.086C250.695 569.725 247.49 565.364 244.415 560.741C239.792 553.829 235.431 546.72 231.332 539.481C231.204 534.204 232.729 529.02 235.693 524.653C235.918 524.272 236.086 523.861 236.195 523.432C236.244 523.208 236.229 522.974 236.152 522.759C236.075 522.543 235.938 522.353 235.758 522.211C235.759 521.922 235.659 521.643 235.476 521.42C235.293 521.197 235.038 521.045 234.755 520.99C232.568 520.651 230.332 520.807 228.214 521.447C220.153 524.048 212.546 527.888 205.667 532.83C194.197 540.833 183.403 550.471 176.491 562.769C173.905 566.808 172.531 571.504 172.531 576.299C172.531 581.095 173.905 585.791 176.491 589.83C178.438 592.659 180.627 595.315 183.032 597.767C184.211 599.015 185.487 600.167 186.848 601.212C186.172 601.561 185.518 601.867 184.842 602.172C180.668 604.021 176.17 605.029 171.606 605.137H171.148C170.227 604.063 169.237 603.051 168.183 602.106C165.947 600.146 163.835 598.049 161.859 595.826C159.845 593.851 158.066 591.649 156.56 589.263V589.35ZM118.292 181.215C117.659 181.215 117.485 182.239 118.292 182.327C119.494 182.537 120.713 182.64 121.933 182.632C126.382 182.805 130.816 183.242 135.213 183.94C148.465 186.547 161.568 189.866 174.463 193.884C190.904 198.725 207.346 203.74 223.286 210.063C231.79 213.618 240.207 217.412 248.689 220.966C250.87 221.86 253.159 222.754 255.383 223.692C254.86 225.24 254.359 226.81 253.835 228.337C252.963 230.648 252.047 232.959 251.066 235.227C231.201 241.289 209.461 240.744 189.138 237.168C156.233 229.536 123.351 212.767 104.685 183.679C123.874 171.446 140.446 165.166 163.298 164.054C188.764 162.491 214.257 166.633 237.917 176.178C246.071 179.815 254.007 183.921 261.685 188.476C264.542 191.812 267.616 195.018 270.669 198.092C269.488 199.008 268.359 199.991 267.289 201.036C263.746 204.747 260.941 209.098 259.025 213.858C242.213 204.394 224.136 197.918 205.798 192.335C184.897 185.827 163.266 181.952 141.406 180.8C136.826 180.611 132.247 180.524 127.668 180.539C124.527 180.378 121.378 180.605 118.292 181.215ZM101.741 168.829C94.9814 171.86 86.6953 176.875 91.3617 185.379C95.4175 191.42 100.978 196.282 105.644 201.908C113.038 210.46 121.279 218.24 130.241 225.131C154.227 243.404 184.036 255.027 214.476 254.874C219.978 254.939 225.469 254.398 230.852 253.26C229.13 254.918 227.451 256.64 225.815 258.385C224.965 259.322 224.136 260.238 223.307 261.198C217.735 267.59 212.689 274.423 208.218 281.629C204.144 288.166 200.502 294.962 197.315 301.974C194.079 309.116 191.262 316.441 188.876 323.91C186.409 331.788 184.378 339.796 182.793 347.897C181.179 355.964 179.978 364.108 179.195 372.297C178.366 381.019 177.908 390.003 177.908 398.856C177.992 415.914 179.641 432.929 182.836 449.685C185.892 465.943 190.208 481.938 195.745 497.527C178.425 506.892 163.546 520.194 152.308 536.362C140.577 553.044 132.291 574.675 141.951 594.256C144.373 599.234 147.761 603.682 151.916 607.34C151.137 608.763 150.564 610.29 150.215 611.875C148.623 620.118 152.003 628.666 157.236 635.076C149.365 637.126 143.434 645.805 146.334 654.178C148.776 661.287 155.187 665.953 162.797 668.635C156.735 673.978 153.028 682.7 156.888 690.441C165.108 711.069 200.499 717.305 220.276 715.91C243.271 714.678 265.252 706.051 282.946 691.313C294.197 681.849 304.184 669.704 307.433 655.05C308.042 652.017 308.407 648.94 308.524 645.848C313.19 648.756 317.944 651.54 322.785 654.2C335.065 660.833 348.047 666.077 361.49 669.835C361.751 696.459 366.745 722.931 369.143 749.49C365.575 749.813 362.056 750.545 358.655 751.671C347.923 754.985 338.675 761.922 332.488 771.296C326.993 780.651 325.772 793.32 331.79 802.696C332.72 804.142 333.763 805.513 334.909 806.796C297.839 817.11 271.672 844.17 270.473 890.137C269.884 911.026 278.17 926.247 300.434 928.275C316.483 929.91 332.663 928.842 348.755 928.58C369.863 927.86 390.993 927.599 411.991 926.116C421.681 925.877 431.178 923.352 439.706 918.746C441.23 918.865 442.761 918.865 444.285 918.746C448.407 918.549 452.528 918.397 456.649 918.179C462.384 918.462 468.119 918.528 473.832 918.331C491.604 917.306 523.985 918.331 538.922 909.914C546.598 904.951 552.554 897.736 555.973 889.259C559.392 880.781 560.109 871.453 558.023 862.552C551.22 831.61 518.773 813.032 487.482 810.895L486.654 809.717C484.844 807.297 483.143 804.811 481.508 802.304C479.826 799.782 478.367 797.119 477.146 794.345C484.931 786.146 488.725 774.349 489.205 763.163C489.348 760.977 489.245 758.783 488.9 756.621C505.668 748.858 520.67 736.538 529.24 720.663C538.595 702.565 541.865 680.781 536.24 661.047C534.953 656.424 530.374 643.363 525.838 639.067C527.212 637.868 528.542 636.668 529.872 635.425C536.507 629.265 542.68 622.625 548.342 615.56C552.114 610.894 555.603 606.031 558.917 601.038C559.092 600.754 559.266 600.471 559.463 600.187C561.091 597.702 562.661 595.172 564.173 592.599C571.006 580.98 576.681 568.717 581.116 555.988C585.412 543.747 588.658 531.164 590.819 518.373C601.896 529.276 615.743 539.612 631.879 538.194C656.018 533.048 659.55 503.654 662.014 483.2C662.254 478.054 663.475 466.715 661.862 459.345C665.482 457.317 668.442 454.289 670.388 450.623C670.791 449.851 671.091 449.03 671.282 448.181C673.897 448.037 676.49 447.628 679.023 446.96C700.087 441.922 716.681 425.786 726.581 407.012C731.836 396.24 736.699 384.312 733.493 372.341C729.415 358.712 719.886 350.535 709.333 348.529C709.542 345.385 708.854 342.247 707.348 339.48C705.045 335.229 701.822 331.547 697.913 328.703C694.005 325.858 689.51 323.923 684.758 323.038L683.297 322.777C683.885 322.101 684.474 321.446 685.085 320.792C695.115 308.93 708.351 298.834 713.563 283.701C717.553 272.515 716.855 256.771 705.211 250.709C691.866 243.186 676.101 249.989 664.02 256.945C642.062 270.727 622.263 293.012 613.453 318.001C611.809 313.553 609.107 309.572 605.581 306.401C599.763 301.266 592.668 297.795 585.043 296.353C577.419 294.91 569.546 295.548 562.254 298.202C557.803 299.884 553.824 302.613 550.651 306.158C547.478 309.703 545.205 313.959 544.024 318.568C527.587 294.456 507.513 273.035 484.517 255.07C471.332 244.818 457.153 235.913 442.192 228.489C434.708 224.792 427.037 221.487 419.209 218.589C411.206 215.653 403.036 213.192 394.743 211.219C381.047 207.972 366.992 206.492 352.92 206.814C350.165 205.131 347.302 203.631 344.35 202.322C330.002 195.585 315.589 186.622 299.104 187.604C296.084 187.756 293.085 188.179 290.142 188.868C290.011 188.149 289.836 187.429 289.727 186.688C288.179 179.863 286.435 173.081 285.083 166.212C282.818 154.671 282.136 142.875 283.055 131.149C283.251 128.205 283.338 125.283 283.447 122.427C283.716 120.093 283.447 117.729 282.662 115.514C280.264 109.867 273.351 108.973 267.944 108.973C260.854 109.057 253.805 110.046 246.967 111.916C242.366 113.203 237.001 114.097 234.058 118.284C230.743 123.015 231.376 129.383 232.727 134.703C236.432 146.646 241.611 158.08 248.144 168.742C232.727 159.213 214.563 154.197 196.726 151.799C170.08 148.397 140.708 148.572 116.373 160.87C111.401 163.356 106.647 166.256 101.741 168.829Z" fill="#1B1818"/>
<path d="M376.471 463.163C376 469.273 377.23 475.393 380.025 480.847C380.074 480.96 380.133 481.07 380.199 481.174C383.837 483.808 387.705 486.107 391.756 488.043C389.009 480.766 387.67 473.033 387.81 465.256C387.81 464.689 388.704 464.776 388.725 465.256C388.798 466.289 388.936 467.316 389.14 468.331C391.168 477.467 397.687 484.467 403.706 491.248C404.164 491.793 404.6 492.404 405.014 492.993C409.869 494.34 414.842 495.223 419.864 495.631C417.683 491.597 415.677 486.756 414.958 485.295C412.777 480.389 410.727 475.461 408.416 470.664C404.447 462.966 395.049 445.5 384.43 449.207C378.542 450.973 376.907 457.646 376.471 463.163Z" fill="#FF9DA9"/>
<path d="M452.048 389.304C452.071 394.149 452.59 398.978 453.597 403.717C455.307 413.208 458.657 422.328 463.496 430.669C464.915 433.074 466.589 435.319 468.49 437.363C470.226 439.313 472.412 440.81 474.857 441.725C475.641 442 476.453 442.191 477.277 442.291C477.597 442.313 477.917 442.313 478.237 442.291C478.776 442.286 479.315 442.25 479.851 442.182C481.271 441.989 482.624 441.458 483.797 440.634C486.25 438.799 488.047 436.222 488.922 433.286C490.256 428.754 490.657 423.999 490.099 419.308C489.729 415.382 489.096 411.484 488.202 407.642C487.102 402.752 485.644 397.949 483.841 393.272C482.881 390.626 481.729 388.054 480.396 385.575C480.09 384.703 479.763 383.874 479.414 383.024C478.965 381.871 478.426 380.755 477.801 379.688C477.013 378.389 476.132 377.15 475.162 375.981C472.24 372.47 468.054 368.937 463.191 369.308C461.969 369.388 460.772 369.691 459.659 370.202C458.577 370.762 457.597 371.499 456.758 372.383C455.528 373.638 454.55 375.119 453.88 376.744C453.125 378.666 452.605 380.672 452.332 382.719C452.079 384.904 451.984 387.105 452.048 389.304Z" fill="#1B1818"/>
<path d="M397.949 393.971C397.973 398.823 398.492 403.66 399.497 408.406C401.198 417.892 404.548 427.007 409.397 435.336C410.821 437.748 412.511 439.993 414.434 442.03C416.17 443.971 418.346 445.467 420.779 446.392C421.574 446.655 422.392 446.845 423.222 446.958H424.159C424.704 446.99 425.25 446.99 425.795 446.958C427.218 446.775 428.573 446.243 429.741 445.41C432.187 443.577 433.983 441.01 434.866 438.084C436.192 433.543 436.592 428.783 436.043 424.084C435.672 420.158 435.038 416.26 434.146 412.418C433.068 407.535 431.647 402.733 429.894 398.049C428.921 395.408 427.77 392.836 426.449 390.351C426.144 389.501 425.795 388.65 425.446 387.8C425.017 386.649 424.484 385.539 423.854 384.485C423.07 383.179 422.18 381.94 421.194 380.778C418.293 377.268 414.107 373.713 409.244 374.106C408.023 374.178 406.826 374.474 405.712 374.978C404.627 375.534 403.647 376.272 402.812 377.159C401.581 378.414 400.603 379.895 399.933 381.52C399.181 383.443 398.661 385.448 398.385 387.495C398.087 389.64 397.941 391.805 397.949 393.971Z" fill="#1B1818"/>
<path d="M380.025 480.848C377.23 475.394 376 469.273 376.471 463.164C376.885 457.647 378.542 450.974 384.539 449.273C395.071 445.566 404.469 463.033 408.525 470.73C410.902 475.527 412.886 480.455 415.066 485.362C415.786 486.823 417.749 491.663 419.973 495.697C414.951 495.29 409.978 494.406 405.123 493.059C404.709 492.47 404.273 491.86 403.815 491.315C397.796 484.533 391.277 477.533 389.249 468.397C389.045 467.382 388.907 466.355 388.834 465.322C388.834 464.777 387.962 464.69 387.918 465.322C387.751 473.094 389.061 480.826 391.778 488.109C387.726 486.173 383.858 483.874 380.221 481.24C380.144 481.116 380.078 480.984 380.025 480.848ZM336.981 457.865C336.85 459.566 335.563 460.961 335.89 462.727C336.033 463.632 336.437 464.476 337.052 465.155C337.667 465.833 338.466 466.318 339.353 466.55C340.239 466.781 341.174 466.749 342.042 466.457C342.91 466.166 343.675 465.627 344.242 464.908C344.602 464.373 345.099 463.944 345.681 463.665C346.51 462.973 347.243 462.173 347.862 461.288C355.499 476.718 367.9 489.28 383.23 497.115C383.495 497.442 383.826 497.708 384.202 497.896C384.579 498.084 384.991 498.19 385.411 498.205C399.652 505.329 415.53 508.542 431.421 507.516C449.436 505.713 466.437 498.326 480.047 486.386C487.086 479.596 492.783 471.54 496.837 462.64C500.181 456.267 502.506 449.41 503.728 442.317C503.665 441.882 503.457 441.481 503.136 441.18C502.816 440.878 502.402 440.695 501.964 440.659C501.525 440.624 501.088 440.738 500.723 440.984C500.358 441.23 500.088 441.592 499.956 442.012C495.333 448.27 492.803 455.815 488.268 462.139C481.966 471.903 473.449 480.042 463.407 485.893C453.366 491.743 442.085 495.14 430.483 495.806C429.284 495.806 428.084 495.807 426.885 495.937C426.667 487.738 422.371 475.527 420.343 470.141C417.269 462.121 412.753 454.731 407.02 448.336C401.154 442.056 392.781 436.604 383.819 438.262C369.144 440.878 364.194 454.856 365.699 468.157C361.566 463.611 358.147 458.465 355.559 452.893L357.064 451.258C358.96 449.602 360.37 447.461 361.141 445.065C361.294 444.367 361.425 443.582 360.792 443.059C359.695 442.383 358.455 441.974 357.171 441.864C355.888 441.754 354.596 441.947 353.4 442.426C349.772 443.775 346.45 445.835 343.631 448.487C340.811 451.138 338.55 454.327 336.981 457.865Z" fill="#1B1818"/>
<path d="M454.403 402.104C459.44 400.251 466.243 398.55 469.841 394.429C475.249 385.27 457.936 384.158 452.397 383.766C452.179 385.604 452.069 387.453 452.07 389.304C452.082 393.697 452.52 398.079 453.378 402.388L454.403 402.104Z" fill="white"/>
<path d="M399.846 407.71C404.796 406.074 413.3 403.479 416.265 398.987C416.809 398.171 417.061 397.196 416.982 396.219C416.903 395.241 416.497 394.319 415.829 393.601C411.773 389.829 403.313 390.461 398.036 390.636C398.036 391.704 398.036 392.816 398.036 393.841C398.052 398.523 398.542 403.191 399.497 407.775L399.846 407.71Z" fill="white"/>
</g>
</svg>
