<svg width="768" height="768" viewBox="0 0 768 768" fill="none" xmlns="http://www.w3.org/2000/svg">
<mask id="mask0_250_3182" style="mask-type:alpha" maskUnits="userSpaceOnUse" x="0" y="0" width="768" height="768">
<circle cx="384" cy="384" r="384" transform="matrix(-1 0 0 1 768 0)" fill="#D9D9D9"/>
</mask>
<g mask="url(#mask0_250_3182)">
<rect width="768" height="768" transform="matrix(-1 0 0 1 768 0)" fill="#C1F5F5"/>
<path d="M573.616 141.469L568.755 139.622C568.524 139.478 568.334 139.278 568.202 139.04C568.069 138.801 568 138.534 568 138.261C568 137.989 568.069 137.721 568.202 137.483C568.334 137.245 568.524 137.044 568.755 136.9L573.616 135.053C582.827 131.529 590.021 121.856 592.646 109.486L594.128 103.021C594.42 101.66 595.854 101.66 596.146 103.021L597.531 109.486C600.156 121.856 607.252 131.529 616.561 135.053L621.422 136.9C621.653 137.044 621.843 137.245 621.975 137.483C622.107 137.721 622.177 137.989 622.177 138.261C622.177 138.534 622.107 138.801 621.975 139.04C621.843 139.278 621.653 139.478 621.422 139.622L616.561 141.469C607.35 144.993 600.156 154.642 597.531 167.013L596.146 173.478C595.854 174.839 594.42 174.839 594.128 173.478L592.743 167.013C590.021 154.642 582.827 144.993 573.616 141.469Z" fill="white"/>
<path d="M370.616 114.469L365.755 112.622C365.524 112.478 365.334 112.278 365.202 112.04C365.069 111.801 365 111.534 365 111.261C365 110.989 365.069 110.721 365.202 110.483C365.334 110.245 365.524 110.044 365.755 109.9L370.616 108.053C379.827 104.529 387.021 94.8562 389.646 82.4856L391.128 76.0208C391.42 74.6597 392.854 74.6597 393.146 76.0208L394.531 82.4856C397.156 94.8562 404.252 104.529 413.561 108.053L418.422 109.9C418.653 110.044 418.843 110.245 418.975 110.483C419.107 110.721 419.177 110.989 419.177 111.261C419.177 111.534 419.107 111.801 418.975 112.04C418.843 112.278 418.653 112.478 418.422 112.622L413.561 114.469C404.35 117.993 397.156 127.642 394.531 140.013L393.146 146.478C392.854 147.839 391.42 147.839 391.128 146.478L389.743 140.013C387.021 127.642 379.827 117.993 370.616 114.469Z" fill="white"/>
<path d="M631.58 235.794L628.81 234.749C628.674 234.67 628.56 234.557 628.482 234.42C628.403 234.284 628.362 234.129 628.362 233.971C628.362 233.814 628.403 233.659 628.482 233.523C628.56 233.386 628.674 233.273 628.81 233.194L631.58 232.124C636.854 230.107 640.986 224.566 642.493 217.542L643.271 213.824C643.441 213.046 644.267 213.046 644.437 213.824L645.239 217.542C646.746 224.614 650.853 230.156 656.152 232.124L658.898 233.194C659.034 233.273 659.147 233.386 659.226 233.523C659.304 233.659 659.346 233.814 659.346 233.971C659.346 234.129 659.304 234.284 659.226 234.42C659.147 234.557 659.034 234.67 658.898 234.749L656.152 235.794C650.853 237.836 646.746 243.353 645.239 250.376L644.437 254.071C644.267 254.873 643.441 254.873 643.271 254.071L642.493 250.376C640.986 243.401 636.854 237.836 631.58 235.794Z" fill="white"/>
<path d="M428.58 208.794L425.81 207.749C425.674 207.67 425.56 207.557 425.482 207.42C425.403 207.284 425.362 207.129 425.362 206.971C425.362 206.814 425.403 206.659 425.482 206.523C425.56 206.386 425.674 206.273 425.81 206.194L428.58 205.124C433.854 203.107 437.986 197.566 439.493 190.542L440.271 186.824C440.441 186.046 441.267 186.046 441.437 186.824L442.239 190.542C443.746 197.614 447.853 203.156 453.152 205.124L455.898 206.194C456.034 206.273 456.147 206.386 456.226 206.523C456.304 206.659 456.346 206.814 456.346 206.971C456.346 207.129 456.304 207.284 456.226 207.42C456.147 207.557 456.034 207.67 455.898 207.749L453.152 208.794C447.853 210.836 443.746 216.353 442.239 223.376L441.437 227.071C441.267 227.873 440.441 227.873 440.271 227.071L439.493 223.376C437.986 216.401 433.854 210.836 428.58 208.794Z" fill="white"/>
<path d="M187.701 577.501C172.571 593.079 156.239 612.852 159.185 635.995C161.303 646.67 165.249 656.9 170.851 666.231C173.667 665.371 176.39 664.234 178.981 662.837C181.344 661.352 183.284 659.282 184.614 656.828C183.02 654.511 181.781 651.969 180.938 649.286C174.315 632.79 184.072 616.693 194.253 604.132C205.173 589.807 219.139 578.087 235.142 569.818C240.539 566.99 259.51 558.459 248.386 571.798C247.538 573.66 246.878 575.522 246.03 577.69C244.479 581.425 243.678 585.429 243.673 589.473C243.673 589.803 243.673 590.133 243.673 590.44C245.205 591.642 246.807 592.796 248.386 593.88C258.19 599.725 267.028 606.913 276.266 613.559C278.104 615.067 282.111 616.552 281.145 619.498C280.851 620.001 280.42 620.41 279.903 620.677C279.385 620.944 278.802 621.058 278.222 621.006C276.511 620.819 274.811 620.536 273.132 620.158C270.097 619.778 267.09 619.203 264.129 618.437C267.372 626.185 269.919 634.206 271.741 642.405L273.085 643.277C282.805 649.829 290.982 658.42 297.046 668.453C303.11 678.485 306.916 689.717 308.199 701.37C310.06 718.22 306.146 735.203 297.099 749.541C293.28 756.114 288.656 762.186 283.336 767.617L284.915 767.805C288.028 768.388 291.178 768.751 294.342 768.889C304.028 769.078 312.371 763.587 319.323 757.106C320.544 754.935 321.898 752.841 323.377 750.837C324.39 749.682 328.208 744.309 329.881 745.935C333.369 754.136 326.888 774.569 324.508 783.642C318.38 804.994 312.418 826.393 305.254 847.438C304.074 851.134 302.633 854.741 300.941 858.232C300.799 858.585 300.634 858.915 300.469 859.269C307.334 862.113 314.759 863.347 322.175 862.874C323.511 861.907 324.638 860.68 325.488 859.267C326.338 857.853 326.895 856.283 327.124 854.65C333.911 830.941 340.368 807.131 346.496 783.218C349.105 772.801 352.59 762.623 356.913 752.793C358.547 748.77 360.797 745.025 363.582 741.693C366.669 738.111 368.649 739.548 368.602 743.366C368.644 743.673 368.723 743.974 368.837 744.262C369.706 746.328 370.738 748.322 371.925 750.224C372.137 750.695 372.396 751.214 372.702 751.756C377.259 749.871 381.736 747.82 386.136 745.605C404.964 736 422.178 723.516 437.158 708.605C448.506 696.99 458.34 683.988 466.428 669.908C496.736 615.703 507.718 551.955 503.429 490.303C501.073 451.888 491.057 414.332 473.97 379.845C461.457 355.452 445.451 333.015 426.459 313.244C400.747 287.627 367.117 272.426 333.369 260.289C326.558 257.932 319.629 255.929 312.701 253.879C319.502 262.218 324.4 271.942 327.053 282.371C328.396 288.687 331.507 295.121 330.494 301.626C326.299 311.972 313.997 303.299 307.516 299.882C299.513 294.87 291.064 290.61 282.276 287.156C272.849 283.597 262.409 283.479 252.581 281.146C238.936 290.101 235.212 307.329 234.081 322.6C232.809 332.027 236.296 348.171 223.665 350.692C218.951 351.329 214.945 348.194 211.881 345.06C201.794 334.219 197.976 319.348 197.529 304.666C197.269 305.137 197.034 305.561 196.845 305.938C193.499 311.524 190.27 317.204 187.277 322.977C181.273 334.715 176.904 347.22 174.292 360.143C164.488 410.741 176.177 493.791 204.269 544.437C208.714 541.731 213.569 539.765 218.645 538.616C220.247 538.356 221.85 538.38 223.358 538.144C224.022 538.2 224.65 538.468 225.148 538.91C225.647 539.351 225.989 539.942 226.124 540.594C226.26 541.246 226.18 541.925 225.898 542.528C225.616 543.131 225.147 543.627 224.56 543.942C221.156 548.441 217.106 552.411 212.541 555.725C203.798 562.438 195.5 569.712 187.701 577.501Z" fill="#D0432F"/>
<path d="M417.692 759.908C417.22 760.864 416.643 761.765 415.972 762.594C416.797 768.816 417.315 775.108 418.164 781.283C419.884 798.039 421.981 814.772 423.372 831.575C423.584 834.78 423.89 838.009 424.055 841.214C431.28 840.842 438.418 839.469 445.266 837.137C444.347 832.188 443.569 827.215 442.909 822.242C440.552 797.285 438.785 772.233 437.866 747.158C437.866 744.235 437.724 741.29 437.677 738.344C434.003 740.751 430.563 743.497 427.402 746.545C423.495 750.471 420.22 754.979 417.692 759.908Z" fill="#D0432F"/>
<path d="M521.67 484.243C521.19 488.737 521.277 493.274 521.929 497.747C522.165 499.373 522.424 500.999 522.683 502.602C524.168 501.494 525.653 500.386 527.09 499.255C532.835 494.711 538.341 489.873 543.587 484.761C553.534 474.083 562.546 462.572 570.524 450.354C572.151 447.997 573.753 445.64 575.238 443.283C575.627 442.823 575.981 442.335 576.298 441.822C574.578 439.466 572.74 437.109 570.595 434.752C568.262 432.616 565.738 430.699 563.054 429.025L562.7 429.662C553.146 445.789 540.404 459.798 525.252 470.833C523.611 475.172 522.411 479.664 521.67 484.243Z" fill="#D0432F"/>
<path d="M187.82 740.256C183.507 740.586 178.063 741.435 175.565 745.347C177.804 751.003 183.931 754.279 188.88 757.342C199.371 763.371 210.925 767.324 222.911 768.985C237.051 770.516 252.04 769.15 264.625 762.15C272.85 757.225 278.6 749.212 283.478 741.175C304.689 706.697 286.919 663.876 250.484 649.123C244.946 646.884 239.196 645.234 233.469 643.514C237.653 654.579 237.886 666.751 234.129 677.969C231.675 685.005 227.835 691.477 222.836 697.002C217.837 702.528 211.78 706.995 205.024 710.138C205.276 717.208 207.293 724.103 210.89 730.195C214.488 736.286 219.552 741.382 225.621 745.017C226.357 745.455 227.15 745.788 227.978 746.007C228.332 745.922 228.705 745.957 229.038 746.106C229.37 746.255 229.644 746.51 229.816 746.832C230.688 749.188 227.271 749.99 225.503 750.272C218.268 751.545 211.363 747.916 205.471 744.098C204.524 743.43 203.612 742.714 202.738 741.953C201.489 741.741 200.24 741.388 199.108 741.199C195.377 740.583 191.602 740.268 187.82 740.256Z" fill="white"/>
<path d="M158.973 676.294C158.926 677.31 158.974 678.328 159.114 679.334C159.895 682.888 161.396 686.243 163.524 689.194C165.652 692.145 168.362 694.628 171.487 696.491C185.627 704.41 204.198 695.101 213.46 683.388C221.873 672.736 224.442 652.02 213.743 642.146C208.157 638.257 201.535 639.789 195.125 640.425C195.753 643.254 196.694 646.005 197.929 648.627C198.306 647.967 198.66 647.283 198.99 646.6C199.01 646.299 199.093 646.005 199.234 645.738C199.375 645.471 199.571 645.237 199.809 645.051C200.046 644.865 200.321 644.731 200.614 644.659C200.907 644.586 201.212 644.576 201.509 644.63C201.806 644.683 202.089 644.799 202.338 644.969C202.588 645.139 202.798 645.36 202.956 645.617C203.115 645.874 203.217 646.162 203.256 646.461C203.295 646.76 203.271 647.065 203.185 647.354C202.915 654.451 200.724 661.342 196.845 667.292C191.896 674.951 184.755 682.445 175.635 684.731C172.194 685.627 167.74 686.381 164.888 683.6C163.797 682.678 163.028 681.431 162.696 680.041C161.308 678.948 160.057 677.69 158.973 676.294Z" fill="white"/>
<path d="M163.899 710.514C163.565 712.181 163.454 713.884 163.569 715.581C164.182 717.623 165.213 719.515 166.596 721.138C167.98 722.761 169.685 724.079 171.605 725.007C172.903 725.559 174.233 726.031 175.588 726.421C177.882 725.692 180.256 725.241 182.658 725.078C183.482 724.777 184.272 724.39 185.015 723.923C186.586 723.077 187.827 721.726 188.536 720.089C189.246 718.451 189.384 716.622 188.927 714.897C187.092 715.156 185.242 715.298 183.388 715.321C176.568 715.591 169.811 713.924 163.899 710.514Z" fill="white"/>
<path d="M543.87 403.435C537.907 410.788 540.83 421.016 543.87 429.029C544.223 429.83 544.601 430.631 544.93 431.386L548.819 427.214C550.28 425.612 551.765 424.033 553.273 422.501C552.555 421.867 552.018 421.054 551.718 420.144C551.179 418.59 551.272 416.887 551.977 415.401C552.683 413.916 553.944 412.767 555.488 412.202C556.46 411.91 557.481 411.824 558.488 411.95C559.494 412.076 560.463 412.41 561.333 412.933C566.915 415.192 571.911 418.689 575.945 423.161C581.581 430.016 585.167 438.324 586.291 447.128C586.456 449.131 587.186 453.798 585.749 455.282C584.405 456.296 583.651 454.646 583.392 453.539C583.133 452.431 582.284 451.182 581.671 450.051C580.336 453.219 578.842 456.318 577.194 459.336C582.514 459.257 587.749 457.985 592.512 455.612C601.609 451.064 604.037 440.765 602.481 431.362C601.482 423.893 598.188 416.918 593.054 411.401C586.971 404.527 578.799 399.84 569.794 398.062C561.121 396.224 550.587 396.718 543.87 403.435Z" fill="white"/>
<path d="M550.045 357.595C545.331 365.16 546.604 374.657 550.304 382.411C559.207 380.441 568.468 380.798 577.194 383.448C589.871 387.012 600.963 394.772 608.656 405.459C612.153 410.2 614.786 415.522 616.433 421.179C619.076 421.051 621.723 421.28 624.304 421.862C638.044 424.879 652.585 426.576 666.301 422.663C681.313 418.61 695.288 405.907 695.218 389.505C694.228 372.442 682.703 360.635 665.146 365.938C659.396 367.988 653.362 370.651 649.262 375.176C647.83 376.88 646.842 378.912 646.387 381.091C646.243 382.889 646.508 384.696 647.161 386.378C647.814 388.059 648.838 389.571 650.157 390.801C655.366 394.548 662.294 393.37 668.115 391.885C670.26 391.154 672.428 390.424 674.643 389.882C675.078 389.484 675.645 389.264 676.234 389.264C676.823 389.264 677.391 389.484 677.825 389.882C679.946 391.932 677.118 394.124 676.081 395.938C673.061 399.867 669.036 402.908 664.433 404.741C659.829 406.574 654.816 407.132 649.922 406.355C638.35 404.564 630.667 393.157 630.62 381.892C624.941 381.445 619.803 377.179 616.904 372.254C615.514 372.631 614.076 372.866 612.686 373.243C610.588 373.921 608.527 374.707 606.511 375.6C602.01 377.674 597.084 379.96 594.728 384.579C594.569 385.005 594.263 385.36 593.865 385.58C593.468 385.8 593.005 385.872 592.56 385.781C589.284 385.145 591.97 377.533 592.56 375.364C594.011 370.827 596.647 366.759 600.195 363.581C604.057 360.209 608.711 357.874 613.723 356.794C613.723 355.757 613.982 354.696 614.171 353.659C611.055 352.588 608.352 350.569 606.441 347.885C598.711 339.519 599.889 326.863 603.471 316.871C604.902 313.178 606.803 309.685 609.127 306.478C608.514 296.085 606.959 285.409 601.656 276.076C595.882 266.65 587.516 257.411 575.992 255.997C571.685 255.353 567.29 255.634 563.101 256.822C559.492 257.544 556.244 259.492 553.91 262.337C551.93 265 554.64 268.134 555.795 270.609C565.434 285.056 573.282 294.765 573.659 313.242C574.087 321.808 571.83 330.295 567.201 337.516C562.559 345.151 554.829 350.171 550.045 357.595Z" fill="white"/>
<path d="M636.3 342.938C632.129 348.664 628.594 355.994 630.149 363.205C631.328 365.169 632.94 366.838 634.863 368.084C640.778 358.869 651.525 353.354 661.87 350.314C671.374 347.487 681.592 348.328 690.504 352.671C690.504 341.877 687.229 337.517 674.691 331.955C667.822 329.929 660.514 329.929 653.646 331.955C646.803 333.584 640.699 337.449 636.3 342.938Z" fill="white"/>
<path d="M641.273 302.334C627.368 306.364 614.807 320.01 617.211 335.187C617.746 336.818 618.433 338.396 619.261 339.9C622.978 333.241 628.211 327.552 634.537 323.293C640.863 319.035 648.104 316.327 655.672 315.391C661.659 314.534 667.742 314.621 673.701 315.65C673.395 314.731 673.065 313.812 672.664 312.892C667.432 301.981 651.925 299.412 641.273 302.334Z" fill="white"/>
<path d="M144.857 164.629C145.889 163.823 147.003 163.128 148.18 162.555C155.25 158.69 162.674 155.768 168.919 150.771C175.885 144.915 181.654 137.769 185.911 129.726C187.136 127.511 188.315 125.272 189.446 123.009L190.907 120.111C191.185 119.377 191.657 118.734 192.274 118.249C192.475 118.121 192.716 118.072 192.951 118.111C193.186 118.151 193.398 118.275 193.547 118.461C193.648 118.589 193.714 118.741 193.738 118.902C193.763 119.063 193.746 119.228 193.688 119.38C193.484 120.319 193.232 121.247 192.934 122.161C191.753 126.052 190.321 129.863 188.645 133.567C182.871 146.789 174.811 159.491 162.957 167.999C161.354 169.201 159.751 170.356 158.078 171.581C160.84 172.176 163.557 172.963 166.209 173.938C180.113 180.065 191.213 190.977 202.361 201.04C206.744 205.211 210.845 209.548 214.828 214.096C221.356 221.637 229.298 229.744 232.338 239.69C232.88 242.518 236.321 246.147 233.398 248.669C231.419 250.154 229.133 248.669 227.365 247.585L226.116 246.996C220.012 248.339 213.649 248.645 207.64 250.483C195.207 253.201 184.137 260.231 176.39 270.327C160.482 290.453 158.667 318.239 142.571 338.176C150.72 336.997 158.696 334.837 166.327 331.743C166.751 330.658 167.175 329.551 167.623 328.467C171.559 319.04 186.476 291.325 198.566 287.012C199.546 281.532 201.621 276.306 204.666 271.645C207.711 266.985 211.664 262.985 216.289 259.887C219.706 257.53 223.736 256.163 227.177 253.736C227.629 253.501 228.15 253.434 228.648 253.545C229.145 253.657 229.587 253.94 229.897 254.345C230.206 254.75 230.363 255.251 230.34 255.76C230.316 256.27 230.114 256.754 229.769 257.129C228.818 258.055 227.943 259.056 227.153 260.122C223.594 267.405 219.046 274.263 216.312 281.969C211.035 298.062 212.271 315.582 219.753 330.776C224.231 311.687 230.099 292.126 243.721 277.444C246.502 274.805 248.01 270.563 251.898 269.361C260.665 267.711 269.809 270.115 278.459 271.717C292.599 275.276 304.736 283.501 317.226 290.571C315.612 283.275 313.242 276.166 310.156 269.361C303.216 256.862 292.782 246.657 280.132 239.996C278.529 239.36 276.243 237.875 278.034 236.06C282.3 233.704 287.815 235.848 292.057 237.427C295.52 239.075 298.805 241.072 301.861 243.39C307.134 243.226 312.411 243.542 317.627 244.332C328.337 245.998 338.864 248.681 349.065 252.345C359.673 253.308 370.287 250.577 379.113 244.615C341.736 244.45 333.7 217.82 290.761 225.267C284.297 226.775 277.986 228.873 271.907 231.536C269.208 232.839 266.358 233.805 263.423 234.411C263.423 235.99 263.423 237.804 261.726 238.37C260.029 238.936 259.204 236.815 258.686 235.424C252.158 218.456 245.771 201.417 238.96 184.566C235.213 176.342 232.031 167.598 226.54 160.34C223.394 157.619 219.956 155.256 216.289 153.293C210.68 150.418 209.219 143.984 207.616 138.399C206.239 133.645 204.498 129.004 202.408 124.518C200.192 120.464 197.977 115.091 192.792 114.549C185.015 114.973 178.417 120.252 172.666 125.036C160.435 135.884 150.912 149.443 144.857 164.629Z" fill="#6BA845"/>
<path d="M330.848 789.601L332.167 789.13C336.056 787.834 339.992 786.773 343.951 785.336C344.709 785.081 345.443 784.758 346.143 784.369H346.331L346.614 783.285C349.223 772.868 352.708 762.691 357.031 752.86C358.665 748.837 360.915 745.092 363.7 741.76C366.787 738.178 368.767 739.616 368.72 743.434C368.762 743.74 368.841 744.041 368.956 744.329C369.824 746.396 370.856 748.39 372.043 750.292C372.269 750.818 372.529 751.33 372.821 751.823C377.377 749.938 381.855 747.888 386.254 745.672C405.082 736.067 422.297 723.584 437.276 708.672C448.624 697.057 458.458 684.055 466.547 669.975C467.749 667.83 468.903 665.662 470.058 663.471L465.722 667.194C461.456 670.823 457.143 674.429 452.642 677.776C448.141 681.122 443.639 684.304 439.067 687.462C435.509 689.819 431.997 692.175 428.203 694.32C424.409 696.464 420.072 699.033 415.925 701.084C412.649 702.686 409.373 704.242 406.05 705.797C402.727 707.352 399.263 708.601 395.822 709.874C393.583 710.628 391.344 711.359 389.058 711.972C386.772 712.584 384.015 713.244 381.47 713.833C378.005 714.47 374.541 714.965 371.006 715.318C369.78 715.318 368.649 715.436 367.353 715.459C366.057 715.483 364.313 715.459 362.805 715.459C360.896 715.294 358.987 715.082 357.101 714.8C355.216 714.517 353.378 713.857 351.54 713.291C350.267 712.773 348.994 712.254 347.745 711.689C346.881 711.217 346.033 710.722 345.2 710.204C344.894 709.992 344.611 709.756 344.328 709.521C344.045 709.285 343.527 708.743 343.15 708.342C342.773 707.942 342.348 707.329 341.971 706.81L341.476 705.938C341.194 705.326 340.934 704.689 340.675 704.029C337.329 693.848 335.231 683.29 332.309 672.992C330.833 667.337 328.878 661.818 326.464 656.495C325.05 653.525 323.448 650.65 321.751 647.822C320.054 644.994 318.616 642.897 317.037 640.446C315.058 637.358 313.172 634.247 311.476 631.019C308.108 623.896 305.111 616.604 302.497 609.172C302.143 608.065 301.79 606.957 301.507 605.849C300.965 603.705 300.305 601.678 299.574 599.58C298.726 597.224 297.689 594.749 296.699 592.322C294.531 587.066 292.339 581.811 289.912 576.673C287.107 570.664 284.232 564.678 281.098 558.833C278.154 553.574 274.872 548.512 271.27 543.679C267.641 538.565 263.917 533.498 260.335 528.337C258.426 525.415 256.612 522.469 254.985 519.382C254.396 518.156 253.854 517.025 253.336 515.682C252.817 514.338 252.841 513.773 252.605 512.807C252.322 511.18 252.04 509.554 251.875 507.928C251.875 507.127 251.875 506.302 251.875 505.571C251.875 505.124 251.992 504.676 252.063 504.252C252.511 502.366 253.076 500.505 253.548 498.619C254.161 496.263 254.656 493.694 255.15 491.219C255.457 489.805 255.81 488.415 256.234 487.048C256.588 486.129 256.965 485.21 257.389 484.314C257.813 483.419 258.756 481.957 259.487 480.803C260.854 478.87 262.315 477.032 263.752 475.17C265.661 472.672 267.429 470.08 269.102 467.416C271.362 464.043 273.175 460.391 274.499 456.552C275.737 452.616 276.255 448.488 276.031 444.368C275.701 438.076 274.546 431.83 273.674 425.514C272.802 419.198 272.048 413.189 271.317 407.014C270.233 398.106 269.267 389.15 268.631 380.195C268.214 371.942 268.269 363.672 268.796 355.426C269.149 350.713 269.621 345.999 270.304 341.427C270.987 336.855 271.907 332.142 272.826 327.546C274.216 321.018 275.913 314.584 277.869 308.198L280.886 308.716C282.37 308.999 283.855 309.235 285.34 309.447C286.683 309.631 288.037 309.733 289.393 309.753H291.373H291.962C293.353 309.965 294.743 310.059 296.133 310.154C298.616 310.384 301.118 310.021 303.433 309.095C305.748 308.169 307.81 306.706 309.449 304.828C310.181 303.934 310.784 302.943 311.24 301.882C309.944 301.151 308.742 300.444 307.705 299.902C299.643 294.872 291.13 290.603 282.276 287.152C272.849 283.594 262.409 283.476 252.582 281.119C238.936 290.098 235.213 307.326 234.081 322.597C232.809 332.024 236.297 348.167 223.665 350.689C218.951 351.325 214.945 348.191 211.881 345.056C201.795 334.216 197.977 319.345 197.529 304.663C197.246 305.134 197.034 305.558 196.846 305.935C193.499 311.521 190.27 317.2 187.277 322.974C181.274 334.712 176.905 347.217 174.292 360.139C164.488 410.738 176.177 493.788 204.269 544.434C208.714 541.728 213.57 539.762 218.645 538.612C220.248 538.353 221.85 538.377 223.358 538.141C224.022 538.197 224.65 538.465 225.149 538.907C225.647 539.348 225.989 539.939 226.125 540.591C226.26 541.243 226.181 541.921 225.899 542.525C225.617 543.128 225.147 543.624 224.56 543.939C221.157 548.437 217.107 552.408 212.541 555.722C210.043 557.678 207.545 559.658 205.094 561.661L208.111 562.439C208.111 562.981 208.228 563.523 208.276 564.065C208.441 567.26 208.441 570.461 208.276 573.657C208.063 575.895 207.757 578.087 207.356 580.303C206.508 583.861 205.542 587.373 204.363 590.884C204.081 591.709 203.774 592.534 203.468 593.241C208.423 588.044 213.842 583.311 219.658 579.101C224.545 575.602 229.672 572.452 235.001 569.674C240.397 566.846 259.369 558.315 248.245 571.653C247.397 573.515 246.737 575.377 245.889 577.545C244.338 581.28 243.537 585.284 243.532 589.329C243.532 589.659 243.532 589.989 243.532 590.295C245.064 591.497 246.666 592.652 248.245 593.736C258.049 599.58 266.887 606.768 276.125 613.414C277.963 614.922 281.97 616.407 281.003 619.353C280.71 619.856 280.279 620.265 279.762 620.533C279.244 620.8 278.661 620.914 278.081 620.861C276.369 620.676 274.67 620.393 272.991 620.013C269.956 619.633 266.949 619.058 263.988 618.293C267.231 626.04 269.778 634.061 271.6 642.26L272.943 643.132C282.707 649.685 290.921 658.292 297.011 668.351C303.101 678.41 306.92 689.678 308.2 701.366C310.06 718.217 306.147 735.2 297.1 749.537C293.279 756.116 288.647 762.189 283.313 767.613L284.916 767.802C288.028 768.385 291.178 768.747 294.342 768.886C304.028 769.074 312.371 763.583 319.323 757.102C320.544 754.931 321.898 752.838 323.377 750.834C324.39 749.655 328.208 744.305 329.881 745.932C333.369 754.133 326.888 774.566 324.508 783.639C323.613 786.726 322.741 789.837 321.845 792.924C324.838 791.958 327.831 790.709 330.848 789.601Z" fill="#A83322"/>
<path d="M178.982 662.74C181.337 661.245 183.275 659.178 184.614 656.73C183.021 654.413 181.782 651.872 180.938 649.189C179.124 644.71 178.428 639.857 178.911 635.049C178.133 635.638 177.356 636.227 176.554 636.793C173.773 638.513 170.969 640.116 168.07 641.624L169.154 641.129L164.724 643.486L166.35 642.685L164.512 643.604L161.495 645.088C163.882 652.418 167.042 659.473 170.922 666.134C173.713 665.27 176.413 664.133 178.982 662.74Z" fill="#A83322"/>
<path d="M369.827 275.841C370.196 275.864 370.566 275.864 370.935 275.841C358.68 270.019 346.025 265.023 333.369 260.451C326.558 258.095 319.63 256.091 312.701 254.041C315.958 257.996 318.787 262.286 321.138 266.838C334.218 269.572 347.062 272.965 360.401 274.78C363.505 275.416 366.66 275.77 369.827 275.841Z" fill="#A83322"/>
<path d="M419.271 782.534C425.893 777.35 432.256 771.811 438.596 766.297C438.25 759.886 437.959 753.476 437.724 747.066C437.724 744.144 437.582 741.198 437.535 738.252C433.862 740.659 430.422 743.405 427.26 746.453C423.403 750.39 420.176 754.897 417.692 759.816C417.219 760.772 416.642 761.673 415.971 762.502C416.796 768.724 417.315 775.017 418.163 781.191L418.375 783.218L419.271 782.534Z" fill="#A83322"/>
<path d="M527.091 499.26C530.65 496.409 534.161 493.463 537.555 490.399C537.413 485.898 537.295 481.397 537.083 476.895C536.871 472.394 536.918 467.468 534.373 463.627C531.404 466.196 528.364 468.623 525.253 470.838C521.157 480.913 520.252 492.002 522.66 502.607C524.169 501.499 525.653 500.392 527.091 499.26Z" fill="#A83322"/>
<path d="M570.453 450.354C572.079 447.997 573.682 445.64 575.167 443.283C575.555 442.823 575.91 442.335 576.227 441.822C574.507 439.466 572.668 437.109 570.524 434.752C568.208 432.626 565.708 430.709 563.053 429.025L562.7 429.662C560.607 433.254 558.334 436.739 555.889 440.102C557.915 444.368 559.801 448.704 561.78 453.017C562.676 454.949 563.619 456.858 564.585 458.791C566.486 455.994 568.442 453.182 570.453 450.354Z" fill="#A83322"/>
<path d="M479.414 448.73C482.339 447.9 484.819 445.949 486.314 443.302C487.81 440.654 488.201 437.524 487.403 434.59C486.814 432.516 486.225 430.442 485.753 428.344C485.351 425.519 484.268 422.833 482.595 420.52C481.48 419.083 480.171 417.806 478.707 416.726C476.751 414.628 474.771 412.555 472.674 410.575C470.553 407.959 468.667 405.107 466.782 402.326C464.425 398.65 461.338 395.256 459.193 391.509C458.853 388.683 458.333 385.88 457.638 383.119C456.043 376.453 453.385 370.087 449.767 364.266C442.273 351.578 433.643 339.596 423.984 328.467C415.429 318.475 405.979 309.001 394.525 302.379C387.762 298.443 379.113 294.248 371.241 297.029C360.99 301.742 370.369 315.152 374.682 321.185C381.116 330.235 388.445 338.578 395.492 347.109C402.011 354.801 408.108 362.841 413.756 371.194C419.931 380.079 425.068 390.048 433.411 397.118C437.109 401.06 441.889 403.823 447.151 405.06C452.618 406.875 457.167 408.43 461.032 412.979C463.813 415.807 463.388 417.951 462.917 421.604C462.075 424.121 461.76 426.783 461.991 429.427C462.222 432.07 462.995 434.638 464.26 436.97C464.684 438.219 465.038 439.468 465.415 440.741C466.252 443.631 468.181 446.082 470.795 447.574C473.408 449.065 476.5 449.48 479.414 448.73Z" fill="#F85F4A"/>
<path d="M452.854 659.983C454.783 659.139 456.323 657.599 457.167 655.67C459.523 650.957 461.526 646.243 463.812 641.53C465.038 639.173 466.381 636.816 467.772 634.648C469.27 632.014 470.517 629.244 471.495 626.376C476.704 612.401 482.69 598.614 486.39 584.12C488.098 576.784 489.115 569.305 489.43 561.779C489.43 558.998 490.938 546.72 485.942 548.841C484.599 549.548 484.009 551.197 483.42 552.611C481.818 556.476 480.309 560.388 478.848 564.395C474.936 575.283 470.081 585.794 465.415 596.352C461.22 605.779 456.53 615.04 452.17 624.42C451.086 627.107 450.521 630.005 449.578 632.763C447.48 638.49 444.865 644.028 442.249 649.519C441.682 650.995 441.559 652.604 441.893 654.149C442.227 655.694 443.004 657.109 444.129 658.219C445.255 659.329 446.679 660.088 448.229 660.401C449.778 660.714 451.385 660.569 452.854 659.983Z" fill="#F85F4A"/>
<path d="M166.326 331.741C166.75 330.657 167.174 329.549 167.622 328.465C171.558 319.039 186.476 291.324 198.566 287.011C200.363 277.149 205.64 268.26 213.437 261.959C211.286 261.335 208.984 261.485 206.932 262.383C206.201 262.69 205.518 263.02 204.811 263.373C203.161 264.198 201.465 264.952 199.838 265.73L201.04 265.117C198.684 266.343 195.95 267.097 193.522 268.322L192.485 268.841C192.065 269.029 191.656 269.242 191.26 269.477L190.954 269.666C188.998 270.703 187.089 271.81 185.133 272.894C182.776 274.191 180.419 275.605 178.062 276.995C175.706 278.385 173.349 279.729 170.992 281.213L169.885 281.968L170.309 281.661L170.05 281.826L169.72 282.062L168.966 282.58L168.376 282.981L168.565 282.84L169.272 282.368L168.989 282.557L168.565 282.863H168.376C159.185 300.963 155.462 322.008 142.453 338.01C150.635 336.893 158.651 334.788 166.326 331.741Z" fill="#558A34"/>
<path d="M243.791 277.443C246.572 274.803 248.081 270.561 251.969 269.359C260.736 267.71 269.88 270.114 278.529 271.716C292.669 275.275 304.806 283.5 317.297 290.57C315.682 283.274 313.313 276.165 310.227 269.359C309.708 268.393 309.19 267.451 308.624 266.531L306.267 265.306C303.11 263.633 299.857 262.101 296.581 260.593C293.306 259.084 289.888 258.047 286.471 256.963C283.095 255.946 279.631 255.244 276.125 254.866C272.567 254.445 268.984 254.272 265.402 254.347C261.825 254.405 258.26 254.784 254.75 255.478C250.7 256.215 246.747 257.408 242.966 259.037C240.475 260.109 238.104 261.444 235.896 263.02C233.841 264.701 232.005 266.633 230.429 268.77C229.155 270.355 227.99 272.024 226.941 273.766C226.21 274.898 225.55 276.123 224.867 277.231C223.406 279.588 221.968 282.109 220.578 284.584C218.881 287.577 217.326 290.688 215.864 293.775C214.992 295.542 214.168 297.357 213.508 299.172C212.841 310.079 215.103 320.966 220.059 330.704C224.301 311.686 230.17 292.125 243.791 277.443Z" fill="#558A34"/>
<path d="M379.231 244.804C358.916 244.804 347.251 236.791 333.935 230.781C328.373 229.839 322.788 228.943 317.203 228.213C312.976 227.761 308.727 227.556 304.476 227.6C302.662 227.6 300.823 227.482 298.985 227.6C297.147 227.718 295.827 227.6 294.272 227.6C291.915 227.388 289.558 227.058 287.202 226.846C286.794 226.822 286.384 226.822 285.976 226.846C283.785 227.482 281.616 228.213 279.472 229.014C277.336 230.683 275.949 233.131 275.614 235.82C275.278 238.51 276.021 241.223 277.681 243.366C278.489 244.433 279.5 245.328 280.658 246C281.815 246.671 283.094 247.106 284.421 247.278C286.4 247.467 288.404 247.703 290.36 248.056C291.09 248.221 291.821 248.433 292.551 248.645H292.811C288.909 245.466 284.719 242.658 280.297 240.255C278.694 239.619 276.432 238.134 278.199 236.32C282.465 233.963 287.979 236.108 292.222 237.687C295.68 239.343 298.964 241.34 302.025 243.649C307.299 243.486 312.576 243.801 317.792 244.592C328.502 246.257 339.029 248.94 349.23 252.604C350.715 252.746 352.176 252.793 353.637 252.793C362.764 252.675 371.658 249.898 379.231 244.804Z" fill="#558A34"/>
<path d="M224.749 248.271C225.825 248.257 226.898 248.146 227.954 247.941L227.365 247.587L226.116 246.998C224.136 247.446 222.133 247.776 220.106 248.059C221.473 248.059 222.84 248.271 224.183 248.271H224.749Z" fill="#558A34"/>
<path d="M235.542 244.639C237.594 242.984 239.245 240.886 240.371 238.503C241.497 236.119 242.07 233.512 242.047 230.876C242.259 225.338 239.525 220.083 237.051 215.322C234.205 209.755 230.877 204.448 227.106 199.461C213.578 181.244 195.62 164.794 173.373 158.502C170.266 162.026 166.772 165.188 162.956 167.929C161.353 169.131 159.751 170.285 158.078 171.511C175.989 175.211 189.139 189.304 202.36 200.946C206.744 205.118 210.844 209.454 214.827 214.002C221.355 221.544 229.297 229.651 232.337 239.596C232.667 241.34 234.105 243.367 234.458 245.276L235.542 244.639Z" fill="#558A34"/>
<path d="M231.583 177.259C233.138 173.653 230.947 168.61 229.815 165.051C228.848 163.425 227.793 161.851 226.657 160.338C223.474 157.61 219.996 155.247 216.288 153.291C208.841 149.308 208.699 139.929 205.848 132.906C203.53 132.144 201.028 132.143 198.71 132.905C196.392 133.667 194.378 135.151 192.964 137.139C191.549 139.128 190.809 141.517 190.85 143.956C190.891 146.396 191.712 148.759 193.192 150.699C198.895 157.604 204.009 165.169 210.867 170.99C214.691 174.099 218.887 176.719 223.358 178.791C226.139 180.087 230.075 180.487 231.583 177.259Z" fill="#8BD65B"/>
<path d="M586.29 384.037C587.635 383.829 588.924 383.356 590.085 382.646L591.004 382.033C591.592 375.944 594.122 370.206 598.222 365.665C602.321 361.124 607.772 358.022 613.77 356.817C613.77 355.78 614.029 354.719 614.217 353.682C611.101 352.611 608.398 350.592 606.487 347.908C603.595 344.73 601.723 340.756 601.114 336.502C596.472 336.5 591.93 337.843 588.034 340.367C583.059 343.005 578.999 347.087 576.387 352.075C573.775 357.064 572.733 362.726 573.399 368.317C573.698 370.676 574.317 372.983 575.237 375.175C575.195 376.549 575.472 377.913 576.047 379.161C576.622 380.409 577.48 381.506 578.552 382.366C579.624 383.225 580.881 383.823 582.224 384.113C583.567 384.403 584.959 384.377 586.29 384.037Z" fill="#E0D5D5"/>
<path d="M636.465 321.989C636.358 320.531 635.865 319.127 635.036 317.922C634.208 316.717 633.074 315.754 631.751 315.131C630.225 314.581 628.603 314.345 626.983 314.438C625.362 314.531 623.778 314.951 622.325 315.673C617.611 322.461 614.595 332.052 619.308 339.806C623.285 332.406 629.221 326.243 636.465 321.989Z" fill="#E0D5D5"/>
<path d="M655.861 352.339C659.585 342.559 651.313 335.677 641.721 337.539C634.298 343.266 628.264 353.612 630.055 363.204C631.24 365.17 632.851 366.845 634.769 368.106C639.577 360.682 647.566 355.592 655.861 352.339Z" fill="#E0D5D5"/>
<path d="M663.167 423.418C666.6 420.54 669.394 416.976 671.368 412.954C675.426 409.057 678.107 403.944 679.004 398.39C679.548 395.01 679.24 391.549 678.108 388.318C676.976 385.088 675.057 382.191 672.523 379.89C670.501 378.075 667.946 376.964 665.24 376.722C662.534 376.48 659.823 377.12 657.511 378.546C655.689 378.165 653.816 378.101 651.972 378.358C650.163 378.607 648.39 379.073 646.693 379.748C646.235 381.739 646.314 383.817 646.923 385.767C647.532 387.718 648.648 389.471 650.158 390.848C657.581 395.962 666.867 392.097 674.644 389.929C675.078 389.532 675.646 389.311 676.235 389.311C676.823 389.311 677.391 389.532 677.825 389.929C679.923 391.979 677.118 394.171 676.081 395.986C661.163 414.839 631.893 408.076 630.597 382.906C620.287 385.93 611.119 391.971 604.273 400.251C605.821 401.912 607.285 403.65 608.656 405.46C612.154 410.201 614.787 415.522 616.433 421.179C619.076 421.051 621.724 421.281 624.305 421.862C636.984 424.596 650.323 426.317 663.167 423.418Z" fill="#E0D5D5"/>
<path d="M592.418 455.611C601.515 451.062 603.942 440.763 602.387 431.36C602.198 430.182 601.986 429.003 601.703 427.849C600.117 426.798 598.256 426.241 596.354 426.246C595.563 426.267 594.776 426.346 593.997 426.482L592.701 426.741H592.418C591.711 426.93 591.028 427.236 590.321 427.472H590.58C589.26 427.943 587.987 428.509 586.668 429.027H586.526L584.382 429.616C583.18 429.805 582.025 429.946 580.752 430.064C583.598 435.369 585.474 441.139 586.291 447.103C586.456 449.13 587.186 453.796 585.749 455.281C584.405 456.294 583.651 454.644 583.392 453.537C583.133 452.429 582.284 451.18 581.671 450.049C580.336 453.217 578.842 456.317 577.194 459.334C582.482 459.241 587.684 457.969 592.418 455.611Z" fill="#E0D5D5"/>
<path d="M548.843 427.282L551.389 424.549L547.147 423.37C545.332 422.899 543.494 422.475 541.655 422.098C542.292 424.454 543.093 426.811 544.012 429.026C544.366 429.828 544.743 430.629 545.073 431.383L548.843 427.282Z" fill="#E0D5D5"/>
<path d="M191.849 698.114C193.098 691.398 189.493 684.964 186.311 679.261C180.655 683.974 165.926 690.266 162.744 680.015C161.339 678.925 160.072 677.666 158.973 676.268C158.691 684.681 164.724 692.105 171.487 696.465C174.595 698.096 178.001 699.084 181.5 699.367C184.999 699.651 188.519 699.225 191.849 698.114Z" fill="#E0D5D5"/>
<path d="M249.966 767.708C254.679 760.945 254.467 751.966 251.38 744.589C249.095 739.729 246.365 735.09 243.226 730.732C240.869 727.338 238.512 723.944 236.321 720.527C236.745 721.163 237.169 721.823 237.617 722.46C235.26 718.925 232.903 715.225 230.547 711.713C228.46 709.012 225.592 707.018 222.333 706.002C219.074 704.986 215.582 704.997 212.329 706.033C210.276 707.393 208.144 708.629 205.943 709.733C205.66 709.993 205.377 710.252 205.118 710.535C205.583 718.984 208.48 727.119 213.461 733.96C217.538 738.674 222.039 743.929 228.143 746.003C228.497 745.918 228.87 745.953 229.203 746.102C229.535 746.251 229.809 746.507 229.981 746.828C230.853 749.185 227.436 749.986 225.668 750.269C217.302 751.612 209.171 747.016 202.903 741.95C195.126 740.347 180.938 737.896 175.636 745.343C177.874 750.999 184.002 754.275 188.951 757.339C207.145 767.826 229.251 772.445 249.966 767.708Z" fill="#E0D5D5"/>
<path d="M182.658 725.149C183.482 724.848 184.272 724.461 185.015 723.994C186.586 723.148 187.827 721.797 188.536 720.16C189.246 718.522 189.384 716.693 188.927 714.968C187.092 715.227 185.242 715.369 183.388 715.392C176.577 715.634 169.836 713.942 163.946 710.514C163.612 712.181 163.502 713.884 163.616 715.581C164.455 718.311 166.014 720.765 168.129 722.685C170.244 724.605 172.836 725.92 175.635 726.492C177.914 725.766 180.272 725.315 182.658 725.149Z" fill="#E0D5D5"/>
<path d="M630.149 363.205C628.594 355.994 632.129 348.664 636.3 342.938C640.684 337.47 646.761 333.615 653.575 331.979C660.443 329.953 667.751 329.953 674.62 331.979C687.158 337.541 690.363 341.901 690.433 352.694C681.521 348.351 671.303 347.51 661.8 350.338C651.454 353.378 640.589 358.892 634.792 368.107C632.893 366.846 631.305 365.17 630.149 363.205ZM617.211 335.184C614.854 320.007 627.368 306.362 641.273 302.332C651.925 299.339 667.432 301.978 672.664 312.795C673.065 313.714 673.395 314.634 673.701 315.553C667.742 314.524 661.658 314.437 655.672 315.293C648.108 316.234 640.872 318.943 634.55 323.201C628.228 327.459 622.999 333.147 619.285 339.803C618.453 338.33 617.759 336.784 617.211 335.184ZM550.304 382.318C546.604 374.564 545.284 365.067 550.045 357.502C554.805 349.937 562.559 345.059 567.201 337.47C571.83 330.249 574.087 321.762 573.659 313.196C573.282 294.719 565.434 284.916 555.795 270.563C554.64 268.207 551.93 264.954 553.91 262.291C556.277 259.525 559.521 257.654 563.101 256.989C567.29 255.801 571.685 255.519 575.992 256.164C587.493 257.578 595.883 266.91 601.656 276.243C606.959 285.67 608.514 296.251 609.127 306.644C606.854 309.851 605.001 313.336 603.613 317.014C600.03 327.006 598.899 339.662 606.582 348.028C608.521 350.642 611.221 352.593 614.312 353.613C614.123 354.65 613.958 355.711 613.864 356.748C608.879 357.863 604.258 360.223 600.431 363.606C596.883 366.784 594.247 370.852 592.795 375.389C592.159 377.557 589.472 385.17 592.795 385.806C593.241 385.896 593.704 385.825 594.101 385.605C594.498 385.385 594.804 385.03 594.963 384.604C597.32 379.891 602.034 377.699 606.747 375.625C608.763 374.732 610.824 373.946 612.922 373.268C614.312 372.891 615.75 372.656 617.14 372.278C620.039 377.133 625.176 381.47 630.856 381.917C630.856 393.182 638.586 404.589 650.157 406.38C655.065 407.158 660.092 406.594 664.706 404.748C669.319 402.901 673.348 399.842 676.364 395.893C677.401 394.078 680.229 391.886 678.108 389.836C677.673 389.438 677.106 389.218 676.517 389.218C675.928 389.218 675.361 389.438 674.926 389.836C672.711 390.378 670.543 391.109 668.398 391.839C662.577 393.324 655.649 394.502 650.44 390.755C649.121 389.525 648.097 388.013 647.444 386.332C646.791 384.65 646.526 382.843 646.67 381.045C647.125 378.866 648.113 376.834 649.545 375.13C653.645 370.417 659.679 368.06 665.429 365.892C682.703 360.684 694.228 372.467 695.218 389.459C695.218 405.956 681.313 418.564 666.301 422.618C652.561 426.577 638.02 424.833 624.304 421.816C621.723 421.235 619.076 421.005 616.433 421.133C614.786 415.476 612.154 410.155 608.656 405.414C600.955 394.744 589.864 387.001 577.194 383.449C568.469 380.799 559.208 380.442 550.304 382.412V382.318ZM543.87 429.028C540.901 421.015 537.978 410.787 543.87 403.434C550.492 396.718 561.027 396.223 569.794 398.061C578.731 399.878 586.832 404.561 592.866 411.4C597.999 416.917 601.293 423.892 602.293 431.361C603.848 440.788 601.421 451.063 592.324 455.612C587.561 457.984 582.326 459.256 577.005 459.335C578.654 456.317 580.148 453.218 581.483 450.05C582.096 451.204 582.685 452.406 583.204 453.538C583.722 454.669 584.288 456.295 585.56 455.282C586.998 453.797 586.267 449.131 586.102 447.127C584.984 438.345 581.415 430.055 575.803 423.207C571.77 418.736 566.774 415.238 561.192 412.979C560.322 412.457 559.353 412.122 558.347 411.996C557.34 411.87 556.319 411.956 555.347 412.248C553.803 412.813 552.542 413.962 551.836 415.447C551.131 416.933 551.038 418.636 551.577 420.19C551.877 421.1 552.414 421.913 553.132 422.547C551.624 424.079 550.139 425.658 548.678 427.26L544.954 431.385C544.624 430.63 544.247 429.829 543.87 429.028ZM521.906 497.749C521.254 493.277 521.167 488.74 521.646 484.245C522.387 479.667 523.587 475.174 525.229 470.836C540.397 459.805 553.156 445.796 562.724 429.664L563.077 429.028C565.773 430.722 568.305 432.663 570.642 434.825C572.787 437.182 574.625 439.539 576.345 441.896C576.028 442.408 575.674 442.896 575.285 443.357C573.706 445.713 572.103 448.07 570.572 450.427C562.593 462.645 553.581 474.157 543.634 484.835C538.388 489.946 532.882 494.784 527.138 499.328C525.7 500.46 524.215 501.567 522.731 502.675C522.424 501.002 522.165 499.375 521.929 497.749H521.906ZM415.854 762.596C416.525 761.766 417.102 760.865 417.574 759.909C420.059 754.99 423.286 750.483 427.143 746.546C430.304 743.498 433.744 740.752 437.418 738.345C437.418 741.291 437.559 744.237 437.606 747.159C438.526 772.234 440.293 797.286 442.65 822.244C443.357 827.216 444.134 832.189 445.006 837.138C438.159 839.471 431.021 840.843 423.796 841.215C423.631 838.01 423.325 834.781 423.113 831.576C421.722 814.773 419.625 798.04 417.904 781.284C417.315 775.11 416.797 768.817 415.972 762.596H415.854ZM410.41 964.447C386.442 947.314 392.523 923.723 400.041 900.321C403.334 898.566 406.529 896.631 409.609 894.524C417.399 895.816 425.334 895.999 433.176 895.066C445.582 893.732 457.549 889.71 468.244 883.282C472.904 880.376 477.145 876.848 480.852 872.795L483.374 874.02C505.574 884.201 530.083 887.171 553.65 892.874C570.147 897.423 586.456 905.365 597.297 919.104C607.171 932.302 613.346 950.472 608.114 966.686C602.316 979.766 586.385 982.499 573.706 984.691C526.594 989.394 479.028 986.208 432.964 975.264C424.8 973.299 417.15 969.611 410.528 964.447H410.41ZM433.576 878.922C412.555 881.774 386.937 877.226 393.088 849.982C395.529 842.021 400.671 835.161 407.629 830.586C407.983 833.344 408.336 836.101 408.666 838.811C408.831 839.919 408.972 841.168 409.137 842.417C408.502 842.73 407.921 843.144 407.417 843.643C406.133 844.818 405.31 846.412 405.094 848.139C404.878 849.866 405.284 851.614 406.239 853.069C408.972 857.241 414.558 857.194 418.988 857.099C430.654 856.84 442.697 854.743 452.666 848.45C457.292 845.758 461.305 842.13 464.449 837.798C465.628 835.889 468.856 830.327 466.075 828.89C465.626 828.682 465.119 828.634 464.639 828.754C464.159 828.874 463.734 829.155 463.436 829.55L459.005 831.576C459.005 830.209 458.84 828.843 458.793 827.476C458.793 825.119 458.557 822.55 458.416 820.099L459.736 820.618C464.448 822.418 468.792 825.061 472.556 828.418C483.397 838.717 477.576 853.611 468.361 862.779C459.147 871.947 446.303 876.801 433.576 878.922ZM268.984 869.496C266.109 863.18 268.702 857.029 272.779 851.962C277.492 846.023 284.279 842.771 290.949 839.589C290.03 842.488 289.158 845.387 288.427 848.332C288.074 850.1 287.744 851.867 287.414 853.659C286.374 853.584 285.331 853.76 284.373 854.172C283.415 854.583 282.569 855.218 281.907 856.024C281.245 856.829 280.785 857.781 280.566 858.801C280.348 859.82 280.376 860.877 280.65 861.883C281.873 865.511 284.259 868.634 287.437 870.768C297.571 876.306 309.708 879.512 321.138 876.754C330.989 874.185 340.793 867.94 345.247 858.537C345.551 858.172 345.728 857.719 345.751 857.244C345.775 856.77 345.644 856.302 345.378 855.908C345.113 855.515 344.726 855.219 344.278 855.064C343.829 854.909 343.342 854.904 342.891 855.049C343.291 854.059 343.668 853.069 344.045 852.056C345.365 848.474 346.402 844.75 347.557 841.027C348.876 841.999 350.107 843.088 351.233 844.279C367.494 859.975 360.236 878.922 340.982 887.242C325.738 893.648 308.788 894.768 292.834 890.423C287.601 888.841 282.767 886.16 278.654 882.559C274.54 878.958 271.244 874.521 268.984 869.543V869.496ZM202.384 625.176C201.025 625.414 199.686 625.753 198.377 626.19C200.819 622.01 203.544 618.002 206.532 614.194C211.783 607.288 217.712 600.924 224.231 595.199C230.57 601.196 237.594 606.425 245.158 610.777C246.124 613.275 247.138 615.726 247.986 618.248C249.73 623.362 251.568 628.523 253.171 633.731C246.567 631.601 239.606 630.8 232.691 631.374C230.724 631.507 228.814 632.088 227.106 633.071C224.035 629.709 220.136 627.21 215.798 625.825C211.46 624.439 206.835 624.216 202.384 625.176ZM175.565 745.368C178.063 741.456 183.507 740.655 187.819 740.278C191.633 740.284 195.44 740.6 199.202 741.22C200.334 741.409 201.559 741.762 202.832 741.974C203.706 742.735 204.618 743.451 205.565 744.119C211.434 748.031 218.362 751.566 225.597 750.294C227.365 750.011 230.782 749.257 229.91 746.853C229.738 746.532 229.464 746.276 229.132 746.127C228.799 745.978 228.426 745.943 228.072 746.028C227.244 745.809 226.451 745.476 225.715 745.038C219.646 741.403 214.582 736.308 210.984 730.216C207.387 724.124 205.37 717.229 205.118 710.159C211.874 707.016 217.931 702.549 222.93 697.024C227.929 691.498 231.769 685.026 234.223 677.99C237.98 666.772 237.747 654.601 233.563 643.535C239.29 645.255 245.04 646.905 250.578 649.144C287.06 663.897 304.783 706.718 283.572 741.197C278.647 749.233 272.896 757.246 264.719 762.171C252.134 769.241 237.122 770.538 223.005 769.006C211.019 767.345 199.466 763.393 188.974 757.364C183.931 754.253 177.803 751.001 175.565 745.345V745.368ZM163.569 715.603C163.455 713.907 163.566 712.203 163.899 710.536C169.79 713.962 176.531 715.653 183.342 715.414C185.195 715.391 187.045 715.249 188.88 714.99C189.337 716.715 189.199 718.544 188.49 720.182C187.78 721.819 186.539 723.17 184.968 724.016C184.225 724.483 183.435 724.87 182.611 725.171C180.209 725.334 177.835 725.785 175.541 726.514C174.186 726.124 172.856 725.652 171.558 725.1C169.638 724.156 167.935 722.822 166.56 721.182C165.184 719.543 164.165 717.635 163.569 715.579V715.603ZM159.186 635.923C156.24 612.804 172.572 593.007 187.702 577.429C195.532 569.645 203.861 562.379 212.636 555.677C217.201 552.363 221.251 548.392 224.655 543.894C225.242 543.579 225.711 543.083 225.993 542.48C226.275 541.876 226.354 541.198 226.219 540.546C226.084 539.894 225.741 539.303 225.243 538.862C224.744 538.42 224.116 538.151 223.453 538.096C221.85 538.332 220.248 538.308 218.739 538.567C213.656 539.714 208.792 541.68 204.34 544.388C176.248 493.743 164.559 410.693 174.363 360.094C176.95 347.192 181.287 334.704 187.254 322.976C190.247 317.202 193.476 311.523 196.822 305.937C197.011 305.56 197.246 305.136 197.506 304.665C197.953 319.347 201.771 334.218 211.858 345.059C214.898 348.193 218.928 351.327 223.641 350.691C236.273 348.169 232.785 332.097 234.058 322.599C235.189 307.328 238.913 290.1 252.558 281.145C262.386 283.501 272.708 283.502 282.253 287.154C291.089 290.601 299.586 294.861 307.634 299.881C314.068 303.298 326.488 311.97 330.612 301.625C331.625 295.12 328.515 288.686 327.171 282.37C324.491 271.933 319.56 262.208 312.725 253.878C319.653 255.928 326.582 257.884 333.393 260.288C367.117 272.425 400.748 287.626 426.459 313.243C445.451 333.014 461.457 355.451 473.97 379.843C491.057 414.33 501.073 451.887 503.429 490.302C507.718 551.954 496.76 615.702 466.429 669.977C458.341 684.057 448.506 697.059 437.159 708.674C422.179 723.586 404.964 736.069 386.136 745.674C381.721 747.89 377.243 749.94 372.703 751.825C372.396 751.283 372.137 750.765 371.925 750.294C370.739 748.392 369.706 746.398 368.838 744.331C368.724 744.043 368.645 743.742 368.602 743.436C368.602 739.618 366.67 738.18 363.582 741.762C360.797 745.094 358.547 748.839 356.913 752.862C352.59 762.693 349.106 772.871 346.496 783.287C340.416 807.216 333.959 831.026 327.124 854.719C326.895 856.353 326.339 857.923 325.488 859.336C324.638 860.75 323.511 861.977 322.175 862.944C314.76 863.416 307.334 862.183 300.47 859.338C300.635 858.985 300.8 858.655 300.941 858.301C302.633 854.81 304.074 851.203 305.254 847.508C312.324 826.462 318.381 805.087 324.508 783.712C326.865 774.733 333.369 754.3 329.882 746.004C328.208 744.378 324.39 749.752 323.377 750.906C321.898 752.911 320.544 755.004 319.323 757.175C312.371 763.585 304.028 769.076 294.342 768.959C291.179 768.82 288.028 768.458 284.916 767.875L283.337 767.686C288.657 762.255 293.28 756.183 297.1 749.61C306.162 735.253 310.076 718.242 308.2 701.368C306.884 689.752 303.06 678.559 296.993 668.565C290.926 658.572 282.761 650.015 273.061 643.488L271.718 642.616C269.896 634.417 267.348 626.396 264.106 618.648C267.067 619.414 270.074 619.989 273.109 620.369C274.788 620.747 276.488 621.03 278.199 621.217C278.779 621.269 279.362 621.155 279.88 620.888C280.397 620.621 280.828 620.212 281.121 619.709C282.088 616.763 278.081 615.278 276.243 613.77C267.005 607.124 258.167 599.936 248.363 594.091C246.761 593.007 245.158 591.852 243.65 590.651C243.65 590.344 243.65 590.014 243.65 589.684C243.655 585.64 244.455 581.636 246.006 577.901C246.808 575.733 247.468 573.871 248.363 572.009C259.487 558.67 240.515 567.296 235.119 570.029C219.125 578.271 205.16 589.958 194.23 604.249C184.049 616.81 174.292 632.93 180.914 649.403C181.758 652.086 182.997 654.628 184.591 656.945C183.261 659.399 181.321 661.468 178.958 662.954C176.367 664.351 173.643 665.488 170.828 666.348C165.212 656.95 161.272 646.647 159.186 635.899V635.923ZM159.186 679.357C159.045 678.35 158.998 677.332 159.044 676.317C160.143 677.715 161.409 678.974 162.815 680.064C163.147 681.454 163.915 682.701 165.007 683.622C167.858 686.403 172.312 685.649 175.753 684.754C184.826 682.397 191.967 674.973 196.963 667.314C200.842 661.364 203.033 654.474 203.303 647.376C203.389 647.087 203.414 646.783 203.374 646.483C203.335 646.184 203.233 645.896 203.075 645.639C202.917 645.382 202.706 645.161 202.457 644.991C202.207 644.821 201.925 644.705 201.628 644.652C201.33 644.599 201.025 644.609 200.732 644.681C200.439 644.754 200.165 644.887 199.927 645.073C199.689 645.259 199.493 645.493 199.352 645.76C199.211 646.027 199.128 646.321 199.108 646.622C198.778 647.306 198.425 647.989 198.048 648.649C196.754 646.027 195.758 643.268 195.078 640.424C201.488 639.835 208.111 638.256 213.696 642.144C224.395 652.019 221.827 672.782 213.413 683.387C204.151 695.17 185.698 704.409 171.44 696.49C168.324 694.622 165.623 692.137 163.504 689.186C161.384 686.236 159.89 682.883 159.115 679.333L159.186 679.357ZM148.18 162.556C147.002 163.128 145.889 163.823 144.857 164.629C150.888 149.442 160.387 135.876 172.595 125.013C178.346 120.3 184.944 114.903 192.721 114.479C197.906 115.068 200.121 120.394 202.337 124.448C204.427 128.934 206.168 133.575 207.545 138.329C209.218 143.867 210.609 150.348 216.288 153.294C220.022 155.252 223.524 157.624 226.729 160.364C232.22 167.622 235.401 176.366 239.148 184.591C245.959 201.441 252.346 218.48 258.874 235.448C259.393 236.839 260.005 238.866 261.914 238.394C263.823 237.923 263.587 236.038 263.611 234.435C266.546 233.891 269.404 232.989 272.119 231.748C278.198 229.086 284.509 226.988 290.972 225.479C333.911 218.032 341.948 244.663 379.325 244.828C370.499 250.79 359.885 253.521 349.277 252.558C339.009 248.872 328.41 246.181 317.627 244.522C312.411 243.731 307.133 243.416 301.86 243.579C298.805 241.262 295.52 239.264 292.056 237.616C287.814 236.038 282.3 233.94 278.034 236.25C276.243 238.064 278.529 239.549 280.132 240.185C292.782 246.846 303.215 257.051 310.156 269.55C313.242 276.356 315.611 283.464 317.226 290.76C304.736 283.69 292.551 275.394 278.458 271.907C269.809 270.233 260.665 267.829 251.898 269.55C248.01 270.752 246.501 274.994 243.72 277.633C230.099 292.316 224.231 311.876 219.753 330.965C212.212 315.721 210.967 298.123 216.288 281.97C219.022 274.287 223.571 267.405 227.129 260.123C227.919 259.056 228.794 258.055 229.745 257.13C230.09 256.755 230.292 256.27 230.316 255.761C230.339 255.252 230.182 254.751 229.873 254.345C229.564 253.94 229.121 253.657 228.624 253.546C228.126 253.434 227.606 253.502 227.153 253.736C223.712 256.093 219.682 257.46 216.265 259.887C211.627 262.979 207.66 266.975 204.603 271.636C201.546 276.297 199.46 281.527 198.472 287.013C186.405 291.326 171.464 318.993 167.528 328.467C167.08 329.551 166.656 330.659 166.232 331.743C158.602 334.838 150.625 336.998 142.476 338.177C158.573 318.239 160.387 290.454 176.295 270.328C184.042 260.231 195.112 253.202 207.545 250.484C213.555 248.646 219.918 248.339 226.022 246.996L227.271 247.585C229.038 248.646 231.324 250.154 233.304 248.669C236.226 246.148 232.785 242.518 232.243 239.69C229.203 229.745 221.261 221.638 214.733 214.097C210.75 209.548 206.65 205.212 202.266 201.04C191.119 190.977 180.019 180.066 166.114 173.938C163.462 172.964 160.746 172.176 157.984 171.582C159.657 170.427 161.259 169.225 162.862 168C174.646 159.468 182.776 146.789 188.55 133.568C190.226 129.863 191.659 126.053 192.839 122.162C193.137 121.248 193.389 120.32 193.593 119.381C193.651 119.228 193.669 119.064 193.644 118.903C193.619 118.741 193.553 118.59 193.452 118.462C193.303 118.276 193.091 118.151 192.856 118.112C192.621 118.073 192.38 118.122 192.179 118.25C191.563 118.734 191.09 119.378 190.812 120.111L189.351 123.01C188.22 125.272 187.042 127.511 185.816 129.727C181.555 137.753 175.785 144.883 168.824 150.725C162.673 155.768 155.014 158.691 148.18 162.556ZM114.55 987.401C101.022 979.341 95.3189 966.191 99.1131 950.755C101.425 943.379 105.076 936.492 109.883 930.44C122.115 914.909 139.719 904.799 157.512 896.833C173.373 890.093 189.681 884.084 206.767 881.491C216.651 880.079 226.62 879.347 236.603 879.299C243.108 879.299 249.612 879.677 256.117 879.677C260.848 888.155 267.641 895.304 275.866 900.463C289.37 908.57 306.22 909.889 321.633 908.688C328.222 908.051 334.719 906.684 341.005 904.61C342.56 905.832 344.047 907.138 345.459 908.523C345.921 921.814 344.973 935.118 342.631 948.209C341.335 954.125 340.275 960.37 336.904 965.555C334.63 968.104 331.946 970.254 328.962 971.918C309.826 982.829 287.932 987.496 266.392 991.031C240.389 995.175 214.104 997.302 187.772 997.394C164.959 996.993 134.912 997.959 114.55 987.331V987.401ZM106.56 910.337C93.08 923.393 81.7678 940.974 82.0035 960.347C81.9346 966.768 83.2528 973.128 85.8681 978.994C88.4834 984.859 92.3342 990.09 97.1571 994.33C118.085 1014.03 158.997 1013.18 186.405 1013.4H186.24C228.779 1013.4 315.246 1007.17 346.897 978.375C352.977 972.46 355.405 963.999 357.314 955.987C359.887 944.414 361.269 932.608 361.438 920.754C361.752 914.985 361.244 909.2 359.929 903.573C359.436 901.066 358.702 898.611 357.738 896.244C360.202 894.48 362.505 892.5 364.619 890.329C377.416 877.296 379.961 859.385 370.205 843.76C366.104 837.397 358.822 830.799 350.974 828.842L351.752 826.062C354.839 814.467 357.926 802.895 360.448 791.159C361.744 784.819 363.182 778.48 364.478 772.117C377.644 767.555 390.361 761.788 402.468 754.889C402.468 755.761 402.35 756.562 402.279 757.246C402.151 777.522 403.419 797.782 406.074 817.884C398.273 818.19 390.944 824.2 386.042 829.903C373.268 845.292 372.208 870.509 387.55 884.555C388.116 885.05 388.728 885.521 389.341 885.993C389.058 886.511 388.799 887.029 388.54 887.548C386.034 892.232 384.104 897.201 382.789 902.348C380.08 910.639 378.363 919.223 377.675 927.918C376.814 935.919 377.839 944.011 380.667 951.545C383.494 959.079 388.047 965.847 393.96 971.305C410.764 988.486 435.108 992.515 457.827 996.451C491.816 1001.93 526.294 1003.77 560.673 1001.92C599.206 999.798 633.566 987.778 624.894 941.87C622.872 931.438 618.727 921.533 612.714 912.772C606.702 904.01 598.951 896.58 589.944 890.942C561.475 872.606 526.148 873.478 494.945 862.308C493.127 861.809 491.341 861.203 489.595 860.493C495.369 849.228 496.665 836.266 489.336 824.483C484.19 816.184 476.102 810.132 466.688 807.538C463.589 806.795 460.437 806.291 457.261 806.03C456.319 793.94 455.117 781.873 454.009 769.784C452.949 758.518 451.252 747.324 450.38 736.059C449.932 730.379 449.908 724.653 449.107 719.02C469.743 697.764 485.738 672.452 496.076 644.69C511.382 606.188 519.466 565.197 519.926 523.767C521.387 522.895 522.801 521.882 524.215 520.939C530.004 516.985 535.466 512.572 540.547 507.742C552.822 496.42 563.318 483.311 571.679 468.856C572.366 469.311 573.092 469.706 573.847 470.035C578.377 471.771 583.245 472.449 588.077 472.016C592.909 471.583 597.578 470.051 601.727 467.536L600.879 468.031C613.039 461.786 618.318 449.625 618.507 436.852C620.22 437.339 621.959 437.733 623.715 438.031C632.085 439.87 640.622 440.833 649.191 440.906C677.825 441.448 708.109 423.843 710.96 393.23C711.386 387.125 710.584 380.998 708.6 375.209C706.617 369.421 703.492 364.089 699.413 359.529C702.407 356.101 704.137 351.751 704.314 347.203C704.597 333.581 695.359 324.414 684 318.923C685.239 316.429 685.73 313.63 685.414 310.863C684.99 302.119 678.344 295.026 671.273 290.713C663.031 286.353 653.685 284.524 644.407 285.458C635.885 286.572 627.78 289.814 620.84 294.884C620.783 289.816 620.143 284.771 618.931 279.849C613.416 254.326 588.765 235.071 562.37 240.586C543.964 244.097 530.225 258.85 541.16 277.209C548.466 289.676 557.822 298.419 557.657 314.044C557.987 323.872 553.674 330.329 546.91 336.952C538.733 344.446 531.78 354.368 531.733 365.845C531.733 373.268 533.901 381.564 539.204 387.055H538.992C524.852 395.28 521.576 414.299 527.538 428.674C528.267 430.359 529.209 431.944 530.343 433.388C531.968 435.98 534.015 438.282 536.399 440.199C534.043 442.555 531.474 445.03 528.905 447.269C524.545 451.204 519.973 454.834 515.307 458.369C507.671 412.79 489.972 368.814 461.527 332.191C437.394 298.914 409.868 277.987 374.918 262.48C383.638 259.817 390.92 253.831 397.165 247.373C401.879 242.825 407.464 235.825 400.041 230.876C398.083 229.966 395.925 229.568 393.772 229.722C389.176 229.58 384.581 229.557 379.985 229.274C358.091 228.331 348.994 217.844 329.693 211.858C310.392 205.872 287.272 206.72 269.691 217.797C267.243 219.384 264.926 221.165 262.763 223.123C261.773 216.218 260.029 209.36 258.521 202.549C254.184 185.227 249.565 167.34 240.044 152.045C235.472 145.96 229.071 141.5 221.78 139.318C216.43 128.855 215.157 116.411 208.04 106.843C194.913 90.8411 173.184 102.46 161.071 113.913C149.957 123.854 140.88 135.86 134.346 149.264C130.339 157.489 124.118 167.858 130.575 176.437C138.894 186.688 153.694 185.18 164.63 190.765C176.78 197.01 187.514 205.69 196.162 216.265C202.879 223.335 208.323 232.149 215.322 239.078C211.899 238.842 208.462 238.889 205.047 239.219C175.423 241.576 157.418 265.732 147.614 291.585C142.901 303.369 138.612 315.411 132.178 326.417C129.531 330.87 126.561 335.124 123.293 339.143C122.642 340.134 122.197 341.245 121.984 342.411C121.772 343.577 121.796 344.774 122.056 345.931C122.315 347.087 122.804 348.18 123.495 349.144C124.185 350.107 125.062 350.922 126.074 351.54C134.204 355.97 144.433 354.061 152.775 351.139C155.735 350.056 158.591 348.707 161.307 347.109C146.931 399.828 157.63 460.396 172.76 511.324C177.113 526.131 183.204 540.37 190.907 553.745C172.501 568.12 156.216 586.102 147.143 607.69C140.544 624.351 141.934 641.084 148.651 657.18C145.611 660.055 144.48 664.651 143.773 668.681C142.527 674.642 142.757 680.818 144.441 686.67C146.124 692.523 149.212 697.876 153.435 702.264C151.447 704.106 149.924 706.392 148.99 708.936C148.056 711.48 147.738 714.209 148.062 716.899C148.699 721.034 150.343 724.949 152.85 728.299C155.357 731.649 158.65 734.33 162.438 736.106C160.415 739.201 159.419 742.856 159.593 746.55C159.766 750.243 161.1 753.788 163.404 756.68C170.616 766.602 181.975 772.47 193.004 777.278C207.167 783.476 222.577 786.299 238.017 785.526C243.858 785.222 249.658 784.37 255.339 782.981C264.313 785.656 273.643 786.943 283.007 786.799C291.437 786.711 299.853 786.073 308.2 784.89C305.843 792.219 303.486 799.643 301.342 807.043C299.81 812.228 298.325 817.436 296.628 822.597C292.151 822.597 287.555 824.789 283.36 826.014C274.456 829.157 266.561 834.635 260.5 841.875C254.76 848.367 251.665 856.777 251.828 865.442L248.976 864.971C230.994 862.961 212.809 863.772 195.078 867.375C185.935 869.44 176.937 872.1 168.141 875.34C145.917 883.494 123.929 893.888 106.56 910.267V910.337Z" fill="#1B1818"/>
<path d="M305.231 521.106C306.268 524.405 307.423 527.681 308.789 530.886C320.809 559.167 333.016 577.525 360.778 590.629C360.356 589.3 360.111 587.921 360.048 586.528C359.975 582.928 361.037 579.397 363.085 576.436C365.132 573.475 368.061 571.234 371.454 570.031C379.008 567.547 387.172 567.638 394.668 570.29C395.728 566.237 401.267 563.621 404.872 562.018C410.841 559.829 417.372 559.705 423.419 561.665C427.094 562.621 430.523 564.347 433.481 566.727C436.439 569.108 438.857 572.09 440.576 575.475C440.741 575.828 440.906 576.229 441.071 576.63C444.444 572.711 447.45 568.49 450.05 564.021C457.059 551.672 461.545 538.054 463.248 523.957C464.367 515.094 464.58 506.139 463.884 497.232C463.625 498.364 463.342 499.471 463.059 500.555C454.009 533.149 415.265 545.521 384.982 548.326C361.617 550.251 338.255 544.572 318.381 532.135C313.56 529.015 309.142 525.311 305.231 521.106Z" fill="#A63D51"/>
<path d="M377.558 576.699C376.401 576.931 375.303 577.392 374.328 578.056C373.353 578.719 372.521 579.572 371.881 580.563C371.242 581.554 370.808 582.664 370.605 583.826C370.402 584.988 370.434 586.179 370.7 587.328C371.336 589.308 371.996 591.264 372.727 593.196C373.117 593.958 373.456 594.746 373.74 595.553C375.084 595.93 376.451 596.26 377.794 596.543C382.709 597.411 387.698 597.797 392.688 597.697C403.117 597.705 413.427 595.479 422.925 591.169C427.891 588.671 432.451 585.437 436.452 581.578C435.242 580.274 434.017 579.001 432.776 577.76C427.988 573.518 421.984 570.895 415.619 570.265C411.133 569.763 406.603 570.696 402.681 572.928L402.469 573.471C404.906 574.693 407.172 576.23 409.209 578.043C410.198 579.244 412.744 580.941 411.565 582.756C411.422 582.929 411.242 583.068 411.038 583.164C410.834 583.259 410.612 583.309 410.387 583.309C410.162 583.309 409.94 583.259 409.736 583.164C409.533 583.068 409.352 582.929 409.209 582.756C404.653 579.582 399.481 577.403 394.028 576.36C388.575 575.316 382.963 575.432 377.558 576.699Z" fill="#FF9DA9"/>
<path d="M390.684 455.965C390.684 457.874 390.567 459.806 390.684 461.739C390.681 463.817 390.783 465.893 390.991 467.961C391.512 472.2 392.427 476.382 393.725 480.451C394.219 482.077 394.832 483.656 395.374 485.164C395.916 486.673 396.6 488.582 397.283 490.255C397.967 491.928 398.744 493.837 399.64 495.558C400.535 497.278 401.478 498.951 402.515 500.577C405.178 504.702 409.114 509.297 414.464 509.297H414.652C416.535 509.146 418.343 508.494 419.889 507.408C421.435 506.322 422.662 504.843 423.443 503.123C424.764 500.346 425.563 497.351 425.799 494.285C425.956 492.648 426.019 491.003 425.988 489.359V488.582C425.988 486.39 425.988 484.222 425.799 482.03C425.68 479.718 425.444 477.413 425.092 475.125C424.739 473.004 424.338 470.859 423.89 468.738C423.348 466.122 422.688 463.483 421.887 460.89C421.101 458.531 420.164 456.225 419.083 453.985C417.862 451.32 416.361 448.792 414.605 446.444C413.525 444.925 412.258 443.547 410.834 442.343C408.728 440.355 406.013 439.135 403.128 438.879C401.81 438.792 400.488 438.969 399.239 439.397C398.08 439.81 397.003 440.424 396.058 441.212C394.74 442.316 393.685 443.701 392.97 445.265C392.598 446.029 392.275 446.816 392.004 447.622C391.257 450.346 390.814 453.144 390.684 455.965Z" fill="#1B1818"/>
<path d="M330.683 466.972C330.542 469.046 330.447 471.119 330.495 473.193C330.677 477.464 331.253 481.708 332.215 485.872C332.568 487.546 333.063 489.172 333.488 490.798C333.912 492.424 334.43 494.309 334.972 496.03C335.514 497.75 336.127 499.706 336.858 501.497C337.588 503.288 338.437 505.032 339.332 506.729C341.689 511.066 345.2 515.968 350.526 516.392H350.621C352.512 516.391 354.369 515.884 355.998 514.922C357.627 513.961 358.968 512.58 359.883 510.924C361.444 508.274 362.498 505.358 362.993 502.322C363.284 500.701 363.481 499.064 363.583 497.42V496.643C363.795 494.474 363.842 492.306 363.913 490.114C363.983 487.804 363.936 485.491 363.771 483.186C363.606 481.018 363.347 478.873 363.088 476.728C362.758 474.042 362.31 471.355 361.721 468.739C361.148 466.331 360.399 463.968 359.482 461.669C358.475 458.913 357.188 456.267 355.641 453.774C354.668 452.184 353.514 450.713 352.2 449.391C350.258 447.243 347.652 445.808 344.8 445.314C343.494 445.136 342.166 445.208 340.888 445.526C339.695 445.84 338.569 446.367 337.565 447.081C336.165 448.074 334.998 449.361 334.147 450.852C333.719 451.612 333.341 452.399 333.016 453.208C332.076 455.798 331.436 458.486 331.107 461.221C331.013 463.13 330.848 465.063 330.683 466.972Z" fill="#1B1818"/>
<path d="M370.7 587.328C370.434 586.179 370.402 584.988 370.604 583.826C370.807 582.664 371.241 581.555 371.881 580.564C372.521 579.573 373.352 578.72 374.328 578.056C375.303 577.392 376.401 576.931 377.558 576.7C382.957 575.409 388.567 575.268 394.024 576.287C399.481 577.306 404.663 579.462 409.232 582.615C409.376 582.788 409.556 582.927 409.759 583.023C409.963 583.119 410.185 583.168 410.41 583.168C410.635 583.168 410.857 583.119 411.061 583.023C411.265 582.927 411.445 582.788 411.589 582.615C412.838 580.895 410.292 579.198 409.232 577.902C407.195 576.089 404.929 574.552 402.492 573.33L402.704 572.788C406.627 570.555 411.156 569.622 415.642 570.125C422.007 570.754 428.012 573.377 432.799 577.619C434.056 578.876 435.281 580.148 436.475 581.437C432.474 585.296 427.914 588.53 422.948 591.029C413.451 595.338 403.141 597.564 392.711 597.557C387.721 597.656 382.732 597.27 377.817 596.402C376.474 596.119 375.107 595.789 373.763 595.412C373.479 594.605 373.14 593.817 372.75 593.055C371.996 591.264 371.336 589.285 370.7 587.328ZM308.789 530.885C307.422 527.68 306.268 524.405 305.231 521.105C309.148 525.277 313.565 528.95 318.381 532.04C338.255 544.477 361.616 550.156 384.981 548.231C415.265 545.426 454.009 533.054 463.059 500.46C463.342 499.376 463.625 498.269 463.884 497.137C464.58 506.044 464.366 514.999 463.247 523.863C461.544 537.959 457.058 551.577 450.05 563.926C447.449 568.395 444.444 572.616 441.071 576.535C440.906 576.134 440.741 575.734 440.576 575.38C438.857 571.995 436.438 569.013 433.481 566.632C430.523 564.252 427.094 562.526 423.419 561.57C417.371 559.61 410.841 559.734 404.872 561.923C401.266 563.526 395.728 566.142 394.667 570.195C387.171 567.543 379.007 567.452 371.454 569.936C368.06 571.139 365.132 573.38 363.085 576.341C361.037 579.302 359.974 582.833 360.047 586.433C360.11 587.826 360.356 589.205 360.778 590.534C333.016 577.501 320.808 559.095 308.789 530.885ZM290.266 507.554C289.868 508.26 289.69 509.068 289.756 509.876C289.822 510.683 290.129 511.452 290.636 512.083C291.143 512.715 291.828 513.18 292.602 513.419C293.376 513.657 294.204 513.659 294.979 513.422C295.262 514.601 295.592 515.779 295.78 516.698C297.791 524.554 300.054 532.284 302.567 539.888C308.544 556.344 318.589 571.019 331.767 582.544C349.528 598.257 372.512 606.778 396.223 606.441C426.177 605.852 445.219 591.264 458.888 565.293C469.705 544.601 475.644 521.741 472.062 498.363C471.599 494.89 470.914 491.45 470.011 488.064C470.716 488.148 471.431 488.061 472.095 487.811C472.76 487.561 473.354 487.155 473.829 486.627C474.511 485.842 474.886 484.838 474.886 483.799C474.886 482.759 474.511 481.755 473.829 480.97C473.476 480.593 473.358 480.051 473.004 479.627C471.823 478.089 470.253 476.893 468.456 476.163C464.155 473.555 459.012 472.71 454.103 473.806C448.4 476.163 456.884 480.711 459.147 482.22C459.54 482.455 459.94 482.714 460.349 482.997C460.16 483.728 459.972 484.482 459.76 485.213C458.512 489.836 456.937 494.364 455.046 498.764C446.491 519.974 423.537 530.084 402.492 534.798C381.611 538.922 359.246 538.403 339.403 530.084C331.858 526.928 324.695 522.928 318.051 518.159C313.75 514.404 309.644 510.432 305.749 506.258L306.621 505.692C308.601 504.42 310.957 503.689 312.843 502.322C314.351 500.79 312.466 498.929 310.769 498.716C303.227 496.949 293.777 500.201 290.266 507.554Z" fill="#1B1818"/>
<path d="M335.914 479.179C340.628 477.081 350.055 473.146 346.849 466.523C344.493 462.446 336.15 459.595 331.743 458.369C330.295 465.756 330.128 473.337 331.248 480.781C332.836 480.347 334.394 479.811 335.914 479.179Z" fill="white"/>
<path d="M396.764 473.261C399.864 471.875 402.81 470.169 405.555 468.171C408.1 466.545 409.561 462.586 406.922 460.347C405.471 459.086 403.791 458.117 401.973 457.495C398.419 455.87 394.661 454.736 390.802 454.125C390.131 461.103 390.577 468.144 392.122 474.982C393.701 474.487 395.256 473.803 396.764 473.261Z" fill="white"/>
</g>
</svg>
