<svg width="768" height="768" viewBox="0 0 768 768" fill="none" xmlns="http://www.w3.org/2000/svg">
<mask id="mask0_250_2980" style="mask-type:alpha" maskUnits="userSpaceOnUse" x="0" y="0" width="768" height="768">
<circle cx="384" cy="384" r="384" fill="#D9D9D9"/>
</mask>
<g mask="url(#mask0_250_2980)">
<rect width="768" height="768" fill="#C1F5F5"/>
<path d="M537.03 528.723C537.396 540.333 536.205 551.939 533.487 563.231C532.041 569.108 530.244 574.893 528.104 580.554C525.783 586.461 523.109 592.222 520.098 597.808C516.834 603.734 513.216 609.457 509.262 614.947C505.262 620.426 500.961 625.679 496.379 630.683C493.471 626.97 489.758 623.965 485.521 621.895C478.952 618.897 471.637 617.936 464.517 619.134C457.917 619.853 451.493 621.721 445.538 624.655C439.438 627.562 433.643 631.068 428.238 635.123C419.611 641.403 411.651 648.926 401.69 653.159C396.277 655.028 390.531 655.733 384.827 655.229C378.886 654.489 373.045 653.092 367.412 651.065C359.314 648.213 351.722 643.957 343.302 642.047C327.636 638.734 314.431 644.026 301.019 651.617C293.68 655.712 287.008 661.05 279.233 664.385C273.81 666.492 268.049 667.592 262.232 667.629C258.596 667.495 254.979 667.049 251.419 666.295C246.395 665.246 241.487 663.704 236.765 661.694C232.768 660.122 228.918 658.197 225.262 655.942C215.485 649.915 207.18 641.932 198.76 634.156C194.712 630.29 190.289 626.838 185.555 623.85C181.589 621.118 177.151 619.144 172.465 618.03C162.78 615.729 152.681 617.386 143.019 619.088L141.5 619.387C139.632 617.863 137.459 616.757 135.128 616.143C126.225 613.682 116.724 615.683 108.212 618.835C101.222 621.646 94.9266 625.944 89.7626 631.429C84.5985 636.915 80.689 643.458 78.3048 650.605C76.9789 654.364 75.903 658.207 75.0841 662.108C74.9601 662.547 74.8603 662.992 74.785 663.442C73.4027 663.503 72.0176 663.45 70.6441 663.281C62.5985 662.527 54.8706 659.766 48.168 655.252C48.9047 654.101 49.4414 652.833 49.7553 651.502C50.4685 649.202 51.3427 646.901 52.0559 644.601C53.6892 639.655 55.5297 634.755 57.5081 629.946C66.7102 607.355 85.4825 585.615 111.041 583.154C124.154 581.962 137.358 584.024 149.483 589.158C149.942 589.295 150.431 589.294 150.889 589.155C151.347 589.016 151.754 588.745 152.06 588.376C152.284 588.091 152.443 587.76 152.526 587.406C152.608 587.053 152.613 586.685 152.538 586.33C152.463 585.975 152.312 585.64 152.094 585.35C151.876 585.059 151.598 584.82 151.278 584.649C148.054 581.224 144.131 578.532 139.775 576.758C124.936 570.317 111.11 568.937 98.5035 571.766C96.9336 566.473 95.6587 561.097 94.6846 555.662C92.7003 544.154 92.2901 532.429 93.4653 520.809C94.0857 515.043 95.0537 509.32 96.364 503.671C97.8373 497.683 99.6735 491.79 101.862 486.026C104.194 480.169 106.867 474.454 109.868 468.91C113.114 463.025 116.709 457.34 120.635 451.886C124.903 446.088 129.512 440.55 134.438 435.299C140.043 429.374 146.005 423.797 152.29 418.597C159.157 413.004 166.347 407.818 173.823 403.069C182.403 397.726 191.299 392.91 200.463 388.644C210.54 384.051 220.889 380.079 231.451 376.751C243.266 373.118 255.298 370.237 267.477 368.124C276.495 366.651 285.582 365.547 294.692 364.88C292.76 368.929 288.78 372.265 286.893 376.383C286.659 376.838 286.451 377.306 286.272 377.786L285.628 377.441C285.431 377.347 285.218 377.294 285 377.286C284.782 377.279 284.565 377.316 284.362 377.396C284.159 377.475 283.974 377.596 283.82 377.75C283.666 377.905 283.545 378.089 283.466 378.292C283.287 379.63 283.401 380.992 283.798 382.282C284.195 383.573 284.866 384.762 285.766 385.769C286.156 386.684 286.783 387.478 287.584 388.069C287.812 388.195 288.051 388.303 288.297 388.391C292.151 391.653 296.441 394.363 301.042 396.443C311.342 401.392 322.563 404.134 333.985 404.495C342.544 404.542 351.066 403.365 359.291 400.998C364.251 399.414 369.002 397.235 373.439 394.511C375.214 393.338 376.568 391.629 377.304 389.634C377.626 388.72 377.688 387.734 377.485 386.787C377.281 385.84 376.818 384.967 376.149 384.267C375.479 383.566 374.629 383.065 373.691 382.818C372.754 382.572 371.767 382.59 370.84 382.87C369.505 380.408 367.849 378.108 366.469 375.669C366.05 375.051 365.76 374.355 365.617 373.622C365.376 371.937 365.533 370.219 366.078 368.607L369.39 369.228C371.553 369.642 373.692 370.056 375.832 370.516L379.306 371.298C380.111 371.482 380.962 371.712 381.79 371.873H382.227C393.558 374.629 404.706 378.087 415.608 382.226C425.434 386.056 435.022 390.474 444.318 395.454C452.612 399.999 460.624 405.038 468.313 410.545C474.922 415.381 481.251 420.589 487.269 426.143C487.453 426.304 487.614 426.488 487.798 426.626L488.373 427.178C493.48 432.027 498.304 437.166 502.821 442.569L503.741 443.673L504.178 444.225L505.673 446.111C509.14 450.541 512.373 455.148 515.359 459.915C518.812 465.456 521.938 471.194 524.722 477.1C527.248 482.653 529.438 488.353 531.278 494.169C534.748 505.375 536.683 516.998 537.03 528.723Z" fill="#E60046"/>
<path d="M484.117 626.197C487.821 627.92 491.079 630.47 493.641 633.651C488.423 639.023 482.917 644.107 477.147 648.88C470.043 654.686 462.599 660.064 454.855 664.984C445.964 670.482 436.745 675.43 427.248 679.799C416.78 684.57 406.023 688.681 395.041 692.107C390.44 693.518 385.839 694.829 381.238 696.041C363.432 696.478 347.811 697.214 332.789 701.769C314.384 688.15 304.722 689.646 332.421 717.873C357.91 744.26 378.431 774.006 396.835 805.822C400.516 811.85 403.737 818.268 407.533 824.226C401.186 827.596 395.404 831.935 390.394 837.086C388.611 833.278 386.637 829.562 384.482 825.952C367.09 797.011 345.649 770.923 323.403 745.594C312.636 733.54 301.41 721.531 287.491 713.088C285.352 711.754 271.848 703.886 271.664 709.062C272.947 711.104 274.494 712.969 276.265 714.606C281.004 718.885 285.628 723.302 290.068 727.811C275.529 739.981 259.034 752.243 239.985 751.001C237.935 749.87 235.777 748.946 233.544 748.24C229.659 747.013 225.658 746.188 221.604 745.778C213.161 742.144 204.971 737.773 196.114 735.196C208.192 735.932 220.799 734.483 230.806 727.121C237.743 722.177 243.289 715.53 246.91 707.82C251.005 699.561 248.014 688.035 238.651 685.183C236.351 684.792 234.878 682.997 232.693 682.56C232.281 682.456 231.846 682.481 231.449 682.632C231.052 682.783 230.71 683.053 230.472 683.405C230.233 683.756 230.108 684.173 230.115 684.598C230.121 685.023 230.258 685.436 230.507 685.781C231.313 686.701 232.095 687.621 232.946 688.472C233.286 689.347 233.525 690.258 233.659 691.187L232.026 690.681C226.09 688.886 220.247 686.862 214.45 684.653C204.646 680.812 195.089 676.372 185.831 671.356C177.499 666.788 169.448 661.726 161.722 656.196C154.9 651.218 148.378 645.84 142.19 640.092C137.219 635.379 132.504 630.402 128.065 625.185C129.139 624.909 130.22 624.656 131.309 624.426C133.977 623.897 137.704 624.127 140.511 623.045C149.529 622.378 158.478 620.377 167.542 621.642C170.701 622.082 173.793 622.916 176.744 624.127C181.192 626.253 185.403 628.844 189.305 631.856C193.078 634.847 196.644 638.114 200.232 641.335C205.915 646.396 211.908 651.098 218.177 655.414C224.479 659.912 231.368 663.527 238.651 666.157C245.8 669.021 253.369 670.699 261.058 671.126C264.819 671.186 268.576 670.839 272.262 670.091C277.985 669.104 283.485 667.102 288.504 664.179C304.791 654.494 320.55 641.657 340.772 645.775C348.363 647.5 355.311 651.158 362.557 653.872C369.7 656.788 377.182 658.79 384.827 659.831C390.519 660.29 396.245 659.602 401.666 657.806C413.997 652.676 423.498 642.577 434.564 635.33C440.783 631.211 447.451 627.815 454.44 625.208C458.509 623.959 462.709 623.187 466.955 622.907C470.773 622.692 474.603 622.986 478.343 623.782C480.319 624.458 482.248 625.265 484.117 626.197Z" fill="#FFF1FA"/>
<path d="M371.092 714.86C370.77 723.694 371.414 732.528 371.76 741.362C364.587 732.151 356.818 723.421 348.501 715.228C348.378 714.866 348.216 714.519 348.018 714.193C348.704 713.574 349.48 713.062 350.319 712.675C353.447 712.445 356.553 712.168 359.659 711.823C361.203 711.818 362.744 711.964 364.26 712.26C365.965 712.602 367.63 713.119 369.229 713.802C369.919 714.147 370.517 714.492 371.092 714.86Z" fill="#FFF1FA"/>
<path d="M562.335 199.565C562.36 202.867 561.164 206.063 558.976 208.537C554.053 214.541 546.875 218.038 539.813 220.983C535.603 222.8 530.611 224.134 526.999 227.263C525.425 228.615 524.371 230.473 524.018 232.517C523.666 234.562 524.036 236.666 525.066 238.467C526.114 240.47 527.036 242.537 527.827 244.655C528.333 246.15 529.345 247.738 528.885 249.256C528.119 251.197 526.887 252.92 525.297 254.271C523.398 256.149 521.393 257.915 519.292 259.563C512.763 264.062 505.67 267.681 498.196 270.329C495.591 271.223 492.922 271.923 490.214 272.422C487.799 272.606 485.45 273.287 483.312 274.424C481.708 275.579 480.508 277.209 479.881 279.083C479.253 280.957 479.23 282.981 479.815 284.868C480.447 287.121 480.486 289.498 479.93 291.77C478.748 294.896 476.755 297.652 474.156 299.753C465.016 305.954 454.598 310.019 443.674 311.646C442.147 311.838 440.611 311.953 439.073 311.991C437.545 311.804 436 311.804 434.472 311.991C432.809 312.368 431.338 313.331 430.328 314.704C429.318 316.078 428.837 317.769 428.974 319.468C429.398 321.914 430.382 324.229 431.849 326.232C431.849 326.968 431.067 327.29 430.561 327.727C428.21 329.437 425.519 330.622 422.67 331.201C409.879 334.79 396.329 331.753 383.561 334.813C376.29 336.385 369.594 339.936 364.214 345.073C360.964 348.215 358.196 351.819 356.001 355.77C351.147 363.776 348.593 374.612 354.114 382.917C355.042 384.455 356.048 385.945 357.128 387.38C355.242 387.817 353.332 388.231 351.423 388.622C341.999 390.727 332.274 391.117 322.712 389.772C315.204 388.634 307.834 386.722 300.719 384.067C301.39 383.291 301.948 382.423 302.376 381.49C305.608 376.439 308.255 371.036 310.266 365.387C314.729 351.768 307.759 339.069 296.785 331.132C293.138 327.129 288.66 323.973 283.665 321.882C278.67 319.792 273.278 318.819 267.868 319.031C256.158 319.192 243.528 320.664 233.061 314.246C221.558 308.587 233.268 297.199 221.052 293.541C214.519 293.311 208.422 294.554 201.153 294.254C188.132 294.07 174.305 291.77 163.171 284.638C157.673 280.681 156.982 273.527 154.13 267.89C150.426 262.553 143.041 263.657 137.589 261.587C125.488 257.883 118.932 253.19 118.196 239.824C116.608 230.76 105.451 229.955 99.1012 225.354C92.1997 221.213 81.8473 212.471 87.3455 204.051L89.0249 204.212L94.5232 204.764C101.701 205.592 108.119 206.535 115.435 207.985C134.57 211.688 153.431 216.684 171.89 222.938C196.413 232.393 220.201 244.471 241.067 260.667C251.304 269.018 260.92 278.105 270.352 287.353C275.206 292.598 280.682 297.682 285.513 303.065C285.706 303.255 285.966 303.361 286.237 303.361C286.508 303.361 286.769 303.255 286.962 303.065C287.15 302.876 287.256 302.619 287.256 302.352C287.256 302.085 287.15 301.829 286.962 301.639C284.777 299.339 282.545 297.038 280.498 294.415C275.229 288.135 269.731 282.085 264.394 276.011C250.936 260.076 234.796 246.615 216.704 236.235C199.011 225.251 179.827 216.875 159.743 211.367C139.775 205.155 119.369 199.657 98.3881 198.507C96.5937 198.507 94.7762 198.323 92.9588 198.346C103.725 191.145 120.795 194.527 127.697 186.038C132.781 175.639 139.544 173.431 150.541 173.822C164.386 174.218 178.005 177.427 190.57 183.254C202.395 188.338 212.793 196.16 224.319 201.658C225.923 202.391 227.658 202.793 229.421 202.84C231.184 202.887 232.938 202.579 234.579 201.934C243.781 197.057 251.511 198.023 256.71 207.709C262.531 219.717 265.912 232.692 270.329 245.276C271.986 249.877 273.228 255.215 276.909 258.757C281.51 263.68 287.629 258.619 293.012 260.253C311.21 268.374 304.975 291.655 306.586 307.505C306.586 315.81 310.082 323.218 313.625 330.511C316.458 337.629 318.016 345.19 318.226 352.849C318.982 358.121 319.335 363.443 319.285 368.768C319.883 371.529 316.455 377.971 319.883 379.006C322.942 379.19 323.333 374.98 324.484 372.817L324.783 372.15C326.109 370.944 327.34 369.636 328.464 368.239C330.359 366.065 331.703 363.467 332.384 360.665C333.064 357.862 333.061 354.937 332.374 352.136C333.295 342.934 330.373 333.34 326.83 324.828C324.645 319.951 322.229 315.097 321.562 309.714C319.883 297.705 322.459 285.305 319.261 273.481C317.945 267.636 314.877 262.333 310.466 258.28C306.055 254.226 300.511 251.616 294.577 250.798C294.537 250.54 294.476 250.286 294.393 250.038C291.755 244.558 289.659 238.834 288.135 232.945C285.582 224.421 285.031 215.423 286.525 206.65C287.928 201.221 293.772 197.08 291.931 191.007C287.675 176.859 274.332 161.1 278.496 145.756C279.899 141.477 283.097 137.129 287.905 136.553C295.957 136.369 297.706 127.604 296.9 121.071C296.762 111.869 295.198 97.1224 302.997 91.6932C303.575 93.2566 304.347 94.7406 305.297 96.1102C306.218 97.6055 307.092 99.1009 307.966 100.711C333.272 146.722 343.946 199.795 343.555 251.971C343.555 260.115 342.336 268.236 341.784 276.356C341.672 278.737 341.434 281.11 341.07 283.465C341.057 283.616 341.073 283.768 341.118 283.913C341.164 284.058 341.237 284.192 341.334 284.309C341.431 284.425 341.551 284.521 341.685 284.592C341.819 284.662 341.966 284.705 342.117 284.719C342.268 284.732 342.421 284.716 342.565 284.671C342.71 284.626 342.844 284.552 342.961 284.455C343.077 284.358 343.173 284.239 343.244 284.104C343.314 283.97 343.357 283.823 343.371 283.672C343.555 282.269 343.762 280.865 343.969 279.485C344.176 278.105 344.636 276.195 344.866 274.47C346.433 262.652 347.324 250.754 347.535 238.835C347.265 214.825 344.403 190.914 339 167.519C337.298 159.927 335.181 152.45 332.743 145.042C328.242 129.851 322.708 114.986 316.179 100.55C314.381 96.6428 312.142 92.9534 309.507 89.5537H311.026C321.884 90.2209 331.891 96.9844 338.425 105.427C343.026 111.57 344.912 119.046 347.328 126.132C348.777 130.319 350.641 134.644 354.46 137.175C360.602 140.579 368.263 140.579 374.198 144.398C383.883 150.357 387.61 162.618 387.38 173.477C386.878 181.17 385.154 188.733 382.273 195.884C379.604 204.235 373.071 213.874 378.615 222.363C383.078 227.953 388.599 229.656 388.185 238.145C388.102 241 387.493 243.815 386.391 246.45C385.379 248.152 384.435 249.9 383.515 251.626C383.147 252.523 382.779 253.42 382.434 254.317C381.261 256.319 380.133 258.274 379.006 260.23C377.584 262.294 376.625 264.642 376.196 267.112C375.768 269.582 375.878 272.116 376.522 274.539C378.247 280.267 375.325 285.558 372.542 290.39C367.967 298.06 361.4 304.348 353.539 308.587C340.84 313.924 340.886 324.529 341.577 336.63C343.003 348.317 340.012 359.773 336.009 370.655C335.181 373.347 333.985 375.9 333.295 378.615C333.215 378.799 333.177 378.999 333.183 379.2C333.189 379.4 333.238 379.597 333.328 379.777C333.418 379.957 333.546 380.114 333.703 380.239C333.86 380.365 334.043 380.454 334.238 380.501C335.894 380.685 339.184 376.061 341.139 374.06C349.743 364.42 355.909 352.642 355.38 339.414C355.38 333.294 354.529 326.853 356.622 321.01C359.429 317.306 363.524 314.798 366.928 311.807C368.286 310.611 369.643 309.507 370.977 308.196C374.359 306.907 381.583 298.994 383.63 297.36C394.259 287.192 404.68 276.793 416.137 267.453C442.708 245.759 474.616 231.956 506.478 219.74C508.595 218.912 510.78 218.245 512.943 217.578C513.124 217.518 513.292 217.423 513.437 217.298C513.582 217.173 513.701 217.02 513.786 216.849C513.872 216.678 513.922 216.492 513.936 216.301C513.949 216.11 513.924 215.919 513.863 215.738C513.265 213.322 507.398 216.681 505.443 216.819C472.2 226.021 442.294 244.126 413.721 262.967C405.968 268.097 398.147 273.32 390.923 279.209C391.43 274.908 390.628 270.555 388.622 266.717C388.675 265.094 388.906 263.481 389.312 261.909C391.866 259.125 394.627 256.526 397.157 253.719C400.539 250.291 403.806 246.818 407.073 243.16C412.594 237.178 417.195 231.657 426.121 232.485C429.254 232.014 432.13 230.478 434.265 228.137C436.301 225.495 438.124 222.695 439.717 219.763C443.881 212.862 448.298 205.5 454.371 199.887C459.392 194.96 465.038 190.713 471.165 187.257C473.557 185.884 476.086 184.766 478.711 183.921C486.326 181.621 497.667 178.745 502.268 187.418C506.225 194.067 512.69 192.663 519.177 191.72C525.973 190.541 532.833 189.773 539.721 189.42C546.944 189.719 554.789 191.007 560.196 196.321C561.216 197.165 561.961 198.295 562.335 199.565Z" fill="#26AC3B"/>
<path d="M250.729 820.638C255.192 820.638 259.701 820.638 264.233 820.454C256.871 830.047 248.429 833.475 236.006 834.257C223.583 835.039 213.898 829.449 206.099 820.224C196.552 808.008 189.65 790.984 195.47 775.801C198.76 767.45 206.467 760.456 215.715 760.065C223.767 759.904 232.417 761.745 238.421 767.427C241.238 770.3 243.896 773.326 246.381 776.491C242.654 776.905 238.927 777.273 235.201 777.595C233.024 777.789 230.864 778.135 228.736 778.631C228.736 778.515 228.736 778.423 228.575 778.308C228.261 777.327 227.649 776.468 226.824 775.85C226 775.232 225.004 774.885 223.974 774.858C223.107 774.88 222.26 775.121 221.511 775.56C220.763 775.998 220.138 776.62 219.695 777.365C219.46 777.475 219.267 777.657 219.143 777.885C219.019 778.113 218.97 778.374 219.005 778.631C218.298 780.279 217.953 782.06 217.993 783.853C217.906 789.027 218.74 794.176 220.454 799.059C220.909 802.438 221.919 805.719 223.445 808.767C226.459 814.611 235.155 821.949 241.849 822.709C242.614 822.73 243.365 822.498 243.985 822.049C244.605 821.599 245.059 820.958 245.277 820.224C247.163 820.454 248.958 820.592 250.729 820.638Z" fill="#26AC3B"/>
<path d="M705.749 528.724C708.05 535.35 707.429 542.527 706.233 549.291C702.253 569.075 686.471 586.697 666.526 591.114C649.525 594.105 641.634 590.056 631.236 576.667C630.361 575.632 629.786 574.251 628.544 573.584C626.496 572.825 625.783 575.724 625.99 577.265C626.711 583.998 629.418 590.364 633.766 595.554C636.707 598.97 640.456 601.595 644.671 603.192C641.749 605.884 638.206 606.367 633.582 606.413C619.296 605.631 604.825 598.2 597.832 585.34C595.732 581.897 594.917 577.823 595.531 573.837C599.152 575.856 603.088 577.248 607.172 577.955C611.249 578.939 615.511 578.86 619.549 577.725C620.653 577.288 622.724 576.161 621.849 574.758C620.466 573.548 618.832 572.661 617.064 572.158C612.332 570.34 607.806 568.026 603.56 565.256C596.129 559.988 588.791 552.212 585.639 543.539C580.164 527.689 592.288 516.646 606.344 511.93C614.03 509.427 622.234 508.959 630.154 510.573C632.978 510.975 635.694 511.932 638.146 513.389C640.598 514.846 642.738 516.774 644.44 519.062C646.238 521.66 647.576 524.546 648.397 527.597C649.249 533.187 648.397 538.202 642.761 540.687C640.345 541.882 637.648 542.391 634.962 542.159C631.972 541.883 628.935 541.607 625.967 541.032C623.667 540.526 621.228 539.997 618.905 539.283C617.198 538.524 615.545 537.648 613.959 536.661C613.269 536.139 612.42 535.873 611.557 535.909C610.693 535.944 609.869 536.278 609.224 536.855C608.58 537.431 608.156 538.213 608.025 539.067C607.894 539.922 608.064 540.795 608.506 541.538C610.241 543.841 612.207 545.961 614.373 547.864C617.484 551.14 621.416 553.523 625.76 554.766C629.96 556.297 634.438 556.916 638.896 556.583C641.525 556.351 644.11 555.763 646.58 554.835C646.58 555.157 646.764 555.479 646.879 555.778C648.421 560.195 651.273 564.036 655.055 566.79C658.836 569.543 663.367 571.079 668.044 571.192C673.564 571.907 679.161 570.668 683.863 567.688C688.565 564.709 692.076 560.178 693.787 554.881C694.178 553.34 695.259 549.981 692.383 551.913C689.065 553.728 685.574 555.208 681.962 556.33C676.494 558.364 670.47 558.323 665.03 556.215C663.984 555.655 663.017 554.959 662.155 554.145C661.261 552.871 660.491 551.516 659.854 550.096C659.578 549.659 658.727 547.795 658.083 546.714C660.657 543.518 662.297 539.673 662.822 535.603C663.328 532.487 663.328 529.309 662.822 526.193C663.797 525.496 664.672 524.668 665.421 523.732C669.417 520.186 673.903 517.234 678.741 514.967C691.647 510.527 701.447 515.979 705.749 528.724Z" fill="white"/>
<path d="M687.944 498.817H686.748C677.988 498.893 669.504 501.888 662.638 507.329C660.982 508.526 658.911 509.952 656.979 511.539C655.449 509.293 653.708 507.197 651.78 505.282C649.072 502.748 645.962 500.68 642.578 499.162C648.237 490.489 651.78 484.232 663.972 481.402C675.291 479.746 683.297 482.783 686.495 494.446C687.047 495.965 687.507 497.414 687.944 498.817Z" fill="white"/>
<path d="M628.521 471.877C631.337 470.572 634.445 470.021 637.539 470.279C640.632 470.537 643.605 471.595 646.166 473.35C640.183 477.577 635.21 483.077 631.604 489.453C630.47 491.331 629.589 493.35 628.981 495.458C621.909 494.581 614.74 494.892 607.771 496.378C610.255 487.659 614.235 476.847 628.521 471.877Z" fill="white"/>
<path d="M118.333 686.908C127.282 692.522 131.078 703.61 130.204 713.801C129.166 722.762 125.176 731.123 118.862 737.566C114.79 741.569 110.396 745.25 106.163 749.068C105.833 749.355 105.487 749.624 105.128 749.874C104.898 749.276 104.645 748.677 104.369 748.102C103.84 747.113 103.288 745.963 102.62 744.905C104.998 742.755 107.093 740.312 108.855 737.635C110.082 735.778 111.108 733.796 111.915 731.722C112.054 731.54 112.156 731.332 112.213 731.11C112.27 730.887 112.281 730.656 112.246 730.429C112.211 730.202 112.131 729.984 112.01 729.789C111.889 729.594 111.73 729.426 111.542 729.294C111.354 729.162 111.142 729.069 110.917 729.021C110.693 728.974 110.461 728.972 110.236 729.016C110.01 729.06 109.796 729.15 109.607 729.279C109.417 729.408 109.255 729.574 109.131 729.767C108.027 730.434 106.83 730.986 105.703 731.584C99.8957 734.561 93.9195 737.196 87.805 739.475C85.2059 740.357 82.7779 741.68 80.6274 743.386C80.1673 743.8 79.8222 744.375 79.3391 744.743C78.2796 745.187 77.4347 746.027 76.9838 747.083C76.5328 748.14 76.5112 749.331 76.9235 750.403C78.3269 753.969 81.7546 752.91 84.7683 753.439C88.6463 753.015 92.3964 751.801 95.7878 749.874C95.3507 762.849 97.3752 788.177 70.114 798.185C59.2555 801.704 50.7666 796.896 44.026 788.476C39.0322 781.98 35.4842 774.492 33.6194 766.513C31.7547 758.535 31.6163 750.249 33.2136 742.213C33.3726 741.64 33.3032 741.027 33.0201 740.504C32.737 739.98 32.2621 739.587 31.6952 739.406C29.3947 738.739 28.7275 741.477 27.9224 743.11C26.9791 745.411 25.9439 747.872 25.0007 750.288C21.8895 757.156 20.7734 764.762 21.78 772.235C17.5505 770.986 13.9558 768.172 11.7267 764.367C3.09969 748.884 8.04582 729.859 13.7051 714.261C15.6145 709.844 12.3938 708.809 9.31111 711.524C4.98115 715.481 1.45791 720.238 -1.06426 725.534C-2.05349 724.085 -3.13473 722.658 -4.03194 721.209C-7.64376 715.918 -7.78179 709.315 -7.3677 703.15C-6.5853 694.969 -4.16796 687.029 -0.259077 679.8C2.90026 673.63 6.89473 667.924 11.6116 662.845C11.7267 662.707 11.8187 662.569 11.9567 662.431C13.5441 684.516 34.962 703.403 57.093 707.337C71.1032 710.466 85.8496 710.443 98.7325 703.012C106.369 699.335 112.487 693.112 116.032 685.413C116.858 685.815 117.631 686.317 118.333 686.908Z" fill="white"/>
<path d="M102.023 660.269C106.624 670.184 104.738 682.975 94.6155 688.588C86.6876 693.59 77.3347 695.845 67.9984 695.007C47.7538 693.534 24.9786 678.305 26.2899 656.013C26.5194 652.722 27.4915 649.527 29.133 646.666C30.7746 643.805 33.0431 641.353 35.7681 639.495C37.11 638.74 38.5101 638.094 39.9551 637.562C39.656 638.897 39.4259 640.231 39.2189 641.588C39.0118 642.946 38.8048 644.947 38.5747 646.88C38.4126 646.429 38.0831 646.058 37.6548 645.844C37.2264 645.63 36.732 645.589 36.2742 645.729C33.0765 647.179 38.4367 654.563 39.702 656.519C47.5698 668.159 61.534 674.716 75.3371 675.383C79.9382 675.176 87.4379 675.866 91.0497 672.899C91.9034 672.208 92.5441 671.289 92.8979 670.25C93.2517 669.21 93.3041 668.091 93.0491 667.023C92.794 665.955 92.242 664.98 91.4567 664.213C90.6714 663.445 89.6849 662.915 88.6112 662.684H88.3351C89.9436 658.385 91.8025 654.183 93.9024 650.1L95.2137 651.274C98.0361 653.811 100.347 656.864 102.023 660.269Z" fill="white"/>
<path d="M593.254 604.295C597.372 607.631 600.156 612.209 603.606 616.212C598.808 619.278 593.741 621.904 588.469 624.057C576.092 628.796 562.059 630.36 549.36 626.357C542.042 623.953 534.983 620.824 528.287 617.017L529.207 615.499C532.698 610.413 537.041 605.969 542.044 602.363C542.209 602.182 542.386 602.013 542.573 601.856C546.862 604.646 551.651 606.576 556.676 607.539C568.141 609.847 580.054 608.005 590.286 602.34C590.999 603.237 592.495 603.421 593.254 604.295Z" fill="#E60046"/>
<path d="M484.117 626.197C487.821 627.92 491.079 630.47 493.641 633.651C488.423 639.023 482.917 644.107 477.147 648.88C470.043 654.686 462.599 660.064 454.855 664.984C445.964 670.482 436.745 675.43 427.248 679.799C416.78 684.57 406.023 688.681 395.041 692.107C390.44 693.518 385.839 694.829 381.238 696.041C363.432 696.478 347.811 697.214 332.789 701.769C314.384 688.15 304.722 689.646 332.421 717.873C357.91 744.26 378.431 774.006 396.835 805.822C400.516 811.85 403.737 818.268 407.533 824.226C401.186 827.596 395.404 831.935 390.394 837.086C388.611 833.278 386.637 829.562 384.482 825.952C367.09 797.011 345.649 770.923 323.403 745.594C312.636 733.54 301.41 721.531 287.491 713.088C285.352 711.754 271.848 703.886 271.664 709.062C272.947 711.104 274.494 712.969 276.265 714.606C281.004 718.885 285.628 723.302 290.068 727.811C275.529 739.981 259.034 752.243 239.985 751.001C237.935 749.87 235.777 748.946 233.544 748.24C229.659 747.013 225.658 746.188 221.604 745.778C213.161 742.144 204.971 737.773 196.114 735.196C208.192 735.932 220.799 734.483 230.806 727.121C237.743 722.177 243.289 715.53 246.91 707.82C251.005 699.561 248.014 688.035 238.651 685.183C236.351 684.792 234.878 682.997 232.693 682.56C232.281 682.456 231.846 682.481 231.449 682.632C231.052 682.783 230.71 683.053 230.472 683.405C230.233 683.756 230.108 684.173 230.115 684.598C230.121 685.023 230.258 685.436 230.507 685.781C231.313 686.701 232.095 687.621 232.946 688.472C233.286 689.347 233.525 690.258 233.659 691.187L232.026 690.681C226.09 688.886 220.247 686.862 214.45 684.653C204.646 680.812 195.089 676.372 185.831 671.356C177.499 666.788 169.448 661.726 161.722 656.196C154.9 651.218 148.378 645.84 142.19 640.092C137.219 635.379 132.504 630.402 128.065 625.185C129.139 624.909 130.22 624.656 131.309 624.426C133.977 623.897 137.704 624.127 140.511 623.045C149.529 622.378 158.478 620.377 167.542 621.642C170.701 622.082 173.793 622.916 176.744 624.127C181.192 626.253 185.403 628.844 189.305 631.856C193.078 634.847 196.644 638.114 200.232 641.335C205.915 646.396 211.908 651.098 218.177 655.414C224.479 659.912 231.368 663.527 238.651 666.157C245.8 669.021 253.369 670.699 261.058 671.126C264.819 671.186 268.576 670.839 272.262 670.091C277.985 669.104 283.485 667.102 288.504 664.179C304.791 654.494 320.55 641.657 340.772 645.775C348.363 647.5 355.311 651.158 362.557 653.872C369.7 656.788 377.182 658.79 384.827 659.831C390.519 660.29 396.245 659.602 401.666 657.806C413.997 652.676 423.498 642.577 434.564 635.33C440.783 631.211 447.451 627.815 454.44 625.208C458.509 623.959 462.709 623.187 466.955 622.907C470.773 622.692 474.603 622.986 478.343 623.782C480.319 624.458 482.248 625.265 484.117 626.197Z" fill="#FFF2F7"/>
<path d="M371.092 714.86C370.77 723.694 371.414 732.528 371.76 741.362C364.587 732.151 356.818 723.421 348.501 715.228C348.378 714.866 348.216 714.519 348.018 714.193C348.704 713.574 349.48 713.062 350.319 712.675C353.447 712.445 356.553 712.168 359.659 711.823C361.203 711.818 362.744 711.964 364.26 712.26C365.965 712.602 367.63 713.119 369.229 713.802C369.919 714.147 370.517 714.492 371.092 714.86Z" fill="#FFF1FA"/>
<path d="M251.465 666.388C246.441 665.339 241.532 663.797 236.81 661.787C232.809 660.225 228.958 658.299 225.308 656.035C215.53 650.008 207.226 642.025 198.806 634.249C194.758 630.383 190.334 626.931 185.601 623.943C181.634 621.211 177.196 619.237 172.511 618.123C162.825 615.822 152.726 617.479 143.064 619.181L141.546 619.48C139.68 617.906 137.487 616.767 135.127 616.144C126.224 613.66 116.723 615.661 108.211 618.813C104.457 620.31 100.89 622.24 97.5825 624.564C97.8356 624.311 98.0887 624.035 98.3187 623.759C99.9291 621.85 101.447 619.917 102.92 617.939C102.69 616.88 102.46 615.822 102.207 614.764C101.539 611.957 100.757 609.197 99.9061 606.436C99.9061 606.091 99.653 605.746 99.538 605.378C98.7558 603.077 97.8126 601.03 96.8464 598.89C95.8802 596.751 94.5459 594.519 93.0505 592.403C92.3604 591.437 91.6702 590.47 90.957 589.527C97.1428 586.027 103.991 583.857 111.064 583.155C124.176 581.963 137.381 584.025 149.505 589.159C149.964 589.296 150.453 589.295 150.911 589.156C151.37 589.017 151.777 588.746 152.082 588.377C152.306 588.092 152.465 587.761 152.548 587.407C152.631 587.054 152.635 586.686 152.56 586.331C152.486 585.976 152.334 585.641 152.117 585.351C151.899 585.06 151.62 584.821 151.3 584.65C148.077 581.225 144.153 578.533 139.797 576.759C124.959 570.318 111.133 568.938 98.5258 571.767C96.9559 566.474 95.681 561.098 94.7069 555.664C92.7226 544.155 92.3124 532.43 93.4876 520.811C94.108 515.044 95.076 509.321 96.3863 503.672C97.8596 497.684 99.6958 491.791 101.885 486.027C104.209 480.17 106.875 474.455 109.867 468.911C113.113 463.026 116.708 457.341 120.634 451.887C124.902 446.089 129.511 440.551 134.437 435.3C140.043 429.375 146.005 423.798 152.289 418.598C159.156 413.005 166.346 407.819 173.822 403.07C182.397 397.719 191.294 392.902 200.462 388.645C210.539 384.052 220.888 380.08 231.45 376.752C243.262 373.108 255.295 370.227 267.476 368.125C274.991 366.882 282.552 365.924 290.16 365.249L294.116 365.962C292.046 369.528 288.618 372.634 286.893 376.315C286.658 376.77 286.451 377.238 286.272 377.718L285.627 377.373C285.431 377.279 285.217 377.226 284.999 377.218C284.781 377.211 284.564 377.248 284.361 377.328C284.158 377.407 283.974 377.528 283.82 377.683C283.665 377.837 283.545 378.021 283.465 378.224C283.287 379.562 283.4 380.924 283.797 382.214C284.194 383.505 284.866 384.694 285.766 385.701C286.155 386.616 286.782 387.411 287.583 388.001C287.812 388.128 288.05 388.235 288.296 388.323C292.151 391.585 296.44 394.295 301.041 396.375C311.337 401.348 322.558 404.114 333.985 404.496C342.545 404.547 351.069 403.362 359.29 400.976C364.254 399.41 369.005 397.238 373.439 394.512C375.213 393.339 376.568 391.63 377.303 389.635C377.625 388.721 377.688 387.735 377.484 386.788C377.28 385.841 376.817 384.968 376.148 384.268C375.478 383.567 374.628 383.066 373.691 382.819C372.754 382.573 371.767 382.591 370.839 382.871C369.505 380.409 367.848 378.109 366.468 375.67C366.049 375.052 365.76 374.356 365.617 373.623C365.375 371.938 365.533 370.22 366.077 368.608L369.39 369.229C371.552 369.643 373.692 370.057 375.831 370.517L379.305 371.299C380.11 371.483 380.961 371.713 381.789 371.875H382.227C393.557 374.631 404.705 378.088 415.607 382.227C417.908 383.124 420.208 384.021 422.348 384.965C422.073 385.236 421.781 385.49 421.474 385.724C419.77 387.035 417.897 388.11 415.906 388.921C414.364 389.588 412.781 390.157 411.167 390.624C407.562 393.551 403.799 396.277 399.895 398.791C392.587 403.611 384.988 407.975 377.142 411.858C369.081 415.637 360.666 418.611 352.021 420.738C343.377 422.969 334.568 424.508 325.68 425.339C316.938 426.213 308.127 426.466 299.362 426.512C288.986 426.512 278.657 426.65 268.236 427.133L265.107 427.363L267.407 427.202C264.118 427.501 260.874 427.869 257.607 428.283C254.34 428.698 251.189 429.342 247.991 429.94C245.529 430.446 243.091 430.998 240.652 431.596C238.214 432.194 236.051 432.884 233.751 433.644C231.45 434.403 228.505 435.783 225.929 436.979C221.167 439.487 216.52 442.156 211.988 445.054C209.503 446.826 207.111 448.666 204.764 450.598C202.187 452.899 199.749 455.453 197.379 458.052C195.884 459.87 194.458 461.71 193.1 463.596C192.295 464.862 191.49 466.127 190.8 467.415C190.11 468.704 189.466 469.716 188.844 471.05C187.832 473.19 186.82 475.329 185.9 477.515C184.98 479.7 184.243 481.633 183.484 483.726C182.104 487.913 180.954 492.146 179.941 496.448C179.389 499.301 178.883 502.153 178.469 505.029C178.055 507.905 177.687 511.194 177.411 514.231C177.411 516.762 177.227 519.315 177.227 521.846C177.227 524.376 177.342 527.022 177.48 529.622C177.733 533.026 178.009 536.523 178.423 539.836C178.837 543.149 179.389 546.968 180.079 550.51C180.77 554.053 181.759 557.412 182.725 560.84C183.691 564.267 184.726 567.143 185.785 570.272C187.832 575.954 190.041 581.521 192.686 586.997C193.721 588.975 194.78 590.931 195.93 592.863C197.08 594.795 198.231 596.705 199.542 598.591C201.658 601.582 203.775 604.573 205.983 607.471C208.192 610.37 210.814 613.66 213.345 616.673C215.323 618.974 217.348 621.044 219.464 623.115C222.179 625.738 224.94 628.306 227.746 630.822C230.369 633.122 232.991 635.423 235.706 637.723C238.421 640.024 241.618 642.623 244.517 645.131C246.45 645.775 248.382 646.442 250.337 647.04C252.845 647.823 255.399 648.536 257.952 649.226C260.506 649.916 262.852 650.422 265.314 650.974L272.399 652.516C276.471 653.321 280.52 654.057 284.615 654.678C287.928 655.184 291.241 655.552 294.577 655.874C289.756 659.154 284.669 662.024 279.37 664.455C273.948 666.562 268.186 667.662 262.369 667.699C258.703 667.578 255.055 667.139 251.465 666.388Z" fill="#BA143B"/>
<path d="M70.5521 663.304C62.5362 662.528 54.8416 659.76 48.168 655.252C48.9047 654.1 49.4414 652.833 49.7553 651.502C51.2967 646.901 52.815 642.3 54.5174 637.699C56.6339 637.699 58.7504 637.699 60.8669 637.699C65.6456 637.873 70.4305 637.665 75.1761 637.078C80.3443 635.819 85.3088 633.836 89.9225 631.188C81.4566 639.723 77.0396 651.663 74.693 663.396C73.3125 663.48 71.9275 663.449 70.5521 663.304Z" fill="#BA143B"/>
<path d="M549.268 626.382C541.95 623.978 534.891 620.849 528.195 617.042C531.942 611.12 536.792 605.973 542.482 601.882C546.77 604.671 551.559 606.601 556.584 607.564L558.447 607.886C559.459 612.947 560.127 619.642 564.107 623.254C566.729 625.692 569.605 627.096 572.849 624.772C580.588 619.796 586.229 612.149 588.699 603.285C589.251 603.009 589.78 602.71 590.309 602.411C591 603.239 592.495 603.423 593.254 604.297C597.372 607.633 600.156 612.211 603.607 616.214C587.802 626.497 567.741 632.088 549.268 626.382Z" fill="#BA143B"/>
<path d="M384.597 825.814C367.205 796.873 345.764 770.785 323.518 745.456C312.751 733.402 301.525 721.393 287.606 712.95C285.467 711.616 271.963 703.748 271.779 708.924C273.062 710.966 274.609 712.831 276.38 714.468C281.119 718.747 285.743 723.164 290.183 727.673C275.644 739.843 259.149 752.105 240.101 750.863C238.048 749.736 235.89 748.812 233.659 748.102C229.774 746.875 225.773 746.05 221.719 745.64C218.084 744.076 214.519 742.397 210.907 740.74C214.657 740.487 218.407 740.303 222.156 740.073C225.032 739.866 227.908 739.613 230.76 739.268C233.613 738.923 236.144 738.486 238.812 737.98C240.745 737.543 242.631 737.036 244.541 736.438C246.45 735.84 247.738 735.196 249.303 734.483L253.121 732.458C254.456 731.722 255.744 730.94 257.009 730.158C257.7 729.652 258.367 729.123 259.034 728.593L260.115 727.512C260.483 727.075 260.805 726.615 261.15 726.155C261.495 725.695 261.61 725.419 261.817 725.051C262.025 724.683 261.956 724.706 262.048 724.522L262.186 723.992V723.463C262.186 722.842 262.186 722.221 262.186 721.623L261.541 721.255C260.966 721.002 260.391 720.749 259.816 720.542C256.917 719.621 253.95 718.908 250.959 718.241L246.358 717.16C245.599 716.976 244.84 716.769 244.057 716.539C243.275 716.309 242.746 716.171 242.079 715.941C243.985 713.396 245.605 710.65 246.91 707.751C251.005 699.492 248.014 687.966 238.651 685.114C236.351 684.722 234.878 682.928 232.693 682.491C232.281 682.387 231.846 682.412 231.449 682.563C231.052 682.714 230.71 682.984 230.472 683.336C230.233 683.687 230.108 684.104 230.115 684.529C230.121 684.954 230.258 685.367 230.507 685.712C231.313 686.632 232.095 687.552 232.946 688.403C233.286 689.278 233.525 690.189 233.659 691.118L232.026 690.612C226.09 688.817 220.247 686.793 214.45 684.584C204.648 680.766 195.091 676.348 185.831 671.356C177.499 666.788 169.448 661.726 161.722 656.196C154.9 651.218 148.378 645.84 142.19 640.092C137.219 635.379 132.504 630.402 128.065 625.185C129.139 624.909 130.22 624.656 131.309 624.426C133.977 623.897 137.704 624.127 140.511 623.045C149.529 622.378 158.478 620.377 167.542 621.642C170.701 622.082 173.793 622.916 176.744 624.127C181.192 626.253 185.403 628.844 189.305 631.856C193.078 634.847 196.644 638.114 200.232 641.335C205.915 646.396 211.908 651.098 218.177 655.414C224.479 659.912 231.368 663.527 238.651 666.157C245.8 669.021 253.369 670.699 261.058 671.126C264.819 671.186 268.576 670.839 272.262 670.091C277.985 669.104 283.485 667.102 288.504 664.179C294.048 660.889 299.523 657.277 305.113 654.01C307.397 653.656 309.719 653.61 312.015 653.872C316.431 654.433 320.764 655.522 324.921 657.116C328.257 658.335 331.523 659.693 334.813 661.05C337.643 662.223 340.495 663.351 343.371 664.34C348.554 666.094 353.831 667.561 359.176 668.734H359.59L358.762 668.573L360.257 668.872H360.073L360.786 669.01L362.189 669.286C365.41 669.838 368.631 670.436 371.898 670.804C375.164 671.172 378.362 671.471 381.606 671.748C387.518 672.047 393.431 672.254 399.366 672.185C405.738 672.185 412.065 671.863 418.414 671.494H419.864H420.002H420.623H421.75L434.288 670.62C438.475 670.344 442.662 670.16 446.872 669.93C440.492 673.565 433.989 676.908 427.363 679.96C416.895 684.731 406.138 688.842 395.156 692.268C390.555 693.679 385.954 694.99 381.353 696.202C363.547 696.639 347.926 697.375 332.904 701.93C315.121 688.702 305.297 689.738 330.258 715.734C330.258 716.355 330.074 716.976 329.982 717.62C329.89 718.264 329.982 719.092 329.982 719.92C330.143 721.738 330.396 723.532 330.718 725.327C331.04 727.121 331.707 729.399 332.306 731.423C332.904 733.448 333.732 735.012 334.606 736.783C335.48 738.555 336.216 739.797 337.091 741.384C337.965 742.972 338.908 744.536 339.897 745.985C343.578 751.277 347.765 756.2 351.86 761.192C356.3 766.598 360.648 772.05 364.697 777.756C372.795 789.258 380.041 801.083 387.702 812.678C391.266 817.938 395.106 823.006 399.205 827.861L400.194 828.942C396.69 831.443 393.41 834.245 390.394 837.316C388.659 833.385 386.724 829.546 384.597 825.814Z" fill="#E8CFD0"/>
<path d="M360.762 669.056L359.06 668.711L360.808 669.079L360.762 669.056Z" fill="#E7CDDC"/>
<path d="M325.887 665.767L325.174 665.422L325.956 665.813L325.887 665.767Z" fill="#E7CDDC"/>
<path d="M348.501 715.229C348.378 714.868 348.216 714.521 348.018 714.194C348.704 713.575 349.48 713.064 350.319 712.676C353.447 712.446 356.553 712.17 359.659 711.825C363.643 711.744 367.568 712.797 370.977 714.861C370.655 723.695 371.299 732.529 371.644 741.363C364.509 732.156 356.778 723.426 348.501 715.229Z" fill="#E8CFD0"/>
<path d="M87.5981 674.992L87.207 674.601C94.2466 673.382 95.4889 664.502 88.2653 662.615C89.8738 658.315 91.7327 654.114 93.8325 650.031C102.229 656.726 106.669 668.021 103.173 678.282C100.532 679.27 97.6652 679.485 94.9069 678.902C92.1487 678.319 89.6135 676.963 87.5981 674.992Z" fill="#E0D5D5"/>
<path d="M31.6501 657.555C29.7033 657.308 27.8676 656.51 26.3589 655.255C26.6974 652.114 27.7142 649.085 29.3388 646.376C30.9634 643.667 33.157 641.343 35.768 639.565C37.1099 638.81 38.51 638.164 39.955 637.633C39.6559 638.967 39.4259 640.301 39.2188 641.659C39.0118 643.016 38.8047 645.018 38.5747 646.95C38.4078 646.502 38.0788 646.133 37.6528 645.915C37.2269 645.698 36.7349 645.649 36.2742 645.777C33.0304 647.341 38.5747 654.795 39.886 656.842C37.2248 657.674 34.4146 657.917 31.6501 657.555Z" fill="#E0D5D5"/>
<path d="M58.7271 798.851C60.6135 790.546 63.006 782.356 65.3756 774.189C67.7873 765.41 71.0704 756.894 75.1758 748.768C79.1097 741.246 84.93 734.965 93.2579 732.412C95.3649 732.061 97.4007 731.369 99.2853 730.364C101.783 723.544 104.991 717.005 108.855 710.856C112.835 704.092 120.726 697.214 128.916 701.148C133.126 714.076 128.019 728.018 118.932 737.565C114.515 741.821 109.914 745.916 105.129 749.873C104.899 749.274 104.646 748.676 104.369 748.101C103.84 747.112 103.288 745.962 102.621 744.903C106.67 741.283 109.82 736.77 111.823 731.721C111.992 731.518 112.112 731.279 112.175 731.022C112.237 730.765 112.239 730.498 112.181 730.24C112.123 729.982 112.007 729.741 111.841 729.535C111.675 729.329 111.465 729.164 111.225 729.053C110.838 728.877 110.398 728.853 109.994 728.985C109.589 729.117 109.249 729.396 109.04 729.766C107.935 730.433 106.739 730.985 105.612 731.583C99.8044 734.56 93.8282 737.195 87.7137 739.474C85.1145 740.356 82.6865 741.679 80.536 743.385C80.0759 743.799 79.7308 744.374 79.2477 744.742C78.2087 745.208 77.3882 746.055 76.9558 747.108C76.5233 748.161 76.512 749.34 76.9242 750.402C78.3505 753.968 81.7783 752.909 84.792 753.438C88.6699 753.014 92.42 751.8 95.8115 749.873C95.3744 762.848 97.3989 788.176 70.1147 798.184C66.454 799.457 62.5114 799.688 58.7271 798.851Z" fill="#E0D5D5"/>
<path d="M11.7497 764.367C9.70066 760.648 8.31499 756.6 7.65479 752.405C8.22992 750.633 8.87406 748.862 9.58722 747.159C10.1802 745.728 10.896 744.35 11.7267 743.041C12.7195 741.39 13.8839 739.847 15.2005 738.44C16.1988 737.443 17.2759 736.527 18.4212 735.703C19.4689 734.895 20.6425 734.265 21.895 733.839C22.9352 733.376 24.0686 733.16 25.2062 733.209C26.3439 733.258 27.4547 733.57 28.4513 734.12C29.4479 734.671 30.3033 735.446 30.95 736.383C31.5967 737.32 32.0172 738.394 32.1784 739.522L31.7183 739.315C29.4178 738.647 28.7506 741.385 27.9454 743.018C27.0022 745.319 25.967 747.78 25.0238 750.196C21.9126 757.065 20.7965 764.67 21.803 772.143C17.5888 770.916 13.9964 768.138 11.7497 764.367Z" fill="#E0D5D5"/>
<path d="M32.4315 746.951C32.4315 748.078 32.2474 749.252 32.1554 750.31C32.1554 751.069 32.1554 751.805 32.1554 752.611C32.1403 750.72 32.2324 748.831 32.4315 746.951Z" fill="#E0D5D5"/>
<path d="M11.4968 720.843C11.4838 721.011 11.4838 721.18 11.4968 721.349C10.5766 727.031 9.03521 732.552 7.60889 738.12C8.35651 732.251 9.65829 726.466 11.4968 720.843Z" fill="#E0D5D5"/>
<path d="M-4.00795 721.211C-6.54878 717.072 -7.76852 712.258 -7.50475 707.408C-6.37531 705.666 -4.97778 704.113 -3.36381 702.807C-0.0280431 700.507 4.43498 697.746 8.57592 699.425C13.177 701.45 13.177 705.706 12.8549 709.962C12.1986 709.953 11.5474 710.079 10.9419 710.332C10.3364 710.585 9.78944 710.96 9.33509 711.434C5.00513 715.391 1.4819 720.149 -1.04028 725.444C-2.0295 724.087 -3.11075 722.661 -4.00795 721.211Z" fill="#E0D5D5"/>
<path d="M657.025 580.784C651.342 580.6 646.074 578.483 640.714 576.873C639.15 576.712 637.585 577.149 635.998 577.057C634.459 577.058 632.922 576.958 631.397 576.758C630.477 575.7 629.901 574.25 628.613 573.56C627.325 572.87 626.313 574.365 626.106 575.723C624.564 575.332 623.046 574.895 621.505 574.365C619.172 572.916 616.678 571.742 614.074 570.869C606.114 565.739 599.443 557.756 598.292 548.116C597.436 542.017 598.497 535.803 601.329 530.333C603.907 525.954 607.874 522.561 612.6 520.693C617.327 518.826 622.542 518.592 627.417 520.027C637.562 522.65 643.245 533.554 635.791 542.112C630.051 541.809 624.368 540.828 618.859 539.19C617.152 538.431 615.499 537.555 613.913 536.568C613.224 536.046 612.375 535.78 611.511 535.816C610.647 535.851 609.823 536.185 609.179 536.762C608.534 537.338 608.111 538.12 607.98 538.974C607.849 539.829 608.019 540.702 608.461 541.445C610.195 543.748 612.161 545.868 614.327 547.771C618.501 551.837 623.73 554.654 629.422 555.902C635.114 557.15 641.042 556.78 646.534 554.834C652.286 576.712 687.76 576.689 693.741 554.834C694.109 553.293 695.213 549.934 692.338 551.866C689.031 553.684 685.556 555.179 681.962 556.329C675.636 558.423 667.423 558.883 662.155 554.144C660.602 551.767 659.218 549.284 658.014 546.713C660.593 543.512 662.234 539.657 662.753 535.579C663.006 534.058 663.137 532.519 663.144 530.978C669.719 529.067 676.774 529.725 682.883 532.818C685.912 534.106 688.63 536.03 690.853 538.459C693.075 540.888 694.751 543.765 695.766 546.897C702.828 569.557 675.889 582.003 657.025 580.784Z" fill="#E0D5D5"/>
<path d="M651.78 505.374C649.072 502.84 645.962 500.772 642.578 499.254C644.556 496.241 646.258 493.526 648.145 491.134C653.642 490.648 659.141 492.043 663.742 495.091C665.093 496.104 666.3 497.296 667.331 498.633C668.329 500.083 669.575 501.345 671.012 502.36C668.031 503.738 665.208 505.435 662.592 507.421C660.936 508.618 658.865 510.044 656.933 511.631C655.412 509.391 653.687 507.296 651.78 505.374Z" fill="#E0D5D5"/>
<path d="M608.346 494.217C609.233 491.189 610.428 488.26 611.911 485.475C618.698 481.081 628.452 481.104 636.182 482.668C634.501 484.818 632.964 487.078 631.581 489.432C630.448 491.309 629.566 493.328 628.958 495.436C622.837 494.673 616.637 494.805 610.554 495.827C609.672 495.526 608.902 494.965 608.346 494.217Z" fill="#E0D5D5"/>
<path d="M617.226 602.502C615.967 598.949 615.473 595.17 615.777 591.413C615.896 590.089 616.281 588.802 616.91 587.63C617.538 586.458 618.398 585.426 619.435 584.594C620.473 583.763 621.668 583.149 622.949 582.791C624.23 582.433 625.57 582.338 626.888 582.51C628.32 587.258 630.665 591.681 633.79 595.531C636.731 598.947 640.48 601.572 644.694 603.169C641.773 605.861 638.23 606.344 633.606 606.39C627.958 606.079 622.411 604.762 617.226 602.502Z" fill="#E0D5D5"/>
<path d="M228.575 778.309C228.261 777.328 227.649 776.469 226.825 775.85C226 775.232 225.004 774.885 223.974 774.858C223.254 774.865 222.544 775.032 221.895 775.346C221.247 775.661 220.676 776.115 220.224 776.676C214.772 773.731 205.478 771.246 204.121 764.299C213.438 756.96 229.979 759.698 238.352 767.428C241.176 770.295 243.833 773.321 246.312 776.492C242.585 776.906 238.859 777.274 235.132 777.596C232.955 777.789 230.795 778.135 228.667 778.631C228.759 778.516 228.621 778.424 228.575 778.309Z" fill="#278235"/>
<path d="M322.551 389.863C315.043 388.726 307.672 386.814 300.558 384.158C301.293 383.364 301.906 382.465 302.375 381.49C305.607 376.438 308.255 371.036 310.266 365.386C314.729 351.767 307.758 339.068 296.785 331.131C293.138 327.129 288.66 323.972 283.665 321.882C278.67 319.791 273.278 318.818 267.867 319.03C256.158 319.191 243.528 320.664 233.06 314.245C221.558 308.586 233.267 297.198 221.052 293.54C217.88 293.479 214.708 293.602 211.55 293.909C208.095 294.237 204.622 294.353 201.152 294.254C188.131 294.07 174.305 291.769 163.17 284.637C157.672 280.681 156.982 273.526 154.129 267.89C150.425 262.552 143.041 263.657 137.589 261.586C125.488 257.882 118.931 253.189 118.195 239.823C116.608 230.759 105.45 229.954 99.1007 225.353C93.1424 221.81 84.7224 214.863 85.8957 207.662L86.1948 207.777C87.207 208.168 88.2192 208.605 89.2085 209.042C91.2559 209.939 93.3034 210.883 95.3279 211.803C99.2618 213.597 103.127 215.484 107.015 217.347C114.928 221.143 122.796 224.985 130.687 228.85C146.3 236.426 161.913 244.033 177.526 251.671C185.439 255.559 193.376 259.447 201.29 263.404C209.733 267.637 218.222 271.801 226.596 276.218C234.97 280.635 242.538 285.029 250.199 290.021C254.34 292.689 258.297 295.588 262.254 298.487C265.613 300.948 268.948 303.525 272.169 306.147C279.684 312.146 286.88 318.535 293.725 325.288C298.004 329.567 302.237 333.892 306.263 338.424C306.125 336.706 305.941 334.981 305.711 333.248C305.297 330.142 304.791 327.059 304.216 324.045C301.887 313.137 298.968 302.362 295.474 291.769C294.047 287.904 292.575 284.062 290.872 280.266C289.17 276.471 287.422 272.537 285.627 268.764C284.408 266.187 283.189 263.634 281.946 261.057C283.402 261.024 284.851 260.847 286.271 260.528C288.463 259.928 290.768 259.865 292.989 260.344C311.186 268.465 304.952 291.746 306.562 307.597C306.562 315.902 310.059 323.309 313.602 330.602C316.435 337.72 317.992 345.282 318.203 352.94C318.958 358.212 319.312 363.534 319.261 368.86C319.859 371.62 316.431 378.062 319.859 379.097C322.919 379.281 323.31 375.071 324.46 372.909L324.759 372.241C326.086 371.035 327.316 369.727 328.44 368.331C330.335 366.156 331.68 363.558 332.36 360.756C333.041 357.953 333.038 355.028 332.351 352.227C333.271 343.025 330.349 333.432 326.807 324.92C324.621 320.043 322.206 315.188 321.538 309.805C319.859 297.773 322.436 285.397 319.238 273.572C317.922 267.728 314.853 262.424 310.442 258.371C306.031 254.318 300.488 251.707 294.553 250.889C294.514 250.631 294.452 250.377 294.369 250.13C291.731 244.65 289.635 238.925 288.112 233.037C285.552 224.482 285.009 215.45 286.524 206.65C287.928 201.22 293.771 197.079 291.931 191.006C287.675 176.858 274.332 161.099 278.496 145.755C279.899 141.476 283.097 137.128 287.905 136.553C295.957 136.369 297.682 127.604 296.9 121.07C296.762 111.868 295.197 97.1216 302.996 91.6924C303.574 93.2557 304.347 94.7398 305.297 96.1094C305.619 96.6155 305.918 97.1216 306.217 97.6277C306.516 98.1339 306.424 98.801 306.539 99.3761C306.93 101.424 307.137 103.517 307.39 105.588C307.643 107.658 307.919 109.982 308.172 112.167C308.656 116.446 309.116 120.725 309.599 125.004C310.542 133.7 311.623 142.396 312.958 151.046C315.649 168.53 318.778 185.922 321.999 203.314C323.586 211.849 325.127 220.361 326.6 228.919C328.072 237.477 329.337 246.541 330.603 255.375C332.305 267.545 334.398 279.645 336.791 291.677C338.792 301.178 340.817 310.702 342.565 320.273C341.311 325.677 340.992 331.256 341.622 336.767C343.048 348.454 340.058 359.911 336.055 370.792C335.227 373.484 334.03 376.037 333.34 378.752C333.261 378.936 333.223 379.136 333.229 379.337C333.234 379.537 333.284 379.735 333.374 379.914C333.464 380.094 333.592 380.252 333.749 380.377C333.906 380.502 334.088 380.591 334.283 380.638C335.94 380.822 339.23 376.198 341.185 374.197C349.789 364.558 355.954 352.779 355.425 339.551C355.425 333.432 354.574 326.99 356.668 321.147C359.474 317.443 363.569 314.935 366.974 311.945C368.331 310.748 369.688 309.644 371.023 308.333C374.405 307.045 381.628 299.131 383.676 297.497C394.304 287.329 404.725 276.931 416.182 267.591C422.328 262.631 428.749 258.022 435.415 253.787C432.194 257.675 429.042 261.609 425.913 265.589C420.553 272.491 415.308 279.392 410.362 286.501L409.603 287.605C405.002 294.668 400.401 301.868 396.053 309.184C391.705 316.5 387.679 324.045 383.722 331.614C383.032 332.925 382.364 334.237 381.697 335.548C375.128 337.297 369.106 340.676 364.19 345.371C360.94 348.513 358.173 352.118 355.977 356.069C351.123 364.075 348.57 374.91 354.091 383.215C354.62 384.089 355.172 384.963 355.747 385.792C355.195 386.666 354.62 387.517 354.045 388.368L351.399 388.92C345.454 390.185 339.396 390.848 333.317 390.899C329.706 390.85 326.105 390.504 322.551 389.863Z" fill="#278235"/>
<path d="M374.727 277.692L376.591 274.839C378.178 280.452 375.279 285.674 372.542 290.436C368.917 296.519 364.02 301.745 358.187 305.758C363.363 296.234 368.861 286.848 374.727 277.692Z" fill="#278235"/>
<path d="M388.714 266.717C388.767 265.093 388.998 263.481 389.405 261.908C391.958 259.125 394.719 256.525 397.249 253.719C400.631 250.291 403.898 246.817 407.165 243.159C422.371 225.307 424.096 237.937 434.357 228.137C436.393 225.494 438.216 222.694 439.809 219.763C446.959 206.137 457.875 194.853 471.257 187.256C474.011 185.63 476.987 184.413 480.091 183.645C482.437 183.976 484.556 185.221 485.987 187.109C487.417 188.996 488.044 191.373 487.729 193.721C486.832 199.702 482.783 204.556 478.849 208.904C467.116 221.051 453.888 231.726 442.915 244.654C424.898 255.088 407.535 266.612 390.923 279.162C391.448 274.886 390.679 270.551 388.714 266.717Z" fill="#278235"/>
<path d="M437.739 291.954C437.56 291.72 437.434 291.449 437.37 291.162C437.305 290.874 437.303 290.576 437.364 290.288C437.426 289.999 437.548 289.728 437.724 289.491C437.9 289.255 438.125 289.059 438.383 288.917C440.016 287.353 441.627 285.719 443.352 284.316C448.897 279.232 454.533 274.194 459.686 268.673C462.447 265.383 464.977 261.771 467.439 258.343C471.695 250.752 476.894 243.068 485.153 239.456C486.418 238.812 487.89 238.766 489.202 238.237C490.835 237.316 492.376 236.258 493.803 235.223C495.526 234.217 497.544 233.842 499.514 234.16C501.483 234.479 503.28 235.472 504.598 236.969C505.916 238.466 506.673 240.375 506.739 242.369C506.805 244.363 506.176 246.318 504.96 247.899C503.155 249.595 501.208 251.135 499.14 252.5C498.381 253.328 497.921 254.363 497.231 255.238C496.23 256.472 495.087 257.584 493.826 258.55C489.394 261.846 484.629 264.669 479.609 266.97C473.512 270.398 467.738 274.447 461.894 278.335H462.01L460.215 279.554L460.652 279.255L456.051 282.407H456.166C451.105 285.904 445.883 289.17 440.661 292.437C440.439 292.603 440.187 292.723 439.918 292.789C439.649 292.855 439.37 292.865 439.096 292.82C438.823 292.775 438.562 292.675 438.329 292.526C438.096 292.377 437.895 292.183 437.739 291.954Z" fill="#57DE6B"/>
<path d="M359.889 208.307C359.004 203.972 357.789 199.711 356.254 195.562C355.449 194.067 354.23 192.801 353.447 191.283C350.526 186.521 350.135 180.908 349.905 175.455V176.376C349.375 171.452 350.296 166.368 348.731 161.583C348.087 159.858 347.374 158.155 346.615 156.453C346.132 155.717 345.856 154.682 345.05 154.152C344.771 154.001 344.524 153.797 344.324 153.55C344.123 153.304 343.973 153.02 343.883 152.716C343.699 152.101 343.768 151.439 344.073 150.874C344.378 150.31 344.895 149.89 345.509 149.706C346.124 149.523 346.787 149.591 347.351 149.896C353.24 152.634 357.358 157.948 361.499 162.71C364.595 165.837 367.278 169.347 369.482 173.155C373.117 180.056 373.37 183.829 372.703 191.306C373.385 195.564 374.306 199.781 375.463 203.936C376.011 206.032 375.722 208.26 374.658 210.147C373.858 211.515 372.675 212.617 371.254 213.319C369.834 214.021 368.239 214.29 366.667 214.094C365.095 213.898 363.615 213.246 362.41 212.217C361.205 211.188 360.329 209.829 359.889 208.307Z" fill="#57DE6B"/>
<path d="M224.157 225.882C218.843 223.582 213.667 220.959 208.215 218.981C204.1 218.07 200.113 216.656 196.344 214.771C193.054 212.953 190.041 210.676 186.958 208.559C182.84 205.937 178.745 203.245 174.466 200.876C171.005 199.276 167.448 197.893 163.815 196.735C163.334 196.634 162.902 196.371 162.592 195.99C162.282 195.609 162.113 195.133 162.112 194.641C162.112 192.732 164.206 192.157 165.701 191.812C169.492 191.104 173.359 190.895 177.204 191.19C179.803 191.19 182.403 191.19 185.026 191.375C189.77 191.726 194.473 192.496 199.082 193.675C203.166 194.598 207.059 196.225 210.584 198.483C212.126 199.495 213.575 200.646 215.185 201.727C220.26 204.772 225.568 207.411 231.059 209.618C232.127 210.071 233.095 210.73 233.908 211.557C234.722 212.385 235.364 213.364 235.799 214.44C236.234 215.515 236.452 216.666 236.442 217.826C236.432 218.986 236.194 220.133 235.741 221.201C235.287 222.269 234.628 223.237 233.801 224.05C232.974 224.864 231.994 225.506 230.919 225.941C229.843 226.375 228.692 226.594 227.532 226.584C226.372 226.574 225.225 226.336 224.157 225.882Z" fill="#57DE6B"/>
<path d="M94.6155 688.588C104.738 682.975 106.509 670.184 102.023 660.268C100.328 656.831 97.9842 653.753 95.1216 651.204L93.8103 650.031C91.7105 654.113 89.8516 658.315 88.2431 662.615H88.5191C89.5928 662.846 90.5793 663.376 91.3646 664.143C92.1499 664.911 92.702 665.886 92.957 666.954C93.212 668.022 93.1596 669.141 92.8058 670.18C92.4521 671.22 91.8113 672.138 90.9577 672.829C87.3459 675.797 79.8231 675.13 75.2451 675.314C61.4419 674.647 47.4778 668.09 39.61 656.45C38.3447 654.494 32.9844 647.109 36.1822 645.66C36.64 645.519 37.1344 645.56 37.5627 645.775C37.9911 645.989 38.3205 646.36 38.4827 646.81C38.7128 644.878 39.0578 642.991 39.1268 641.519C39.1959 640.047 39.5639 638.827 39.863 637.493C38.4181 638.025 37.018 638.671 35.6761 639.426C32.9636 641.303 30.712 643.771 29.0903 646.644C27.4686 649.517 26.519 652.72 26.3129 656.012C25.0016 678.305 47.7768 693.534 68.0214 695.006C77.35 695.84 86.694 693.585 94.6155 688.588ZM130.274 713.894C131.148 703.702 127.352 692.614 118.403 687C117.701 686.409 116.928 685.907 116.102 685.505C112.562 693.2 106.454 699.423 98.8255 703.104C85.9425 710.535 71.2192 710.558 57.186 707.429C35.0089 703.495 13.637 684.608 12.0497 662.523C11.9116 662.661 11.8196 662.799 11.7046 662.937C6.98769 668.017 2.99322 673.722 -0.166121 679.892C-4.07501 687.121 -6.49234 695.061 -7.27474 703.242C-7.68884 709.408 -7.55081 716.01 -3.93898 721.301C-3.04178 722.751 -1.96053 724.177 -0.971303 725.626C1.55087 720.331 5.0741 715.573 9.40406 711.616C12.4868 708.902 15.7075 709.937 13.7981 714.354C8.13878 730.043 3.19265 748.977 11.8196 764.459C14.0276 768.198 17.5575 770.973 21.7119 772.235C20.7054 764.762 21.8215 757.157 24.9326 750.288C25.8758 747.872 26.9111 745.503 27.8543 743.11C28.6595 741.477 29.2346 738.739 31.6271 739.406C32.2068 739.573 32.6979 739.96 32.9948 740.485C33.2917 741.01 33.3706 741.631 33.2145 742.213C31.614 750.248 31.7487 758.532 33.6094 766.511C35.4702 774.49 39.0142 781.979 44.004 788.477C50.7445 796.897 59.2334 801.705 70.0919 798.185C97.3531 788.178 95.3977 762.849 95.7658 749.874C92.3743 751.802 88.6242 753.015 84.7463 753.44C81.7326 752.911 78.3048 753.969 76.9015 750.403C76.4932 749.322 76.5246 748.124 76.989 747.066C77.4535 746.008 78.314 745.175 79.386 744.744C79.8692 744.376 80.2142 743.8 80.6743 743.386C82.8248 741.681 85.2528 740.358 87.852 739.475C93.9665 737.196 99.9427 734.561 105.75 731.585C106.9 730.987 108.051 730.434 109.178 729.767C109.302 729.574 109.464 729.408 109.653 729.279C109.843 729.15 110.057 729.061 110.282 729.016C110.508 728.972 110.74 728.974 110.964 729.022C111.189 729.069 111.401 729.162 111.589 729.294C111.777 729.426 111.936 729.594 112.057 729.79C112.178 729.985 112.258 730.202 112.293 730.429C112.328 730.656 112.316 730.887 112.259 731.11C112.202 731.332 112.101 731.541 111.961 731.723C111.155 733.797 110.129 735.779 108.902 737.635C107.152 740.335 105.064 742.802 102.69 744.974C103.358 746.032 103.91 747.274 104.439 748.172C104.715 748.747 104.968 749.345 105.198 749.943C105.557 749.693 105.903 749.424 106.233 749.138C110.466 745.319 114.86 741.638 118.932 737.635C125.26 731.174 129.251 722.787 130.274 713.802V713.894ZM264.233 820.546C259.632 820.684 255.192 820.73 250.729 820.73C248.958 820.73 247.048 820.546 245.162 820.316C244.944 821.05 244.49 821.691 243.87 822.141C243.25 822.59 242.499 822.822 241.734 822.801C235.109 822.041 226.413 814.703 223.33 808.859C221.804 805.81 220.794 802.53 220.339 799.151C218.625 794.268 217.791 789.119 217.878 783.945C217.838 782.152 218.184 780.371 218.89 778.723C218.856 778.466 218.904 778.204 219.028 777.977C219.152 777.749 219.345 777.567 219.58 777.457C220.021 776.689 220.653 776.048 221.415 775.596C222.177 775.145 223.043 774.898 223.928 774.881C224.958 774.908 225.954 775.254 226.779 775.873C227.603 776.491 228.215 777.35 228.529 778.331C228.529 778.446 228.529 778.538 228.69 778.653C230.818 778.158 232.978 777.812 235.155 777.618C238.881 777.296 242.608 776.928 246.335 776.514C243.85 773.349 241.192 770.323 238.375 767.45C232.371 761.768 223.721 759.927 215.669 760.088C206.467 760.479 198.714 767.473 195.425 775.824C189.604 791.053 196.506 808.031 205.961 820.27C213.852 829.472 223.629 834.832 235.868 834.303C248.107 833.774 256.872 830.093 264.233 820.454V820.546ZM316.317 761.33C317.145 761.146 318.319 760.709 319.653 760.272C313.395 752.727 306.931 745.365 300.259 738.187L292.185 744.974C281.188 753.9 268.236 761.584 254.272 764.436C256.253 767.09 257.713 770.095 258.574 773.293C258.667 773.88 258.667 774.478 258.574 775.065C272.116 773.223 285.525 770.51 298.718 766.944C304.676 765.287 310.52 763.378 316.317 761.239V761.33ZM300.075 937.62C321.861 933.019 329.591 923.057 325.381 900.811C321.47 882.545 303.434 867.109 285.536 863.382C261.542 858.528 228.023 868.627 208.423 882.775C207.226 883.465 206.651 884.961 204.949 884.662C204.569 884.599 204.206 884.457 203.885 884.243C203.565 884.03 203.293 883.751 203.088 883.424C202.884 883.098 202.751 882.732 202.699 882.35C202.647 881.969 202.677 881.58 202.786 881.211C203.323 878.482 204.568 875.943 206.398 873.849C211.367 867.178 218.591 862.623 225.883 858.804C234.978 854.638 244.529 851.55 254.341 849.602C253.598 848.449 252.973 847.223 252.478 845.944C246.115 847.938 239.475 848.909 232.808 848.82C217.418 848.589 204.351 840.768 194.688 829.104C184.405 815.991 177.434 799.197 179.114 782.311C170.303 786.498 165.196 796.114 161.975 804.948C152.773 830.737 156.592 881.556 168.324 906.172C177.526 925.036 196.483 931.937 215.738 935.963C243.543 941.391 272.079 941.952 300.075 937.62ZM334.284 790.754C332.72 788.247 331.984 785.21 330.235 782.794C327.662 778.441 324.11 774.747 319.86 772.005C298.856 785.486 250.361 792.71 231.727 790.938H232.509C231.792 790.945 231.075 790.883 230.37 790.754C230.719 793.714 231.351 796.634 232.256 799.473C233.291 802.05 234.556 804.58 235.776 807.042H236.926C238.877 806.925 240.82 806.702 242.746 806.375C259.954 805.685 277.254 806.145 294.347 803.016C308.091 800.556 321.486 796.439 334.238 790.754H334.284ZM371.806 741.362C371.461 732.528 370.817 723.694 371.139 714.86C370.564 714.492 369.965 714.147 369.367 713.802C367.768 713.119 366.103 712.602 364.398 712.26C362.882 711.964 361.341 711.818 359.797 711.823C356.691 712.168 353.586 712.444 350.457 712.674C349.618 713.062 348.843 713.574 348.156 714.193C348.355 714.519 348.517 714.866 348.64 715.228C356.909 723.425 364.632 732.155 371.76 741.362H371.806ZM455.315 846.335C454.349 843.873 453.912 841.182 452.692 838.789C444.41 828.322 424.649 831.888 414.066 837.018C403.719 842.648 395.17 851.085 389.405 861.357C387.253 865.714 386.21 870.534 386.368 875.391C386.92 875.138 387.472 874.93 388.048 874.723C395.524 871.733 403.668 873.205 411.467 873.849C414.826 874.033 418.207 873.849 421.566 874.171C434.173 866.58 445.009 856.664 455.269 846.335H455.315ZM493.734 633.651C491.171 630.471 487.913 627.921 484.209 626.198C482.268 625.232 480.261 624.402 478.205 623.713C474.465 622.917 470.635 622.623 466.817 622.839C462.571 623.119 458.371 623.891 454.303 625.139C447.314 627.746 440.645 631.142 434.426 635.262C423.361 642.508 413.859 652.608 401.529 657.738C396.107 659.533 390.381 660.222 384.689 659.762C377.044 658.722 369.562 656.72 362.42 653.804C355.173 651.089 348.225 647.431 340.634 645.706C320.412 641.634 304.653 654.471 288.366 664.11C283.347 667.033 277.847 669.036 272.124 670.023C268.438 670.77 264.681 671.117 260.92 671.058C253.231 670.631 245.663 668.952 238.513 666.089C231.23 663.458 224.341 659.844 218.039 655.345C211.77 651.03 205.777 646.328 200.095 641.266C196.506 638.045 192.94 634.779 189.167 631.788C185.265 628.775 181.054 626.184 176.606 624.058C173.655 622.848 170.563 622.013 167.404 621.574C158.34 620.308 149.391 622.31 140.373 622.977C137.681 624.058 133.955 623.828 131.171 624.357C130.097 624.587 129.016 624.84 127.927 625.116C132.366 630.334 137.082 635.31 142.052 640.024C148.24 645.772 154.762 651.149 161.584 656.127C169.354 661.686 177.451 666.771 185.831 671.357C195.114 676.343 204.694 680.753 214.519 684.562C220.316 686.862 226.16 688.795 232.095 690.589L233.728 691.095C233.594 690.166 233.355 689.256 233.015 688.381C232.164 687.53 231.382 686.609 230.577 685.689C230.327 685.345 230.19 684.932 230.184 684.507C230.177 684.082 230.302 683.665 230.541 683.313C230.78 682.961 231.121 682.692 231.518 682.54C231.916 682.389 232.35 682.364 232.762 682.468C235.063 682.906 236.535 684.769 238.72 685.091C248.084 687.944 251.074 699.469 246.979 707.728C243.358 715.438 237.812 722.085 230.876 727.03C220.868 734.391 208.261 735.841 196.184 735.104C205.041 737.681 213.231 742.006 221.674 745.687C225.727 746.096 229.728 746.921 233.613 748.149C235.846 748.854 238.004 749.779 240.055 750.909C259.103 752.151 275.598 739.89 290.137 727.72C285.536 723.119 280.935 718.794 276.334 714.515C274.563 712.877 273.016 711.013 271.733 708.971C271.917 703.748 285.536 711.662 287.561 712.996C301.364 721.439 312.705 733.448 323.472 745.503C345.718 770.809 367.182 796.92 384.551 825.86C386.707 829.47 388.68 833.187 390.463 836.995C395.473 831.843 401.255 827.505 407.602 824.135C403.714 818.246 400.7 811.827 396.905 805.731C378.5 773.914 358.026 744.169 332.49 717.782C304.884 689.577 314.546 688.082 332.858 701.678C347.88 697.077 363.501 696.387 381.307 695.95C385.908 694.738 390.509 693.427 395.11 692.016C406.092 688.589 416.849 684.478 427.317 679.708C436.814 675.338 446.033 670.391 454.924 664.892C462.668 659.972 470.112 654.595 477.216 648.789C482.976 644.044 488.475 638.991 493.688 633.651H493.734ZM536.546 545.817C537.051 540.134 537.212 534.427 537.03 528.724C536.644 516.97 534.663 505.322 531.14 494.101C529.3 488.285 527.11 482.585 524.584 477.032C521.8 471.126 518.673 465.388 515.221 459.847C512.235 455.08 509.002 450.473 505.535 446.043L504.04 444.157L503.603 443.605L502.683 442.501C498.166 437.098 493.342 431.959 488.235 427.11L487.66 426.558C487.476 426.42 487.315 426.236 487.131 426.075C481.113 420.521 474.784 415.313 468.175 410.477C460.486 404.97 452.474 399.931 444.18 395.386C434.884 390.406 425.296 385.988 415.47 382.158C404.568 378.019 393.42 374.562 382.089 371.806H381.652C380.824 371.644 379.973 371.414 379.167 371.23L375.694 370.448C373.554 369.988 371.415 369.574 369.252 369.16L365.939 368.539C365.395 370.151 365.238 371.869 365.479 373.554C365.622 374.287 365.912 374.983 366.331 375.601C367.711 378.04 369.367 380.34 370.702 382.802C371.629 382.522 372.616 382.504 373.553 382.75C374.49 382.997 375.341 383.498 376.011 384.199C376.68 384.899 377.142 385.772 377.346 386.719C377.55 387.666 377.488 388.652 377.166 389.566C376.43 391.561 375.076 393.27 373.301 394.443C368.864 397.168 364.113 399.346 359.153 400.93C350.928 403.297 342.406 404.474 333.847 404.427C322.421 404.084 311.192 401.357 300.881 396.421C296.28 394.341 291.99 391.631 288.136 388.369C287.89 388.281 287.651 388.174 287.423 388.047C286.622 387.457 285.995 386.662 285.605 385.747C284.705 384.74 284.034 383.551 283.637 382.26C283.24 380.97 283.126 379.608 283.305 378.27C283.384 378.067 283.505 377.883 283.659 377.728C283.813 377.574 283.998 377.453 284.201 377.374C284.403 377.294 284.621 377.257 284.839 377.264C285.056 377.272 285.27 377.325 285.467 377.419L286.111 377.764C286.29 377.284 286.498 376.816 286.732 376.361C288.619 372.312 292.599 368.976 294.531 364.858C285.329 365.525 276.334 366.629 267.316 368.102C255.137 370.215 243.105 373.096 231.29 376.729C220.727 380.057 210.379 384.029 200.302 388.622C191.138 392.888 182.242 397.704 173.662 403.047C166.186 407.796 158.996 412.982 152.129 418.575C145.899 423.787 139.991 429.372 134.438 435.3C129.512 440.551 124.903 446.089 120.634 451.887C116.709 457.341 113.114 463.026 109.868 468.911C106.874 474.47 104.208 480.201 101.885 486.073C99.6964 491.837 97.8603 497.73 96.3869 503.718C95.0767 509.367 94.1087 515.09 93.4883 520.857C92.3131 532.476 92.7233 544.201 94.7075 555.709C95.6817 561.144 96.9566 566.52 98.5264 571.813C111.133 568.984 124.959 570.364 139.798 576.805C144.154 578.579 148.077 581.271 151.3 584.696C151.621 584.867 151.899 585.106 152.117 585.397C152.335 585.687 152.486 586.022 152.561 586.377C152.636 586.732 152.631 587.1 152.549 587.453C152.466 587.807 152.307 588.138 152.083 588.423C151.777 588.792 151.37 589.063 150.912 589.202C150.454 589.341 149.965 589.342 149.506 589.205C137.381 584.071 124.177 582.009 111.064 583.201C85.4824 585.685 66.7102 607.425 57.508 629.947C55.5296 634.756 53.6892 639.656 52.0558 644.602C51.3426 646.902 50.4684 649.203 49.7553 651.503C49.4414 652.834 48.9047 654.102 48.1679 655.253C54.8482 659.736 62.5424 662.48 70.552 663.236C71.9255 663.405 73.3106 663.458 74.693 663.397C74.7682 662.947 74.8681 662.502 74.992 662.063C75.8109 658.162 76.8869 654.319 78.2128 650.56C80.5969 643.413 84.5064 636.87 89.6705 631.384C94.8346 625.899 101.13 621.601 108.12 618.79C116.609 615.638 126.133 613.637 135.036 616.098C137.355 616.702 139.52 617.792 141.385 619.296L142.904 618.997C152.566 617.295 162.665 615.546 172.35 617.939C177.036 619.053 181.474 621.027 185.44 623.759C190.25 626.764 194.743 630.248 198.852 634.157C207.272 641.933 215.577 649.916 225.354 655.943C229.01 658.198 232.86 660.123 236.857 661.695C241.579 663.705 246.487 665.247 251.511 666.296C255.071 667.05 258.688 667.496 262.324 667.63C268.152 667.62 273.93 666.544 279.371 664.455C287.146 661.12 293.818 655.782 301.157 651.687C314.569 644.096 327.774 638.804 343.44 642.117C351.86 644.027 359.544 648.283 367.55 651.135C373.183 653.162 379.024 654.559 384.965 655.299C390.669 655.803 396.415 655.098 401.828 653.229C411.789 649.019 419.749 641.473 428.376 635.193C433.781 631.138 439.576 627.632 445.676 624.725C451.631 621.792 458.055 619.923 464.655 619.204C471.775 618.006 479.09 618.967 485.659 621.965C489.896 624.035 493.609 627.04 496.517 630.753C501.099 625.749 505.4 620.496 509.4 615.017C513.354 609.528 516.972 603.804 520.236 597.878C523.247 592.292 525.921 586.531 528.241 580.624C530.382 574.963 532.179 569.178 533.625 563.301C534.948 557.539 535.909 551.7 536.5 545.817H536.546ZM558.885 208.537C561.072 206.063 562.269 202.868 562.243 199.565C561.941 198.276 561.26 197.106 560.288 196.206C554.882 190.961 547.037 189.673 539.813 189.305C532.925 189.658 526.065 190.427 519.269 191.605C512.782 192.549 506.317 193.906 502.361 187.303C497.76 178.63 486.418 181.483 478.803 183.807C476.178 184.652 473.649 185.77 471.258 187.142C465.131 190.599 459.484 194.845 454.464 199.772C448.39 205.385 443.973 212.724 439.809 219.649C438.217 222.58 436.393 225.38 434.357 228.023C432.222 230.364 429.346 231.899 426.213 232.371C417.287 231.612 412.686 236.972 407.165 243.045C403.898 246.611 400.631 250.177 397.25 253.605C394.719 256.411 391.958 259.011 389.405 261.794C388.998 263.367 388.767 264.979 388.715 266.602C390.72 270.44 391.522 274.794 391.015 279.094C398.239 273.205 406.061 267.983 413.813 262.853C442.386 244.011 472.293 225.883 505.535 216.704C507.491 216.566 513.357 213.207 513.955 215.623C514.016 215.804 514.041 215.996 514.028 216.186C514.015 216.377 513.964 216.564 513.878 216.735C513.793 216.906 513.674 217.058 513.53 217.183C513.385 217.308 513.217 217.403 513.035 217.463C510.873 218.13 508.687 218.798 506.571 219.626C474.616 231.957 442.708 245.76 416.045 267.408C404.542 276.61 394.167 287.077 383.538 297.315C381.491 299.04 374.336 306.862 370.886 308.15C369.551 309.369 368.194 310.451 366.837 311.762C363.432 314.868 359.337 317.375 356.53 320.964C354.437 326.853 355.334 333.295 355.288 339.368C355.817 352.596 349.652 364.375 341.048 374.014C339.184 376.015 335.895 380.64 334.146 380.455C333.951 380.408 333.769 380.319 333.611 380.194C333.454 380.069 333.326 379.911 333.237 379.731C333.147 379.552 333.097 379.355 333.091 379.154C333.086 378.953 333.124 378.754 333.203 378.569C333.893 375.854 335.089 373.301 335.918 370.609C339.921 359.728 342.819 348.271 341.485 336.584C340.795 324.484 340.749 313.878 353.448 308.541C361.308 304.302 367.875 298.014 372.45 290.344C375.234 285.513 378.155 280.222 376.43 274.493C375.787 272.07 375.676 269.537 376.105 267.067C376.534 264.596 377.492 262.249 378.914 260.184C379.996 258.229 381.215 256.273 382.342 254.272C382.687 253.374 383.055 252.477 383.423 251.58C384.344 249.855 385.287 248.106 386.299 246.404C387.402 243.769 388.01 240.954 388.094 238.099C388.508 229.61 382.986 227.908 378.523 222.317C372.864 213.828 379.513 204.189 382.181 195.838C385.124 188.729 386.918 181.196 387.495 173.523C387.725 162.665 383.999 150.518 374.313 144.445C368.309 140.626 360.717 140.626 354.575 137.221C350.756 134.69 348.893 130.319 347.443 126.178C345.143 119.047 343.095 111.57 338.54 105.474C332.007 97.0308 321.999 90.2672 311.141 89.6001H309.623C312.215 92.991 314.414 96.6646 316.179 100.551C322.696 114.897 328.23 129.67 332.743 144.767C335.181 152.174 337.344 159.651 339 167.243C344.404 190.638 347.265 214.549 347.535 238.559C347.325 250.479 346.434 262.376 344.867 274.194C344.637 275.92 344.223 277.622 343.969 279.209C343.716 280.797 343.555 281.993 343.371 283.396C343.358 283.547 343.315 283.694 343.244 283.829C343.174 283.963 343.078 284.082 342.961 284.179C342.845 284.277 342.71 284.35 342.566 284.395C342.421 284.44 342.269 284.457 342.118 284.443C341.966 284.429 341.82 284.386 341.685 284.316C341.551 284.246 341.432 284.149 341.334 284.033C341.237 283.917 341.164 283.782 341.119 283.637C341.073 283.493 341.057 283.34 341.071 283.189C341.435 280.834 341.673 278.461 341.784 276.081C342.336 267.96 343.532 259.839 343.555 251.695C343.946 199.519 333.226 146.4 307.966 100.436C307.092 98.9172 306.218 97.4218 305.298 95.8345C304.348 94.4649 303.575 92.9808 302.997 91.4175C295.198 96.8467 296.763 111.662 296.901 120.795C297.706 127.329 295.957 136.094 287.906 136.278C283.305 136.922 279.9 141.27 278.496 145.48C274.333 160.732 287.699 176.583 291.932 190.731C293.772 196.805 287.929 200.945 286.525 206.375C285.028 215.171 285.587 224.195 288.159 232.739C289.682 238.627 291.778 244.352 294.416 249.832C294.499 250.079 294.56 250.333 294.6 250.591C300.535 251.409 306.078 254.02 310.489 258.073C314.9 262.127 317.969 267.43 319.285 273.274C322.391 285.099 319.814 297.499 321.585 309.507C322.137 314.891 324.668 319.745 326.854 324.622C330.396 333.134 333.318 342.635 332.398 351.929C333.084 354.73 333.088 357.655 332.407 360.458C331.726 363.261 330.382 365.858 328.487 368.033C327.363 369.43 326.132 370.737 324.806 371.944L324.507 372.611C323.449 374.773 323.058 378.983 319.906 378.799C316.478 377.741 319.906 371.322 319.308 368.562C319.359 363.236 319.005 357.914 318.25 352.642C318.039 344.984 316.481 337.422 313.649 330.304C310.106 323.011 306.747 315.604 306.609 307.299C304.999 291.448 311.21 268.19 293.036 260.046C287.584 258.413 281.533 263.474 276.932 258.551C273.251 255.008 272.009 249.74 270.353 245.07C266.028 232.486 262.554 219.511 256.734 207.502C251.534 197.817 243.874 196.851 234.602 201.728C232.961 202.373 231.207 202.681 229.444 202.633C227.681 202.586 225.946 202.184 224.342 201.452C212.84 195.861 202.418 188.04 190.593 183.047C178.006 177.289 164.379 174.15 150.541 173.822C139.545 173.431 132.781 175.64 127.697 186.038C120.795 194.527 103.726 191.145 92.9591 198.346C94.7766 198.346 96.594 198.346 98.3884 198.507C119.369 199.657 139.798 205.155 159.743 211.367C179.844 216.879 199.044 225.262 216.75 236.259C234.843 246.638 250.982 260.099 264.44 276.035C269.847 282.2 275.345 288.25 280.544 294.439C282.591 296.946 284.823 299.293 287.008 301.663C287.197 301.852 287.302 302.108 287.302 302.376C287.302 302.643 287.197 302.899 287.008 303.089C286.815 303.279 286.555 303.385 286.284 303.385C286.013 303.385 285.753 303.279 285.559 303.089C280.728 297.706 275.253 292.621 270.399 287.376C260.966 278.174 251.35 268.972 241.113 260.69C220.408 244.586 196.46 232.417 171.936 222.962C153.477 216.707 134.616 211.711 115.481 208.008C108.166 206.559 101.678 205.708 94.5695 204.787L89.0712 204.235L87.3919 204.074C81.8936 212.494 92.2 221.236 99.1476 225.377C105.497 229.978 116.655 230.783 118.242 239.847C118.978 253.213 125.535 257.907 137.635 261.61C143.088 263.681 150.472 262.577 154.176 267.914C157.029 273.55 157.719 280.705 163.217 284.662C174.306 291.77 188.132 294.071 201.153 294.37C208.422 294.669 214.519 293.427 221.052 293.657C233.268 297.199 221.559 308.587 233.061 314.361C243.529 320.78 256.066 319.308 267.868 319.146C273.28 318.946 278.671 319.932 283.662 322.034C288.653 324.136 293.124 327.304 296.763 331.316C307.736 339.253 314.707 352.021 310.244 365.571C308.232 371.221 305.585 376.623 302.353 381.675C301.886 382.658 301.273 383.565 300.536 384.366C307.65 387.022 315.02 388.934 322.529 390.072C332.09 391.416 341.816 391.027 351.239 388.921C353.149 388.53 355.058 388.116 356.944 387.679C355.864 386.244 354.858 384.755 353.931 383.216C348.409 374.911 350.963 364.076 355.817 356.07C358.012 352.119 360.78 348.514 364.03 345.372C369.411 340.235 376.106 336.684 383.377 335.112C396.237 332.052 409.787 335.112 422.486 331.5C425.335 330.921 428.026 329.736 430.377 328.027C430.883 327.589 431.619 327.267 431.665 326.531C430.198 324.528 429.214 322.214 428.79 319.768C428.654 318.068 429.135 316.377 430.145 315.004C431.154 313.631 432.625 312.667 434.288 312.291C435.816 312.103 437.361 312.103 438.889 312.291C440.428 312.253 441.963 312.138 443.49 311.946C454.414 310.318 464.832 306.253 473.972 300.052C476.572 297.951 478.565 295.196 479.746 292.069C480.302 289.797 480.263 287.42 479.631 285.168C479.048 283.296 479.062 281.288 479.672 279.424C480.282 277.561 481.458 275.934 483.036 274.769C485.174 273.633 487.524 272.951 489.938 272.768C492.647 272.268 495.315 271.568 497.921 270.674C505.509 267.941 512.696 264.204 519.292 259.563C521.424 257.933 523.459 256.182 525.389 254.318C526.979 252.966 528.212 251.244 528.978 249.303C529.438 247.669 528.426 246.082 527.919 244.701C527.069 242.579 526.085 240.512 524.975 238.513C523.957 236.717 523.593 234.623 523.945 232.589C524.298 230.554 525.344 228.705 526.907 227.356C530.473 224.227 535.511 222.893 539.721 221.075C546.784 218.153 553.961 214.542 558.885 208.537ZM603.607 616.144C600.202 612.141 597.372 607.563 593.254 604.228C592.495 603.353 590.954 603.169 590.287 602.341C580.023 608.012 568.074 609.84 556.584 607.494C551.56 606.531 546.77 604.601 542.482 601.812C542.294 601.969 542.118 602.138 541.953 602.318C536.949 605.925 532.606 610.369 529.116 615.454L528.196 616.973C534.891 620.78 541.951 623.908 549.268 626.313C562.059 630.293 576.092 628.728 588.377 624.012C593.682 621.857 598.78 619.224 603.607 616.144ZM612.556 828.023C612.395 827.609 612.234 827.195 612.05 826.78C610.872 824.254 609.487 821.831 607.909 819.534C605.15 815.26 601.34 811.767 596.843 809.388C592.426 806.916 587.72 805 582.833 803.683C578.442 802.471 573.942 801.7 569.398 801.383C564.322 801.252 559.244 801.537 554.214 802.234C540.674 804.113 527.537 808.217 515.336 814.381C502.108 820.914 491.226 830.99 480.667 841.09C466.104 854.686 450.139 873.297 430.262 878.151C428.388 878.613 426.48 878.928 424.557 879.094C423.041 879.326 421.491 879.144 420.071 878.565C413.629 881.418 406.705 882.913 400.033 885.122C393.266 887.324 387.143 891.156 382.204 896.279C373.002 907.299 371.668 924.254 381.077 935.549C386.805 941.531 395.11 943.67 402.955 945.35C408.536 946.491 414.197 947.199 419.887 947.466H422.716L424.143 947.144C457.822 937.091 485.222 912.636 508.595 887.33C522.099 871.595 534.2 854.594 549.544 840.538C557.09 833.406 565.395 826.734 575.195 822.893C587.48 818.153 603.86 818.844 612.556 828.092V828.023ZM614.856 847.278C614.639 847.112 614.472 846.889 614.373 846.634C612.74 841.527 610.968 836.213 606.62 832.716C599.949 826.619 590.195 826.366 581.775 828.115C574.05 829.96 566.86 833.575 560.771 838.674C541.746 853.881 527.827 874.033 512.092 892.207C499.992 905.962 486.509 918.435 471.856 929.43C462.013 936.936 451.232 943.123 439.786 947.834C461.457 947.834 483.128 947.236 504.776 946.983C518.418 946.523 532.221 947.121 545.725 944.912C549.314 944.268 552.213 941.83 555.296 940.012C557.596 938.609 559.736 937.183 561.944 935.71C584.65 920.527 600.501 896.785 609.565 871.296C612.334 863.572 614.089 855.522 614.787 847.347L614.856 847.278ZM646.235 473.282C643.675 471.527 640.701 470.469 637.608 470.211C634.514 469.953 631.407 470.503 628.59 471.809C614.304 476.778 610.324 487.591 607.886 496.31C614.855 494.824 622.024 494.513 629.097 495.39C629.704 493.282 630.586 491.263 631.719 489.385C635.301 483.046 640.233 477.571 646.166 473.351L646.235 473.282ZM686.748 498.818H687.944C687.507 497.345 687.047 495.896 686.541 494.47C683.343 482.806 675.337 479.769 664.019 481.426C651.826 484.255 648.283 490.513 642.624 499.186C646.008 500.703 649.118 502.771 651.826 505.305C653.754 507.22 655.495 509.316 657.025 511.562C658.957 509.975 661.028 508.549 662.684 507.352C669.534 501.913 678.001 498.91 686.748 498.818ZM706.233 549.176C707.429 542.274 708.143 535.235 705.75 528.609C701.448 515.887 691.648 510.435 678.719 514.806C673.881 517.073 669.395 520.025 665.399 523.571C664.649 524.507 663.774 525.335 662.799 526.033C663.306 529.149 663.306 532.326 662.799 535.442C662.275 539.512 660.634 543.358 658.06 546.553C658.704 547.704 659.555 549.498 659.832 549.935C660.468 551.355 661.239 552.71 662.132 553.984C662.995 554.798 663.962 555.494 665.008 556.055C670.435 558.22 676.468 558.318 681.963 556.331C685.524 555.221 688.969 553.765 692.246 551.983C695.122 550.05 694.04 553.409 693.649 554.95C691.938 560.247 688.428 564.779 683.725 567.758C679.023 570.737 673.427 571.976 667.906 571.261C663.23 571.148 658.699 569.613 654.917 566.859C651.136 564.105 648.284 560.264 646.742 555.848C646.742 555.548 646.535 555.226 646.442 554.904C643.972 555.833 641.387 556.421 638.759 556.653C634.301 556.985 629.823 556.366 625.623 554.835C621.279 553.593 617.347 551.21 614.235 547.934C612.069 546.03 610.104 543.91 608.369 541.607C607.927 540.864 607.757 539.991 607.888 539.137C608.019 538.282 608.443 537.5 609.087 536.924C609.731 536.348 610.556 536.013 611.419 535.978C612.283 535.942 613.132 536.208 613.821 536.73C615.408 537.717 617.06 538.593 618.767 539.353C621.068 540.066 623.368 540.595 625.83 541.101C628.797 541.676 631.834 541.952 634.825 542.228C637.51 542.461 640.208 541.951 642.624 540.756C648.237 538.272 649.111 533.256 648.26 527.666C647.439 524.616 646.101 521.729 644.303 519.131C642.6 516.843 640.461 514.915 638.009 513.458C635.557 512.001 632.841 511.044 630.017 510.642C622.096 509.028 613.892 509.496 606.206 512C592.173 516.716 580.049 527.758 585.502 543.609C588.653 552.282 595.992 560.058 603.423 565.326C607.668 568.095 612.195 570.409 616.927 572.227C618.694 572.73 620.328 573.618 621.712 574.827C622.563 576.23 620.493 577.357 619.411 577.795C615.373 578.929 611.112 579.009 607.034 578.025C602.95 577.317 599.014 575.925 595.394 573.907C594.78 577.892 595.595 581.966 597.694 585.409C604.596 598.269 619.158 605.7 633.445 606.482C638.046 606.482 641.611 605.953 644.533 603.261C640.318 601.664 636.57 599.039 633.629 595.624C629.28 590.433 626.574 584.067 625.853 577.334C625.646 575.793 626.359 572.894 628.406 573.654C629.649 574.321 630.224 575.701 631.098 576.736C641.496 590.125 649.387 594.174 666.388 591.184C686.564 586.675 702.253 569.053 706.233 549.268V549.176ZM721.21 530.174C722.366 537.667 722.077 545.312 720.358 552.696C720.358 552.696 720.358 552.811 720.358 552.857C714.492 580.647 689.623 605.332 660.407 605.769C659.486 605.769 658.589 605.769 657.669 605.769C657.48 606.308 657.233 606.825 656.933 607.31C655.646 609.624 654.144 611.812 652.447 613.844C645.798 620.975 634.894 621.896 625.807 620.078C624.196 619.825 622.609 619.48 621.022 619.089C617.272 624.541 607.219 630.983 603.4 633.145C591.01 639.909 577.069 643.319 562.956 643.037C547.428 642.278 531.002 636.136 520.328 624.449C517.889 627.716 515.351 630.906 512.713 634.019C500.958 647.805 487.401 659.946 472.408 670.115C457.939 679.968 442.451 688.237 426.213 694.776C411.61 700.709 396.493 705.29 381.054 708.464C383.732 715.847 385.186 723.618 385.356 731.47C385.532 737.944 385.109 744.421 384.091 750.817C383.866 752.736 383.466 754.631 382.894 756.476C390.003 766.599 396.697 777.066 403.024 787.626C409.051 798.047 415.953 808.146 420.692 819.212C421.566 819.028 422.44 818.844 423.315 818.706C436.198 816.106 450.76 817.348 461.043 826.228C463.622 828.558 465.542 831.526 466.61 834.832C476.292 824.573 486.991 815.323 498.542 807.226C519.246 793.929 548.463 785.118 573.171 787.119C587.641 788.776 602.756 794.021 613.683 803.821C618.162 808.445 621.881 813.748 624.702 819.534C626.423 823.126 627.624 826.945 628.268 830.875C630.244 842.368 629.631 854.157 626.474 865.383C617.111 900.719 595.118 933.341 563.371 952.136C559.793 954.656 555.932 956.749 551.868 958.371C537.099 962.051 521.616 960.924 506.525 961.545C476.986 961.867 447.401 963.087 417.862 962.051C406.182 961.566 394.659 959.181 383.746 954.989C378.036 952.526 372.962 948.797 368.907 944.084C363.102 936.491 359.935 927.209 359.889 917.651C359.767 905.274 364.557 893.353 373.209 884.501C374.405 883.396 375.625 882.315 376.867 881.28C374.654 877.085 373.71 872.337 374.152 867.615C374.887 859.885 377.719 852.504 382.342 846.266C381.173 844.341 379.866 842.503 378.431 840.768C369.643 828.345 361.43 815.462 352.412 803.246C350.71 800.83 348.985 798.461 347.259 796.068C326.969 812.448 300.95 818.153 275.092 819.925C275.092 828.368 269.363 835.706 262.715 840.63C264.739 842.93 266.626 845.415 268.581 847.784C277.061 847.307 285.56 848.255 293.726 850.591C302.611 853.323 310.856 857.815 317.97 863.798C325.084 869.782 330.921 877.135 335.135 885.421C340.014 895.62 341.821 907.018 340.335 918.226C335.296 956.139 286.364 954.851 257.033 955.035C223.422 953.401 177.526 949.859 158.225 918.226C146.722 899.707 144.744 877.323 142.743 856.112C141.178 830.415 141.891 801.544 158.639 780.517C163.675 774.747 170.463 770.787 177.964 769.244C179.44 769.022 180.934 768.93 182.427 768.968C185.628 761.6 190.934 755.342 197.679 750.978C195.862 750.265 194.067 749.621 192.227 749.023C189.198 747.869 186.037 747.096 182.818 746.722C181.759 746.722 180.701 746.722 179.62 746.722C177.232 746.831 174.841 746.614 172.511 746.078C164.69 744.882 164.068 738.394 170.004 733.862C180.977 722.751 192.457 721.761 207.157 720.795C212.081 720.251 216.819 718.606 221.021 715.982C225.222 713.357 228.779 709.821 231.428 705.635C229.518 705.129 227.609 704.531 225.722 703.932C217.855 701.463 210.117 698.649 202.51 695.489C187.3 689.195 172.758 681.396 159.099 672.208C144.771 662.594 131.689 651.243 120.151 638.413C117.805 635.791 115.504 633.099 113.25 630.339C111.915 630.983 110.604 631.696 109.339 632.455C105.749 634.653 102.566 637.455 99.9297 640.737C102.206 641.641 104.349 642.848 106.302 644.326C115.803 651.733 119.875 664.478 118.449 676.28C121.858 676.577 125.165 677.588 128.157 679.248C143.893 688.45 146.975 709.937 141.96 726.201C138.733 736.484 132.519 745.574 124.108 752.312C120.058 755.448 115.704 758.168 111.11 760.433C110.099 761.032 109.017 761.504 107.89 761.837C108.155 765.55 108.039 769.281 107.544 772.971C105.923 785.006 99.7072 795.946 90.1985 803.499C80.8814 810.562 69.2637 815.347 57.439 813.506C43.2908 811.206 32.5704 799.703 26.4279 787.303C25.3082 787.488 24.1659 787.488 23.0462 787.303C-0.741252 784.037 -9.32221 760.134 -5.48033 738.992C-5.78123 738.894 -6.07359 738.77 -6.35453 738.624C-9.07771 737.629 -11.4357 735.832 -13.1181 733.471C-18.9364 726.607 -22.0886 717.877 -21.9981 708.879C-22.0995 694.93 -17.9333 681.283 -10.0584 669.77C-6.90804 664.744 -2.87932 660.325 1.83534 656.726C4.64198 654.724 8.94396 651.848 12.8088 651.526C13.4247 648.936 14.3035 646.415 15.4314 644.004C17.9597 638.59 22.0655 634.067 27.2101 631.029C32.008 628.434 37.4299 627.215 42.8767 627.509C45.7833 619.79 49.5165 612.408 54.0112 605.493C62.7763 592.61 73.1286 582.787 84.7923 576.874C83.9871 574.298 83.2509 571.698 82.4917 569.076C80.3209 560.472 78.9577 551.684 78.4198 542.827C77.8592 533.46 78.1981 524.062 79.4321 514.76C80.5566 506.461 82.4119 498.278 84.9763 490.306C87.8108 481.336 91.4369 472.637 95.8118 464.31C100.13 456.13 105.092 448.307 110.65 440.913C121.818 426.18 134.98 413.072 149.759 401.965C164.639 390.776 180.757 381.336 197.794 373.83C205.938 370.195 214.266 366.928 222.732 364.237C231.198 361.545 239.802 359.038 248.498 357.059C263.135 353.741 277.999 351.518 292.967 350.411C289.927 344.862 285.594 340.127 280.337 336.607C275.394 334.048 270.02 332.426 264.486 331.822C251.856 330.327 239.181 328.74 227.057 324.254C217.855 321.493 213.392 314.361 212.932 305.067C206.628 304.423 200.279 304.837 193.975 304.561C182.822 304.18 171.781 302.197 161.193 298.672C150.702 294.945 143.387 284.685 141.638 273.918C125.397 266.787 106.624 262.807 104.278 241.872C95.5817 235.223 84.7693 230.691 78.8109 221.167C68.6196 207.18 75.2681 191.513 89.6694 183.991C95.3654 181.46 101.366 179.681 107.521 178.699C112.261 177.181 117.437 177.618 122.038 176.56C129.228 169.272 138.708 164.682 148.885 163.562C177.02 158.34 203.315 172.143 226.459 186.659C229.449 188.316 231.934 191.26 235.661 190.984C242.378 190.501 249.464 189.88 255.606 193.285C263.152 197.242 268.857 204.925 273.389 213.851C274.731 208.05 277.066 202.524 280.291 197.518C277.1 191.936 274.42 186.076 272.285 180.011C264.072 161.399 264.67 141.431 282.937 129.399C282.476 115.205 280.084 99.0782 288.619 86.7014C302.905 69.4475 328.694 81.0651 342.06 93.856C351.63 102.276 355.426 114.745 362.167 125.12C377.12 129.353 389.589 134.69 394.121 151.024C400.792 171.729 391.82 191.007 389.382 211.275C388.876 214.104 391.682 215.278 393.293 217.072C397.436 220.956 399.924 226.286 400.24 231.957C402.862 230.025 405.685 228.382 408.66 227.056C413.008 225.331 417.448 223.767 421.796 222.018C424.097 217.417 426.949 213.322 429.549 209.02C432.366 204.359 435.559 199.934 439.096 195.792C442.871 191.732 447.101 188.119 451.703 185.026C456.412 181.954 461.542 179.583 466.933 177.986C472.035 176.445 477.229 175.223 482.484 174.328C486.707 173.479 491.019 173.154 495.321 173.362C498.827 173.744 502.222 174.824 505.305 176.537C506.686 177.25 507.836 178.354 509.239 178.998C514.452 177.802 519.729 176.903 525.044 176.307C530.74 175.327 536.52 174.918 542.298 175.088C548.322 175.36 554.249 176.7 559.805 179.044C569.398 183.438 578.209 193.193 574.229 204.35C568.823 220.201 549.935 223.215 538.571 233.337C543.862 244.84 545.104 253.743 533.372 261.334C524.553 267.064 515.19 271.911 505.42 275.805C502.936 276.817 500.382 277.714 497.852 278.634C496.286 279.114 494.798 279.82 493.435 280.728C494.769 285.101 494.537 289.803 492.778 294.023C491.018 298.244 487.841 301.718 483.795 303.848C476.981 307.836 469.848 311.253 462.469 314.062C456.534 316.363 450.415 317.927 444.364 319.791C445.258 321.784 445.653 323.964 445.517 326.145C445.381 328.325 444.717 330.439 443.582 332.306C439.142 340.196 424.028 343.808 415.539 345.464C402.403 347.489 387.633 345.603 376.315 353.815C375.691 354.274 375.092 354.765 374.52 355.288L379.121 356.277L382.25 356.99C383.124 357.174 383.999 357.358 384.827 357.588C385.655 357.818 386.23 357.91 386.92 358.094C388.922 358.578 390.923 359.084 392.902 359.613C409.89 364.121 426.395 370.285 442.179 378.017C450.267 381.987 458.125 386.411 465.713 391.268C473.488 396.212 480.942 401.644 488.028 407.533C491.096 410.094 494.079 412.724 496.977 415.423C497.806 416.114 498.565 416.919 499.278 417.724L501.463 419.863C503.028 421.405 504.569 422.969 506.064 424.465C508.917 427.532 511.662 430.661 514.3 433.851C514.481 434.047 514.65 434.255 514.806 434.472C520.535 441.451 525.712 448.866 530.289 456.649C534.783 464.353 538.631 472.418 541.792 480.758C544.945 488.957 547.34 497.428 548.946 506.064C549.82 510.78 550.488 515.496 550.925 520.258C551.362 525.021 551.477 529.322 551.454 533.855C551.402 543.13 550.431 552.377 548.555 561.461C547.01 569.127 544.856 576.659 542.114 583.983C544.92 585.892 547.635 587.917 550.488 589.757C557.067 593.944 565.165 594.519 572.757 593.806C576.79 593.198 580.779 592.321 584.696 591.184C582.673 587.2 581.572 582.813 581.476 578.347C581.371 576.249 581.685 574.151 582.4 572.176C583.115 570.201 584.216 568.388 585.64 566.844C583.323 564.766 581.163 562.521 579.175 560.127C569.145 547.819 566.246 531.6 574.735 517.613C579.413 510.369 586.072 504.62 593.922 501.049C593.783 499.577 593.714 498.15 593.622 496.931C593.484 485.428 599.949 474.547 608.3 467.024C617.502 459.041 631.857 453.796 643.82 457.822C646.442 458.681 648.848 460.095 650.873 461.97C652.898 463.844 654.494 466.133 655.553 468.681C666.71 465 680.214 465.69 689.232 473.696C695.49 478.78 698.135 487.108 698.204 494.953C698.215 496.781 698.007 498.603 697.583 500.382C710.213 504.776 718.771 517.061 721.21 530.266V530.174Z" fill="#1B1818"/>
<path d="M345.143 498.818C345.349 501.112 345.395 503.418 345.281 505.719C345.281 507.467 345.12 509.216 344.959 510.941C344.959 511.539 344.959 512.184 344.959 512.828C344.959 513.472 344.821 514.323 344.729 515.128C344.729 515.335 344.729 515.542 344.614 515.726C344.614 516.509 344.361 517.268 344.2 518.027C343.28 522.283 341.554 526.907 337.528 529.115C335.708 530.128 333.574 530.423 331.547 529.944C331.006 529.799 330.482 529.598 329.983 529.345C327.961 528.289 326.213 526.777 324.875 524.928C322.734 522.118 321.078 518.968 319.975 515.611C318.488 511.25 317.599 506.707 317.33 502.107C317.123 498.025 317.238 493.933 317.675 489.868C317.843 488.076 318.151 486.299 318.595 484.554C319.003 482.936 319.647 481.385 320.504 479.953C320.905 479.222 321.383 478.535 321.931 477.906C322.678 477.005 323.563 476.229 324.553 475.605C326.392 474.508 328.569 474.123 330.673 474.524C332.665 475.066 334.522 476.016 336.126 477.316C337.73 478.615 339.046 480.234 339.99 482.07C341.692 484.941 342.978 488.039 343.809 491.272C344.461 493.746 344.907 496.27 345.143 498.818Z" fill="#1B1818"/>
<path d="M408.039 499.507C408.199 501.805 408.199 504.111 408.039 506.409C408.039 508.157 407.878 509.905 407.74 511.654C407.74 512.229 407.74 512.873 407.74 513.517C407.74 514.161 407.625 515.013 407.51 515.818C407.523 516.017 407.523 516.217 407.51 516.416C407.51 517.198 407.257 517.957 407.096 518.716C406.153 522.972 404.45 527.596 400.425 529.805C398.604 530.817 396.47 531.113 394.443 530.633C393.894 530.492 393.362 530.292 392.856 530.035C390.847 528.978 389.108 527.475 387.772 525.641C385.636 522.814 383.973 519.66 382.849 516.301C381.369 511.938 380.487 507.396 380.226 502.797C380.011 498.715 380.119 494.623 380.548 490.558C380.728 488.767 381.035 486.991 381.468 485.244C381.887 483.628 382.53 482.08 383.378 480.643C383.786 479.916 384.264 479.23 384.804 478.595C385.556 477.699 386.44 476.924 387.427 476.295C389.265 475.197 391.443 474.812 393.546 475.213C395.518 475.767 397.354 476.723 398.938 478.022C400.522 479.32 401.819 480.934 402.748 482.759C404.459 485.626 405.746 488.725 406.567 491.961C407.265 494.432 407.758 496.955 408.039 499.507Z" fill="#1B1818"/>
<path d="M445.146 511.745C445.35 512.704 445.299 513.699 444.997 514.632C444.696 515.564 444.154 516.401 443.427 517.058C442.7 517.715 441.813 518.169 440.855 518.376C439.897 518.582 438.901 518.533 437.968 518.233C436.404 517.635 434.863 516.945 433.367 516.231C433.367 517.612 433.367 519.015 433.482 520.395C433.506 524.179 433.206 527.958 432.585 531.691C431.888 535.997 430.731 540.215 429.134 544.275C428.237 546.575 427.271 548.876 426.167 550.992C425.102 553.1 423.927 555.15 422.647 557.135C417.344 565.544 410.366 572.772 402.149 578.369C400.999 579.151 399.849 579.887 398.652 580.669C394.56 583.134 390.247 585.213 385.77 586.881C381.046 588.588 376.158 589.798 371.184 590.492C368.136 590.927 365.061 591.142 361.982 591.136C355.213 591.083 348.476 590.203 341.921 588.514C337.083 587.372 332.38 585.722 327.888 583.591C323.503 581.434 319.4 578.745 315.672 575.585C308.386 569.456 302.369 561.961 297.958 553.523C294.994 547.857 292.988 541.739 292.023 535.418C291.77 533.784 291.563 532.128 291.425 530.472C289.935 531.444 288.156 531.875 286.387 531.691C285.074 531.44 283.914 530.679 283.16 529.576C282.406 528.473 282.118 527.116 282.361 525.802C282.658 524.361 283.26 523 284.124 521.81C284.989 520.62 286.098 519.628 287.376 518.9C291.77 515.702 297.291 512.965 302.859 513.931C309.599 515.449 300.788 521.845 298.626 523.846C297.314 525.065 295.911 526.147 294.6 527.458C294.876 528.562 295.175 529.758 295.474 530.748C296.377 533.678 297.437 536.558 298.649 539.375C300.137 542.705 301.804 545.954 303.641 549.106C305.206 551.645 306.911 554.095 308.748 556.445C310.299 558.384 311.958 560.235 313.717 561.989C315.746 563.945 317.881 565.788 320.113 567.51C322.863 569.53 325.728 571.389 328.693 573.077C331.797 574.84 335 576.423 338.287 577.816C340.657 578.72 343.076 579.488 345.533 580.117C347.557 580.623 349.608 581.015 351.676 581.29C354.548 581.608 357.436 581.754 360.326 581.727C363.274 581.636 366.216 581.383 369.137 580.968C372.119 580.508 375.069 579.862 377.971 579.036C380.71 578.231 383.399 577.263 386.023 576.137C388.383 575.086 390.687 573.911 392.924 572.617C395.258 571.215 397.508 569.678 399.665 568.016C401.758 566.31 403.762 564.498 405.669 562.587C407.578 560.617 409.368 558.535 411.029 556.353C412.595 554.264 414.032 552.083 415.331 549.819C418.296 544.602 420.541 539.006 422.003 533.186C422.463 531.415 422.877 529.643 423.199 527.849C423.521 526.055 423.705 524.743 423.889 523.248C424.073 521.753 424.28 519.636 424.326 517.819C424.326 516.737 424.326 515.656 424.326 514.575C424.361 513.928 424.43 513.283 424.533 512.643V512.62C422.66 511.861 420.859 510.937 419.15 509.859C415.308 507.558 419.794 504.177 422.463 503.486C427.528 502.188 432.899 502.888 437.462 505.442C440.407 506.845 444.272 508.134 445.146 511.745Z" fill="#1B1818"/>
<path d="M317.237 502.014C316.856 496.054 317.297 490.07 318.549 484.23C324.093 485.611 335.319 490.327 331.685 497.689C329.223 501.714 321.723 502.934 317.306 503.095L317.237 502.014Z" fill="white"/>
<path d="M380.456 490.512C380.635 488.721 380.943 486.945 381.376 485.198L381.652 484.277C398.906 486.785 397.387 501.83 380.087 501.899C379.945 498.1 380.068 494.294 380.456 490.512Z" fill="white"/>
</g>
</svg>
